G04 #@! TF.GenerationSoftware,KiCad,Pcbnew,8.0.0*
G04 #@! TF.CreationDate,2025-07-24T19:22:06+01:00*
G04 #@! TF.ProjectId,MidiToCvConnectors,4d696469-546f-4437-9643-6f6e6e656374,1_0*
G04 #@! TF.SameCoordinates,Original*
G04 #@! TF.FileFunction,Legend,Top*
G04 #@! TF.FilePolarity,Positive*
%FSLAX46Y46*%
G04 Gerber Fmt 4.6, Leading zero omitted, Abs format (unit mm)*
G04 Created by KiCad (PCBNEW 8.0.0) date 2025-07-24 19:22:06*
%MOMM*%
%LPD*%
G01*
G04 APERTURE LIST*
G04 Aperture macros list*
%AMRoundRect*
0 Rectangle with rounded corners*
0 $1 Rounding radius*
0 $2 $3 $4 $5 $6 $7 $8 $9 X,Y pos of 4 corners*
0 Add a 4 corners polygon primitive as box body*
4,1,4,$2,$3,$4,$5,$6,$7,$8,$9,$2,$3,0*
0 Add four circle primitives for the rounded corners*
1,1,$1+$1,$2,$3*
1,1,$1+$1,$4,$5*
1,1,$1+$1,$6,$7*
1,1,$1+$1,$8,$9*
0 Add four rect primitives between the rounded corners*
20,1,$1+$1,$2,$3,$4,$5,0*
20,1,$1+$1,$4,$5,$6,$7,0*
20,1,$1+$1,$6,$7,$8,$9,0*
20,1,$1+$1,$8,$9,$2,$3,0*%
%AMHorizOval*
0 Thick line with rounded ends*
0 $1 width*
0 $2 $3 position (X,Y) of the first rounded end (center of the circle)*
0 $4 $5 position (X,Y) of the second rounded end (center of the circle)*
0 Add line between two ends*
20,1,$1,$2,$3,$4,$5,0*
0 Add two circle primitives to create the rounded ends*
1,1,$1,$2,$3*
1,1,$1,$4,$5*%
G04 Aperture macros list end*
%ADD10C,0.150000*%
%ADD11C,0.200000*%
%ADD12C,0.120000*%
%ADD13O,3.100000X2.100000*%
%ADD14RoundRect,0.650000X-0.650000X-0.650000X0.650000X-0.650000X0.650000X0.650000X-0.650000X0.650000X0*%
%ADD15HorizOval,1.600000X0.692820X0.400000X-0.692820X-0.400000X0*%
%ADD16HorizOval,1.600000X-0.400000X0.692820X0.400000X-0.692820X0*%
%ADD17HorizOval,1.600000X0.772741X-0.207055X-0.772741X0.207055X0*%
%ADD18HorizOval,1.600000X0.207055X0.772741X-0.207055X-0.772741X0*%
%ADD19RoundRect,0.250000X-0.550000X-0.550000X0.550000X-0.550000X0.550000X0.550000X-0.550000X0.550000X0*%
%ADD20C,1.600000*%
%ADD21R,1.700000X1.700000*%
%ADD22O,1.700000X1.700000*%
G04 APERTURE END LIST*
D10*
X44156666Y-117749819D02*
X44156666Y-118464104D01*
X44156666Y-118464104D02*
X44109047Y-118606961D01*
X44109047Y-118606961D02*
X44013809Y-118702200D01*
X44013809Y-118702200D02*
X43870952Y-118749819D01*
X43870952Y-118749819D02*
X43775714Y-118749819D01*
X44680476Y-118749819D02*
X44870952Y-118749819D01*
X44870952Y-118749819D02*
X44966190Y-118702200D01*
X44966190Y-118702200D02*
X45013809Y-118654580D01*
X45013809Y-118654580D02*
X45109047Y-118511723D01*
X45109047Y-118511723D02*
X45156666Y-118321247D01*
X45156666Y-118321247D02*
X45156666Y-117940295D01*
X45156666Y-117940295D02*
X45109047Y-117845057D01*
X45109047Y-117845057D02*
X45061428Y-117797438D01*
X45061428Y-117797438D02*
X44966190Y-117749819D01*
X44966190Y-117749819D02*
X44775714Y-117749819D01*
X44775714Y-117749819D02*
X44680476Y-117797438D01*
X44680476Y-117797438D02*
X44632857Y-117845057D01*
X44632857Y-117845057D02*
X44585238Y-117940295D01*
X44585238Y-117940295D02*
X44585238Y-118178390D01*
X44585238Y-118178390D02*
X44632857Y-118273628D01*
X44632857Y-118273628D02*
X44680476Y-118321247D01*
X44680476Y-118321247D02*
X44775714Y-118368866D01*
X44775714Y-118368866D02*
X44966190Y-118368866D01*
X44966190Y-118368866D02*
X45061428Y-118321247D01*
X45061428Y-118321247D02*
X45109047Y-118273628D01*
X45109047Y-118273628D02*
X45156666Y-118178390D01*
X30186666Y-99969819D02*
X30186666Y-100684104D01*
X30186666Y-100684104D02*
X30139047Y-100826961D01*
X30139047Y-100826961D02*
X30043809Y-100922200D01*
X30043809Y-100922200D02*
X29900952Y-100969819D01*
X29900952Y-100969819D02*
X29805714Y-100969819D01*
X31091428Y-99969819D02*
X30900952Y-99969819D01*
X30900952Y-99969819D02*
X30805714Y-100017438D01*
X30805714Y-100017438D02*
X30758095Y-100065057D01*
X30758095Y-100065057D02*
X30662857Y-100207914D01*
X30662857Y-100207914D02*
X30615238Y-100398390D01*
X30615238Y-100398390D02*
X30615238Y-100779342D01*
X30615238Y-100779342D02*
X30662857Y-100874580D01*
X30662857Y-100874580D02*
X30710476Y-100922200D01*
X30710476Y-100922200D02*
X30805714Y-100969819D01*
X30805714Y-100969819D02*
X30996190Y-100969819D01*
X30996190Y-100969819D02*
X31091428Y-100922200D01*
X31091428Y-100922200D02*
X31139047Y-100874580D01*
X31139047Y-100874580D02*
X31186666Y-100779342D01*
X31186666Y-100779342D02*
X31186666Y-100541247D01*
X31186666Y-100541247D02*
X31139047Y-100446009D01*
X31139047Y-100446009D02*
X31091428Y-100398390D01*
X31091428Y-100398390D02*
X30996190Y-100350771D01*
X30996190Y-100350771D02*
X30805714Y-100350771D01*
X30805714Y-100350771D02*
X30710476Y-100398390D01*
X30710476Y-100398390D02*
X30662857Y-100446009D01*
X30662857Y-100446009D02*
X30615238Y-100541247D01*
X44156666Y-99969819D02*
X44156666Y-100684104D01*
X44156666Y-100684104D02*
X44109047Y-100826961D01*
X44109047Y-100826961D02*
X44013809Y-100922200D01*
X44013809Y-100922200D02*
X43870952Y-100969819D01*
X43870952Y-100969819D02*
X43775714Y-100969819D01*
X44537619Y-99969819D02*
X45204285Y-99969819D01*
X45204285Y-99969819D02*
X44775714Y-100969819D01*
X30186666Y-82189819D02*
X30186666Y-82904104D01*
X30186666Y-82904104D02*
X30139047Y-83046961D01*
X30139047Y-83046961D02*
X30043809Y-83142200D01*
X30043809Y-83142200D02*
X29900952Y-83189819D01*
X29900952Y-83189819D02*
X29805714Y-83189819D01*
X31091428Y-82523152D02*
X31091428Y-83189819D01*
X30853333Y-82142200D02*
X30615238Y-82856485D01*
X30615238Y-82856485D02*
X31234285Y-82856485D01*
X44156666Y-82189819D02*
X44156666Y-82904104D01*
X44156666Y-82904104D02*
X44109047Y-83046961D01*
X44109047Y-83046961D02*
X44013809Y-83142200D01*
X44013809Y-83142200D02*
X43870952Y-83189819D01*
X43870952Y-83189819D02*
X43775714Y-83189819D01*
X45109047Y-82189819D02*
X44632857Y-82189819D01*
X44632857Y-82189819D02*
X44585238Y-82666009D01*
X44585238Y-82666009D02*
X44632857Y-82618390D01*
X44632857Y-82618390D02*
X44728095Y-82570771D01*
X44728095Y-82570771D02*
X44966190Y-82570771D01*
X44966190Y-82570771D02*
X45061428Y-82618390D01*
X45061428Y-82618390D02*
X45109047Y-82666009D01*
X45109047Y-82666009D02*
X45156666Y-82761247D01*
X45156666Y-82761247D02*
X45156666Y-82999342D01*
X45156666Y-82999342D02*
X45109047Y-83094580D01*
X45109047Y-83094580D02*
X45061428Y-83142200D01*
X45061428Y-83142200D02*
X44966190Y-83189819D01*
X44966190Y-83189819D02*
X44728095Y-83189819D01*
X44728095Y-83189819D02*
X44632857Y-83142200D01*
X44632857Y-83142200D02*
X44585238Y-83094580D01*
X29710476Y-135529819D02*
X29710476Y-136244104D01*
X29710476Y-136244104D02*
X29662857Y-136386961D01*
X29662857Y-136386961D02*
X29567619Y-136482200D01*
X29567619Y-136482200D02*
X29424762Y-136529819D01*
X29424762Y-136529819D02*
X29329524Y-136529819D01*
X30710476Y-136529819D02*
X30139048Y-136529819D01*
X30424762Y-136529819D02*
X30424762Y-135529819D01*
X30424762Y-135529819D02*
X30329524Y-135672676D01*
X30329524Y-135672676D02*
X30234286Y-135767914D01*
X30234286Y-135767914D02*
X30139048Y-135815533D01*
X31329524Y-135529819D02*
X31424762Y-135529819D01*
X31424762Y-135529819D02*
X31520000Y-135577438D01*
X31520000Y-135577438D02*
X31567619Y-135625057D01*
X31567619Y-135625057D02*
X31615238Y-135720295D01*
X31615238Y-135720295D02*
X31662857Y-135910771D01*
X31662857Y-135910771D02*
X31662857Y-136148866D01*
X31662857Y-136148866D02*
X31615238Y-136339342D01*
X31615238Y-136339342D02*
X31567619Y-136434580D01*
X31567619Y-136434580D02*
X31520000Y-136482200D01*
X31520000Y-136482200D02*
X31424762Y-136529819D01*
X31424762Y-136529819D02*
X31329524Y-136529819D01*
X31329524Y-136529819D02*
X31234286Y-136482200D01*
X31234286Y-136482200D02*
X31186667Y-136434580D01*
X31186667Y-136434580D02*
X31139048Y-136339342D01*
X31139048Y-136339342D02*
X31091429Y-136148866D01*
X31091429Y-136148866D02*
X31091429Y-135910771D01*
X31091429Y-135910771D02*
X31139048Y-135720295D01*
X31139048Y-135720295D02*
X31186667Y-135625057D01*
X31186667Y-135625057D02*
X31234286Y-135577438D01*
X31234286Y-135577438D02*
X31329524Y-135529819D01*
X39671666Y-62454819D02*
X39671666Y-63169104D01*
X39671666Y-63169104D02*
X39624047Y-63311961D01*
X39624047Y-63311961D02*
X39528809Y-63407200D01*
X39528809Y-63407200D02*
X39385952Y-63454819D01*
X39385952Y-63454819D02*
X39290714Y-63454819D01*
X40671666Y-63454819D02*
X40100238Y-63454819D01*
X40385952Y-63454819D02*
X40385952Y-62454819D01*
X40385952Y-62454819D02*
X40290714Y-62597676D01*
X40290714Y-62597676D02*
X40195476Y-62692914D01*
X40195476Y-62692914D02*
X40100238Y-62740533D01*
X30186666Y-117749819D02*
X30186666Y-118464104D01*
X30186666Y-118464104D02*
X30139047Y-118606961D01*
X30139047Y-118606961D02*
X30043809Y-118702200D01*
X30043809Y-118702200D02*
X29900952Y-118749819D01*
X29900952Y-118749819D02*
X29805714Y-118749819D01*
X30805714Y-118178390D02*
X30710476Y-118130771D01*
X30710476Y-118130771D02*
X30662857Y-118083152D01*
X30662857Y-118083152D02*
X30615238Y-117987914D01*
X30615238Y-117987914D02*
X30615238Y-117940295D01*
X30615238Y-117940295D02*
X30662857Y-117845057D01*
X30662857Y-117845057D02*
X30710476Y-117797438D01*
X30710476Y-117797438D02*
X30805714Y-117749819D01*
X30805714Y-117749819D02*
X30996190Y-117749819D01*
X30996190Y-117749819D02*
X31091428Y-117797438D01*
X31091428Y-117797438D02*
X31139047Y-117845057D01*
X31139047Y-117845057D02*
X31186666Y-117940295D01*
X31186666Y-117940295D02*
X31186666Y-117987914D01*
X31186666Y-117987914D02*
X31139047Y-118083152D01*
X31139047Y-118083152D02*
X31091428Y-118130771D01*
X31091428Y-118130771D02*
X30996190Y-118178390D01*
X30996190Y-118178390D02*
X30805714Y-118178390D01*
X30805714Y-118178390D02*
X30710476Y-118226009D01*
X30710476Y-118226009D02*
X30662857Y-118273628D01*
X30662857Y-118273628D02*
X30615238Y-118368866D01*
X30615238Y-118368866D02*
X30615238Y-118559342D01*
X30615238Y-118559342D02*
X30662857Y-118654580D01*
X30662857Y-118654580D02*
X30710476Y-118702200D01*
X30710476Y-118702200D02*
X30805714Y-118749819D01*
X30805714Y-118749819D02*
X30996190Y-118749819D01*
X30996190Y-118749819D02*
X31091428Y-118702200D01*
X31091428Y-118702200D02*
X31139047Y-118654580D01*
X31139047Y-118654580D02*
X31186666Y-118559342D01*
X31186666Y-118559342D02*
X31186666Y-118368866D01*
X31186666Y-118368866D02*
X31139047Y-118273628D01*
X31139047Y-118273628D02*
X31091428Y-118226009D01*
X31091428Y-118226009D02*
X30996190Y-118178390D01*
X43680476Y-135529819D02*
X43680476Y-136244104D01*
X43680476Y-136244104D02*
X43632857Y-136386961D01*
X43632857Y-136386961D02*
X43537619Y-136482200D01*
X43537619Y-136482200D02*
X43394762Y-136529819D01*
X43394762Y-136529819D02*
X43299524Y-136529819D01*
X44680476Y-136529819D02*
X44109048Y-136529819D01*
X44394762Y-136529819D02*
X44394762Y-135529819D01*
X44394762Y-135529819D02*
X44299524Y-135672676D01*
X44299524Y-135672676D02*
X44204286Y-135767914D01*
X44204286Y-135767914D02*
X44109048Y-135815533D01*
X45632857Y-136529819D02*
X45061429Y-136529819D01*
X45347143Y-136529819D02*
X45347143Y-135529819D01*
X45347143Y-135529819D02*
X45251905Y-135672676D01*
X45251905Y-135672676D02*
X45156667Y-135767914D01*
X45156667Y-135767914D02*
X45061429Y-135815533D01*
X39195476Y-49524819D02*
X39195476Y-50239104D01*
X39195476Y-50239104D02*
X39147857Y-50381961D01*
X39147857Y-50381961D02*
X39052619Y-50477200D01*
X39052619Y-50477200D02*
X38909762Y-50524819D01*
X38909762Y-50524819D02*
X38814524Y-50524819D01*
X40195476Y-50524819D02*
X39624048Y-50524819D01*
X39909762Y-50524819D02*
X39909762Y-49524819D01*
X39909762Y-49524819D02*
X39814524Y-49667676D01*
X39814524Y-49667676D02*
X39719286Y-49762914D01*
X39719286Y-49762914D02*
X39624048Y-49810533D01*
X40576429Y-49620057D02*
X40624048Y-49572438D01*
X40624048Y-49572438D02*
X40719286Y-49524819D01*
X40719286Y-49524819D02*
X40957381Y-49524819D01*
X40957381Y-49524819D02*
X41052619Y-49572438D01*
X41052619Y-49572438D02*
X41100238Y-49620057D01*
X41100238Y-49620057D02*
X41147857Y-49715295D01*
X41147857Y-49715295D02*
X41147857Y-49810533D01*
X41147857Y-49810533D02*
X41100238Y-49953390D01*
X41100238Y-49953390D02*
X40528810Y-50524819D01*
X40528810Y-50524819D02*
X41147857Y-50524819D01*
D11*
X42490000Y-119095000D02*
X45390000Y-119095000D01*
X42490000Y-129595000D02*
X42490000Y-119095000D01*
X42490000Y-129595000D02*
X45490000Y-129595000D01*
X48490000Y-129595000D02*
X51490000Y-129595000D01*
X48590000Y-119095000D02*
X51490000Y-119095000D01*
X51490000Y-129595000D02*
X51490000Y-119095000D01*
D12*
X45693737Y-127683576D02*
G75*
G02*
X46990000Y-122200000I1296263J2588576D01*
G01*
X46990000Y-122200000D02*
G75*
G02*
X48286263Y-127683576I0J-2895000D01*
G01*
X48790000Y-125095000D02*
G75*
G02*
X45190000Y-125095000I-1800000J0D01*
G01*
X45190000Y-125095000D02*
G75*
G02*
X48790000Y-125095000I1800000J0D01*
G01*
D11*
X28520000Y-101315000D02*
X31420000Y-101315000D01*
X28520000Y-111815000D02*
X28520000Y-101315000D01*
X28520000Y-111815000D02*
X31520000Y-111815000D01*
X34520000Y-111815000D02*
X37520000Y-111815000D01*
X34620000Y-101315000D02*
X37520000Y-101315000D01*
X37520000Y-111815000D02*
X37520000Y-101315000D01*
D12*
X31723737Y-109903576D02*
G75*
G02*
X33020000Y-104420000I1296263J2588576D01*
G01*
X33020000Y-104420000D02*
G75*
G02*
X34316263Y-109903576I0J-2895000D01*
G01*
X34820000Y-107315000D02*
G75*
G02*
X31220000Y-107315000I-1800000J0D01*
G01*
X31220000Y-107315000D02*
G75*
G02*
X34820000Y-107315000I1800000J0D01*
G01*
D11*
X42490000Y-101315000D02*
X45390000Y-101315000D01*
X42490000Y-111815000D02*
X42490000Y-101315000D01*
X42490000Y-111815000D02*
X45490000Y-111815000D01*
X48490000Y-111815000D02*
X51490000Y-111815000D01*
X48590000Y-101315000D02*
X51490000Y-101315000D01*
X51490000Y-111815000D02*
X51490000Y-101315000D01*
D12*
X45693737Y-109903576D02*
G75*
G02*
X46990000Y-104420000I1296263J2588576D01*
G01*
X46990000Y-104420000D02*
G75*
G02*
X48286263Y-109903576I0J-2895000D01*
G01*
X48790000Y-107315000D02*
G75*
G02*
X45190000Y-107315000I-1800000J0D01*
G01*
X45190000Y-107315000D02*
G75*
G02*
X48790000Y-107315000I1800000J0D01*
G01*
D11*
X28520000Y-83535000D02*
X31420000Y-83535000D01*
X28520000Y-94035000D02*
X28520000Y-83535000D01*
X28520000Y-94035000D02*
X31520000Y-94035000D01*
X34520000Y-94035000D02*
X37520000Y-94035000D01*
X34620000Y-83535000D02*
X37520000Y-83535000D01*
X37520000Y-94035000D02*
X37520000Y-83535000D01*
D12*
X31723737Y-92123576D02*
G75*
G02*
X33020000Y-86640000I1296263J2588576D01*
G01*
X33020000Y-86640000D02*
G75*
G02*
X34316263Y-92123576I0J-2895000D01*
G01*
X34820000Y-89535000D02*
G75*
G02*
X31220000Y-89535000I-1800000J0D01*
G01*
X31220000Y-89535000D02*
G75*
G02*
X34820000Y-89535000I1800000J0D01*
G01*
D11*
X42490000Y-83535000D02*
X45390000Y-83535000D01*
X42490000Y-94035000D02*
X42490000Y-83535000D01*
X42490000Y-94035000D02*
X45490000Y-94035000D01*
X48490000Y-94035000D02*
X51490000Y-94035000D01*
X48590000Y-83535000D02*
X51490000Y-83535000D01*
X51490000Y-94035000D02*
X51490000Y-83535000D01*
D12*
X45693737Y-92123576D02*
G75*
G02*
X46990000Y-86640000I1296263J2588576D01*
G01*
X46990000Y-86640000D02*
G75*
G02*
X48286263Y-92123576I0J-2895000D01*
G01*
X48790000Y-89535000D02*
G75*
G02*
X45190000Y-89535000I-1800000J0D01*
G01*
X45190000Y-89535000D02*
G75*
G02*
X48790000Y-89535000I1800000J0D01*
G01*
D11*
X28520000Y-136875000D02*
X31420000Y-136875000D01*
X28520000Y-147375000D02*
X28520000Y-136875000D01*
X28520000Y-147375000D02*
X31520000Y-147375000D01*
X34520000Y-147375000D02*
X37520000Y-147375000D01*
X34620000Y-136875000D02*
X37520000Y-136875000D01*
X37520000Y-147375000D02*
X37520000Y-136875000D01*
D12*
X31723737Y-145463576D02*
G75*
G02*
X33020000Y-139980000I1296263J2588576D01*
G01*
X33020000Y-139980000D02*
G75*
G02*
X34316263Y-145463576I0J-2895000D01*
G01*
X34820000Y-142875000D02*
G75*
G02*
X31220000Y-142875000I-1800000J0D01*
G01*
X31220000Y-142875000D02*
G75*
G02*
X34820000Y-142875000I1800000J0D01*
G01*
D11*
X28520000Y-119095000D02*
X31420000Y-119095000D01*
X28520000Y-129595000D02*
X28520000Y-119095000D01*
X28520000Y-129595000D02*
X31520000Y-129595000D01*
X34520000Y-129595000D02*
X37520000Y-129595000D01*
X34620000Y-119095000D02*
X37520000Y-119095000D01*
X37520000Y-129595000D02*
X37520000Y-119095000D01*
D12*
X31723737Y-127683576D02*
G75*
G02*
X33020000Y-122200000I1296263J2588576D01*
G01*
X33020000Y-122200000D02*
G75*
G02*
X34316263Y-127683576I0J-2895000D01*
G01*
X34820000Y-125095000D02*
G75*
G02*
X31220000Y-125095000I-1800000J0D01*
G01*
X31220000Y-125095000D02*
G75*
G02*
X34820000Y-125095000I1800000J0D01*
G01*
D11*
X42490000Y-136875000D02*
X45390000Y-136875000D01*
X42490000Y-147375000D02*
X42490000Y-136875000D01*
X42490000Y-147375000D02*
X45490000Y-147375000D01*
X48490000Y-147375000D02*
X51490000Y-147375000D01*
X48590000Y-136875000D02*
X51490000Y-136875000D01*
X51490000Y-147375000D02*
X51490000Y-136875000D01*
D12*
X45693737Y-145463576D02*
G75*
G02*
X46990000Y-139980000I1296263J2588576D01*
G01*
X46990000Y-139980000D02*
G75*
G02*
X48286263Y-145463576I0J-2895000D01*
G01*
X48790000Y-142875000D02*
G75*
G02*
X45190000Y-142875000I-1800000J0D01*
G01*
X45190000Y-142875000D02*
G75*
G02*
X48790000Y-142875000I1800000J0D01*
G01*
%LPC*%
D13*
X46990000Y-131575000D03*
D14*
X46990000Y-120175000D03*
X46990000Y-128475000D03*
D13*
X33020000Y-113795000D03*
D14*
X33020000Y-102395000D03*
X33020000Y-110695000D03*
D13*
X46990000Y-113795000D03*
D14*
X46990000Y-102395000D03*
X46990000Y-110695000D03*
D13*
X33020000Y-96015000D03*
D14*
X33020000Y-84615000D03*
X33020000Y-92915000D03*
D13*
X46990000Y-96015000D03*
D14*
X46990000Y-84615000D03*
X46990000Y-92915000D03*
D13*
X33020000Y-149355000D03*
D14*
X33020000Y-137955000D03*
X33020000Y-146255000D03*
D15*
X36195000Y-63500000D03*
D16*
X40005000Y-59625000D03*
D15*
X43880000Y-63500000D03*
D17*
X37265000Y-60760000D03*
D18*
X42745000Y-60760000D03*
D13*
X33020000Y-131575000D03*
D14*
X33020000Y-120175000D03*
X33020000Y-128475000D03*
D13*
X46990000Y-149355000D03*
D14*
X46990000Y-137955000D03*
X46990000Y-146255000D03*
D19*
X38205000Y-52070000D03*
D20*
X41805000Y-52070000D03*
D21*
X48895000Y-152400000D03*
D22*
X46355000Y-152400000D03*
X43815000Y-152400000D03*
X41275000Y-152400000D03*
X38735000Y-152400000D03*
X36195000Y-152400000D03*
X33655000Y-152400000D03*
X31115000Y-152400000D03*
D21*
X31115000Y-45720000D03*
D22*
X33655000Y-45720000D03*
X36195000Y-45720000D03*
X38735000Y-45720000D03*
X41275000Y-45720000D03*
X43815000Y-45720000D03*
X46355000Y-45720000D03*
X48895000Y-45720000D03*
%LPD*%
M02*
