G04 #@! TF.GenerationSoftware,KiCad,Pcbnew,8.0.0*
G04 #@! TF.CreationDate,2025-07-24T19:22:06+01:00*
G04 #@! TF.ProjectId,MidiToCvConnectors,4d696469-546f-4437-9643-6f6e6e656374,1_0*
G04 #@! TF.SameCoordinates,Original*
G04 #@! TF.FileFunction,Copper,L2,Bot*
G04 #@! TF.FilePolarity,Positive*
%FSLAX46Y46*%
G04 Gerber Fmt 4.6, Leading zero omitted, Abs format (unit mm)*
G04 Created by KiCad (PCBNEW 8.0.0) date 2025-07-24 19:22:06*
%MOMM*%
%LPD*%
G01*
G04 APERTURE LIST*
G04 Aperture macros list*
%AMRoundRect*
0 Rectangle with rounded corners*
0 $1 Rounding radius*
0 $2 $3 $4 $5 $6 $7 $8 $9 X,Y pos of 4 corners*
0 Add a 4 corners polygon primitive as box body*
4,1,4,$2,$3,$4,$5,$6,$7,$8,$9,$2,$3,0*
0 Add four circle primitives for the rounded corners*
1,1,$1+$1,$2,$3*
1,1,$1+$1,$4,$5*
1,1,$1+$1,$6,$7*
1,1,$1+$1,$8,$9*
0 Add four rect primitives between the rounded corners*
20,1,$1+$1,$2,$3,$4,$5,0*
20,1,$1+$1,$4,$5,$6,$7,0*
20,1,$1+$1,$6,$7,$8,$9,0*
20,1,$1+$1,$8,$9,$2,$3,0*%
%AMHorizOval*
0 Thick line with rounded ends*
0 $1 width*
0 $2 $3 position (X,Y) of the first rounded end (center of the circle)*
0 $4 $5 position (X,Y) of the second rounded end (center of the circle)*
0 Add line between two ends*
20,1,$1,$2,$3,$4,$5,0*
0 Add two circle primitives to create the rounded ends*
1,1,$1,$2,$3*
1,1,$1,$4,$5*%
G04 Aperture macros list end*
G04 #@! TA.AperFunction,ComponentPad*
%ADD10O,3.100000X2.100000*%
G04 #@! TD*
G04 #@! TA.AperFunction,ComponentPad*
%ADD11RoundRect,0.650000X-0.650000X-0.650000X0.650000X-0.650000X0.650000X0.650000X-0.650000X0.650000X0*%
G04 #@! TD*
G04 #@! TA.AperFunction,ComponentPad*
%ADD12HorizOval,1.600000X0.692820X0.400000X-0.692820X-0.400000X0*%
G04 #@! TD*
G04 #@! TA.AperFunction,ComponentPad*
%ADD13HorizOval,1.600000X-0.400000X0.692820X0.400000X-0.692820X0*%
G04 #@! TD*
G04 #@! TA.AperFunction,ComponentPad*
%ADD14HorizOval,1.600000X0.772741X-0.207055X-0.772741X0.207055X0*%
G04 #@! TD*
G04 #@! TA.AperFunction,ComponentPad*
%ADD15HorizOval,1.600000X0.207055X0.772741X-0.207055X-0.772741X0*%
G04 #@! TD*
G04 #@! TA.AperFunction,ComponentPad*
%ADD16RoundRect,0.250000X-0.550000X-0.550000X0.550000X-0.550000X0.550000X0.550000X-0.550000X0.550000X0*%
G04 #@! TD*
G04 #@! TA.AperFunction,ComponentPad*
%ADD17C,1.600000*%
G04 #@! TD*
G04 #@! TA.AperFunction,ComponentPad*
%ADD18R,1.700000X1.700000*%
G04 #@! TD*
G04 #@! TA.AperFunction,ComponentPad*
%ADD19O,1.700000X1.700000*%
G04 #@! TD*
G04 #@! TA.AperFunction,Conductor*
%ADD20C,0.200000*%
G04 #@! TD*
G04 APERTURE END LIST*
D10*
X46990000Y-131575000D03*
D11*
X46990000Y-120175000D03*
X46990000Y-128475000D03*
D10*
X33020000Y-113795000D03*
D11*
X33020000Y-102395000D03*
X33020000Y-110695000D03*
D10*
X46990000Y-113795000D03*
D11*
X46990000Y-102395000D03*
X46990000Y-110695000D03*
D10*
X33020000Y-96015000D03*
D11*
X33020000Y-84615000D03*
X33020000Y-92915000D03*
D10*
X46990000Y-96015000D03*
D11*
X46990000Y-84615000D03*
X46990000Y-92915000D03*
D10*
X33020000Y-149355000D03*
D11*
X33020000Y-137955000D03*
X33020000Y-146255000D03*
D12*
X36195000Y-63500000D03*
D13*
X40005000Y-59625000D03*
D12*
X43880000Y-63500000D03*
D14*
X37265000Y-60760000D03*
D15*
X42745000Y-60760000D03*
D10*
X33020000Y-131575000D03*
D11*
X33020000Y-120175000D03*
X33020000Y-128475000D03*
D10*
X46990000Y-149355000D03*
D11*
X46990000Y-137955000D03*
X46990000Y-146255000D03*
D16*
X38205000Y-52070000D03*
D17*
X41805000Y-52070000D03*
D18*
X48895000Y-152400000D03*
D19*
X46355000Y-152400000D03*
X43815000Y-152400000D03*
X41275000Y-152400000D03*
X38735000Y-152400000D03*
X36195000Y-152400000D03*
X33655000Y-152400000D03*
X31115000Y-152400000D03*
D18*
X31115000Y-45720000D03*
D19*
X33655000Y-45720000D03*
X36195000Y-45720000D03*
X38735000Y-45720000D03*
X41275000Y-45720000D03*
X43815000Y-45720000D03*
X46355000Y-45720000D03*
X48895000Y-45720000D03*
D20*
X39265000Y-49530000D02*
X41805000Y-52070000D01*
X37465000Y-49530000D02*
X39265000Y-49530000D01*
X33655000Y-45720000D02*
X37465000Y-49530000D01*
G04 #@! TA.AperFunction,Conductor*
G36*
X29708039Y-44970185D02*
G01*
X29753794Y-45022989D01*
X29765000Y-45074500D01*
X29765000Y-45470000D01*
X30681988Y-45470000D01*
X30649075Y-45527007D01*
X30615000Y-45654174D01*
X30615000Y-45785826D01*
X30649075Y-45912993D01*
X30681988Y-45970000D01*
X29765000Y-45970000D01*
X29765000Y-46617844D01*
X29771401Y-46677372D01*
X29771403Y-46677379D01*
X29821645Y-46812086D01*
X29821649Y-46812093D01*
X29907809Y-46927187D01*
X29907812Y-46927190D01*
X30022906Y-47013350D01*
X30022913Y-47013354D01*
X30157620Y-47063596D01*
X30157627Y-47063598D01*
X30217155Y-47069999D01*
X30217172Y-47070000D01*
X30865000Y-47070000D01*
X30865000Y-46153012D01*
X30922007Y-46185925D01*
X31049174Y-46220000D01*
X31180826Y-46220000D01*
X31307993Y-46185925D01*
X31365000Y-46153012D01*
X31365000Y-47070000D01*
X32012828Y-47070000D01*
X32012844Y-47069999D01*
X32072372Y-47063598D01*
X32072379Y-47063596D01*
X32207086Y-47013354D01*
X32207093Y-47013350D01*
X32322187Y-46927190D01*
X32322190Y-46927187D01*
X32408350Y-46812093D01*
X32408354Y-46812086D01*
X32457422Y-46680529D01*
X32499293Y-46624595D01*
X32564757Y-46600178D01*
X32633030Y-46615030D01*
X32661285Y-46636181D01*
X32783599Y-46758495D01*
X32860135Y-46812086D01*
X32977165Y-46894032D01*
X32977167Y-46894033D01*
X32977170Y-46894035D01*
X33191337Y-46993903D01*
X33419592Y-47055063D01*
X33590319Y-47070000D01*
X33654999Y-47075659D01*
X33655000Y-47075659D01*
X33655001Y-47075659D01*
X33719681Y-47070000D01*
X33890408Y-47055063D01*
X34018757Y-47020672D01*
X34088606Y-47022335D01*
X34138530Y-47052765D01*
X37096284Y-50010520D01*
X37096286Y-50010521D01*
X37096290Y-50010524D01*
X37233209Y-50089573D01*
X37233216Y-50089577D01*
X37385943Y-50130501D01*
X37385945Y-50130501D01*
X37551654Y-50130501D01*
X37551670Y-50130500D01*
X38964903Y-50130500D01*
X39031942Y-50150185D01*
X39052584Y-50166819D01*
X40513058Y-51627293D01*
X40546543Y-51688616D01*
X40545152Y-51747067D01*
X40519366Y-51843302D01*
X40519364Y-51843313D01*
X40499532Y-52069998D01*
X40499532Y-52070001D01*
X40519364Y-52296686D01*
X40519366Y-52296697D01*
X40578258Y-52516488D01*
X40578261Y-52516497D01*
X40674431Y-52722732D01*
X40674432Y-52722734D01*
X40804954Y-52909141D01*
X40965858Y-53070045D01*
X40965861Y-53070047D01*
X41152266Y-53200568D01*
X41358504Y-53296739D01*
X41578308Y-53355635D01*
X41740230Y-53369801D01*
X41804998Y-53375468D01*
X41805000Y-53375468D01*
X41805002Y-53375468D01*
X41861807Y-53370498D01*
X42031692Y-53355635D01*
X42251496Y-53296739D01*
X42457734Y-53200568D01*
X42644139Y-53070047D01*
X42805047Y-52909139D01*
X42935568Y-52722734D01*
X43031739Y-52516496D01*
X43090635Y-52296692D01*
X43110468Y-52070000D01*
X43090635Y-51843308D01*
X43031739Y-51623504D01*
X42935568Y-51417266D01*
X42805047Y-51230861D01*
X42805045Y-51230858D01*
X42644141Y-51069954D01*
X42457734Y-50939432D01*
X42457732Y-50939431D01*
X42251497Y-50843261D01*
X42251488Y-50843258D01*
X42031697Y-50784366D01*
X42031693Y-50784365D01*
X42031692Y-50784365D01*
X42031691Y-50784364D01*
X42031686Y-50784364D01*
X41805002Y-50764532D01*
X41804998Y-50764532D01*
X41578313Y-50784364D01*
X41578302Y-50784366D01*
X41482067Y-50810152D01*
X41412217Y-50808489D01*
X41362293Y-50778058D01*
X39752590Y-49168355D01*
X39752588Y-49168352D01*
X39633717Y-49049481D01*
X39633716Y-49049480D01*
X39546904Y-48999360D01*
X39546904Y-48999359D01*
X39546900Y-48999358D01*
X39496785Y-48970423D01*
X39344057Y-48929499D01*
X39185943Y-48929499D01*
X39178347Y-48929499D01*
X39178331Y-48929500D01*
X37765098Y-48929500D01*
X37698059Y-48909815D01*
X37677417Y-48893181D01*
X36068667Y-47284431D01*
X36035182Y-47223108D01*
X36040166Y-47153416D01*
X36082038Y-47097483D01*
X36147502Y-47073066D01*
X36167144Y-47073221D01*
X36195000Y-47075659D01*
X36430408Y-47055063D01*
X36658663Y-46993903D01*
X36872830Y-46894035D01*
X37066401Y-46758495D01*
X37233495Y-46591401D01*
X37363730Y-46405405D01*
X37418307Y-46361781D01*
X37487805Y-46354587D01*
X37550160Y-46386110D01*
X37566879Y-46405405D01*
X37696890Y-46591078D01*
X37863917Y-46758105D01*
X38057421Y-46893600D01*
X38271507Y-46993429D01*
X38271516Y-46993433D01*
X38485000Y-47050634D01*
X38485000Y-46153012D01*
X38542007Y-46185925D01*
X38669174Y-46220000D01*
X38800826Y-46220000D01*
X38927993Y-46185925D01*
X38985000Y-46153012D01*
X38985000Y-47050633D01*
X39198483Y-46993433D01*
X39198492Y-46993429D01*
X39412578Y-46893600D01*
X39606082Y-46758105D01*
X39773105Y-46591082D01*
X39903425Y-46404968D01*
X39958002Y-46361344D01*
X40027501Y-46354151D01*
X40089855Y-46385673D01*
X40106575Y-46404968D01*
X40236894Y-46591082D01*
X40403917Y-46758105D01*
X40597421Y-46893600D01*
X40811507Y-46993429D01*
X40811516Y-46993433D01*
X41025000Y-47050634D01*
X41025000Y-46153012D01*
X41082007Y-46185925D01*
X41209174Y-46220000D01*
X41340826Y-46220000D01*
X41467993Y-46185925D01*
X41525000Y-46153012D01*
X41525000Y-47050633D01*
X41738483Y-46993433D01*
X41738492Y-46993429D01*
X41952578Y-46893600D01*
X42146082Y-46758105D01*
X42313105Y-46591082D01*
X42443425Y-46404968D01*
X42498002Y-46361344D01*
X42567501Y-46354151D01*
X42629855Y-46385673D01*
X42646575Y-46404968D01*
X42776894Y-46591082D01*
X42943917Y-46758105D01*
X43137421Y-46893600D01*
X43351507Y-46993429D01*
X43351516Y-46993433D01*
X43565000Y-47050634D01*
X43565000Y-46153012D01*
X43622007Y-46185925D01*
X43749174Y-46220000D01*
X43880826Y-46220000D01*
X44007993Y-46185925D01*
X44065000Y-46153012D01*
X44065000Y-47050633D01*
X44278483Y-46993433D01*
X44278492Y-46993429D01*
X44492578Y-46893600D01*
X44686082Y-46758105D01*
X44853105Y-46591082D01*
X44983425Y-46404968D01*
X45038002Y-46361344D01*
X45107501Y-46354151D01*
X45169855Y-46385673D01*
X45186575Y-46404968D01*
X45316894Y-46591082D01*
X45483917Y-46758105D01*
X45677421Y-46893600D01*
X45891507Y-46993429D01*
X45891516Y-46993433D01*
X46105000Y-47050634D01*
X46105000Y-46153012D01*
X46162007Y-46185925D01*
X46289174Y-46220000D01*
X46420826Y-46220000D01*
X46547993Y-46185925D01*
X46605000Y-46153012D01*
X46605000Y-47050633D01*
X46818483Y-46993433D01*
X46818492Y-46993429D01*
X47032578Y-46893600D01*
X47226082Y-46758105D01*
X47393105Y-46591082D01*
X47523425Y-46404968D01*
X47578002Y-46361344D01*
X47647501Y-46354151D01*
X47709855Y-46385673D01*
X47726575Y-46404968D01*
X47856894Y-46591082D01*
X48023917Y-46758105D01*
X48217421Y-46893600D01*
X48431507Y-46993429D01*
X48431516Y-46993433D01*
X48645000Y-47050634D01*
X48645000Y-46153012D01*
X48702007Y-46185925D01*
X48829174Y-46220000D01*
X48960826Y-46220000D01*
X49087993Y-46185925D01*
X49145000Y-46153012D01*
X49145000Y-47050633D01*
X49358483Y-46993433D01*
X49358492Y-46993429D01*
X49572578Y-46893600D01*
X49766082Y-46758105D01*
X49933105Y-46591082D01*
X50068600Y-46397578D01*
X50168429Y-46183492D01*
X50168432Y-46183486D01*
X50225636Y-45970000D01*
X49328012Y-45970000D01*
X49360925Y-45912993D01*
X49395000Y-45785826D01*
X49395000Y-45654174D01*
X49360925Y-45527007D01*
X49328012Y-45470000D01*
X50225636Y-45470000D01*
X50225635Y-45469999D01*
X50168432Y-45256513D01*
X50168430Y-45256507D01*
X50107995Y-45126905D01*
X50097503Y-45057828D01*
X50126023Y-44994044D01*
X50184499Y-44955804D01*
X50220377Y-44950500D01*
X53985500Y-44950500D01*
X54052539Y-44970185D01*
X54098294Y-45022989D01*
X54109500Y-45074500D01*
X54109500Y-153045500D01*
X54089815Y-153112539D01*
X54037011Y-153158294D01*
X53985500Y-153169500D01*
X50369500Y-153169500D01*
X50302461Y-153149815D01*
X50256706Y-153097011D01*
X50245500Y-153045500D01*
X50245499Y-151502129D01*
X50245498Y-151502123D01*
X50239091Y-151442516D01*
X50188797Y-151307671D01*
X50188793Y-151307664D01*
X50102547Y-151192455D01*
X50102544Y-151192452D01*
X49987335Y-151106206D01*
X49987328Y-151106202D01*
X49852482Y-151055908D01*
X49852483Y-151055908D01*
X49792883Y-151049501D01*
X49792881Y-151049500D01*
X49792873Y-151049500D01*
X49792865Y-151049500D01*
X48073672Y-151049500D01*
X48006633Y-151029815D01*
X47960878Y-150977011D01*
X47950934Y-150907853D01*
X47979959Y-150844297D01*
X48035355Y-150807569D01*
X48084995Y-150791440D01*
X48302377Y-150680678D01*
X48499759Y-150537271D01*
X48672271Y-150364759D01*
X48815678Y-150167377D01*
X48926439Y-149949998D01*
X49001834Y-149717959D01*
X49019725Y-149605000D01*
X47656988Y-149605000D01*
X47674205Y-149595060D01*
X47730060Y-149539205D01*
X47769556Y-149470796D01*
X47790000Y-149394496D01*
X47790000Y-149315504D01*
X47769556Y-149239204D01*
X47730060Y-149170795D01*
X47674205Y-149114940D01*
X47656988Y-149105000D01*
X49019725Y-149105000D01*
X49001834Y-148992040D01*
X48926439Y-148760001D01*
X48815678Y-148542622D01*
X48672271Y-148345240D01*
X48499759Y-148172728D01*
X48314550Y-148038165D01*
X48271885Y-147982835D01*
X48265906Y-147913221D01*
X48298512Y-147851426D01*
X48317354Y-147835551D01*
X48378142Y-147793911D01*
X48528911Y-147643142D01*
X48649409Y-147467237D01*
X48735532Y-147272185D01*
X48784349Y-147064630D01*
X48790500Y-146976012D01*
X48790500Y-145533988D01*
X48784349Y-145445370D01*
X48784347Y-145445364D01*
X48784347Y-145445359D01*
X48735534Y-145237823D01*
X48735532Y-145237817D01*
X48735532Y-145237815D01*
X48649409Y-145042763D01*
X48528911Y-144866858D01*
X48528906Y-144866852D01*
X48378147Y-144716093D01*
X48378141Y-144716088D01*
X48202238Y-144595592D01*
X48202239Y-144595592D01*
X48202237Y-144595591D01*
X48007185Y-144509468D01*
X48007183Y-144509467D01*
X48007182Y-144509467D01*
X48007176Y-144509465D01*
X47799640Y-144460652D01*
X47799624Y-144460650D01*
X47711016Y-144454500D01*
X47711012Y-144454500D01*
X46268988Y-144454500D01*
X46268984Y-144454500D01*
X46180375Y-144460650D01*
X46180359Y-144460652D01*
X45972823Y-144509465D01*
X45972817Y-144509467D01*
X45777761Y-144595592D01*
X45601858Y-144716088D01*
X45601852Y-144716093D01*
X45451093Y-144866852D01*
X45451088Y-144866858D01*
X45330592Y-145042761D01*
X45244467Y-145237817D01*
X45244465Y-145237823D01*
X45195652Y-145445359D01*
X45195650Y-145445375D01*
X45189500Y-145533984D01*
X45189500Y-146976015D01*
X45195650Y-147064624D01*
X45195652Y-147064640D01*
X45244465Y-147272176D01*
X45244467Y-147272182D01*
X45244468Y-147272185D01*
X45330591Y-147467237D01*
X45330592Y-147467238D01*
X45451088Y-147643141D01*
X45451093Y-147643147D01*
X45601852Y-147793906D01*
X45601857Y-147793910D01*
X45601858Y-147793911D01*
X45662637Y-147835546D01*
X45662639Y-147835547D01*
X45706822Y-147889673D01*
X45714729Y-147959093D01*
X45683849Y-148021769D01*
X45665449Y-148038165D01*
X45480241Y-148172727D01*
X45307728Y-148345240D01*
X45164321Y-148542622D01*
X45053560Y-148760001D01*
X44978165Y-148992040D01*
X44960275Y-149105000D01*
X46323012Y-149105000D01*
X46305795Y-149114940D01*
X46249940Y-149170795D01*
X46210444Y-149239204D01*
X46190000Y-149315504D01*
X46190000Y-149394496D01*
X46210444Y-149470796D01*
X46249940Y-149539205D01*
X46305795Y-149595060D01*
X46323012Y-149605000D01*
X44960275Y-149605000D01*
X44978165Y-149717959D01*
X45053560Y-149949998D01*
X45164321Y-150167377D01*
X45307728Y-150364759D01*
X45480240Y-150537271D01*
X45677622Y-150680678D01*
X45895003Y-150791439D01*
X46059687Y-150844949D01*
X46117363Y-150884387D01*
X46144561Y-150948745D01*
X46132646Y-151017592D01*
X46085402Y-151069067D01*
X46053463Y-151082655D01*
X45891342Y-151126095D01*
X45891335Y-151126098D01*
X45677171Y-151225964D01*
X45677169Y-151225965D01*
X45483597Y-151361505D01*
X45316505Y-151528597D01*
X45186575Y-151714158D01*
X45131998Y-151757783D01*
X45062500Y-151764977D01*
X45000145Y-151733454D01*
X44983425Y-151714158D01*
X44853494Y-151528597D01*
X44686402Y-151361506D01*
X44686395Y-151361501D01*
X44492834Y-151225967D01*
X44492830Y-151225965D01*
X44492828Y-151225964D01*
X44278663Y-151126097D01*
X44278659Y-151126096D01*
X44278655Y-151126094D01*
X44050413Y-151064938D01*
X44050403Y-151064936D01*
X43815001Y-151044341D01*
X43814999Y-151044341D01*
X43579596Y-151064936D01*
X43579586Y-151064938D01*
X43351344Y-151126094D01*
X43351335Y-151126098D01*
X43137171Y-151225964D01*
X43137169Y-151225965D01*
X42943597Y-151361505D01*
X42776505Y-151528597D01*
X42646575Y-151714158D01*
X42591998Y-151757783D01*
X42522500Y-151764977D01*
X42460145Y-151733454D01*
X42443425Y-151714158D01*
X42313494Y-151528597D01*
X42146402Y-151361506D01*
X42146395Y-151361501D01*
X41952834Y-151225967D01*
X41952830Y-151225965D01*
X41952828Y-151225964D01*
X41738663Y-151126097D01*
X41738659Y-151126096D01*
X41738655Y-151126094D01*
X41510413Y-151064938D01*
X41510403Y-151064936D01*
X41275001Y-151044341D01*
X41274999Y-151044341D01*
X41039596Y-151064936D01*
X41039586Y-151064938D01*
X40811344Y-151126094D01*
X40811335Y-151126098D01*
X40597171Y-151225964D01*
X40597169Y-151225965D01*
X40403597Y-151361505D01*
X40236505Y-151528597D01*
X40106575Y-151714158D01*
X40051998Y-151757783D01*
X39982500Y-151764977D01*
X39920145Y-151733454D01*
X39903425Y-151714158D01*
X39773494Y-151528597D01*
X39606402Y-151361506D01*
X39606395Y-151361501D01*
X39412834Y-151225967D01*
X39412830Y-151225965D01*
X39412828Y-151225964D01*
X39198663Y-151126097D01*
X39198659Y-151126096D01*
X39198655Y-151126094D01*
X38970413Y-151064938D01*
X38970403Y-151064936D01*
X38735001Y-151044341D01*
X38734999Y-151044341D01*
X38499596Y-151064936D01*
X38499586Y-151064938D01*
X38271344Y-151126094D01*
X38271335Y-151126098D01*
X38057171Y-151225964D01*
X38057169Y-151225965D01*
X37863597Y-151361505D01*
X37696505Y-151528597D01*
X37566575Y-151714158D01*
X37511998Y-151757783D01*
X37442500Y-151764977D01*
X37380145Y-151733454D01*
X37363425Y-151714158D01*
X37233494Y-151528597D01*
X37066402Y-151361506D01*
X37066395Y-151361501D01*
X36872834Y-151225967D01*
X36872830Y-151225965D01*
X36872828Y-151225964D01*
X36658663Y-151126097D01*
X36658659Y-151126096D01*
X36658655Y-151126094D01*
X36430413Y-151064938D01*
X36430403Y-151064936D01*
X36195001Y-151044341D01*
X36194999Y-151044341D01*
X35959596Y-151064936D01*
X35959586Y-151064938D01*
X35731344Y-151126094D01*
X35731335Y-151126098D01*
X35517171Y-151225964D01*
X35517169Y-151225965D01*
X35323597Y-151361505D01*
X35156505Y-151528597D01*
X35026575Y-151714158D01*
X34971998Y-151757783D01*
X34902500Y-151764977D01*
X34840145Y-151733454D01*
X34823425Y-151714158D01*
X34693494Y-151528597D01*
X34526402Y-151361506D01*
X34526395Y-151361501D01*
X34332834Y-151225967D01*
X34332830Y-151225965D01*
X34332828Y-151225964D01*
X34118663Y-151126097D01*
X34118660Y-151126096D01*
X34118658Y-151126095D01*
X33956536Y-151082655D01*
X33896876Y-151046290D01*
X33866347Y-150983443D01*
X33874642Y-150914067D01*
X33919127Y-150860189D01*
X33950312Y-150844949D01*
X34114996Y-150791439D01*
X34332377Y-150680678D01*
X34529759Y-150537271D01*
X34702271Y-150364759D01*
X34845678Y-150167377D01*
X34956439Y-149949998D01*
X35031834Y-149717959D01*
X35049725Y-149605000D01*
X33686988Y-149605000D01*
X33704205Y-149595060D01*
X33760060Y-149539205D01*
X33799556Y-149470796D01*
X33820000Y-149394496D01*
X33820000Y-149315504D01*
X33799556Y-149239204D01*
X33760060Y-149170795D01*
X33704205Y-149114940D01*
X33686988Y-149105000D01*
X35049725Y-149105000D01*
X35031834Y-148992040D01*
X34956439Y-148760001D01*
X34845678Y-148542622D01*
X34702271Y-148345240D01*
X34529759Y-148172728D01*
X34344550Y-148038165D01*
X34301885Y-147982835D01*
X34295906Y-147913221D01*
X34328512Y-147851426D01*
X34347354Y-147835551D01*
X34408142Y-147793911D01*
X34558911Y-147643142D01*
X34679409Y-147467237D01*
X34765532Y-147272185D01*
X34814349Y-147064630D01*
X34820500Y-146976012D01*
X34820500Y-145533988D01*
X34814349Y-145445370D01*
X34814347Y-145445364D01*
X34814347Y-145445359D01*
X34765534Y-145237823D01*
X34765532Y-145237817D01*
X34765532Y-145237815D01*
X34679409Y-145042763D01*
X34558911Y-144866858D01*
X34558906Y-144866852D01*
X34408147Y-144716093D01*
X34408141Y-144716088D01*
X34232238Y-144595592D01*
X34232239Y-144595592D01*
X34232237Y-144595591D01*
X34037185Y-144509468D01*
X34037183Y-144509467D01*
X34037182Y-144509467D01*
X34037176Y-144509465D01*
X33829640Y-144460652D01*
X33829624Y-144460650D01*
X33741016Y-144454500D01*
X33741012Y-144454500D01*
X32298988Y-144454500D01*
X32298984Y-144454500D01*
X32210375Y-144460650D01*
X32210359Y-144460652D01*
X32002823Y-144509465D01*
X32002817Y-144509467D01*
X31807761Y-144595592D01*
X31631858Y-144716088D01*
X31631852Y-144716093D01*
X31481093Y-144866852D01*
X31481088Y-144866858D01*
X31360592Y-145042761D01*
X31274467Y-145237817D01*
X31274465Y-145237823D01*
X31225652Y-145445359D01*
X31225650Y-145445375D01*
X31219500Y-145533984D01*
X31219500Y-146976015D01*
X31225650Y-147064624D01*
X31225652Y-147064640D01*
X31274465Y-147272176D01*
X31274467Y-147272182D01*
X31274468Y-147272185D01*
X31360591Y-147467237D01*
X31360592Y-147467238D01*
X31481088Y-147643141D01*
X31481093Y-147643147D01*
X31631852Y-147793906D01*
X31631857Y-147793910D01*
X31631858Y-147793911D01*
X31692637Y-147835546D01*
X31692639Y-147835547D01*
X31736822Y-147889673D01*
X31744729Y-147959093D01*
X31713849Y-148021769D01*
X31695449Y-148038165D01*
X31510241Y-148172727D01*
X31337728Y-148345240D01*
X31194321Y-148542622D01*
X31083560Y-148760001D01*
X31008165Y-148992040D01*
X30990275Y-149105000D01*
X32353012Y-149105000D01*
X32335795Y-149114940D01*
X32279940Y-149170795D01*
X32240444Y-149239204D01*
X32220000Y-149315504D01*
X32220000Y-149394496D01*
X32240444Y-149470796D01*
X32279940Y-149539205D01*
X32335795Y-149595060D01*
X32353012Y-149605000D01*
X30990275Y-149605000D01*
X31008165Y-149717959D01*
X31083560Y-149949998D01*
X31194321Y-150167377D01*
X31337728Y-150364759D01*
X31510240Y-150537271D01*
X31707622Y-150680678D01*
X31925001Y-150791439D01*
X32157040Y-150866834D01*
X32398007Y-150905000D01*
X32770000Y-150905000D01*
X32770000Y-149655000D01*
X33270000Y-149655000D01*
X33270000Y-150905000D01*
X33275881Y-150910881D01*
X33309366Y-150972204D01*
X33304382Y-151041896D01*
X33262510Y-151097829D01*
X33220296Y-151118336D01*
X33191348Y-151126093D01*
X33191338Y-151126096D01*
X33191337Y-151126097D01*
X33191335Y-151126098D01*
X32977171Y-151225964D01*
X32977169Y-151225965D01*
X32783597Y-151361505D01*
X32616505Y-151528597D01*
X32486575Y-151714158D01*
X32431998Y-151757783D01*
X32362500Y-151764977D01*
X32300145Y-151733454D01*
X32283425Y-151714158D01*
X32153494Y-151528597D01*
X31986402Y-151361506D01*
X31986395Y-151361501D01*
X31792834Y-151225967D01*
X31792830Y-151225965D01*
X31792828Y-151225964D01*
X31578663Y-151126097D01*
X31578659Y-151126096D01*
X31578655Y-151126094D01*
X31350413Y-151064938D01*
X31350403Y-151064936D01*
X31115001Y-151044341D01*
X31114999Y-151044341D01*
X30879596Y-151064936D01*
X30879586Y-151064938D01*
X30651344Y-151126094D01*
X30651335Y-151126098D01*
X30437171Y-151225964D01*
X30437169Y-151225965D01*
X30243597Y-151361505D01*
X30076505Y-151528597D01*
X29940965Y-151722169D01*
X29940964Y-151722171D01*
X29841098Y-151936335D01*
X29841094Y-151936344D01*
X29779938Y-152164586D01*
X29779936Y-152164596D01*
X29759341Y-152399999D01*
X29759341Y-152400000D01*
X29779936Y-152635403D01*
X29779938Y-152635413D01*
X29841094Y-152863655D01*
X29841097Y-152863664D01*
X29865368Y-152915712D01*
X29901453Y-152993097D01*
X29911945Y-153062172D01*
X29883426Y-153125956D01*
X29824949Y-153164196D01*
X29789071Y-153169500D01*
X26024500Y-153169500D01*
X25957461Y-153149815D01*
X25911706Y-153097011D01*
X25900500Y-153045500D01*
X25900500Y-138676015D01*
X31219500Y-138676015D01*
X31225650Y-138764624D01*
X31225652Y-138764640D01*
X31274465Y-138972176D01*
X31274467Y-138972182D01*
X31274468Y-138972185D01*
X31360591Y-139167237D01*
X31360592Y-139167238D01*
X31481088Y-139343141D01*
X31481093Y-139343147D01*
X31631852Y-139493906D01*
X31631858Y-139493911D01*
X31807763Y-139614409D01*
X32002815Y-139700532D01*
X32002821Y-139700533D01*
X32002823Y-139700534D01*
X32210359Y-139749347D01*
X32210364Y-139749347D01*
X32210370Y-139749349D01*
X32259602Y-139752766D01*
X32298984Y-139755500D01*
X32298988Y-139755500D01*
X33741016Y-139755500D01*
X33776459Y-139753039D01*
X33829630Y-139749349D01*
X33829636Y-139749347D01*
X33829640Y-139749347D01*
X34037176Y-139700534D01*
X34037174Y-139700534D01*
X34037185Y-139700532D01*
X34232237Y-139614409D01*
X34408142Y-139493911D01*
X34558911Y-139343142D01*
X34679409Y-139167237D01*
X34765532Y-138972185D01*
X34814349Y-138764630D01*
X34820500Y-138676015D01*
X45189500Y-138676015D01*
X45195650Y-138764624D01*
X45195652Y-138764640D01*
X45244465Y-138972176D01*
X45244467Y-138972182D01*
X45244468Y-138972185D01*
X45330591Y-139167237D01*
X45330592Y-139167238D01*
X45451088Y-139343141D01*
X45451093Y-139343147D01*
X45601852Y-139493906D01*
X45601858Y-139493911D01*
X45777763Y-139614409D01*
X45972815Y-139700532D01*
X45972821Y-139700533D01*
X45972823Y-139700534D01*
X46180359Y-139749347D01*
X46180364Y-139749347D01*
X46180370Y-139749349D01*
X46229602Y-139752766D01*
X46268984Y-139755500D01*
X46268988Y-139755500D01*
X47711016Y-139755500D01*
X47746459Y-139753039D01*
X47799630Y-139749349D01*
X47799636Y-139749347D01*
X47799640Y-139749347D01*
X48007176Y-139700534D01*
X48007174Y-139700534D01*
X48007185Y-139700532D01*
X48202237Y-139614409D01*
X48378142Y-139493911D01*
X48528911Y-139343142D01*
X48649409Y-139167237D01*
X48735532Y-138972185D01*
X48784349Y-138764630D01*
X48790500Y-138676012D01*
X48790500Y-137233988D01*
X48784349Y-137145370D01*
X48784347Y-137145364D01*
X48784347Y-137145359D01*
X48735534Y-136937823D01*
X48735532Y-136937817D01*
X48735532Y-136937815D01*
X48649409Y-136742763D01*
X48528911Y-136566858D01*
X48528906Y-136566852D01*
X48378147Y-136416093D01*
X48378141Y-136416088D01*
X48202238Y-136295592D01*
X48202239Y-136295592D01*
X48202237Y-136295591D01*
X48007185Y-136209468D01*
X48007183Y-136209467D01*
X48007182Y-136209467D01*
X48007176Y-136209465D01*
X47799640Y-136160652D01*
X47799624Y-136160650D01*
X47711016Y-136154500D01*
X47711012Y-136154500D01*
X46268988Y-136154500D01*
X46268984Y-136154500D01*
X46180375Y-136160650D01*
X46180359Y-136160652D01*
X45972823Y-136209465D01*
X45972817Y-136209467D01*
X45777761Y-136295592D01*
X45601858Y-136416088D01*
X45601852Y-136416093D01*
X45451093Y-136566852D01*
X45451088Y-136566858D01*
X45330592Y-136742761D01*
X45244467Y-136937817D01*
X45244465Y-136937823D01*
X45195652Y-137145359D01*
X45195650Y-137145375D01*
X45189500Y-137233984D01*
X45189500Y-138676015D01*
X34820500Y-138676015D01*
X34820500Y-138676012D01*
X34820500Y-137233988D01*
X34814349Y-137145370D01*
X34814347Y-137145364D01*
X34814347Y-137145359D01*
X34765534Y-136937823D01*
X34765532Y-136937817D01*
X34765532Y-136937815D01*
X34679409Y-136742763D01*
X34558911Y-136566858D01*
X34558906Y-136566852D01*
X34408147Y-136416093D01*
X34408141Y-136416088D01*
X34232238Y-136295592D01*
X34232239Y-136295592D01*
X34232237Y-136295591D01*
X34037185Y-136209468D01*
X34037183Y-136209467D01*
X34037182Y-136209467D01*
X34037176Y-136209465D01*
X33829640Y-136160652D01*
X33829624Y-136160650D01*
X33741016Y-136154500D01*
X33741012Y-136154500D01*
X32298988Y-136154500D01*
X32298984Y-136154500D01*
X32210375Y-136160650D01*
X32210359Y-136160652D01*
X32002823Y-136209465D01*
X32002817Y-136209467D01*
X31807761Y-136295592D01*
X31631858Y-136416088D01*
X31631852Y-136416093D01*
X31481093Y-136566852D01*
X31481088Y-136566858D01*
X31360592Y-136742761D01*
X31274467Y-136937817D01*
X31274465Y-136937823D01*
X31225652Y-137145359D01*
X31225650Y-137145375D01*
X31219500Y-137233984D01*
X31219500Y-138676015D01*
X25900500Y-138676015D01*
X25900500Y-131825000D01*
X30990275Y-131825000D01*
X31008165Y-131937959D01*
X31083560Y-132169998D01*
X31194321Y-132387377D01*
X31337728Y-132584759D01*
X31510240Y-132757271D01*
X31707622Y-132900678D01*
X31925001Y-133011439D01*
X32157040Y-133086834D01*
X32398007Y-133125000D01*
X32770000Y-133125000D01*
X32770000Y-131875000D01*
X33270000Y-131875000D01*
X33270000Y-133125000D01*
X33641993Y-133125000D01*
X33882959Y-133086834D01*
X34114998Y-133011439D01*
X34332377Y-132900678D01*
X34529759Y-132757271D01*
X34702271Y-132584759D01*
X34845678Y-132387377D01*
X34956439Y-132169998D01*
X35031834Y-131937959D01*
X35049725Y-131825000D01*
X44960275Y-131825000D01*
X44978165Y-131937959D01*
X45053560Y-132169998D01*
X45164321Y-132387377D01*
X45307728Y-132584759D01*
X45480240Y-132757271D01*
X45677622Y-132900678D01*
X45895001Y-133011439D01*
X46127040Y-133086834D01*
X46368007Y-133125000D01*
X46740000Y-133125000D01*
X46740000Y-131875000D01*
X47240000Y-131875000D01*
X47240000Y-133125000D01*
X47611993Y-133125000D01*
X47852959Y-133086834D01*
X48084998Y-133011439D01*
X48302377Y-132900678D01*
X48499759Y-132757271D01*
X48672271Y-132584759D01*
X48815678Y-132387377D01*
X48926439Y-132169998D01*
X49001834Y-131937959D01*
X49019725Y-131825000D01*
X47656988Y-131825000D01*
X47674205Y-131815060D01*
X47730060Y-131759205D01*
X47769556Y-131690796D01*
X47790000Y-131614496D01*
X47790000Y-131535504D01*
X47769556Y-131459204D01*
X47730060Y-131390795D01*
X47674205Y-131334940D01*
X47656988Y-131325000D01*
X49019725Y-131325000D01*
X49001834Y-131212040D01*
X48926439Y-130980001D01*
X48815678Y-130762622D01*
X48672271Y-130565240D01*
X48499759Y-130392728D01*
X48314550Y-130258165D01*
X48271885Y-130202835D01*
X48265906Y-130133221D01*
X48298512Y-130071426D01*
X48317354Y-130055551D01*
X48378142Y-130013911D01*
X48528911Y-129863142D01*
X48649409Y-129687237D01*
X48735532Y-129492185D01*
X48784349Y-129284630D01*
X48790500Y-129196012D01*
X48790500Y-127753988D01*
X48784349Y-127665370D01*
X48784347Y-127665364D01*
X48784347Y-127665359D01*
X48735534Y-127457823D01*
X48735532Y-127457817D01*
X48735532Y-127457815D01*
X48649409Y-127262763D01*
X48528911Y-127086858D01*
X48528906Y-127086852D01*
X48378147Y-126936093D01*
X48378141Y-126936088D01*
X48202238Y-126815592D01*
X48202239Y-126815592D01*
X48202237Y-126815591D01*
X48007185Y-126729468D01*
X48007183Y-126729467D01*
X48007182Y-126729467D01*
X48007176Y-126729465D01*
X47799640Y-126680652D01*
X47799624Y-126680650D01*
X47711016Y-126674500D01*
X47711012Y-126674500D01*
X46268988Y-126674500D01*
X46268984Y-126674500D01*
X46180375Y-126680650D01*
X46180359Y-126680652D01*
X45972823Y-126729465D01*
X45972817Y-126729467D01*
X45777761Y-126815592D01*
X45601858Y-126936088D01*
X45601852Y-126936093D01*
X45451093Y-127086852D01*
X45451088Y-127086858D01*
X45330592Y-127262761D01*
X45244467Y-127457817D01*
X45244465Y-127457823D01*
X45195652Y-127665359D01*
X45195650Y-127665375D01*
X45189500Y-127753984D01*
X45189500Y-129196015D01*
X45195650Y-129284624D01*
X45195652Y-129284640D01*
X45244465Y-129492176D01*
X45244467Y-129492182D01*
X45244468Y-129492185D01*
X45330591Y-129687237D01*
X45330592Y-129687238D01*
X45451088Y-129863141D01*
X45451093Y-129863147D01*
X45601852Y-130013906D01*
X45601857Y-130013910D01*
X45601858Y-130013911D01*
X45662637Y-130055546D01*
X45662639Y-130055547D01*
X45706822Y-130109673D01*
X45714729Y-130179093D01*
X45683849Y-130241769D01*
X45665449Y-130258165D01*
X45480241Y-130392727D01*
X45307728Y-130565240D01*
X45164321Y-130762622D01*
X45053560Y-130980001D01*
X44978165Y-131212040D01*
X44960275Y-131325000D01*
X46323012Y-131325000D01*
X46305795Y-131334940D01*
X46249940Y-131390795D01*
X46210444Y-131459204D01*
X46190000Y-131535504D01*
X46190000Y-131614496D01*
X46210444Y-131690796D01*
X46249940Y-131759205D01*
X46305795Y-131815060D01*
X46323012Y-131825000D01*
X44960275Y-131825000D01*
X35049725Y-131825000D01*
X33686988Y-131825000D01*
X33704205Y-131815060D01*
X33760060Y-131759205D01*
X33799556Y-131690796D01*
X33820000Y-131614496D01*
X33820000Y-131535504D01*
X33799556Y-131459204D01*
X33760060Y-131390795D01*
X33704205Y-131334940D01*
X33686988Y-131325000D01*
X35049725Y-131325000D01*
X35031834Y-131212040D01*
X34956439Y-130980001D01*
X34845678Y-130762622D01*
X34702271Y-130565240D01*
X34529759Y-130392728D01*
X34344550Y-130258165D01*
X34301885Y-130202835D01*
X34295906Y-130133221D01*
X34328512Y-130071426D01*
X34347354Y-130055551D01*
X34408142Y-130013911D01*
X34558911Y-129863142D01*
X34679409Y-129687237D01*
X34765532Y-129492185D01*
X34814349Y-129284630D01*
X34820500Y-129196012D01*
X34820500Y-127753988D01*
X34814349Y-127665370D01*
X34814347Y-127665364D01*
X34814347Y-127665359D01*
X34765534Y-127457823D01*
X34765532Y-127457817D01*
X34765532Y-127457815D01*
X34679409Y-127262763D01*
X34558911Y-127086858D01*
X34558906Y-127086852D01*
X34408147Y-126936093D01*
X34408141Y-126936088D01*
X34232238Y-126815592D01*
X34232239Y-126815592D01*
X34232237Y-126815591D01*
X34037185Y-126729468D01*
X34037183Y-126729467D01*
X34037182Y-126729467D01*
X34037176Y-126729465D01*
X33829640Y-126680652D01*
X33829624Y-126680650D01*
X33741016Y-126674500D01*
X33741012Y-126674500D01*
X32298988Y-126674500D01*
X32298984Y-126674500D01*
X32210375Y-126680650D01*
X32210359Y-126680652D01*
X32002823Y-126729465D01*
X32002817Y-126729467D01*
X31807761Y-126815592D01*
X31631858Y-126936088D01*
X31631852Y-126936093D01*
X31481093Y-127086852D01*
X31481088Y-127086858D01*
X31360592Y-127262761D01*
X31274467Y-127457817D01*
X31274465Y-127457823D01*
X31225652Y-127665359D01*
X31225650Y-127665375D01*
X31219500Y-127753984D01*
X31219500Y-129196015D01*
X31225650Y-129284624D01*
X31225652Y-129284640D01*
X31274465Y-129492176D01*
X31274467Y-129492182D01*
X31274468Y-129492185D01*
X31360591Y-129687237D01*
X31360592Y-129687238D01*
X31481088Y-129863141D01*
X31481093Y-129863147D01*
X31631852Y-130013906D01*
X31631857Y-130013910D01*
X31631858Y-130013911D01*
X31692637Y-130055546D01*
X31692639Y-130055547D01*
X31736822Y-130109673D01*
X31744729Y-130179093D01*
X31713849Y-130241769D01*
X31695449Y-130258165D01*
X31510241Y-130392727D01*
X31337728Y-130565240D01*
X31194321Y-130762622D01*
X31083560Y-130980001D01*
X31008165Y-131212040D01*
X30990275Y-131325000D01*
X32353012Y-131325000D01*
X32335795Y-131334940D01*
X32279940Y-131390795D01*
X32240444Y-131459204D01*
X32220000Y-131535504D01*
X32220000Y-131614496D01*
X32240444Y-131690796D01*
X32279940Y-131759205D01*
X32335795Y-131815060D01*
X32353012Y-131825000D01*
X30990275Y-131825000D01*
X25900500Y-131825000D01*
X25900500Y-120896015D01*
X31219500Y-120896015D01*
X31225650Y-120984624D01*
X31225652Y-120984640D01*
X31274465Y-121192176D01*
X31274467Y-121192182D01*
X31274468Y-121192185D01*
X31360591Y-121387237D01*
X31360592Y-121387238D01*
X31481088Y-121563141D01*
X31481093Y-121563147D01*
X31631852Y-121713906D01*
X31631858Y-121713911D01*
X31807763Y-121834409D01*
X32002815Y-121920532D01*
X32002821Y-121920533D01*
X32002823Y-121920534D01*
X32210359Y-121969347D01*
X32210364Y-121969347D01*
X32210370Y-121969349D01*
X32259602Y-121972766D01*
X32298984Y-121975500D01*
X32298988Y-121975500D01*
X33741016Y-121975500D01*
X33776459Y-121973039D01*
X33829630Y-121969349D01*
X33829636Y-121969347D01*
X33829640Y-121969347D01*
X34037176Y-121920534D01*
X34037174Y-121920534D01*
X34037185Y-121920532D01*
X34232237Y-121834409D01*
X34408142Y-121713911D01*
X34558911Y-121563142D01*
X34679409Y-121387237D01*
X34765532Y-121192185D01*
X34814349Y-120984630D01*
X34820500Y-120896015D01*
X45189500Y-120896015D01*
X45195650Y-120984624D01*
X45195652Y-120984640D01*
X45244465Y-121192176D01*
X45244467Y-121192182D01*
X45244468Y-121192185D01*
X45330591Y-121387237D01*
X45330592Y-121387238D01*
X45451088Y-121563141D01*
X45451093Y-121563147D01*
X45601852Y-121713906D01*
X45601858Y-121713911D01*
X45777763Y-121834409D01*
X45972815Y-121920532D01*
X45972821Y-121920533D01*
X45972823Y-121920534D01*
X46180359Y-121969347D01*
X46180364Y-121969347D01*
X46180370Y-121969349D01*
X46229602Y-121972766D01*
X46268984Y-121975500D01*
X46268988Y-121975500D01*
X47711016Y-121975500D01*
X47746459Y-121973039D01*
X47799630Y-121969349D01*
X47799636Y-121969347D01*
X47799640Y-121969347D01*
X48007176Y-121920534D01*
X48007174Y-121920534D01*
X48007185Y-121920532D01*
X48202237Y-121834409D01*
X48378142Y-121713911D01*
X48528911Y-121563142D01*
X48649409Y-121387237D01*
X48735532Y-121192185D01*
X48784349Y-120984630D01*
X48790500Y-120896012D01*
X48790500Y-119453988D01*
X48784349Y-119365370D01*
X48784347Y-119365364D01*
X48784347Y-119365359D01*
X48735534Y-119157823D01*
X48735532Y-119157817D01*
X48735532Y-119157815D01*
X48649409Y-118962763D01*
X48528911Y-118786858D01*
X48528906Y-118786852D01*
X48378147Y-118636093D01*
X48378141Y-118636088D01*
X48202238Y-118515592D01*
X48202239Y-118515592D01*
X48202237Y-118515591D01*
X48007185Y-118429468D01*
X48007183Y-118429467D01*
X48007182Y-118429467D01*
X48007176Y-118429465D01*
X47799640Y-118380652D01*
X47799624Y-118380650D01*
X47711016Y-118374500D01*
X47711012Y-118374500D01*
X46268988Y-118374500D01*
X46268984Y-118374500D01*
X46180375Y-118380650D01*
X46180359Y-118380652D01*
X45972823Y-118429465D01*
X45972817Y-118429467D01*
X45777761Y-118515592D01*
X45601858Y-118636088D01*
X45601852Y-118636093D01*
X45451093Y-118786852D01*
X45451088Y-118786858D01*
X45330592Y-118962761D01*
X45244467Y-119157817D01*
X45244465Y-119157823D01*
X45195652Y-119365359D01*
X45195650Y-119365375D01*
X45189500Y-119453984D01*
X45189500Y-120896015D01*
X34820500Y-120896015D01*
X34820500Y-120896012D01*
X34820500Y-119453988D01*
X34814349Y-119365370D01*
X34814347Y-119365364D01*
X34814347Y-119365359D01*
X34765534Y-119157823D01*
X34765532Y-119157817D01*
X34765532Y-119157815D01*
X34679409Y-118962763D01*
X34558911Y-118786858D01*
X34558906Y-118786852D01*
X34408147Y-118636093D01*
X34408141Y-118636088D01*
X34232238Y-118515592D01*
X34232239Y-118515592D01*
X34232237Y-118515591D01*
X34037185Y-118429468D01*
X34037183Y-118429467D01*
X34037182Y-118429467D01*
X34037176Y-118429465D01*
X33829640Y-118380652D01*
X33829624Y-118380650D01*
X33741016Y-118374500D01*
X33741012Y-118374500D01*
X32298988Y-118374500D01*
X32298984Y-118374500D01*
X32210375Y-118380650D01*
X32210359Y-118380652D01*
X32002823Y-118429465D01*
X32002817Y-118429467D01*
X31807761Y-118515592D01*
X31631858Y-118636088D01*
X31631852Y-118636093D01*
X31481093Y-118786852D01*
X31481088Y-118786858D01*
X31360592Y-118962761D01*
X31274467Y-119157817D01*
X31274465Y-119157823D01*
X31225652Y-119365359D01*
X31225650Y-119365375D01*
X31219500Y-119453984D01*
X31219500Y-120896015D01*
X25900500Y-120896015D01*
X25900500Y-114045000D01*
X30990275Y-114045000D01*
X31008165Y-114157959D01*
X31083560Y-114389998D01*
X31194321Y-114607377D01*
X31337728Y-114804759D01*
X31510240Y-114977271D01*
X31707622Y-115120678D01*
X31925001Y-115231439D01*
X32157040Y-115306834D01*
X32398007Y-115345000D01*
X32770000Y-115345000D01*
X32770000Y-114095000D01*
X33270000Y-114095000D01*
X33270000Y-115345000D01*
X33641993Y-115345000D01*
X33882959Y-115306834D01*
X34114998Y-115231439D01*
X34332377Y-115120678D01*
X34529759Y-114977271D01*
X34702271Y-114804759D01*
X34845678Y-114607377D01*
X34956439Y-114389998D01*
X35031834Y-114157959D01*
X35049725Y-114045000D01*
X44960275Y-114045000D01*
X44978165Y-114157959D01*
X45053560Y-114389998D01*
X45164321Y-114607377D01*
X45307728Y-114804759D01*
X45480240Y-114977271D01*
X45677622Y-115120678D01*
X45895001Y-115231439D01*
X46127040Y-115306834D01*
X46368007Y-115345000D01*
X46740000Y-115345000D01*
X46740000Y-114095000D01*
X47240000Y-114095000D01*
X47240000Y-115345000D01*
X47611993Y-115345000D01*
X47852959Y-115306834D01*
X48084998Y-115231439D01*
X48302377Y-115120678D01*
X48499759Y-114977271D01*
X48672271Y-114804759D01*
X48815678Y-114607377D01*
X48926439Y-114389998D01*
X49001834Y-114157959D01*
X49019725Y-114045000D01*
X47656988Y-114045000D01*
X47674205Y-114035060D01*
X47730060Y-113979205D01*
X47769556Y-113910796D01*
X47790000Y-113834496D01*
X47790000Y-113755504D01*
X47769556Y-113679204D01*
X47730060Y-113610795D01*
X47674205Y-113554940D01*
X47656988Y-113545000D01*
X49019725Y-113545000D01*
X49001834Y-113432040D01*
X48926439Y-113200001D01*
X48815678Y-112982622D01*
X48672271Y-112785240D01*
X48499759Y-112612728D01*
X48314550Y-112478165D01*
X48271885Y-112422835D01*
X48265906Y-112353221D01*
X48298512Y-112291426D01*
X48317354Y-112275551D01*
X48378142Y-112233911D01*
X48528911Y-112083142D01*
X48649409Y-111907237D01*
X48735532Y-111712185D01*
X48784349Y-111504630D01*
X48790500Y-111416012D01*
X48790500Y-109973988D01*
X48784349Y-109885370D01*
X48784347Y-109885364D01*
X48784347Y-109885359D01*
X48735534Y-109677823D01*
X48735532Y-109677817D01*
X48735532Y-109677815D01*
X48649409Y-109482763D01*
X48528911Y-109306858D01*
X48528906Y-109306852D01*
X48378147Y-109156093D01*
X48378141Y-109156088D01*
X48202238Y-109035592D01*
X48202239Y-109035592D01*
X48202237Y-109035591D01*
X48007185Y-108949468D01*
X48007183Y-108949467D01*
X48007182Y-108949467D01*
X48007176Y-108949465D01*
X47799640Y-108900652D01*
X47799624Y-108900650D01*
X47711016Y-108894500D01*
X47711012Y-108894500D01*
X46268988Y-108894500D01*
X46268984Y-108894500D01*
X46180375Y-108900650D01*
X46180359Y-108900652D01*
X45972823Y-108949465D01*
X45972817Y-108949467D01*
X45777761Y-109035592D01*
X45601858Y-109156088D01*
X45601852Y-109156093D01*
X45451093Y-109306852D01*
X45451088Y-109306858D01*
X45330592Y-109482761D01*
X45244467Y-109677817D01*
X45244465Y-109677823D01*
X45195652Y-109885359D01*
X45195650Y-109885375D01*
X45189500Y-109973984D01*
X45189500Y-111416015D01*
X45195650Y-111504624D01*
X45195652Y-111504640D01*
X45244465Y-111712176D01*
X45244467Y-111712182D01*
X45244468Y-111712185D01*
X45330591Y-111907237D01*
X45330592Y-111907238D01*
X45451088Y-112083141D01*
X45451093Y-112083147D01*
X45601852Y-112233906D01*
X45601857Y-112233910D01*
X45601858Y-112233911D01*
X45662637Y-112275546D01*
X45662639Y-112275547D01*
X45706822Y-112329673D01*
X45714729Y-112399093D01*
X45683849Y-112461769D01*
X45665449Y-112478165D01*
X45480241Y-112612727D01*
X45307728Y-112785240D01*
X45164321Y-112982622D01*
X45053560Y-113200001D01*
X44978165Y-113432040D01*
X44960275Y-113545000D01*
X46323012Y-113545000D01*
X46305795Y-113554940D01*
X46249940Y-113610795D01*
X46210444Y-113679204D01*
X46190000Y-113755504D01*
X46190000Y-113834496D01*
X46210444Y-113910796D01*
X46249940Y-113979205D01*
X46305795Y-114035060D01*
X46323012Y-114045000D01*
X44960275Y-114045000D01*
X35049725Y-114045000D01*
X33686988Y-114045000D01*
X33704205Y-114035060D01*
X33760060Y-113979205D01*
X33799556Y-113910796D01*
X33820000Y-113834496D01*
X33820000Y-113755504D01*
X33799556Y-113679204D01*
X33760060Y-113610795D01*
X33704205Y-113554940D01*
X33686988Y-113545000D01*
X35049725Y-113545000D01*
X35031834Y-113432040D01*
X34956439Y-113200001D01*
X34845678Y-112982622D01*
X34702271Y-112785240D01*
X34529759Y-112612728D01*
X34344550Y-112478165D01*
X34301885Y-112422835D01*
X34295906Y-112353221D01*
X34328512Y-112291426D01*
X34347354Y-112275551D01*
X34408142Y-112233911D01*
X34558911Y-112083142D01*
X34679409Y-111907237D01*
X34765532Y-111712185D01*
X34814349Y-111504630D01*
X34820500Y-111416012D01*
X34820500Y-109973988D01*
X34814349Y-109885370D01*
X34814347Y-109885364D01*
X34814347Y-109885359D01*
X34765534Y-109677823D01*
X34765532Y-109677817D01*
X34765532Y-109677815D01*
X34679409Y-109482763D01*
X34558911Y-109306858D01*
X34558906Y-109306852D01*
X34408147Y-109156093D01*
X34408141Y-109156088D01*
X34232238Y-109035592D01*
X34232239Y-109035592D01*
X34232237Y-109035591D01*
X34037185Y-108949468D01*
X34037183Y-108949467D01*
X34037182Y-108949467D01*
X34037176Y-108949465D01*
X33829640Y-108900652D01*
X33829624Y-108900650D01*
X33741016Y-108894500D01*
X33741012Y-108894500D01*
X32298988Y-108894500D01*
X32298984Y-108894500D01*
X32210375Y-108900650D01*
X32210359Y-108900652D01*
X32002823Y-108949465D01*
X32002817Y-108949467D01*
X31807761Y-109035592D01*
X31631858Y-109156088D01*
X31631852Y-109156093D01*
X31481093Y-109306852D01*
X31481088Y-109306858D01*
X31360592Y-109482761D01*
X31274467Y-109677817D01*
X31274465Y-109677823D01*
X31225652Y-109885359D01*
X31225650Y-109885375D01*
X31219500Y-109973984D01*
X31219500Y-111416015D01*
X31225650Y-111504624D01*
X31225652Y-111504640D01*
X31274465Y-111712176D01*
X31274467Y-111712182D01*
X31274468Y-111712185D01*
X31360591Y-111907237D01*
X31360592Y-111907238D01*
X31481088Y-112083141D01*
X31481093Y-112083147D01*
X31631852Y-112233906D01*
X31631857Y-112233910D01*
X31631858Y-112233911D01*
X31692637Y-112275546D01*
X31692639Y-112275547D01*
X31736822Y-112329673D01*
X31744729Y-112399093D01*
X31713849Y-112461769D01*
X31695449Y-112478165D01*
X31510241Y-112612727D01*
X31337728Y-112785240D01*
X31194321Y-112982622D01*
X31083560Y-113200001D01*
X31008165Y-113432040D01*
X30990275Y-113545000D01*
X32353012Y-113545000D01*
X32335795Y-113554940D01*
X32279940Y-113610795D01*
X32240444Y-113679204D01*
X32220000Y-113755504D01*
X32220000Y-113834496D01*
X32240444Y-113910796D01*
X32279940Y-113979205D01*
X32335795Y-114035060D01*
X32353012Y-114045000D01*
X30990275Y-114045000D01*
X25900500Y-114045000D01*
X25900500Y-103116015D01*
X31219500Y-103116015D01*
X31225650Y-103204624D01*
X31225652Y-103204640D01*
X31274465Y-103412176D01*
X31274467Y-103412182D01*
X31274468Y-103412185D01*
X31360591Y-103607237D01*
X31360592Y-103607238D01*
X31481088Y-103783141D01*
X31481093Y-103783147D01*
X31631852Y-103933906D01*
X31631858Y-103933911D01*
X31807763Y-104054409D01*
X32002815Y-104140532D01*
X32002821Y-104140533D01*
X32002823Y-104140534D01*
X32210359Y-104189347D01*
X32210364Y-104189347D01*
X32210370Y-104189349D01*
X32259602Y-104192766D01*
X32298984Y-104195500D01*
X32298988Y-104195500D01*
X33741016Y-104195500D01*
X33776459Y-104193039D01*
X33829630Y-104189349D01*
X33829636Y-104189347D01*
X33829640Y-104189347D01*
X34037176Y-104140534D01*
X34037174Y-104140534D01*
X34037185Y-104140532D01*
X34232237Y-104054409D01*
X34408142Y-103933911D01*
X34558911Y-103783142D01*
X34679409Y-103607237D01*
X34765532Y-103412185D01*
X34814349Y-103204630D01*
X34820500Y-103116015D01*
X45189500Y-103116015D01*
X45195650Y-103204624D01*
X45195652Y-103204640D01*
X45244465Y-103412176D01*
X45244467Y-103412182D01*
X45244468Y-103412185D01*
X45330591Y-103607237D01*
X45330592Y-103607238D01*
X45451088Y-103783141D01*
X45451093Y-103783147D01*
X45601852Y-103933906D01*
X45601858Y-103933911D01*
X45777763Y-104054409D01*
X45972815Y-104140532D01*
X45972821Y-104140533D01*
X45972823Y-104140534D01*
X46180359Y-104189347D01*
X46180364Y-104189347D01*
X46180370Y-104189349D01*
X46229602Y-104192766D01*
X46268984Y-104195500D01*
X46268988Y-104195500D01*
X47711016Y-104195500D01*
X47746459Y-104193039D01*
X47799630Y-104189349D01*
X47799636Y-104189347D01*
X47799640Y-104189347D01*
X48007176Y-104140534D01*
X48007174Y-104140534D01*
X48007185Y-104140532D01*
X48202237Y-104054409D01*
X48378142Y-103933911D01*
X48528911Y-103783142D01*
X48649409Y-103607237D01*
X48735532Y-103412185D01*
X48784349Y-103204630D01*
X48790500Y-103116012D01*
X48790500Y-101673988D01*
X48784349Y-101585370D01*
X48784347Y-101585364D01*
X48784347Y-101585359D01*
X48735534Y-101377823D01*
X48735532Y-101377817D01*
X48735532Y-101377815D01*
X48649409Y-101182763D01*
X48528911Y-101006858D01*
X48528906Y-101006852D01*
X48378147Y-100856093D01*
X48378141Y-100856088D01*
X48202238Y-100735592D01*
X48202239Y-100735592D01*
X48202237Y-100735591D01*
X48007185Y-100649468D01*
X48007183Y-100649467D01*
X48007182Y-100649467D01*
X48007176Y-100649465D01*
X47799640Y-100600652D01*
X47799624Y-100600650D01*
X47711016Y-100594500D01*
X47711012Y-100594500D01*
X46268988Y-100594500D01*
X46268984Y-100594500D01*
X46180375Y-100600650D01*
X46180359Y-100600652D01*
X45972823Y-100649465D01*
X45972817Y-100649467D01*
X45777761Y-100735592D01*
X45601858Y-100856088D01*
X45601852Y-100856093D01*
X45451093Y-101006852D01*
X45451088Y-101006858D01*
X45330592Y-101182761D01*
X45244467Y-101377817D01*
X45244465Y-101377823D01*
X45195652Y-101585359D01*
X45195650Y-101585375D01*
X45189500Y-101673984D01*
X45189500Y-103116015D01*
X34820500Y-103116015D01*
X34820500Y-103116012D01*
X34820500Y-101673988D01*
X34814349Y-101585370D01*
X34814347Y-101585364D01*
X34814347Y-101585359D01*
X34765534Y-101377823D01*
X34765532Y-101377817D01*
X34765532Y-101377815D01*
X34679409Y-101182763D01*
X34558911Y-101006858D01*
X34558906Y-101006852D01*
X34408147Y-100856093D01*
X34408141Y-100856088D01*
X34232238Y-100735592D01*
X34232239Y-100735592D01*
X34232237Y-100735591D01*
X34037185Y-100649468D01*
X34037183Y-100649467D01*
X34037182Y-100649467D01*
X34037176Y-100649465D01*
X33829640Y-100600652D01*
X33829624Y-100600650D01*
X33741016Y-100594500D01*
X33741012Y-100594500D01*
X32298988Y-100594500D01*
X32298984Y-100594500D01*
X32210375Y-100600650D01*
X32210359Y-100600652D01*
X32002823Y-100649465D01*
X32002817Y-100649467D01*
X31807761Y-100735592D01*
X31631858Y-100856088D01*
X31631852Y-100856093D01*
X31481093Y-101006852D01*
X31481088Y-101006858D01*
X31360592Y-101182761D01*
X31274467Y-101377817D01*
X31274465Y-101377823D01*
X31225652Y-101585359D01*
X31225650Y-101585375D01*
X31219500Y-101673984D01*
X31219500Y-103116015D01*
X25900500Y-103116015D01*
X25900500Y-96265000D01*
X30990275Y-96265000D01*
X31008165Y-96377959D01*
X31083560Y-96609998D01*
X31194321Y-96827377D01*
X31337728Y-97024759D01*
X31510240Y-97197271D01*
X31707622Y-97340678D01*
X31925001Y-97451439D01*
X32157040Y-97526834D01*
X32398007Y-97565000D01*
X32770000Y-97565000D01*
X32770000Y-96315000D01*
X33270000Y-96315000D01*
X33270000Y-97565000D01*
X33641993Y-97565000D01*
X33882959Y-97526834D01*
X34114998Y-97451439D01*
X34332377Y-97340678D01*
X34529759Y-97197271D01*
X34702271Y-97024759D01*
X34845678Y-96827377D01*
X34956439Y-96609998D01*
X35031834Y-96377959D01*
X35049725Y-96265000D01*
X44960275Y-96265000D01*
X44978165Y-96377959D01*
X45053560Y-96609998D01*
X45164321Y-96827377D01*
X45307728Y-97024759D01*
X45480240Y-97197271D01*
X45677622Y-97340678D01*
X45895001Y-97451439D01*
X46127040Y-97526834D01*
X46368007Y-97565000D01*
X46740000Y-97565000D01*
X46740000Y-96315000D01*
X47240000Y-96315000D01*
X47240000Y-97565000D01*
X47611993Y-97565000D01*
X47852959Y-97526834D01*
X48084998Y-97451439D01*
X48302377Y-97340678D01*
X48499759Y-97197271D01*
X48672271Y-97024759D01*
X48815678Y-96827377D01*
X48926439Y-96609998D01*
X49001834Y-96377959D01*
X49019725Y-96265000D01*
X47656988Y-96265000D01*
X47674205Y-96255060D01*
X47730060Y-96199205D01*
X47769556Y-96130796D01*
X47790000Y-96054496D01*
X47790000Y-95975504D01*
X47769556Y-95899204D01*
X47730060Y-95830795D01*
X47674205Y-95774940D01*
X47656988Y-95765000D01*
X49019725Y-95765000D01*
X49001834Y-95652040D01*
X48926439Y-95420001D01*
X48815678Y-95202622D01*
X48672271Y-95005240D01*
X48499759Y-94832728D01*
X48314550Y-94698165D01*
X48271885Y-94642835D01*
X48265906Y-94573221D01*
X48298512Y-94511426D01*
X48317354Y-94495551D01*
X48378142Y-94453911D01*
X48528911Y-94303142D01*
X48649409Y-94127237D01*
X48735532Y-93932185D01*
X48784349Y-93724630D01*
X48790500Y-93636012D01*
X48790500Y-92193988D01*
X48784349Y-92105370D01*
X48784347Y-92105364D01*
X48784347Y-92105359D01*
X48735534Y-91897823D01*
X48735532Y-91897817D01*
X48735532Y-91897815D01*
X48649409Y-91702763D01*
X48528911Y-91526858D01*
X48528906Y-91526852D01*
X48378147Y-91376093D01*
X48378141Y-91376088D01*
X48202238Y-91255592D01*
X48202239Y-91255592D01*
X48202237Y-91255591D01*
X48007185Y-91169468D01*
X48007183Y-91169467D01*
X48007182Y-91169467D01*
X48007176Y-91169465D01*
X47799640Y-91120652D01*
X47799624Y-91120650D01*
X47711016Y-91114500D01*
X47711012Y-91114500D01*
X46268988Y-91114500D01*
X46268984Y-91114500D01*
X46180375Y-91120650D01*
X46180359Y-91120652D01*
X45972823Y-91169465D01*
X45972817Y-91169467D01*
X45777761Y-91255592D01*
X45601858Y-91376088D01*
X45601852Y-91376093D01*
X45451093Y-91526852D01*
X45451088Y-91526858D01*
X45330592Y-91702761D01*
X45244467Y-91897817D01*
X45244465Y-91897823D01*
X45195652Y-92105359D01*
X45195650Y-92105375D01*
X45189500Y-92193984D01*
X45189500Y-93636015D01*
X45195650Y-93724624D01*
X45195652Y-93724640D01*
X45244465Y-93932176D01*
X45244467Y-93932182D01*
X45244468Y-93932185D01*
X45330591Y-94127237D01*
X45330592Y-94127238D01*
X45451088Y-94303141D01*
X45451093Y-94303147D01*
X45601852Y-94453906D01*
X45601857Y-94453910D01*
X45601858Y-94453911D01*
X45662637Y-94495546D01*
X45662639Y-94495547D01*
X45706822Y-94549673D01*
X45714729Y-94619093D01*
X45683849Y-94681769D01*
X45665449Y-94698165D01*
X45480241Y-94832727D01*
X45307728Y-95005240D01*
X45164321Y-95202622D01*
X45053560Y-95420001D01*
X44978165Y-95652040D01*
X44960275Y-95765000D01*
X46323012Y-95765000D01*
X46305795Y-95774940D01*
X46249940Y-95830795D01*
X46210444Y-95899204D01*
X46190000Y-95975504D01*
X46190000Y-96054496D01*
X46210444Y-96130796D01*
X46249940Y-96199205D01*
X46305795Y-96255060D01*
X46323012Y-96265000D01*
X44960275Y-96265000D01*
X35049725Y-96265000D01*
X33686988Y-96265000D01*
X33704205Y-96255060D01*
X33760060Y-96199205D01*
X33799556Y-96130796D01*
X33820000Y-96054496D01*
X33820000Y-95975504D01*
X33799556Y-95899204D01*
X33760060Y-95830795D01*
X33704205Y-95774940D01*
X33686988Y-95765000D01*
X35049725Y-95765000D01*
X35031834Y-95652040D01*
X34956439Y-95420001D01*
X34845678Y-95202622D01*
X34702271Y-95005240D01*
X34529759Y-94832728D01*
X34344550Y-94698165D01*
X34301885Y-94642835D01*
X34295906Y-94573221D01*
X34328512Y-94511426D01*
X34347354Y-94495551D01*
X34408142Y-94453911D01*
X34558911Y-94303142D01*
X34679409Y-94127237D01*
X34765532Y-93932185D01*
X34814349Y-93724630D01*
X34820500Y-93636012D01*
X34820500Y-92193988D01*
X34814349Y-92105370D01*
X34814347Y-92105364D01*
X34814347Y-92105359D01*
X34765534Y-91897823D01*
X34765532Y-91897817D01*
X34765532Y-91897815D01*
X34679409Y-91702763D01*
X34558911Y-91526858D01*
X34558906Y-91526852D01*
X34408147Y-91376093D01*
X34408141Y-91376088D01*
X34232238Y-91255592D01*
X34232239Y-91255592D01*
X34232237Y-91255591D01*
X34037185Y-91169468D01*
X34037183Y-91169467D01*
X34037182Y-91169467D01*
X34037176Y-91169465D01*
X33829640Y-91120652D01*
X33829624Y-91120650D01*
X33741016Y-91114500D01*
X33741012Y-91114500D01*
X32298988Y-91114500D01*
X32298984Y-91114500D01*
X32210375Y-91120650D01*
X32210359Y-91120652D01*
X32002823Y-91169465D01*
X32002817Y-91169467D01*
X31807761Y-91255592D01*
X31631858Y-91376088D01*
X31631852Y-91376093D01*
X31481093Y-91526852D01*
X31481088Y-91526858D01*
X31360592Y-91702761D01*
X31274467Y-91897817D01*
X31274465Y-91897823D01*
X31225652Y-92105359D01*
X31225650Y-92105375D01*
X31219500Y-92193984D01*
X31219500Y-93636015D01*
X31225650Y-93724624D01*
X31225652Y-93724640D01*
X31274465Y-93932176D01*
X31274467Y-93932182D01*
X31274468Y-93932185D01*
X31360591Y-94127237D01*
X31360592Y-94127238D01*
X31481088Y-94303141D01*
X31481093Y-94303147D01*
X31631852Y-94453906D01*
X31631857Y-94453910D01*
X31631858Y-94453911D01*
X31692637Y-94495546D01*
X31692639Y-94495547D01*
X31736822Y-94549673D01*
X31744729Y-94619093D01*
X31713849Y-94681769D01*
X31695449Y-94698165D01*
X31510241Y-94832727D01*
X31337728Y-95005240D01*
X31194321Y-95202622D01*
X31083560Y-95420001D01*
X31008165Y-95652040D01*
X30990275Y-95765000D01*
X32353012Y-95765000D01*
X32335795Y-95774940D01*
X32279940Y-95830795D01*
X32240444Y-95899204D01*
X32220000Y-95975504D01*
X32220000Y-96054496D01*
X32240444Y-96130796D01*
X32279940Y-96199205D01*
X32335795Y-96255060D01*
X32353012Y-96265000D01*
X30990275Y-96265000D01*
X25900500Y-96265000D01*
X25900500Y-85336015D01*
X31219500Y-85336015D01*
X31225650Y-85424624D01*
X31225652Y-85424640D01*
X31274465Y-85632176D01*
X31274467Y-85632182D01*
X31274468Y-85632185D01*
X31360591Y-85827237D01*
X31360592Y-85827238D01*
X31481088Y-86003141D01*
X31481093Y-86003147D01*
X31631852Y-86153906D01*
X31631858Y-86153911D01*
X31807763Y-86274409D01*
X32002815Y-86360532D01*
X32002821Y-86360533D01*
X32002823Y-86360534D01*
X32210359Y-86409347D01*
X32210364Y-86409347D01*
X32210370Y-86409349D01*
X32259602Y-86412766D01*
X32298984Y-86415500D01*
X32298988Y-86415500D01*
X33741016Y-86415500D01*
X33776459Y-86413039D01*
X33829630Y-86409349D01*
X33829636Y-86409347D01*
X33829640Y-86409347D01*
X34037176Y-86360534D01*
X34037174Y-86360534D01*
X34037185Y-86360532D01*
X34232237Y-86274409D01*
X34408142Y-86153911D01*
X34558911Y-86003142D01*
X34679409Y-85827237D01*
X34765532Y-85632185D01*
X34814349Y-85424630D01*
X34820500Y-85336015D01*
X45189500Y-85336015D01*
X45195650Y-85424624D01*
X45195652Y-85424640D01*
X45244465Y-85632176D01*
X45244467Y-85632182D01*
X45244468Y-85632185D01*
X45330591Y-85827237D01*
X45330592Y-85827238D01*
X45451088Y-86003141D01*
X45451093Y-86003147D01*
X45601852Y-86153906D01*
X45601858Y-86153911D01*
X45777763Y-86274409D01*
X45972815Y-86360532D01*
X45972821Y-86360533D01*
X45972823Y-86360534D01*
X46180359Y-86409347D01*
X46180364Y-86409347D01*
X46180370Y-86409349D01*
X46229602Y-86412766D01*
X46268984Y-86415500D01*
X46268988Y-86415500D01*
X47711016Y-86415500D01*
X47746459Y-86413039D01*
X47799630Y-86409349D01*
X47799636Y-86409347D01*
X47799640Y-86409347D01*
X48007176Y-86360534D01*
X48007174Y-86360534D01*
X48007185Y-86360532D01*
X48202237Y-86274409D01*
X48378142Y-86153911D01*
X48528911Y-86003142D01*
X48649409Y-85827237D01*
X48735532Y-85632185D01*
X48784349Y-85424630D01*
X48790500Y-85336012D01*
X48790500Y-83893988D01*
X48784349Y-83805370D01*
X48784347Y-83805364D01*
X48784347Y-83805359D01*
X48735534Y-83597823D01*
X48735532Y-83597817D01*
X48735532Y-83597815D01*
X48649409Y-83402763D01*
X48528911Y-83226858D01*
X48528906Y-83226852D01*
X48378147Y-83076093D01*
X48378141Y-83076088D01*
X48202238Y-82955592D01*
X48202239Y-82955592D01*
X48202237Y-82955591D01*
X48007185Y-82869468D01*
X48007183Y-82869467D01*
X48007182Y-82869467D01*
X48007176Y-82869465D01*
X47799640Y-82820652D01*
X47799624Y-82820650D01*
X47711016Y-82814500D01*
X47711012Y-82814500D01*
X46268988Y-82814500D01*
X46268984Y-82814500D01*
X46180375Y-82820650D01*
X46180359Y-82820652D01*
X45972823Y-82869465D01*
X45972817Y-82869467D01*
X45777761Y-82955592D01*
X45601858Y-83076088D01*
X45601852Y-83076093D01*
X45451093Y-83226852D01*
X45451088Y-83226858D01*
X45330592Y-83402761D01*
X45244467Y-83597817D01*
X45244465Y-83597823D01*
X45195652Y-83805359D01*
X45195650Y-83805375D01*
X45189500Y-83893984D01*
X45189500Y-85336015D01*
X34820500Y-85336015D01*
X34820500Y-85336012D01*
X34820500Y-83893988D01*
X34814349Y-83805370D01*
X34814347Y-83805364D01*
X34814347Y-83805359D01*
X34765534Y-83597823D01*
X34765532Y-83597817D01*
X34765532Y-83597815D01*
X34679409Y-83402763D01*
X34558911Y-83226858D01*
X34558906Y-83226852D01*
X34408147Y-83076093D01*
X34408141Y-83076088D01*
X34232238Y-82955592D01*
X34232239Y-82955592D01*
X34232237Y-82955591D01*
X34037185Y-82869468D01*
X34037183Y-82869467D01*
X34037182Y-82869467D01*
X34037176Y-82869465D01*
X33829640Y-82820652D01*
X33829624Y-82820650D01*
X33741016Y-82814500D01*
X33741012Y-82814500D01*
X32298988Y-82814500D01*
X32298984Y-82814500D01*
X32210375Y-82820650D01*
X32210359Y-82820652D01*
X32002823Y-82869465D01*
X32002817Y-82869467D01*
X31807761Y-82955592D01*
X31631858Y-83076088D01*
X31631852Y-83076093D01*
X31481093Y-83226852D01*
X31481088Y-83226858D01*
X31360592Y-83402761D01*
X31274467Y-83597817D01*
X31274465Y-83597823D01*
X31225652Y-83805359D01*
X31225650Y-83805375D01*
X31219500Y-83893984D01*
X31219500Y-85336015D01*
X25900500Y-85336015D01*
X25900500Y-63500000D01*
X27099778Y-63500000D01*
X27117883Y-63776235D01*
X27118644Y-63787837D01*
X27118646Y-63787849D01*
X27174917Y-64070745D01*
X27174921Y-64070760D01*
X27267642Y-64343905D01*
X27395219Y-64602606D01*
X27395223Y-64602613D01*
X27555478Y-64842452D01*
X27745672Y-65059327D01*
X27962547Y-65249521D01*
X28147568Y-65373148D01*
X28202389Y-65409778D01*
X28461098Y-65537359D01*
X28734247Y-65630081D01*
X29017161Y-65686356D01*
X29305000Y-65705222D01*
X29592839Y-65686356D01*
X29875753Y-65630081D01*
X30148902Y-65537359D01*
X30407611Y-65409778D01*
X30647454Y-65249520D01*
X30864327Y-65059327D01*
X31054520Y-64842454D01*
X31214778Y-64602611D01*
X31342359Y-64343902D01*
X31435081Y-64070753D01*
X31491356Y-63787839D01*
X31506601Y-63555253D01*
X31912740Y-63555253D01*
X31913619Y-63563337D01*
X31913591Y-63563340D01*
X31915771Y-63579902D01*
X31920511Y-63788952D01*
X31919084Y-63805597D01*
X31919114Y-63805599D01*
X31918602Y-63813705D01*
X31922116Y-63865337D01*
X31922370Y-63870943D01*
X31923543Y-63922679D01*
X31924787Y-63930712D01*
X31924757Y-63930716D01*
X31927684Y-63947160D01*
X31941793Y-64154474D01*
X31941120Y-64171137D01*
X31941155Y-64171138D01*
X31941010Y-64179260D01*
X31946855Y-64230726D01*
X31947361Y-64236296D01*
X31950879Y-64287974D01*
X31952484Y-64295937D01*
X31952449Y-64295943D01*
X31956111Y-64312212D01*
X31979435Y-64517560D01*
X31979515Y-64534220D01*
X31979554Y-64534219D01*
X31979774Y-64542339D01*
X31987935Y-64593516D01*
X31988690Y-64599044D01*
X31994540Y-64650547D01*
X31996503Y-64658428D01*
X31996463Y-64658437D01*
X32000849Y-64674503D01*
X32033249Y-64877685D01*
X32034077Y-64894297D01*
X32034120Y-64894294D01*
X32034705Y-64902397D01*
X32045166Y-64953205D01*
X32046166Y-64958682D01*
X32054332Y-65009890D01*
X32056649Y-65017682D01*
X32056606Y-65017694D01*
X32061703Y-65033524D01*
X32103045Y-65234324D01*
X32104614Y-65250862D01*
X32104661Y-65250857D01*
X32105610Y-65258928D01*
X32105610Y-65258932D01*
X32118346Y-65309255D01*
X32119584Y-65314649D01*
X32130047Y-65365472D01*
X32132711Y-65373148D01*
X32132666Y-65373163D01*
X32138465Y-65388742D01*
X32188634Y-65586956D01*
X32190942Y-65603403D01*
X32190991Y-65603396D01*
X32192299Y-65611411D01*
X32192299Y-65611414D01*
X32192300Y-65611415D01*
X32197925Y-65630082D01*
X32207276Y-65661116D01*
X32208757Y-65666462D01*
X32221496Y-65716789D01*
X32224500Y-65724336D01*
X32224453Y-65724354D01*
X32230938Y-65739641D01*
X32289826Y-65935071D01*
X32292866Y-65951385D01*
X32292916Y-65951375D01*
X32294583Y-65959332D01*
X32311766Y-66008309D01*
X32313484Y-66013581D01*
X32328467Y-66063302D01*
X32331810Y-66070716D01*
X32331763Y-66070736D01*
X32338920Y-66085709D01*
X32406433Y-66278143D01*
X32410199Y-66294302D01*
X32410248Y-66294290D01*
X32412268Y-66302161D01*
X32431629Y-66350333D01*
X32433582Y-66355524D01*
X32450773Y-66404526D01*
X32454441Y-66411777D01*
X32454395Y-66411799D01*
X32462215Y-66426437D01*
X32538263Y-66615651D01*
X32542750Y-66631635D01*
X32542799Y-66631621D01*
X32545169Y-66639395D01*
X32566666Y-66686654D01*
X32568849Y-66691753D01*
X32588209Y-66739923D01*
X32592199Y-66747006D01*
X32592154Y-66747030D01*
X32600621Y-66761303D01*
X32685132Y-66947094D01*
X32690329Y-66962862D01*
X32690376Y-66962846D01*
X32693094Y-66970509D01*
X32716676Y-67016742D01*
X32719087Y-67021741D01*
X32729079Y-67043706D01*
X32740582Y-67068995D01*
X32740583Y-67068996D01*
X32744884Y-67075890D01*
X32744841Y-67075916D01*
X32753943Y-67089803D01*
X32846847Y-67271939D01*
X32852749Y-67287469D01*
X32852793Y-67287452D01*
X32855852Y-67294988D01*
X32881468Y-67340090D01*
X32884104Y-67344983D01*
X32907689Y-67391219D01*
X32912295Y-67397915D01*
X32912256Y-67397941D01*
X32921977Y-67411416D01*
X33023219Y-67589672D01*
X33029820Y-67604940D01*
X33029861Y-67604922D01*
X33033253Y-67612308D01*
X33060851Y-67656187D01*
X33063708Y-67660964D01*
X33089336Y-67706085D01*
X33094235Y-67712564D01*
X33094200Y-67712590D01*
X33104533Y-67725636D01*
X33214059Y-67899772D01*
X33221350Y-67914747D01*
X33221385Y-67914730D01*
X33225106Y-67921954D01*
X33254653Y-67964549D01*
X33257731Y-67969206D01*
X33285320Y-68013070D01*
X33290508Y-68019326D01*
X33290477Y-68019351D01*
X33301388Y-68031921D01*
X33419183Y-68201726D01*
X33427149Y-68216373D01*
X33427180Y-68216356D01*
X33431223Y-68223406D01*
X33462634Y-68264585D01*
X33465914Y-68269093D01*
X33480802Y-68290554D01*
X33495446Y-68311665D01*
X33500914Y-68317684D01*
X33500887Y-68317707D01*
X33512378Y-68329798D01*
X33638386Y-68494992D01*
X33647020Y-68509287D01*
X33647046Y-68509271D01*
X33651404Y-68516131D01*
X33651405Y-68516132D01*
X33651406Y-68516134D01*
X33684634Y-68555831D01*
X33688121Y-68560195D01*
X33719513Y-68601349D01*
X33719517Y-68601352D01*
X33725242Y-68607110D01*
X33725220Y-68607131D01*
X33737256Y-68618701D01*
X33880224Y-68789504D01*
X33892514Y-68807075D01*
X33898359Y-68817195D01*
X33925385Y-68844213D01*
X33932781Y-68852293D01*
X33957311Y-68881599D01*
X33966876Y-68888313D01*
X33983293Y-68902104D01*
X33991558Y-68910367D01*
X34024534Y-68929400D01*
X34024637Y-68929459D01*
X34033898Y-68935366D01*
X34065168Y-68957318D01*
X34065169Y-68957318D01*
X34065170Y-68957319D01*
X34075184Y-68960977D01*
X34076143Y-68961328D01*
X34095575Y-68970402D01*
X34105696Y-68976243D01*
X34142607Y-68986128D01*
X34153071Y-68989433D01*
X34188952Y-69002542D01*
X34200581Y-69003573D01*
X34221698Y-69007307D01*
X34232994Y-69010333D01*
X34271210Y-69010326D01*
X34282152Y-69010810D01*
X34320221Y-69014188D01*
X34331727Y-69012173D01*
X34353091Y-69010315D01*
X34364779Y-69010314D01*
X34364784Y-69010312D01*
X34366214Y-69010125D01*
X34367424Y-69010313D01*
X34372911Y-69010313D01*
X34372911Y-69011168D01*
X34435251Y-69020878D01*
X34487515Y-69067249D01*
X34506412Y-69134515D01*
X34505354Y-69149296D01*
X34505185Y-69150570D01*
X34505182Y-69159807D01*
X34503151Y-69182110D01*
X34501484Y-69191205D01*
X34504751Y-69231715D01*
X34505152Y-69241725D01*
X34505137Y-69282344D01*
X34505138Y-69282353D01*
X34507525Y-69291272D01*
X34511336Y-69313347D01*
X34512079Y-69322556D01*
X34512080Y-69322562D01*
X34525714Y-69360825D01*
X34528694Y-69370395D01*
X34528706Y-69370439D01*
X34539199Y-69409656D01*
X34543818Y-69417664D01*
X34553210Y-69437995D01*
X34556313Y-69446701D01*
X34579396Y-69480147D01*
X34584750Y-69488619D01*
X34605046Y-69523804D01*
X34605048Y-69523806D01*
X34605050Y-69523809D01*
X34611343Y-69530107D01*
X34611582Y-69530346D01*
X34625916Y-69547554D01*
X34631166Y-69555160D01*
X34662121Y-69581495D01*
X34669477Y-69588283D01*
X34698201Y-69617028D01*
X34706199Y-69621649D01*
X34724506Y-69634566D01*
X34795743Y-69695168D01*
X34805054Y-69705172D01*
X34805558Y-69704690D01*
X34811183Y-69710557D01*
X34811184Y-69710558D01*
X34811185Y-69710559D01*
X34855487Y-69746061D01*
X34858226Y-69748323D01*
X34901471Y-69785112D01*
X34901473Y-69785112D01*
X34908294Y-69789524D01*
X34907915Y-69790108D01*
X34919499Y-69797359D01*
X34979526Y-69845462D01*
X34989122Y-69855182D01*
X34989611Y-69854686D01*
X34995402Y-69860383D01*
X35040700Y-69894553D01*
X35043562Y-69896778D01*
X35087852Y-69932271D01*
X35087854Y-69932272D01*
X35094804Y-69936482D01*
X35094442Y-69937079D01*
X35106229Y-69943985D01*
X35167387Y-69990120D01*
X35177260Y-69999550D01*
X35177735Y-69999039D01*
X35183689Y-70004562D01*
X35183692Y-70004566D01*
X35229985Y-70037407D01*
X35232900Y-70039540D01*
X35278213Y-70073723D01*
X35278215Y-70073724D01*
X35278219Y-70073727D01*
X35278222Y-70073728D01*
X35285293Y-70077733D01*
X35284947Y-70078342D01*
X35296926Y-70084897D01*
X35359195Y-70129072D01*
X35369335Y-70138207D01*
X35369797Y-70137680D01*
X35375915Y-70143032D01*
X35423137Y-70174498D01*
X35426068Y-70176513D01*
X35472435Y-70209407D01*
X35472441Y-70209409D01*
X35479622Y-70213204D01*
X35479294Y-70213823D01*
X35491453Y-70220022D01*
X35554821Y-70262248D01*
X35565222Y-70271083D01*
X35565669Y-70270542D01*
X35571934Y-70275706D01*
X35571936Y-70275709D01*
X35571938Y-70275710D01*
X35571939Y-70275711D01*
X35620083Y-70305799D01*
X35623072Y-70307727D01*
X35670363Y-70339241D01*
X35670366Y-70339242D01*
X35677661Y-70342828D01*
X35677350Y-70343459D01*
X35689683Y-70349297D01*
X35754121Y-70389568D01*
X35764772Y-70398093D01*
X35765203Y-70397538D01*
X35771618Y-70402519D01*
X35771624Y-70402525D01*
X35799798Y-70419009D01*
X35820652Y-70431211D01*
X35823748Y-70433084D01*
X35853084Y-70451418D01*
X35871874Y-70463161D01*
X35871881Y-70463163D01*
X35879277Y-70466535D01*
X35878985Y-70467175D01*
X35891473Y-70472647D01*
X35956978Y-70510975D01*
X35967868Y-70519180D01*
X35968283Y-70518614D01*
X35974843Y-70523407D01*
X35974845Y-70523409D01*
X36004024Y-70539357D01*
X36024659Y-70550636D01*
X36027808Y-70552417D01*
X36039976Y-70559536D01*
X36076823Y-70581095D01*
X36076828Y-70581096D01*
X36084312Y-70584247D01*
X36084037Y-70584898D01*
X36096682Y-70590000D01*
X36163239Y-70626378D01*
X36174369Y-70634264D01*
X36174766Y-70633688D01*
X36181458Y-70638285D01*
X36181463Y-70638287D01*
X36181465Y-70638289D01*
X36232102Y-70664076D01*
X36235263Y-70665745D01*
X36285085Y-70692976D01*
X36285089Y-70692977D01*
X36285091Y-70692978D01*
X36292670Y-70695913D01*
X36292416Y-70696567D01*
X36305198Y-70701301D01*
X36372785Y-70735720D01*
X36384139Y-70743274D01*
X36384518Y-70742687D01*
X36391346Y-70747090D01*
X36391347Y-70747090D01*
X36391349Y-70747092D01*
X36442731Y-70771397D01*
X36445898Y-70772952D01*
X36496520Y-70798732D01*
X36496523Y-70798732D01*
X36496526Y-70798734D01*
X36504191Y-70801447D01*
X36503956Y-70802109D01*
X36516873Y-70806469D01*
X36585472Y-70838918D01*
X36597045Y-70846146D01*
X36597409Y-70845545D01*
X36604360Y-70849745D01*
X36604364Y-70849746D01*
X36604367Y-70849749D01*
X36656438Y-70872544D01*
X36659683Y-70874023D01*
X36710993Y-70898294D01*
X36710996Y-70898294D01*
X36710997Y-70898295D01*
X36718736Y-70900783D01*
X36718520Y-70901452D01*
X36731560Y-70905431D01*
X36801182Y-70935910D01*
X36812953Y-70942791D01*
X36813299Y-70942181D01*
X36820379Y-70946181D01*
X36820382Y-70946183D01*
X36873023Y-70967417D01*
X36876311Y-70968799D01*
X36928375Y-70991593D01*
X36928380Y-70991593D01*
X36936182Y-70993852D01*
X36935986Y-70994527D01*
X36949149Y-70998128D01*
X36973859Y-71008096D01*
X37019770Y-71026616D01*
X37031740Y-71033156D01*
X37032069Y-71032534D01*
X37039254Y-71036321D01*
X37039255Y-71036321D01*
X37039259Y-71036324D01*
X37092527Y-71056022D01*
X37095829Y-71057299D01*
X37148403Y-71078508D01*
X37148522Y-71078556D01*
X37156393Y-71080587D01*
X37156217Y-71081269D01*
X37169479Y-71084479D01*
X37241094Y-71110963D01*
X37253261Y-71117149D01*
X37253568Y-71116525D01*
X37260863Y-71120101D01*
X37260866Y-71120102D01*
X37260869Y-71120104D01*
X37314687Y-71138234D01*
X37318076Y-71139432D01*
X37371304Y-71159116D01*
X37371312Y-71159116D01*
X37379232Y-71160916D01*
X37379076Y-71161601D01*
X37392426Y-71164423D01*
X37465034Y-71188884D01*
X37477382Y-71194717D01*
X37477672Y-71194081D01*
X37485069Y-71197442D01*
X37485072Y-71197444D01*
X37485074Y-71197444D01*
X37485075Y-71197445D01*
X37539302Y-71213961D01*
X37542763Y-71215070D01*
X37596591Y-71233204D01*
X37604566Y-71234771D01*
X37604430Y-71235458D01*
X37617874Y-71237891D01*
X37691454Y-71260302D01*
X37703977Y-71265773D01*
X37704246Y-71265133D01*
X37711738Y-71268276D01*
X37759003Y-71281169D01*
X37818499Y-71317801D01*
X37821900Y-71321740D01*
X37822044Y-71321914D01*
X37827265Y-71328686D01*
X37827693Y-71329282D01*
X37830723Y-71334310D01*
X37830762Y-71334285D01*
X37835302Y-71341015D01*
X37835305Y-71341021D01*
X37835308Y-71341024D01*
X37835448Y-71341183D01*
X37843292Y-71351015D01*
X37843453Y-71351239D01*
X37843456Y-71351241D01*
X37849012Y-71357165D01*
X37848979Y-71357195D01*
X37853240Y-71361296D01*
X37853696Y-71361811D01*
X37859051Y-71368289D01*
X37859405Y-71368749D01*
X37862681Y-71373787D01*
X37862722Y-71373758D01*
X37867488Y-71380333D01*
X37867489Y-71380335D01*
X37867491Y-71380337D01*
X37867688Y-71380545D01*
X37875872Y-71390119D01*
X37876061Y-71390365D01*
X37881819Y-71396100D01*
X37881782Y-71396136D01*
X37886283Y-71400187D01*
X37886667Y-71400593D01*
X37892184Y-71406832D01*
X37892502Y-71407217D01*
X37895939Y-71412132D01*
X37895979Y-71412102D01*
X37900961Y-71418510D01*
X37901186Y-71418732D01*
X37909672Y-71428004D01*
X37909916Y-71428300D01*
X37909920Y-71428303D01*
X37915864Y-71433835D01*
X37915837Y-71433863D01*
X37920339Y-71437641D01*
X37920674Y-71437972D01*
X37926563Y-71444186D01*
X37926891Y-71444557D01*
X37930491Y-71449352D01*
X37930526Y-71449323D01*
X37935723Y-71455559D01*
X37935993Y-71455808D01*
X37944785Y-71464787D01*
X37945019Y-71465052D01*
X37951155Y-71470386D01*
X37951121Y-71470424D01*
X37955893Y-71474167D01*
X37956250Y-71474496D01*
X37962237Y-71480413D01*
X37962549Y-71480743D01*
X37966276Y-71485374D01*
X37966308Y-71485346D01*
X37971718Y-71491408D01*
X37971994Y-71491646D01*
X37981092Y-71500329D01*
X37981326Y-71500576D01*
X37987645Y-71505705D01*
X37987609Y-71505748D01*
X37992545Y-71509357D01*
X37992896Y-71509660D01*
X37998929Y-71515227D01*
X37999304Y-71515597D01*
X38003273Y-71520197D01*
X38003310Y-71520162D01*
X38008925Y-71526041D01*
X38009185Y-71526250D01*
X38018573Y-71534621D01*
X38018799Y-71534844D01*
X38025280Y-71539751D01*
X38025244Y-71539797D01*
X38030328Y-71543258D01*
X38030612Y-71543487D01*
X38030757Y-71543604D01*
X38036994Y-71548986D01*
X38037423Y-71549382D01*
X38041470Y-71553766D01*
X38041501Y-71553735D01*
X38047309Y-71559417D01*
X38047574Y-71559616D01*
X38057230Y-71567657D01*
X38057424Y-71567836D01*
X38064071Y-71572523D01*
X38064037Y-71572571D01*
X38069178Y-71575821D01*
X38069653Y-71576178D01*
X38076034Y-71581312D01*
X38076570Y-71581775D01*
X38080813Y-71586066D01*
X38080849Y-71586028D01*
X38086848Y-71591512D01*
X38087056Y-71591657D01*
X38097001Y-71599383D01*
X38097155Y-71599516D01*
X38103956Y-71603976D01*
X38103930Y-71604015D01*
X38108989Y-71606975D01*
X38109584Y-71607390D01*
X38116255Y-71612387D01*
X38116937Y-71612935D01*
X38121310Y-71617067D01*
X38121345Y-71617027D01*
X38127526Y-71622302D01*
X38127663Y-71622391D01*
X38137904Y-71629803D01*
X38137965Y-71629852D01*
X38137969Y-71629855D01*
X38144912Y-71634079D01*
X38144885Y-71634123D01*
X38150018Y-71636897D01*
X38150766Y-71637382D01*
X38157652Y-71642188D01*
X38158472Y-71642803D01*
X38162887Y-71646702D01*
X38162920Y-71646662D01*
X38169276Y-71651722D01*
X38169278Y-71651723D01*
X38169280Y-71651725D01*
X38169325Y-71651752D01*
X38179813Y-71658813D01*
X38186908Y-71662807D01*
X38186877Y-71662861D01*
X38192205Y-71665514D01*
X38192882Y-71665921D01*
X38193069Y-71666034D01*
X38200001Y-71670536D01*
X38201057Y-71671273D01*
X38205555Y-71674979D01*
X38205587Y-71674937D01*
X38212152Y-71679806D01*
X38222607Y-71686339D01*
X38229901Y-71690124D01*
X38229875Y-71690173D01*
X38235105Y-71692557D01*
X38236224Y-71693179D01*
X38243461Y-71697531D01*
X38244702Y-71698336D01*
X38249260Y-71701838D01*
X38249290Y-71701795D01*
X38256079Y-71706478D01*
X38266374Y-71712430D01*
X38266554Y-71712515D01*
X38266559Y-71712519D01*
X38266564Y-71712520D01*
X38273902Y-71716018D01*
X38273877Y-71716070D01*
X38279046Y-71718214D01*
X38280428Y-71718921D01*
X38287861Y-71723051D01*
X38289419Y-71723988D01*
X38293965Y-71727241D01*
X38293994Y-71727197D01*
X38300842Y-71731580D01*
X38300844Y-71731582D01*
X38300845Y-71731582D01*
X38301057Y-71731718D01*
X38311066Y-71737058D01*
X38318806Y-71740428D01*
X38318782Y-71740483D01*
X38323979Y-71742434D01*
X38325634Y-71743210D01*
X38333184Y-71747073D01*
X38334140Y-71747604D01*
X38335024Y-71748095D01*
X38339646Y-71751167D01*
X38339677Y-71751115D01*
X38346974Y-71755440D01*
X38356691Y-71760202D01*
X38357083Y-71760356D01*
X38357085Y-71760358D01*
X38357087Y-71760358D01*
X38364650Y-71763347D01*
X38364625Y-71763408D01*
X38369794Y-71765148D01*
X38371742Y-71765981D01*
X38379428Y-71769583D01*
X38381656Y-71770723D01*
X38386283Y-71773574D01*
X38386313Y-71773520D01*
X38393862Y-71777647D01*
X38403158Y-71781812D01*
X38411362Y-71784734D01*
X38411339Y-71784797D01*
X38416411Y-71786312D01*
X38418739Y-71787213D01*
X38426640Y-71790590D01*
X38429230Y-71791805D01*
X38433816Y-71794416D01*
X38433846Y-71794358D01*
X38441669Y-71798288D01*
X38450480Y-71801875D01*
X38458900Y-71804551D01*
X38458877Y-71804621D01*
X38463924Y-71805940D01*
X38465637Y-71806536D01*
X38466630Y-71806882D01*
X38474611Y-71809973D01*
X38477657Y-71811275D01*
X38482216Y-71813665D01*
X38482247Y-71813598D01*
X38489628Y-71816989D01*
X38489632Y-71816992D01*
X38489636Y-71816993D01*
X38490369Y-71817330D01*
X38498583Y-71820346D01*
X38499407Y-71820576D01*
X38499412Y-71820579D01*
X38499417Y-71820579D01*
X38507245Y-71822773D01*
X38507224Y-71822847D01*
X38512148Y-71823953D01*
X38513946Y-71824508D01*
X38515290Y-71824924D01*
X38523443Y-71827757D01*
X38526928Y-71829107D01*
X38531427Y-71831270D01*
X38531458Y-71831197D01*
X38538960Y-71834331D01*
X38538964Y-71834334D01*
X38538968Y-71834335D01*
X38539851Y-71834704D01*
X38547479Y-71837208D01*
X38556369Y-71839370D01*
X38556349Y-71839450D01*
X38561171Y-71840358D01*
X38564763Y-71841332D01*
X38573020Y-71843883D01*
X38577041Y-71845282D01*
X38581451Y-71847216D01*
X38581481Y-71847137D01*
X38590159Y-71850410D01*
X38597059Y-71852411D01*
X38606197Y-71854299D01*
X38606178Y-71854386D01*
X38610866Y-71855100D01*
X38614990Y-71856064D01*
X38623364Y-71858335D01*
X38626439Y-71859286D01*
X38627868Y-71859728D01*
X38632192Y-71861446D01*
X38632222Y-71861358D01*
X38641197Y-71864388D01*
X38647336Y-71865936D01*
X38648700Y-71866168D01*
X38648707Y-71866171D01*
X38648713Y-71866171D01*
X38656724Y-71867539D01*
X38656707Y-71867633D01*
X38661263Y-71868164D01*
X38665856Y-71869070D01*
X38674332Y-71871052D01*
X38675889Y-71871474D01*
X38679455Y-71872442D01*
X38683654Y-71873942D01*
X38683684Y-71873844D01*
X38692932Y-71876607D01*
X38698278Y-71877758D01*
X38707874Y-71879050D01*
X38707859Y-71879156D01*
X38712295Y-71879516D01*
X38715568Y-71880042D01*
X38717443Y-71880344D01*
X38725969Y-71882023D01*
X38731648Y-71883351D01*
X38735736Y-71884652D01*
X38735765Y-71884542D01*
X38743637Y-71886592D01*
X38743640Y-71886594D01*
X38743642Y-71886594D01*
X38745315Y-71887030D01*
X38749802Y-71887832D01*
X38759642Y-71888808D01*
X38759630Y-71888923D01*
X38763892Y-71889117D01*
X38769559Y-71889824D01*
X38778187Y-71891210D01*
X38784529Y-71892461D01*
X38788458Y-71893560D01*
X38788486Y-71893439D01*
X38798311Y-71895631D01*
X38801855Y-71896136D01*
X38803797Y-71896259D01*
X38803800Y-71896260D01*
X38803802Y-71896259D01*
X38811916Y-71896776D01*
X38811907Y-71896904D01*
X38815987Y-71896947D01*
X38822312Y-71897509D01*
X38830976Y-71898587D01*
X38837915Y-71899702D01*
X38841681Y-71900614D01*
X38841707Y-71900478D01*
X38849706Y-71901967D01*
X38849709Y-71901968D01*
X38849712Y-71901968D01*
X38851817Y-71902360D01*
X38854467Y-71902643D01*
X38864730Y-71902934D01*
X38864726Y-71903071D01*
X38868625Y-71902974D01*
X38875457Y-71903337D01*
X38884187Y-71904113D01*
X38891863Y-71905070D01*
X38895442Y-71905802D01*
X38895465Y-71905653D01*
X38903502Y-71906855D01*
X38903508Y-71906857D01*
X38903513Y-71906857D01*
X38905879Y-71907211D01*
X38907460Y-71907323D01*
X38909805Y-71907306D01*
X38909808Y-71907307D01*
X38909810Y-71907306D01*
X38917951Y-71907250D01*
X38917952Y-71907400D01*
X38921647Y-71907177D01*
X38929174Y-71907310D01*
X38937928Y-71907775D01*
X38946054Y-71908497D01*
X38951531Y-71909107D01*
X38954311Y-71909230D01*
X38963467Y-71910044D01*
X38963474Y-71910042D01*
X38971586Y-71909700D01*
X38971604Y-71910133D01*
X38986400Y-71909242D01*
X39017441Y-71910894D01*
X39017442Y-71910893D01*
X39017447Y-71910894D01*
X39025549Y-71910263D01*
X39025582Y-71910692D01*
X39040347Y-71909276D01*
X39071742Y-71909832D01*
X39071748Y-71909830D01*
X39074324Y-71909538D01*
X39088328Y-71908745D01*
X40944105Y-71908745D01*
X40958825Y-71910418D01*
X40958867Y-71909986D01*
X40966951Y-71910760D01*
X40966955Y-71910761D01*
X41019998Y-71908884D01*
X41021779Y-71908822D01*
X41026161Y-71908745D01*
X41055417Y-71908745D01*
X41074628Y-71910242D01*
X41075266Y-71910342D01*
X41118794Y-71905700D01*
X41127515Y-71905081D01*
X41171263Y-71903535D01*
X41171266Y-71903533D01*
X41172930Y-71903475D01*
X41180401Y-71902679D01*
X41182112Y-71902372D01*
X41182114Y-71902373D01*
X41225273Y-71894656D01*
X41233902Y-71893426D01*
X41277481Y-71888781D01*
X41277482Y-71888780D01*
X41279624Y-71888552D01*
X41284824Y-71887623D01*
X41287074Y-71887054D01*
X41287077Y-71887055D01*
X41329653Y-71876306D01*
X41338176Y-71874470D01*
X41381407Y-71866743D01*
X41381407Y-71866742D01*
X41384057Y-71866269D01*
X41387014Y-71865523D01*
X41389767Y-71864619D01*
X41389768Y-71864619D01*
X41431615Y-71850878D01*
X41439912Y-71848472D01*
X41482639Y-71837687D01*
X41482642Y-71837684D01*
X41485780Y-71836893D01*
X41486612Y-71836620D01*
X41489821Y-71835312D01*
X41489828Y-71835312D01*
X41530774Y-71818635D01*
X41538810Y-71815684D01*
X41580808Y-71801897D01*
X41580810Y-71801895D01*
X41583833Y-71800903D01*
X41586908Y-71799395D01*
X41586915Y-71799394D01*
X41626752Y-71779865D01*
X41634500Y-71776393D01*
X41675582Y-71759664D01*
X41675584Y-71759662D01*
X41678146Y-71758619D01*
X41680730Y-71757124D01*
X41680735Y-71757123D01*
X41719236Y-71734853D01*
X41726707Y-71730868D01*
X41766648Y-71711290D01*
X41766651Y-71711287D01*
X41768820Y-71710224D01*
X41770986Y-71708765D01*
X41770990Y-71708764D01*
X41807988Y-71683851D01*
X41815119Y-71679395D01*
X41853738Y-71657059D01*
X41853742Y-71657053D01*
X41855605Y-71655977D01*
X41857417Y-71654568D01*
X41857424Y-71654566D01*
X41892704Y-71627154D01*
X41899506Y-71622230D01*
X41936582Y-71597268D01*
X41936584Y-71597264D01*
X41938224Y-71596161D01*
X41939769Y-71594782D01*
X41939771Y-71594782D01*
X41973164Y-71565002D01*
X41979605Y-71559638D01*
X42014945Y-71532184D01*
X42014946Y-71532182D01*
X42016432Y-71531028D01*
X42017782Y-71529648D01*
X42017784Y-71529648D01*
X42049120Y-71497649D01*
X42055173Y-71491874D01*
X42062462Y-71485374D01*
X42088587Y-71462078D01*
X42088589Y-71462074D01*
X42089987Y-71460828D01*
X42091204Y-71459403D01*
X42091210Y-71459400D01*
X42120311Y-71425356D01*
X42125946Y-71419199D01*
X42157278Y-71387207D01*
X42157279Y-71387205D01*
X42158665Y-71385790D01*
X42159801Y-71384263D01*
X42186489Y-71348380D01*
X42191713Y-71341830D01*
X42210501Y-71319854D01*
X42269024Y-71281691D01*
X42272085Y-71280812D01*
X42318107Y-71268253D01*
X42318109Y-71268251D01*
X42325599Y-71265108D01*
X42325870Y-71265755D01*
X42338389Y-71260278D01*
X42411943Y-71237867D01*
X42425382Y-71235434D01*
X42425247Y-71234745D01*
X42433213Y-71233178D01*
X42433220Y-71233178D01*
X42486988Y-71215057D01*
X42490407Y-71213960D01*
X42544734Y-71197408D01*
X42544740Y-71197403D01*
X42552142Y-71194040D01*
X42552432Y-71194680D01*
X42564777Y-71188842D01*
X42637335Y-71164391D01*
X42650691Y-71161565D01*
X42650536Y-71160880D01*
X42658455Y-71159079D01*
X42658465Y-71159079D01*
X42711708Y-71139383D01*
X42715061Y-71138197D01*
X42768901Y-71120055D01*
X42768906Y-71120051D01*
X42776201Y-71116474D01*
X42776511Y-71117107D01*
X42788678Y-71110911D01*
X42832439Y-71094724D01*
X42860256Y-71084435D01*
X42873519Y-71081217D01*
X42873345Y-71080540D01*
X42881207Y-71078510D01*
X42881211Y-71078508D01*
X42881214Y-71078508D01*
X42933882Y-71057255D01*
X42937199Y-71055973D01*
X42990473Y-71036267D01*
X42990476Y-71036265D01*
X42997663Y-71032476D01*
X42997992Y-71033101D01*
X43009962Y-71026556D01*
X43080558Y-70998069D01*
X43093709Y-70994472D01*
X43093514Y-70993796D01*
X43101314Y-70991536D01*
X43101325Y-70991535D01*
X43153357Y-70968750D01*
X43156618Y-70967378D01*
X43209317Y-70946115D01*
X43209323Y-70946109D01*
X43216400Y-70942111D01*
X43216746Y-70942723D01*
X43228525Y-70935836D01*
X43265727Y-70919545D01*
X43298101Y-70905369D01*
X43311146Y-70901391D01*
X43310930Y-70900719D01*
X43318666Y-70898232D01*
X43318667Y-70898231D01*
X43318669Y-70898231D01*
X43370049Y-70873920D01*
X43373216Y-70872477D01*
X43425294Y-70849675D01*
X43425297Y-70849673D01*
X43432252Y-70845470D01*
X43432616Y-70846072D01*
X43444180Y-70838846D01*
X43512758Y-70806400D01*
X43525680Y-70802043D01*
X43525445Y-70801377D01*
X43533103Y-70798666D01*
X43533103Y-70798665D01*
X43533107Y-70798665D01*
X43583729Y-70772880D01*
X43586934Y-70771307D01*
X43620349Y-70755496D01*
X43638276Y-70747015D01*
X43638282Y-70747009D01*
X43645109Y-70742607D01*
X43645492Y-70743201D01*
X43656840Y-70735640D01*
X43724391Y-70701232D01*
X43737178Y-70696500D01*
X43736923Y-70695842D01*
X43744499Y-70692907D01*
X43744508Y-70692906D01*
X43794390Y-70665636D01*
X43797468Y-70664011D01*
X43848125Y-70638210D01*
X43848128Y-70638206D01*
X43848130Y-70638206D01*
X43854826Y-70633606D01*
X43855226Y-70634188D01*
X43866342Y-70626303D01*
X43932877Y-70589930D01*
X43945517Y-70584827D01*
X43945244Y-70584177D01*
X43952726Y-70581025D01*
X43952733Y-70581024D01*
X44001774Y-70552324D01*
X44004813Y-70550604D01*
X44054711Y-70523329D01*
X44054715Y-70523324D01*
X44061280Y-70518528D01*
X44061696Y-70519097D01*
X44072583Y-70510889D01*
X44138050Y-70472577D01*
X44150544Y-70467108D01*
X44150251Y-70466464D01*
X44157645Y-70463091D01*
X44157652Y-70463090D01*
X44205821Y-70432980D01*
X44208897Y-70431120D01*
X44221194Y-70423923D01*
X44257896Y-70402447D01*
X44257900Y-70402442D01*
X44264313Y-70397462D01*
X44264747Y-70398020D01*
X44275396Y-70389490D01*
X44339807Y-70349229D01*
X44352137Y-70343392D01*
X44351827Y-70342761D01*
X44359120Y-70339175D01*
X44359119Y-70339175D01*
X44359123Y-70339174D01*
X44406418Y-70307653D01*
X44409365Y-70305750D01*
X44457551Y-70275633D01*
X44457558Y-70275624D01*
X44463820Y-70270462D01*
X44464270Y-70271008D01*
X44474659Y-70262175D01*
X44538014Y-70219953D01*
X44550164Y-70213764D01*
X44549836Y-70213142D01*
X44557018Y-70209345D01*
X44557018Y-70209344D01*
X44557023Y-70209343D01*
X44603343Y-70176477D01*
X44606283Y-70174456D01*
X44653538Y-70142964D01*
X44653546Y-70142954D01*
X44659656Y-70137610D01*
X44660120Y-70138140D01*
X44670261Y-70128998D01*
X44732499Y-70084839D01*
X44744479Y-70078290D01*
X44744131Y-70077676D01*
X44751201Y-70073671D01*
X44751204Y-70073670D01*
X44796531Y-70039471D01*
X44799394Y-70037377D01*
X44845730Y-70004503D01*
X44845736Y-70004495D01*
X44851686Y-69998975D01*
X44852164Y-69999491D01*
X44862032Y-69990056D01*
X44923167Y-69943934D01*
X44934952Y-69937036D01*
X44934588Y-69936435D01*
X44941535Y-69932226D01*
X44941535Y-69932225D01*
X44941539Y-69932224D01*
X44985878Y-69896687D01*
X44988660Y-69894524D01*
X45033985Y-69860331D01*
X45033986Y-69860329D01*
X45033988Y-69860328D01*
X45039779Y-69854631D01*
X45040270Y-69855130D01*
X45049855Y-69845413D01*
X45109864Y-69797319D01*
X45121442Y-69790079D01*
X45121061Y-69789490D01*
X45127886Y-69785074D01*
X45127889Y-69785074D01*
X45171104Y-69748305D01*
X45173846Y-69746041D01*
X45218174Y-69710516D01*
X45218177Y-69710511D01*
X45223795Y-69704652D01*
X45224301Y-69705137D01*
X45233606Y-69695130D01*
X45304737Y-69634613D01*
X45323082Y-69621676D01*
X45330971Y-69617122D01*
X45359786Y-69588304D01*
X45367104Y-69581552D01*
X45398161Y-69555131D01*
X45403336Y-69547632D01*
X45417713Y-69530377D01*
X45424155Y-69523936D01*
X45444536Y-69488632D01*
X45449862Y-69480210D01*
X45473011Y-69446666D01*
X45476070Y-69438078D01*
X45485489Y-69417699D01*
X45490046Y-69409807D01*
X45500596Y-69370426D01*
X45503562Y-69360911D01*
X45517227Y-69322556D01*
X45517238Y-69322526D01*
X45517970Y-69313444D01*
X45521793Y-69291319D01*
X45524153Y-69282513D01*
X45524152Y-69241756D01*
X45524553Y-69231789D01*
X45525147Y-69224422D01*
X45527829Y-69191167D01*
X45526186Y-69182207D01*
X45524152Y-69159842D01*
X45524152Y-69150730D01*
X45523942Y-69149136D01*
X45524152Y-69147788D01*
X45524152Y-69142600D01*
X45524961Y-69142600D01*
X45534703Y-69080100D01*
X45581080Y-69027841D01*
X45648348Y-69008952D01*
X45662958Y-69009990D01*
X45665131Y-69010273D01*
X45665136Y-69010275D01*
X45676505Y-69010264D01*
X45697985Y-69012120D01*
X45709183Y-69014081D01*
X45747550Y-69010676D01*
X45758389Y-69010192D01*
X45796921Y-69010158D01*
X45807894Y-69007207D01*
X45829144Y-69003437D01*
X45840452Y-69002434D01*
X45876631Y-68989214D01*
X45886969Y-68985942D01*
X45924184Y-68975936D01*
X45934024Y-68970242D01*
X45953555Y-68961109D01*
X45964233Y-68957209D01*
X45995759Y-68935075D01*
X46004883Y-68929248D01*
X46038254Y-68909943D01*
X46046278Y-68901903D01*
X46062795Y-68888014D01*
X46072092Y-68881488D01*
X46096820Y-68851942D01*
X46104134Y-68843943D01*
X46131357Y-68816674D01*
X46137035Y-68806818D01*
X46149376Y-68789153D01*
X46292141Y-68618587D01*
X46304175Y-68607022D01*
X46304154Y-68607001D01*
X46309881Y-68601239D01*
X46309886Y-68601236D01*
X46341298Y-68560053D01*
X46344738Y-68555748D01*
X46377993Y-68516019D01*
X46377994Y-68516015D01*
X46382349Y-68509162D01*
X46382374Y-68509178D01*
X46391008Y-68494882D01*
X46517029Y-68329668D01*
X46528507Y-68317592D01*
X46528481Y-68317568D01*
X46533941Y-68311555D01*
X46533948Y-68311550D01*
X46563459Y-68269006D01*
X46566747Y-68264487D01*
X46598171Y-68223291D01*
X46598174Y-68223282D01*
X46602215Y-68216238D01*
X46602245Y-68216255D01*
X46610211Y-68201608D01*
X46728000Y-68031805D01*
X46738914Y-68019233D01*
X46738883Y-68019208D01*
X46744070Y-68012953D01*
X46744071Y-68012952D01*
X46771684Y-67969047D01*
X46774712Y-67964464D01*
X46804283Y-67921837D01*
X46804285Y-67921830D01*
X46808007Y-67914606D01*
X46808042Y-67914624D01*
X46815328Y-67899655D01*
X46924856Y-67725511D01*
X46935184Y-67712472D01*
X46935149Y-67712446D01*
X46940046Y-67705967D01*
X46940052Y-67705962D01*
X46965667Y-67660857D01*
X46968511Y-67656102D01*
X46996134Y-67612185D01*
X46996136Y-67612178D01*
X46999526Y-67604798D01*
X46999567Y-67604816D01*
X47006165Y-67589549D01*
X47107401Y-67411298D01*
X47117124Y-67397823D01*
X47117085Y-67397796D01*
X47121686Y-67391106D01*
X47121693Y-67391099D01*
X47145299Y-67344815D01*
X47147885Y-67340014D01*
X47173531Y-67294862D01*
X47173533Y-67294853D01*
X47176591Y-67287324D01*
X47176635Y-67287342D01*
X47182531Y-67271821D01*
X47275433Y-67089683D01*
X47284536Y-67075797D01*
X47284493Y-67075771D01*
X47288792Y-67068878D01*
X47288796Y-67068874D01*
X47310288Y-67021621D01*
X47312672Y-67016676D01*
X47336284Y-66970386D01*
X47336284Y-66970384D01*
X47336286Y-66970381D01*
X47339001Y-66962725D01*
X47339047Y-66962741D01*
X47344243Y-66946971D01*
X47428746Y-66761191D01*
X47437214Y-66746919D01*
X47437169Y-66746894D01*
X47441156Y-66739814D01*
X47441162Y-66739807D01*
X47460535Y-66691599D01*
X47462704Y-66686536D01*
X47484203Y-66639274D01*
X47484203Y-66639268D01*
X47486573Y-66631501D01*
X47486622Y-66631516D01*
X47491106Y-66615533D01*
X47567151Y-66426322D01*
X47574970Y-66411688D01*
X47574925Y-66411665D01*
X47578592Y-66404414D01*
X47578592Y-66404411D01*
X47578594Y-66404410D01*
X47595781Y-66355418D01*
X47597736Y-66350221D01*
X47617098Y-66302047D01*
X47617098Y-66302043D01*
X47619120Y-66294171D01*
X47619169Y-66294183D01*
X47622936Y-66278014D01*
X47679074Y-66117996D01*
X47690438Y-66085604D01*
X47697599Y-66070627D01*
X47697552Y-66070606D01*
X47700887Y-66063205D01*
X47700893Y-66063197D01*
X47715875Y-66013470D01*
X47717590Y-66008209D01*
X47734778Y-65959220D01*
X47734778Y-65959213D01*
X47736446Y-65951260D01*
X47736495Y-65951270D01*
X47739532Y-65934961D01*
X47798415Y-65739544D01*
X47804900Y-65724259D01*
X47804854Y-65724241D01*
X47807861Y-65716685D01*
X47810763Y-65705222D01*
X47820601Y-65666346D01*
X47822070Y-65661040D01*
X47837056Y-65611311D01*
X47837056Y-65611303D01*
X47838366Y-65603283D01*
X47838415Y-65603291D01*
X47840722Y-65586845D01*
X47853248Y-65537357D01*
X47890885Y-65388649D01*
X47896683Y-65373074D01*
X47896639Y-65373059D01*
X47899303Y-65365380D01*
X47909768Y-65314547D01*
X47910998Y-65309181D01*
X47923740Y-65258840D01*
X47923740Y-65258838D01*
X47924688Y-65250769D01*
X47924735Y-65250774D01*
X47926304Y-65234228D01*
X47967643Y-65033438D01*
X47972739Y-65017617D01*
X47972697Y-65017605D01*
X47975013Y-65009815D01*
X47975013Y-65009811D01*
X47975015Y-65009808D01*
X47983188Y-64958542D01*
X47984169Y-64953171D01*
X47994640Y-64902318D01*
X47994639Y-64902310D01*
X47995225Y-64894217D01*
X47995269Y-64894220D01*
X47996094Y-64877603D01*
X48028488Y-64674440D01*
X48032876Y-64658371D01*
X48032836Y-64658362D01*
X48034795Y-64650488D01*
X48034799Y-64650480D01*
X48040648Y-64598976D01*
X48041394Y-64593502D01*
X48049564Y-64542269D01*
X48049564Y-64542265D01*
X48049785Y-64534145D01*
X48049825Y-64534146D01*
X48049901Y-64517494D01*
X48073222Y-64312158D01*
X48076883Y-64295898D01*
X48076849Y-64295891D01*
X48078452Y-64287930D01*
X48078455Y-64287922D01*
X48081971Y-64236237D01*
X48082471Y-64230717D01*
X48088322Y-64179213D01*
X48088320Y-64179205D01*
X48088177Y-64171088D01*
X48088212Y-64171087D01*
X48087538Y-64154425D01*
X48101644Y-63947119D01*
X48104571Y-63930689D01*
X48104542Y-63930685D01*
X48105784Y-63922653D01*
X48105783Y-63922653D01*
X48105785Y-63922650D01*
X48106956Y-63870922D01*
X48107210Y-63865318D01*
X48110725Y-63813674D01*
X48110723Y-63813666D01*
X48110213Y-63805565D01*
X48110243Y-63805563D01*
X48108814Y-63788913D01*
X48108838Y-63787849D01*
X48113550Y-63579891D01*
X48115732Y-63563334D01*
X48115703Y-63563331D01*
X48116579Y-63555253D01*
X48116582Y-63555244D01*
X48115409Y-63503507D01*
X48115409Y-63500000D01*
X48499778Y-63500000D01*
X48517883Y-63776235D01*
X48518644Y-63787837D01*
X48518646Y-63787849D01*
X48574917Y-64070745D01*
X48574921Y-64070760D01*
X48667642Y-64343905D01*
X48795219Y-64602606D01*
X48795223Y-64602613D01*
X48955478Y-64842452D01*
X49145672Y-65059327D01*
X49362547Y-65249521D01*
X49547568Y-65373148D01*
X49602389Y-65409778D01*
X49861098Y-65537359D01*
X50134247Y-65630081D01*
X50417161Y-65686356D01*
X50705000Y-65705222D01*
X50992839Y-65686356D01*
X51275753Y-65630081D01*
X51548902Y-65537359D01*
X51807611Y-65409778D01*
X52047454Y-65249520D01*
X52264327Y-65059327D01*
X52454520Y-64842454D01*
X52614778Y-64602611D01*
X52742359Y-64343902D01*
X52835081Y-64070753D01*
X52891356Y-63787839D01*
X52910222Y-63500000D01*
X52891356Y-63212161D01*
X52835081Y-62929247D01*
X52742359Y-62656098D01*
X52614778Y-62397389D01*
X52590538Y-62361111D01*
X52454521Y-62157547D01*
X52264327Y-61940672D01*
X52047452Y-61750478D01*
X51807613Y-61590223D01*
X51807606Y-61590219D01*
X51548905Y-61462642D01*
X51275760Y-61369921D01*
X51275754Y-61369919D01*
X51275753Y-61369919D01*
X51275751Y-61369918D01*
X51275745Y-61369917D01*
X50992849Y-61313646D01*
X50992839Y-61313644D01*
X50705000Y-61294778D01*
X50417161Y-61313644D01*
X50417155Y-61313645D01*
X50417150Y-61313646D01*
X50134254Y-61369917D01*
X50134239Y-61369921D01*
X49861094Y-61462642D01*
X49602393Y-61590219D01*
X49602386Y-61590223D01*
X49362547Y-61750478D01*
X49145672Y-61940672D01*
X48955478Y-62157547D01*
X48795223Y-62397386D01*
X48795219Y-62397393D01*
X48667642Y-62656094D01*
X48574921Y-62929239D01*
X48574917Y-62929254D01*
X48521255Y-63199035D01*
X48518644Y-63212161D01*
X48499778Y-63500000D01*
X48115409Y-63500000D01*
X48115409Y-63497888D01*
X48115525Y-63492726D01*
X48116581Y-63446177D01*
X48116578Y-63446167D01*
X48115702Y-63438092D01*
X48115730Y-63438088D01*
X48113549Y-63421523D01*
X48111649Y-63337728D01*
X48108809Y-63212479D01*
X48110238Y-63195845D01*
X48110208Y-63195844D01*
X48110719Y-63187733D01*
X48109571Y-63170874D01*
X48107203Y-63136085D01*
X48106950Y-63130478D01*
X48105778Y-63078745D01*
X48104535Y-63070715D01*
X48104564Y-63070710D01*
X48101636Y-63054273D01*
X48087527Y-62846952D01*
X48088201Y-62830293D01*
X48088166Y-62830293D01*
X48088309Y-62822174D01*
X48088311Y-62822167D01*
X48082463Y-62770688D01*
X48081957Y-62765110D01*
X48081775Y-62762436D01*
X48078443Y-62713461D01*
X48078442Y-62713457D01*
X48076837Y-62705490D01*
X48076871Y-62705483D01*
X48073209Y-62689219D01*
X48049884Y-62483867D01*
X48049807Y-62467218D01*
X48049767Y-62467220D01*
X48049546Y-62459100D01*
X48048267Y-62451082D01*
X48041382Y-62407910D01*
X48040628Y-62402376D01*
X48034780Y-62350881D01*
X48032817Y-62342998D01*
X48032856Y-62342988D01*
X48028468Y-62326922D01*
X47996070Y-62123745D01*
X47995245Y-62107133D01*
X47995201Y-62107137D01*
X47994615Y-62099041D01*
X47994616Y-62099035D01*
X47984151Y-62048207D01*
X47983159Y-62042773D01*
X47983058Y-62042141D01*
X47974991Y-61991547D01*
X47974990Y-61991545D01*
X47972674Y-61983756D01*
X47972715Y-61983743D01*
X47967616Y-61967907D01*
X47926274Y-61767115D01*
X47924705Y-61750570D01*
X47924658Y-61750576D01*
X47923709Y-61742511D01*
X47923710Y-61742505D01*
X47910979Y-61692209D01*
X47909741Y-61686808D01*
X47899885Y-61638941D01*
X47899272Y-61635963D01*
X47899270Y-61635960D01*
X47896606Y-61628279D01*
X47896651Y-61628263D01*
X47890853Y-61612694D01*
X47840684Y-61414477D01*
X47838379Y-61398035D01*
X47838330Y-61398044D01*
X47837021Y-61390023D01*
X47822045Y-61340327D01*
X47820571Y-61335011D01*
X47807826Y-61284654D01*
X47807823Y-61284648D01*
X47804819Y-61277098D01*
X47804865Y-61277079D01*
X47798382Y-61261800D01*
X47739493Y-61066370D01*
X47736456Y-61050057D01*
X47736406Y-61050068D01*
X47734738Y-61042108D01*
X47717547Y-60993110D01*
X47715827Y-60987833D01*
X47700883Y-60938238D01*
X47700852Y-60938134D01*
X47700850Y-60938131D01*
X47697510Y-60930722D01*
X47697556Y-60930701D01*
X47690398Y-60915727D01*
X47679976Y-60886021D01*
X47622886Y-60723299D01*
X47619123Y-60707142D01*
X47619073Y-60707155D01*
X47617051Y-60699278D01*
X47602395Y-60662816D01*
X47597686Y-60651097D01*
X47595753Y-60645961D01*
X47578546Y-60596915D01*
X47578543Y-60596911D01*
X47578542Y-60596907D01*
X47574877Y-60589660D01*
X47574921Y-60589637D01*
X47567101Y-60574998D01*
X47544513Y-60518797D01*
X47491055Y-60385787D01*
X47486571Y-60369811D01*
X47486523Y-60369826D01*
X47484151Y-60362050D01*
X47462847Y-60315216D01*
X47462645Y-60314771D01*
X47460465Y-60309678D01*
X47441109Y-60261517D01*
X47441109Y-60261516D01*
X47441106Y-60261512D01*
X47437122Y-60254439D01*
X47437166Y-60254413D01*
X47428696Y-60240136D01*
X47421807Y-60224992D01*
X47344185Y-60054343D01*
X47338988Y-60038575D01*
X47338942Y-60038592D01*
X47336226Y-60030933D01*
X47312636Y-59984687D01*
X47310222Y-59979681D01*
X47288739Y-59932449D01*
X47284437Y-59925554D01*
X47284479Y-59925527D01*
X47275375Y-59911639D01*
X47182472Y-59729504D01*
X47176568Y-59713968D01*
X47176524Y-59713987D01*
X47173469Y-59706463D01*
X47173468Y-59706457D01*
X47147836Y-59661328D01*
X47145199Y-59656432D01*
X47121629Y-59610221D01*
X47117021Y-59603523D01*
X47117059Y-59603496D01*
X47107337Y-59590021D01*
X47006092Y-59411758D01*
X46999493Y-59396493D01*
X46999453Y-59396512D01*
X46996063Y-59389130D01*
X46968459Y-59345245D01*
X46965597Y-59340460D01*
X46939982Y-59295358D01*
X46935080Y-59288875D01*
X46935114Y-59288848D01*
X46924786Y-59275810D01*
X46815255Y-59101668D01*
X46807966Y-59086694D01*
X46807931Y-59086713D01*
X46804209Y-59079486D01*
X46782103Y-59047620D01*
X46774638Y-59036858D01*
X46771609Y-59032276D01*
X46743994Y-58988370D01*
X46743990Y-58988366D01*
X46738810Y-58982120D01*
X46738840Y-58982094D01*
X46727923Y-58969515D01*
X46723663Y-58963374D01*
X46610136Y-58799719D01*
X46602168Y-58785069D01*
X46602138Y-58785087D01*
X46598097Y-58778041D01*
X46598093Y-58778036D01*
X46598093Y-58778035D01*
X46566655Y-58736821D01*
X46563403Y-58732352D01*
X46533869Y-58689776D01*
X46533865Y-58689772D01*
X46528407Y-58683763D01*
X46528432Y-58683739D01*
X46516941Y-58671647D01*
X46410860Y-58532577D01*
X46390924Y-58506442D01*
X46382290Y-58492146D01*
X46382265Y-58492163D01*
X46377910Y-58485309D01*
X46377909Y-58485308D01*
X46377909Y-58485307D01*
X46344666Y-58445592D01*
X46341184Y-58441234D01*
X46309805Y-58400096D01*
X46304073Y-58394331D01*
X46304093Y-58394310D01*
X46292055Y-58382737D01*
X46161785Y-58227105D01*
X46159823Y-58224431D01*
X46157109Y-58221208D01*
X46153266Y-58215490D01*
X46152392Y-58214299D01*
X46151476Y-58212866D01*
X46151494Y-58212854D01*
X46147747Y-58207280D01*
X46147732Y-58207291D01*
X46138361Y-58194011D01*
X46138558Y-58193871D01*
X46136223Y-58190698D01*
X46136032Y-58190845D01*
X46131086Y-58184399D01*
X46131084Y-58184396D01*
X46103992Y-58157304D01*
X46096586Y-58149212D01*
X46096583Y-58149209D01*
X46093220Y-58145190D01*
X46071994Y-58119831D01*
X46067933Y-58116123D01*
X46067677Y-58115889D01*
X46066409Y-58114724D01*
X46066337Y-58114667D01*
X46064882Y-58113338D01*
X46064894Y-58113323D01*
X46059829Y-58108905D01*
X46059816Y-58108921D01*
X46047328Y-58098519D01*
X46047481Y-58098334D01*
X46044502Y-58095952D01*
X46044345Y-58096158D01*
X46037903Y-58091215D01*
X46037899Y-58091211D01*
X46004713Y-58072051D01*
X45995473Y-58066156D01*
X45963912Y-58044000D01*
X45955604Y-58039696D01*
X45955613Y-58039676D01*
X45949559Y-58036711D01*
X45949551Y-58036730D01*
X45934792Y-58029913D01*
X45934885Y-58029709D01*
X45931379Y-58028174D01*
X45931275Y-58028428D01*
X45923769Y-58025318D01*
X45899792Y-58018893D01*
X45886769Y-58015404D01*
X45876321Y-58012103D01*
X45839892Y-57998794D01*
X45830966Y-57996833D01*
X45830970Y-57996813D01*
X45824358Y-57995516D01*
X45824355Y-57995535D01*
X45808337Y-57992771D01*
X45808372Y-57992565D01*
X45804568Y-57991987D01*
X45804531Y-57992272D01*
X45796480Y-57991212D01*
X45796477Y-57991211D01*
X45796473Y-57991211D01*
X45758280Y-57991211D01*
X45747636Y-57990753D01*
X45744862Y-57990514D01*
X45744554Y-57990487D01*
X45708421Y-57987283D01*
X45699484Y-57987690D01*
X45699483Y-57987670D01*
X45692753Y-57988130D01*
X45692755Y-57988148D01*
X45676573Y-57989624D01*
X45676555Y-57989428D01*
X45672706Y-57989857D01*
X45672745Y-57990151D01*
X45663057Y-57991426D01*
X45661206Y-57991137D01*
X45660546Y-57991211D01*
X45656565Y-57991211D01*
X45656565Y-57990413D01*
X45594022Y-57980657D01*
X45541768Y-57934275D01*
X45522886Y-57867005D01*
X45523939Y-57852290D01*
X45524150Y-57850686D01*
X45524152Y-57850680D01*
X45524152Y-57841040D01*
X45526148Y-57818883D01*
X45527871Y-57809398D01*
X45524569Y-57769297D01*
X45524152Y-57759124D01*
X45524152Y-57718897D01*
X45524151Y-57718893D01*
X45521657Y-57709584D01*
X45517849Y-57687659D01*
X45517332Y-57681380D01*
X45517059Y-57678057D01*
X45503483Y-57640155D01*
X45500457Y-57630466D01*
X45490044Y-57591601D01*
X45490043Y-57591598D01*
X45485225Y-57583253D01*
X45475872Y-57563060D01*
X45473987Y-57557796D01*
X45472624Y-57553991D01*
X45449708Y-57520902D01*
X45444278Y-57512331D01*
X45424152Y-57477473D01*
X45417338Y-57470659D01*
X45403080Y-57453579D01*
X45397590Y-57445652D01*
X45366912Y-57419641D01*
X45359421Y-57412742D01*
X45330967Y-57384287D01*
X45329027Y-57383167D01*
X45322614Y-57379464D01*
X45304427Y-57366659D01*
X45212547Y-57288754D01*
X45202769Y-57278320D01*
X45202374Y-57278703D01*
X45196720Y-57272864D01*
X45186037Y-57264390D01*
X45153083Y-57238250D01*
X45149979Y-57235704D01*
X45107488Y-57199676D01*
X45100652Y-57195272D01*
X45100948Y-57194811D01*
X45088798Y-57187258D01*
X45007037Y-57122404D01*
X44996928Y-57112299D01*
X44996545Y-57112696D01*
X44990705Y-57107046D01*
X44950877Y-57077518D01*
X44945953Y-57073867D01*
X44942745Y-57071406D01*
X44899097Y-57036784D01*
X44892127Y-57032609D01*
X44892409Y-57032137D01*
X44880031Y-57024992D01*
X44796537Y-56963090D01*
X44786107Y-56953323D01*
X44785736Y-56953734D01*
X44779713Y-56948275D01*
X44733897Y-56916566D01*
X44730615Y-56914215D01*
X44730614Y-56914214D01*
X44685856Y-56881031D01*
X44685853Y-56881030D01*
X44685851Y-56881028D01*
X44678748Y-56877082D01*
X44679016Y-56876598D01*
X44666420Y-56869867D01*
X44581239Y-56810914D01*
X44570504Y-56801499D01*
X44570145Y-56801923D01*
X44563949Y-56796664D01*
X44517107Y-56766450D01*
X44513755Y-56764210D01*
X44467937Y-56732500D01*
X44460713Y-56728790D01*
X44460966Y-56728296D01*
X44448162Y-56721980D01*
X44361337Y-56665977D01*
X44350309Y-56656921D01*
X44349963Y-56657357D01*
X44343600Y-56652303D01*
X44295822Y-56623640D01*
X44292403Y-56621513D01*
X44245535Y-56591284D01*
X44238193Y-56587810D01*
X44238429Y-56587309D01*
X44225432Y-56581413D01*
X44137016Y-56528372D01*
X44125701Y-56519682D01*
X44125370Y-56520129D01*
X44118849Y-56515286D01*
X44070116Y-56488162D01*
X44066632Y-56486148D01*
X44018844Y-56457480D01*
X44011388Y-56454245D01*
X44011609Y-56453734D01*
X43998431Y-56448266D01*
X43908469Y-56398197D01*
X43896872Y-56389874D01*
X43896555Y-56390333D01*
X43889882Y-56385705D01*
X43840285Y-56360174D01*
X43836737Y-56358274D01*
X43788044Y-56331173D01*
X43780493Y-56328184D01*
X43780697Y-56327667D01*
X43767355Y-56322631D01*
X43675869Y-56275537D01*
X43664020Y-56267603D01*
X43663718Y-56268072D01*
X43656894Y-56263661D01*
X43606525Y-56239768D01*
X43602917Y-56237984D01*
X43553336Y-56212461D01*
X43545683Y-56209715D01*
X43545871Y-56209190D01*
X43532371Y-56204591D01*
X43439413Y-56160495D01*
X43427305Y-56152945D01*
X43427018Y-56153424D01*
X43420052Y-56149235D01*
X43420051Y-56149234D01*
X43368916Y-56126981D01*
X43365255Y-56125316D01*
X43314897Y-56101428D01*
X43307168Y-56098935D01*
X43307338Y-56098406D01*
X43293697Y-56094246D01*
X43199277Y-56053158D01*
X43186933Y-56046007D01*
X43186662Y-56046494D01*
X43179567Y-56042536D01*
X43179564Y-56042534D01*
X43179563Y-56042534D01*
X43127732Y-56021953D01*
X43124025Y-56020410D01*
X43072916Y-55998170D01*
X43072914Y-55998169D01*
X43072911Y-55998168D01*
X43072906Y-55998167D01*
X43065099Y-55995926D01*
X43065252Y-55995391D01*
X43051482Y-55991676D01*
X42955654Y-55953625D01*
X42943082Y-55946879D01*
X42942828Y-55947372D01*
X42935610Y-55943647D01*
X42883166Y-55924772D01*
X42879400Y-55923347D01*
X42827583Y-55902773D01*
X42819702Y-55900785D01*
X42819837Y-55900246D01*
X42805948Y-55896981D01*
X42737110Y-55872206D01*
X42708733Y-55861993D01*
X42695943Y-55855653D01*
X42695705Y-55856156D01*
X42688365Y-55852666D01*
X42635330Y-55835505D01*
X42631531Y-55834207D01*
X42607638Y-55825608D01*
X42579089Y-55815334D01*
X42571145Y-55813603D01*
X42571263Y-55813060D01*
X42557268Y-55810248D01*
X42547826Y-55807193D01*
X42458705Y-55778356D01*
X42445705Y-55772432D01*
X42445484Y-55772940D01*
X42438040Y-55769693D01*
X42410402Y-55761735D01*
X42384494Y-55754274D01*
X42380652Y-55753100D01*
X42327622Y-55735942D01*
X42319632Y-55734471D01*
X42319731Y-55733929D01*
X42305643Y-55731570D01*
X42205751Y-55702807D01*
X42192560Y-55697311D01*
X42192357Y-55697822D01*
X42184808Y-55694819D01*
X42184806Y-55694818D01*
X42130792Y-55681156D01*
X42126926Y-55680111D01*
X42073368Y-55664690D01*
X42065327Y-55663479D01*
X42065409Y-55662934D01*
X42051243Y-55661036D01*
X41950059Y-55635443D01*
X41936683Y-55630375D01*
X41936498Y-55630891D01*
X41928858Y-55628137D01*
X41928856Y-55628136D01*
X41928852Y-55628135D01*
X41874471Y-55616256D01*
X41870529Y-55615328D01*
X41816522Y-55601668D01*
X41808457Y-55600722D01*
X41808520Y-55600177D01*
X41794287Y-55598741D01*
X41635897Y-55564143D01*
X41630268Y-55562775D01*
X41592181Y-55552570D01*
X41580724Y-55549500D01*
X41580720Y-55549499D01*
X41573795Y-55548588D01*
X41564212Y-55547553D01*
X41557271Y-55546968D01*
X41557266Y-55546968D01*
X41509796Y-55549188D01*
X41506016Y-55549365D01*
X41500224Y-55549500D01*
X41448930Y-55549500D01*
X41442096Y-55550399D01*
X41432458Y-55551897D01*
X41425620Y-55553125D01*
X41376774Y-55568693D01*
X41371218Y-55570322D01*
X41321643Y-55583606D01*
X41315306Y-55586230D01*
X41306385Y-55590172D01*
X41300063Y-55593144D01*
X41256949Y-55620799D01*
X41252005Y-55623810D01*
X41207511Y-55649500D01*
X41202089Y-55653660D01*
X41194455Y-55659806D01*
X41189140Y-55664295D01*
X41154660Y-55702158D01*
X41150662Y-55706347D01*
X41114327Y-55742683D01*
X41110201Y-55748060D01*
X41104408Y-55755986D01*
X41100408Y-55761736D01*
X41076924Y-55807193D01*
X41074147Y-55812274D01*
X41048433Y-55856814D01*
X41045852Y-55863043D01*
X41042312Y-55872189D01*
X41039920Y-55878824D01*
X41029009Y-55928777D01*
X41027642Y-55934404D01*
X41014325Y-55984108D01*
X41013432Y-55990890D01*
X41012398Y-56000468D01*
X41011800Y-56007560D01*
X41014190Y-56058665D01*
X41014325Y-56064457D01*
X41014325Y-56999585D01*
X41013527Y-57013630D01*
X41013257Y-57015990D01*
X41014306Y-57076422D01*
X41014325Y-57078572D01*
X41014325Y-57139090D01*
X41014637Y-57141463D01*
X41014671Y-57141923D01*
X41014739Y-57142375D01*
X41015031Y-57144458D01*
X41015092Y-57144923D01*
X41015190Y-57145394D01*
X41015542Y-57147754D01*
X41032211Y-57205911D01*
X41032785Y-57207981D01*
X41048433Y-57266381D01*
X41049343Y-57268577D01*
X41049502Y-57269033D01*
X41049709Y-57269508D01*
X41050529Y-57271440D01*
X41050691Y-57271831D01*
X41050897Y-57272240D01*
X41051851Y-57274436D01*
X41082995Y-57326280D01*
X41084085Y-57328132D01*
X41114323Y-57380504D01*
X41115769Y-57382389D01*
X41116036Y-57382781D01*
X41116343Y-57383167D01*
X41117659Y-57384852D01*
X41117925Y-57385198D01*
X41118235Y-57385546D01*
X41119716Y-57387409D01*
X41163236Y-57429444D01*
X41164771Y-57430953D01*
X41207509Y-57473692D01*
X41209387Y-57475133D01*
X41209746Y-57475443D01*
X41210133Y-57475729D01*
X41211810Y-57476992D01*
X41212207Y-57477297D01*
X41212606Y-57477558D01*
X41214496Y-57478956D01*
X41214502Y-57478962D01*
X41267436Y-57508311D01*
X41269242Y-57509333D01*
X41321639Y-57539585D01*
X41321645Y-57539586D01*
X41323832Y-57540493D01*
X41324252Y-57540695D01*
X41324682Y-57540865D01*
X41326703Y-57541682D01*
X41327116Y-57541853D01*
X41327556Y-57541998D01*
X41329756Y-57542865D01*
X41388470Y-57557510D01*
X41390548Y-57558048D01*
X41448933Y-57573693D01*
X41448938Y-57573693D01*
X41451281Y-57574002D01*
X41465105Y-57576627D01*
X41491649Y-57583248D01*
X41577574Y-57604681D01*
X41581137Y-57605627D01*
X41754239Y-57654387D01*
X41757725Y-57655425D01*
X41929139Y-57709322D01*
X41932520Y-57710441D01*
X42102008Y-57769380D01*
X42105485Y-57770648D01*
X42272936Y-57834572D01*
X42276344Y-57835933D01*
X42441677Y-57904794D01*
X42444992Y-57906233D01*
X42608153Y-57980002D01*
X42611496Y-57981574D01*
X42647142Y-57998994D01*
X42772280Y-58060149D01*
X42775556Y-58061812D01*
X42865026Y-58108905D01*
X42933962Y-58145190D01*
X42937181Y-58146946D01*
X43093066Y-58235056D01*
X43096183Y-58236880D01*
X43216469Y-58309709D01*
X43249426Y-58329663D01*
X43252576Y-58331636D01*
X43402971Y-58428971D01*
X43406063Y-58431039D01*
X43553654Y-58532968D01*
X43556658Y-58535109D01*
X43657904Y-58609620D01*
X43700229Y-58665209D01*
X43705782Y-58734858D01*
X43672798Y-58796452D01*
X43611750Y-58830436D01*
X43542020Y-58826020D01*
X43533970Y-58822769D01*
X43387511Y-58757561D01*
X43387509Y-58757560D01*
X43189783Y-58704580D01*
X43024923Y-58687254D01*
X42986203Y-58683185D01*
X42986201Y-58683185D01*
X42781785Y-58693897D01*
X42781775Y-58693898D01*
X42581552Y-58736457D01*
X42390444Y-58809816D01*
X42390439Y-58809819D01*
X42213168Y-58912166D01*
X42213161Y-58912171D01*
X42054080Y-59040994D01*
X41917111Y-59193114D01*
X41917106Y-59193119D01*
X41805622Y-59364789D01*
X41722356Y-59551806D01*
X41722356Y-59551807D01*
X41718077Y-59567777D01*
X41681711Y-59627437D01*
X41618863Y-59657965D01*
X41549488Y-59649668D01*
X41495611Y-59605181D01*
X41490916Y-59597681D01*
X40975284Y-58704581D01*
X40680090Y-58193290D01*
X40551266Y-58034207D01*
X40399141Y-57897234D01*
X40399138Y-57897232D01*
X40399137Y-57897231D01*
X40227470Y-57785749D01*
X40227464Y-57785745D01*
X40093396Y-57726053D01*
X40040454Y-57702482D01*
X39842734Y-57649504D01*
X39842733Y-57649503D01*
X39842730Y-57649503D01*
X39639148Y-57628106D01*
X39639145Y-57628106D01*
X39434728Y-57638818D01*
X39434721Y-57638819D01*
X39234494Y-57681380D01*
X39043393Y-57754735D01*
X39043384Y-57754740D01*
X38866112Y-57857088D01*
X38866105Y-57857093D01*
X38707031Y-57985910D01*
X38707026Y-57985915D01*
X38570051Y-58138042D01*
X38458569Y-58309709D01*
X38458566Y-58309714D01*
X38375302Y-58496725D01*
X38322471Y-58693897D01*
X38322323Y-58694450D01*
X38308836Y-58822769D01*
X38300926Y-58898030D01*
X38300926Y-58898038D01*
X38311638Y-59102451D01*
X38311639Y-59102458D01*
X38354200Y-59302685D01*
X38427555Y-59493786D01*
X38427558Y-59493791D01*
X38435884Y-59508212D01*
X38452355Y-59576112D01*
X38429503Y-59642139D01*
X38374581Y-59685329D01*
X38305028Y-59691970D01*
X38296403Y-59689986D01*
X36729994Y-59270269D01*
X36729990Y-59270268D01*
X36729988Y-59270268D01*
X36526407Y-59248871D01*
X36526404Y-59248871D01*
X36321986Y-59259584D01*
X36321979Y-59259585D01*
X36121752Y-59302145D01*
X35930652Y-59375501D01*
X35930643Y-59375505D01*
X35753371Y-59477853D01*
X35753364Y-59477858D01*
X35657775Y-59555266D01*
X35593288Y-59582158D01*
X35524499Y-59569916D01*
X35473248Y-59522428D01*
X35455808Y-59454770D01*
X35470983Y-59401712D01*
X35470834Y-59401651D01*
X35471373Y-59400349D01*
X35472366Y-59396875D01*
X35473946Y-59394142D01*
X35477765Y-59379895D01*
X35484583Y-59360847D01*
X35490672Y-59347411D01*
X35496397Y-59312731D01*
X35498974Y-59300807D01*
X35508079Y-59266857D01*
X35508081Y-59252116D01*
X35509737Y-59231936D01*
X35512140Y-59217387D01*
X35508693Y-59182396D01*
X35508097Y-59170219D01*
X35508105Y-59135071D01*
X35507782Y-59132615D01*
X35508106Y-59130537D01*
X35508107Y-59126940D01*
X35508667Y-59126940D01*
X35518556Y-59063582D01*
X35564943Y-59011332D01*
X35632215Y-58992455D01*
X35646904Y-58993506D01*
X35648769Y-58993750D01*
X35648778Y-58993753D01*
X35686229Y-58993752D01*
X35697495Y-58994264D01*
X35723204Y-58996610D01*
X35734800Y-58997669D01*
X35734800Y-58997668D01*
X35734801Y-58997669D01*
X35747050Y-58995555D01*
X35768130Y-58993751D01*
X35780563Y-58993751D01*
X35816749Y-58984053D01*
X35827745Y-58981637D01*
X35864667Y-58975269D01*
X35875948Y-58970058D01*
X35895843Y-58962859D01*
X35907856Y-58959641D01*
X35940303Y-58940905D01*
X35950305Y-58935721D01*
X35984311Y-58920020D01*
X35993862Y-58912066D01*
X36011212Y-58899966D01*
X36021051Y-58894285D01*
X36021983Y-58893747D01*
X36048488Y-58867239D01*
X36056786Y-58859664D01*
X36180638Y-58756525D01*
X36183417Y-58754281D01*
X36325073Y-58643364D01*
X36327981Y-58641157D01*
X36472693Y-58534707D01*
X36475638Y-58532608D01*
X36623317Y-58430665D01*
X36626346Y-58428641D01*
X36776843Y-58331288D01*
X36779953Y-58329341D01*
X36933240Y-58236580D01*
X36936346Y-58234763D01*
X37092285Y-58146668D01*
X37095475Y-58144928D01*
X37253958Y-58061555D01*
X37257170Y-58059926D01*
X37418034Y-57981359D01*
X37421382Y-57979786D01*
X37425377Y-57977981D01*
X37584517Y-57906073D01*
X37587897Y-57904607D01*
X37753273Y-57835773D01*
X37756645Y-57834428D01*
X37924114Y-57770543D01*
X37927589Y-57769275D01*
X38097097Y-57710373D01*
X38100531Y-57709238D01*
X38271896Y-57655401D01*
X38275436Y-57654347D01*
X38448515Y-57605639D01*
X38452094Y-57604688D01*
X38564605Y-57576652D01*
X38578393Y-57574036D01*
X38580878Y-57573708D01*
X38580892Y-57573708D01*
X38639290Y-57558060D01*
X38641270Y-57557548D01*
X38699955Y-57542925D01*
X38699961Y-57542921D01*
X38702284Y-57542007D01*
X38702724Y-57541862D01*
X38703079Y-57541715D01*
X38705134Y-57540885D01*
X38705459Y-57540756D01*
X38705865Y-57540561D01*
X38708182Y-57539601D01*
X38708181Y-57539601D01*
X38708186Y-57539600D01*
X38760557Y-57509362D01*
X38762326Y-57508362D01*
X38815225Y-57479050D01*
X38815234Y-57479040D01*
X38817227Y-57477567D01*
X38817606Y-57477318D01*
X38817879Y-57477110D01*
X38819650Y-57475776D01*
X38819981Y-57475530D01*
X38820337Y-57475224D01*
X38822307Y-57473711D01*
X38822314Y-57473708D01*
X38865068Y-57430953D01*
X38866505Y-57429540D01*
X38910034Y-57387517D01*
X38911591Y-57385560D01*
X38911885Y-57385231D01*
X38912116Y-57384930D01*
X38913484Y-57383179D01*
X38913723Y-57382878D01*
X38913977Y-57382505D01*
X38915489Y-57380532D01*
X38915500Y-57380522D01*
X38945758Y-57328111D01*
X38946777Y-57326381D01*
X38977923Y-57274564D01*
X38977924Y-57274557D01*
X38978918Y-57272276D01*
X38979124Y-57271867D01*
X38979283Y-57271484D01*
X38980132Y-57269483D01*
X38980286Y-57269127D01*
X38980436Y-57268698D01*
X38981385Y-57266404D01*
X38981392Y-57266394D01*
X38997043Y-57207981D01*
X38997586Y-57206023D01*
X39014264Y-57147890D01*
X39014264Y-57147879D01*
X39014632Y-57145420D01*
X39014726Y-57144967D01*
X39014776Y-57144591D01*
X39015090Y-57142357D01*
X39015139Y-57142028D01*
X39015172Y-57141581D01*
X39015497Y-57139107D01*
X39015500Y-57139100D01*
X39015500Y-57078699D01*
X39015519Y-57076519D01*
X39016581Y-57016131D01*
X39016580Y-57016130D01*
X39016581Y-57016126D01*
X39016579Y-57016121D01*
X39016295Y-57013618D01*
X39015500Y-56999595D01*
X39015500Y-56064606D01*
X39015635Y-56058814D01*
X39015642Y-56058665D01*
X39018032Y-56007566D01*
X39018031Y-56007560D01*
X39017446Y-56000619D01*
X39016410Y-55991024D01*
X39015500Y-55984112D01*
X39015500Y-55984108D01*
X39002221Y-55934554D01*
X39000857Y-55928942D01*
X38989909Y-55878818D01*
X38989907Y-55878814D01*
X38987526Y-55872206D01*
X38984081Y-55863306D01*
X38981393Y-55856818D01*
X38981392Y-55856814D01*
X38956444Y-55813603D01*
X38955742Y-55812387D01*
X38952961Y-55807300D01*
X38938008Y-55778356D01*
X38929422Y-55761735D01*
X38925414Y-55755974D01*
X38919773Y-55748255D01*
X38915498Y-55742683D01*
X38879235Y-55706421D01*
X38875233Y-55702227D01*
X38840695Y-55664300D01*
X38840693Y-55664299D01*
X38840692Y-55664297D01*
X38840689Y-55664295D01*
X38835369Y-55659802D01*
X38827865Y-55653760D01*
X38822310Y-55649497D01*
X38777882Y-55623847D01*
X38772931Y-55620832D01*
X38729765Y-55593142D01*
X38723502Y-55590198D01*
X38714605Y-55586266D01*
X38708184Y-55583607D01*
X38658640Y-55570332D01*
X38653078Y-55568701D01*
X38604213Y-55553126D01*
X38597395Y-55551902D01*
X38587763Y-55550404D01*
X38580894Y-55549500D01*
X38580892Y-55549500D01*
X38580889Y-55549500D01*
X38529608Y-55549500D01*
X38523816Y-55549365D01*
X38520626Y-55549215D01*
X38472566Y-55546968D01*
X38472564Y-55546968D01*
X38472560Y-55546968D01*
X38465619Y-55547553D01*
X38456036Y-55548588D01*
X38449100Y-55549501D01*
X38399565Y-55562773D01*
X38393936Y-55564141D01*
X38235543Y-55598740D01*
X38221312Y-55600176D01*
X38221377Y-55600722D01*
X38213314Y-55601668D01*
X38213313Y-55601668D01*
X38213311Y-55601668D01*
X38213306Y-55601669D01*
X38159307Y-55615326D01*
X38155369Y-55616254D01*
X38100979Y-55628135D01*
X38093332Y-55630892D01*
X38093146Y-55630376D01*
X38079772Y-55635443D01*
X37978588Y-55661036D01*
X37964423Y-55662933D01*
X37964506Y-55663479D01*
X37956461Y-55664690D01*
X37902925Y-55680105D01*
X37899023Y-55681160D01*
X37845030Y-55694816D01*
X37837478Y-55697821D01*
X37837274Y-55697310D01*
X37824079Y-55702808D01*
X37724187Y-55731570D01*
X37710101Y-55733929D01*
X37710201Y-55734471D01*
X37702212Y-55735941D01*
X37649166Y-55753104D01*
X37645308Y-55754283D01*
X37591796Y-55769691D01*
X37584346Y-55772941D01*
X37584125Y-55772435D01*
X37571128Y-55778355D01*
X37472559Y-55810249D01*
X37458560Y-55813062D01*
X37458679Y-55813605D01*
X37450744Y-55815333D01*
X37398324Y-55834200D01*
X37394509Y-55835503D01*
X37341464Y-55852667D01*
X37334123Y-55856158D01*
X37333885Y-55855658D01*
X37321095Y-55861994D01*
X37223880Y-55896982D01*
X37209989Y-55900248D01*
X37210125Y-55900787D01*
X37202247Y-55902774D01*
X37150450Y-55923340D01*
X37146685Y-55924765D01*
X37094221Y-55943647D01*
X37087008Y-55947370D01*
X37086754Y-55946878D01*
X37074177Y-55953626D01*
X36978351Y-55991676D01*
X36964575Y-55995391D01*
X36964729Y-55995926D01*
X36956922Y-55998167D01*
X36905809Y-56020409D01*
X36902097Y-56021953D01*
X36850266Y-56042535D01*
X36843175Y-56046491D01*
X36842904Y-56046006D01*
X36830561Y-56053155D01*
X36736144Y-56094243D01*
X36722502Y-56098403D01*
X36722673Y-56098933D01*
X36714946Y-56101425D01*
X36714939Y-56101427D01*
X36664533Y-56125337D01*
X36660917Y-56126981D01*
X36609783Y-56149233D01*
X36602822Y-56153419D01*
X36602535Y-56152943D01*
X36590432Y-56160487D01*
X36497457Y-56204592D01*
X36483958Y-56209193D01*
X36484146Y-56209716D01*
X36476502Y-56212458D01*
X36426937Y-56237973D01*
X36423332Y-56239755D01*
X36372948Y-56263656D01*
X36366123Y-56268068D01*
X36365821Y-56267602D01*
X36353969Y-56275533D01*
X36262479Y-56322630D01*
X36249131Y-56327668D01*
X36249336Y-56328186D01*
X36241779Y-56331177D01*
X36193064Y-56358289D01*
X36189520Y-56360187D01*
X36139949Y-56385706D01*
X36133273Y-56390335D01*
X36132956Y-56389877D01*
X36121367Y-56398193D01*
X36031396Y-56448267D01*
X36018215Y-56453736D01*
X36018437Y-56454247D01*
X36010984Y-56457481D01*
X35963187Y-56486154D01*
X35959705Y-56488166D01*
X35910983Y-56515284D01*
X35904460Y-56520129D01*
X35904129Y-56519683D01*
X35892812Y-56528372D01*
X35804390Y-56581416D01*
X35791395Y-56587313D01*
X35791632Y-56587813D01*
X35784293Y-56591285D01*
X35737427Y-56621513D01*
X35734009Y-56623639D01*
X35686233Y-56652301D01*
X35679868Y-56657357D01*
X35679522Y-56656922D01*
X35668492Y-56665977D01*
X35581669Y-56721978D01*
X35568868Y-56728295D01*
X35569121Y-56728788D01*
X35561891Y-56732501D01*
X35516051Y-56764225D01*
X35512702Y-56766463D01*
X35465878Y-56796666D01*
X35459680Y-56801926D01*
X35459321Y-56801503D01*
X35448592Y-56810912D01*
X35363405Y-56869867D01*
X35350807Y-56876603D01*
X35351075Y-56877085D01*
X35343974Y-56881029D01*
X35299213Y-56914214D01*
X35295934Y-56916563D01*
X35250119Y-56948272D01*
X35244098Y-56953729D01*
X35243727Y-56953320D01*
X35233299Y-56963083D01*
X35149800Y-57024989D01*
X35137418Y-57032137D01*
X35137701Y-57032609D01*
X35130729Y-57036785D01*
X35087054Y-57071427D01*
X35083849Y-57073885D01*
X35039125Y-57107044D01*
X35033291Y-57112689D01*
X35032907Y-57112292D01*
X35022796Y-57122399D01*
X34941024Y-57187261D01*
X34928880Y-57194810D01*
X34929177Y-57195271D01*
X34922344Y-57199673D01*
X34879873Y-57235683D01*
X34876764Y-57238233D01*
X34858988Y-57252334D01*
X34833106Y-57272864D01*
X34827458Y-57278698D01*
X34827064Y-57278317D01*
X34817278Y-57288756D01*
X34725395Y-57366662D01*
X34707210Y-57379466D01*
X34698858Y-57384288D01*
X34698853Y-57384292D01*
X34670408Y-57412737D01*
X34662921Y-57419632D01*
X34632238Y-57445647D01*
X34626741Y-57453585D01*
X34612489Y-57470659D01*
X34605666Y-57477482D01*
X34585555Y-57512315D01*
X34580108Y-57520914D01*
X34557202Y-57553986D01*
X34557199Y-57553993D01*
X34553943Y-57563083D01*
X34544604Y-57583248D01*
X34539778Y-57591609D01*
X34539775Y-57591614D01*
X34529365Y-57630466D01*
X34526330Y-57640179D01*
X34512766Y-57678051D01*
X34512766Y-57678052D01*
X34511974Y-57687674D01*
X34508169Y-57709582D01*
X34505672Y-57718903D01*
X34505672Y-57759129D01*
X34505254Y-57769301D01*
X34501953Y-57809394D01*
X34501954Y-57809398D01*
X34503678Y-57818892D01*
X34505673Y-57841040D01*
X34505673Y-57850686D01*
X34505895Y-57852368D01*
X34505673Y-57853787D01*
X34505674Y-57858813D01*
X34504890Y-57858813D01*
X34495131Y-57921403D01*
X34448752Y-57973660D01*
X34381483Y-57992547D01*
X34366748Y-57991492D01*
X34364714Y-57991223D01*
X34352998Y-57991221D01*
X34331655Y-57989365D01*
X34320119Y-57987346D01*
X34320117Y-57987346D01*
X34282088Y-57990720D01*
X34271109Y-57991204D01*
X34234676Y-57991198D01*
X34232931Y-57991198D01*
X34232927Y-57991198D01*
X34227053Y-57992771D01*
X34221609Y-57994228D01*
X34200515Y-57997958D01*
X34188850Y-57998994D01*
X34152981Y-58012099D01*
X34142512Y-58015406D01*
X34105629Y-58025281D01*
X34105627Y-58025282D01*
X34095480Y-58031137D01*
X34076071Y-58040199D01*
X34065070Y-58044218D01*
X34065066Y-58044220D01*
X34033823Y-58066154D01*
X34024560Y-58072062D01*
X33991489Y-58091148D01*
X33991484Y-58091152D01*
X33983197Y-58099435D01*
X33966798Y-58113210D01*
X33957213Y-58119940D01*
X33957208Y-58119944D01*
X33932713Y-58149209D01*
X33925294Y-58157315D01*
X33898281Y-58184318D01*
X33892423Y-58194459D01*
X33880141Y-58212018D01*
X33737159Y-58382845D01*
X33725126Y-58394412D01*
X33725148Y-58394433D01*
X33719421Y-58400193D01*
X33688041Y-58441332D01*
X33684540Y-58445713D01*
X33651310Y-58485415D01*
X33646951Y-58492277D01*
X33646926Y-58492261D01*
X33638292Y-58506554D01*
X33512282Y-58671758D01*
X33500795Y-58683846D01*
X33500822Y-58683870D01*
X33495356Y-58689887D01*
X33465846Y-58732430D01*
X33462553Y-58736955D01*
X33431135Y-58778145D01*
X33427092Y-58785196D01*
X33427061Y-58785178D01*
X33419095Y-58799825D01*
X33301308Y-58969628D01*
X33290392Y-58982206D01*
X33290422Y-58982231D01*
X33285237Y-58988483D01*
X33257637Y-59032364D01*
X33254564Y-59037015D01*
X33225026Y-59079600D01*
X33221308Y-59086820D01*
X33221273Y-59086802D01*
X33213982Y-59101773D01*
X33104452Y-59275922D01*
X33094122Y-59288966D01*
X33094157Y-59288993D01*
X33089255Y-59295475D01*
X33063639Y-59340577D01*
X33060784Y-59345351D01*
X33033174Y-59389252D01*
X33029782Y-59396638D01*
X33029742Y-59396619D01*
X33023143Y-59411883D01*
X32921901Y-59590146D01*
X32912180Y-59603623D01*
X32912219Y-59603650D01*
X32907615Y-59610342D01*
X32884044Y-59656553D01*
X32881409Y-59661444D01*
X32855782Y-59706567D01*
X32852726Y-59714098D01*
X32852682Y-59714080D01*
X32846777Y-59729616D01*
X32753875Y-59911754D01*
X32744774Y-59925642D01*
X32744816Y-59925668D01*
X32740517Y-59932557D01*
X32719017Y-59979824D01*
X32716608Y-59984819D01*
X32693028Y-60031049D01*
X32690313Y-60038708D01*
X32690266Y-60038691D01*
X32685068Y-60054461D01*
X32600562Y-60240247D01*
X32592096Y-60254519D01*
X32592140Y-60254544D01*
X32588150Y-60261626D01*
X32568779Y-60309823D01*
X32566601Y-60314910D01*
X32545161Y-60362049D01*
X32545110Y-60362161D01*
X32542740Y-60369933D01*
X32542691Y-60369918D01*
X32538205Y-60385898D01*
X32462161Y-60575112D01*
X32454342Y-60589748D01*
X32454389Y-60589772D01*
X32450719Y-60597026D01*
X32433526Y-60646030D01*
X32431575Y-60651216D01*
X32412217Y-60699382D01*
X32410197Y-60707256D01*
X32410147Y-60707243D01*
X32406380Y-60723407D01*
X32338871Y-60915834D01*
X32331714Y-60930808D01*
X32331760Y-60930829D01*
X32328419Y-60938238D01*
X32313442Y-60987941D01*
X32311726Y-60993208D01*
X32294537Y-61042209D01*
X32292871Y-61050161D01*
X32292821Y-61050150D01*
X32289780Y-61066469D01*
X32230896Y-61261892D01*
X32224410Y-61277183D01*
X32224457Y-61277202D01*
X32221451Y-61284752D01*
X32208718Y-61335060D01*
X32207237Y-61340404D01*
X32192259Y-61390115D01*
X32190950Y-61398141D01*
X32190901Y-61398133D01*
X32188594Y-61414580D01*
X32138428Y-61612788D01*
X32132633Y-61628356D01*
X32132678Y-61628372D01*
X32130013Y-61636054D01*
X32119548Y-61686880D01*
X32118306Y-61692295D01*
X32105576Y-61742594D01*
X32104628Y-61750662D01*
X32104581Y-61750656D01*
X32103012Y-61767199D01*
X32061673Y-61967989D01*
X32056576Y-61983822D01*
X32056618Y-61983835D01*
X32054302Y-61991621D01*
X32046137Y-62042829D01*
X32045137Y-62048304D01*
X32034678Y-62099110D01*
X32034092Y-62107218D01*
X32034049Y-62107214D01*
X32033221Y-62123826D01*
X32000828Y-62326987D01*
X31996442Y-62343054D01*
X31996481Y-62343064D01*
X31994517Y-62350951D01*
X31988668Y-62402455D01*
X31987913Y-62407986D01*
X31979753Y-62459157D01*
X31979533Y-62467279D01*
X31979493Y-62467277D01*
X31979414Y-62483933D01*
X31956095Y-62689268D01*
X31952433Y-62705538D01*
X31952468Y-62705545D01*
X31950863Y-62713508D01*
X31947346Y-62765184D01*
X31946840Y-62770753D01*
X31940996Y-62822217D01*
X31941141Y-62830342D01*
X31941106Y-62830342D01*
X31941779Y-62847004D01*
X31927676Y-63054299D01*
X31924749Y-63070740D01*
X31924779Y-63070745D01*
X31923535Y-63078779D01*
X31922363Y-63130516D01*
X31922109Y-63136122D01*
X31918596Y-63187754D01*
X31919108Y-63195862D01*
X31919078Y-63195863D01*
X31920505Y-63212506D01*
X31915770Y-63421536D01*
X31913589Y-63438100D01*
X31913618Y-63438104D01*
X31912740Y-63446186D01*
X31913912Y-63497910D01*
X31913912Y-63503526D01*
X31912740Y-63555253D01*
X31506601Y-63555253D01*
X31510222Y-63500000D01*
X31491356Y-63212161D01*
X31435081Y-62929247D01*
X31342359Y-62656098D01*
X31214778Y-62397389D01*
X31190538Y-62361111D01*
X31054521Y-62157547D01*
X30864327Y-61940672D01*
X30647452Y-61750478D01*
X30407613Y-61590223D01*
X30407606Y-61590219D01*
X30148905Y-61462642D01*
X29875760Y-61369921D01*
X29875754Y-61369919D01*
X29875753Y-61369919D01*
X29875751Y-61369918D01*
X29875745Y-61369917D01*
X29592849Y-61313646D01*
X29592839Y-61313644D01*
X29305000Y-61294778D01*
X29017161Y-61313644D01*
X29017155Y-61313645D01*
X29017150Y-61313646D01*
X28734254Y-61369917D01*
X28734239Y-61369921D01*
X28461094Y-61462642D01*
X28202393Y-61590219D01*
X28202386Y-61590223D01*
X27962547Y-61750478D01*
X27745672Y-61940672D01*
X27555478Y-62157547D01*
X27395223Y-62397386D01*
X27395219Y-62397393D01*
X27267642Y-62656094D01*
X27174921Y-62929239D01*
X27174917Y-62929254D01*
X27121255Y-63199035D01*
X27118644Y-63212161D01*
X27099778Y-63500000D01*
X25900500Y-63500000D01*
X25900500Y-52670001D01*
X36904500Y-52670001D01*
X36904501Y-52670018D01*
X36915000Y-52772796D01*
X36915001Y-52772799D01*
X36960180Y-52909139D01*
X36970186Y-52939334D01*
X37062288Y-53088656D01*
X37186344Y-53212712D01*
X37335666Y-53304814D01*
X37502203Y-53359999D01*
X37604991Y-53370500D01*
X38805008Y-53370499D01*
X38907797Y-53359999D01*
X39074334Y-53304814D01*
X39223656Y-53212712D01*
X39347712Y-53088656D01*
X39439814Y-52939334D01*
X39494999Y-52772797D01*
X39505500Y-52670009D01*
X39505499Y-51469992D01*
X39494999Y-51367203D01*
X39439814Y-51200666D01*
X39347712Y-51051344D01*
X39223656Y-50927288D01*
X39074334Y-50835186D01*
X38907797Y-50780001D01*
X38907795Y-50780000D01*
X38805010Y-50769500D01*
X37604998Y-50769500D01*
X37604981Y-50769501D01*
X37502203Y-50780000D01*
X37502200Y-50780001D01*
X37335668Y-50835185D01*
X37335663Y-50835187D01*
X37186342Y-50927289D01*
X37062289Y-51051342D01*
X36970187Y-51200663D01*
X36970186Y-51200666D01*
X36915001Y-51367203D01*
X36915001Y-51367204D01*
X36915000Y-51367204D01*
X36904500Y-51469983D01*
X36904500Y-52670001D01*
X25900500Y-52670001D01*
X25900500Y-45074500D01*
X25920185Y-45007461D01*
X25972989Y-44961706D01*
X26024500Y-44950500D01*
X29641000Y-44950500D01*
X29708039Y-44970185D01*
G37*
G04 #@! TD.AperFunction*
G04 #@! TA.AperFunction,Conductor*
G36*
X47240000Y-150905000D02*
G01*
X47611992Y-150905000D01*
X47700186Y-150891031D01*
X47769480Y-150899985D01*
X47822932Y-150944981D01*
X47843572Y-151011733D01*
X47824847Y-151079046D01*
X47793897Y-151112770D01*
X47687452Y-151192455D01*
X47601206Y-151307664D01*
X47601203Y-151307669D01*
X47552189Y-151439083D01*
X47510317Y-151495016D01*
X47444853Y-151519433D01*
X47376580Y-151504581D01*
X47348326Y-151483430D01*
X47226402Y-151361506D01*
X47226395Y-151361501D01*
X47032834Y-151225967D01*
X47032830Y-151225965D01*
X47032828Y-151225964D01*
X46818663Y-151126097D01*
X46818659Y-151126095D01*
X46818652Y-151126093D01*
X46789703Y-151118336D01*
X46730044Y-151081970D01*
X46699516Y-151019123D01*
X46707812Y-150949747D01*
X46734119Y-150910880D01*
X46740000Y-150904999D01*
X46740000Y-149655000D01*
X47240000Y-149655000D01*
X47240000Y-150905000D01*
G37*
G04 #@! TD.AperFunction*
G04 #@! TA.AperFunction,Conductor*
G36*
X40809075Y-45527007D02*
G01*
X40775000Y-45654174D01*
X40775000Y-45785826D01*
X40809075Y-45912993D01*
X40841988Y-45970000D01*
X39168012Y-45970000D01*
X39200925Y-45912993D01*
X39235000Y-45785826D01*
X39235000Y-45654174D01*
X39200925Y-45527007D01*
X39168012Y-45470000D01*
X40841988Y-45470000D01*
X40809075Y-45527007D01*
G37*
G04 #@! TD.AperFunction*
G04 #@! TA.AperFunction,Conductor*
G36*
X43349075Y-45527007D02*
G01*
X43315000Y-45654174D01*
X43315000Y-45785826D01*
X43349075Y-45912993D01*
X43381988Y-45970000D01*
X41708012Y-45970000D01*
X41740925Y-45912993D01*
X41775000Y-45785826D01*
X41775000Y-45654174D01*
X41740925Y-45527007D01*
X41708012Y-45470000D01*
X43381988Y-45470000D01*
X43349075Y-45527007D01*
G37*
G04 #@! TD.AperFunction*
G04 #@! TA.AperFunction,Conductor*
G36*
X45889075Y-45527007D02*
G01*
X45855000Y-45654174D01*
X45855000Y-45785826D01*
X45889075Y-45912993D01*
X45921988Y-45970000D01*
X44248012Y-45970000D01*
X44280925Y-45912993D01*
X44315000Y-45785826D01*
X44315000Y-45654174D01*
X44280925Y-45527007D01*
X44248012Y-45470000D01*
X45921988Y-45470000D01*
X45889075Y-45527007D01*
G37*
G04 #@! TD.AperFunction*
G04 #@! TA.AperFunction,Conductor*
G36*
X48429075Y-45527007D02*
G01*
X48395000Y-45654174D01*
X48395000Y-45785826D01*
X48429075Y-45912993D01*
X48461988Y-45970000D01*
X46788012Y-45970000D01*
X46820925Y-45912993D01*
X46855000Y-45785826D01*
X46855000Y-45654174D01*
X46820925Y-45527007D01*
X46788012Y-45470000D01*
X48461988Y-45470000D01*
X48429075Y-45527007D01*
G37*
G04 #@! TD.AperFunction*
G04 #@! TA.AperFunction,NonConductor*
G36*
X35275812Y-59892115D02*
G01*
X35309297Y-59953438D01*
X35304313Y-60023130D01*
X35301411Y-60030232D01*
X35262562Y-60117488D01*
X35209583Y-60315211D01*
X35209582Y-60315216D01*
X35202153Y-60385898D01*
X35188185Y-60518795D01*
X35188185Y-60518803D01*
X35198898Y-60723217D01*
X35198899Y-60723224D01*
X35241459Y-60923451D01*
X35314815Y-61114551D01*
X35314819Y-61114560D01*
X35417167Y-61291832D01*
X35417169Y-61291835D01*
X35545994Y-61450918D01*
X35698117Y-61587891D01*
X35869796Y-61699381D01*
X36056801Y-61782641D01*
X36117171Y-61798817D01*
X36176832Y-61835182D01*
X36207361Y-61898029D01*
X36199066Y-61967405D01*
X36154581Y-62021282D01*
X36147078Y-62025979D01*
X34763292Y-62824908D01*
X34763285Y-62824913D01*
X34604211Y-62953730D01*
X34604206Y-62953735D01*
X34467231Y-63105862D01*
X34355749Y-63277529D01*
X34355746Y-63277534D01*
X34272482Y-63464545D01*
X34241574Y-63579898D01*
X34219503Y-63662270D01*
X34206188Y-63788952D01*
X34198106Y-63865850D01*
X34198106Y-63865858D01*
X34208818Y-64070271D01*
X34208819Y-64070278D01*
X34251380Y-64270505D01*
X34324735Y-64461606D01*
X34324740Y-64461615D01*
X34427088Y-64638887D01*
X34427093Y-64638894D01*
X34442919Y-64658437D01*
X34555914Y-64797973D01*
X34708039Y-64934946D01*
X34879716Y-65046435D01*
X35066722Y-65129696D01*
X35066723Y-65129696D01*
X35066725Y-65129697D01*
X35112011Y-65141831D01*
X35264450Y-65182677D01*
X35468032Y-65204074D01*
X35672454Y-65193361D01*
X35872685Y-65150800D01*
X36063791Y-65077442D01*
X37626709Y-64175090D01*
X37785792Y-64046266D01*
X37922766Y-63894142D01*
X38034255Y-63722464D01*
X38117516Y-63535458D01*
X38170497Y-63337730D01*
X38191893Y-63134148D01*
X38181180Y-62929726D01*
X38181076Y-62929239D01*
X38156883Y-62815418D01*
X38138620Y-62729496D01*
X38065262Y-62538389D01*
X38014853Y-62451078D01*
X37998381Y-62383182D01*
X38021233Y-62317155D01*
X38076154Y-62273964D01*
X38115750Y-62265251D01*
X38208017Y-62260416D01*
X38408246Y-62217855D01*
X38599353Y-62144497D01*
X38776631Y-62042145D01*
X38935715Y-61913321D01*
X39072688Y-61761197D01*
X39184177Y-61589518D01*
X39267438Y-61402513D01*
X39267740Y-61401388D01*
X39280767Y-61352768D01*
X39292555Y-61308774D01*
X39328918Y-61249115D01*
X39391765Y-61218585D01*
X39461140Y-61226879D01*
X39495301Y-61248718D01*
X39610855Y-61352764D01*
X39610860Y-61352768D01*
X39782529Y-61464251D01*
X39782531Y-61464252D01*
X39782536Y-61464255D01*
X39969542Y-61547516D01*
X40167270Y-61600497D01*
X40370852Y-61621893D01*
X40575274Y-61611180D01*
X40775504Y-61568620D01*
X40966611Y-61495262D01*
X41050615Y-61446762D01*
X41118511Y-61430290D01*
X41184538Y-61453142D01*
X41227729Y-61508063D01*
X41236442Y-61547659D01*
X41244584Y-61703014D01*
X41244585Y-61703020D01*
X41287145Y-61903247D01*
X41360501Y-62094347D01*
X41360505Y-62094356D01*
X41462565Y-62271129D01*
X41462855Y-62271631D01*
X41591680Y-62430714D01*
X41743803Y-62567687D01*
X41915482Y-62679177D01*
X42102487Y-62762437D01*
X42196226Y-62787554D01*
X42255886Y-62823919D01*
X42286415Y-62886766D01*
X42278120Y-62956142D01*
X42256282Y-62990301D01*
X42152231Y-63105862D01*
X42040749Y-63277529D01*
X42040746Y-63277534D01*
X41957482Y-63464545D01*
X41926574Y-63579898D01*
X41904503Y-63662270D01*
X41891188Y-63788952D01*
X41883106Y-63865850D01*
X41883106Y-63865858D01*
X41893818Y-64070271D01*
X41893819Y-64070278D01*
X41936380Y-64270505D01*
X42009735Y-64461606D01*
X42009740Y-64461615D01*
X42112088Y-64638887D01*
X42112093Y-64638894D01*
X42127919Y-64658437D01*
X42240914Y-64797973D01*
X42393039Y-64934946D01*
X42564716Y-65046435D01*
X42751722Y-65129696D01*
X42751723Y-65129696D01*
X42751725Y-65129697D01*
X42797011Y-65141831D01*
X42949450Y-65182677D01*
X43153032Y-65204074D01*
X43357454Y-65193361D01*
X43557685Y-65150800D01*
X43748791Y-65077442D01*
X45311709Y-64175090D01*
X45470792Y-64046266D01*
X45607766Y-63894142D01*
X45719255Y-63722464D01*
X45802516Y-63535458D01*
X45855497Y-63337730D01*
X45862040Y-63275474D01*
X45888624Y-63210859D01*
X45945921Y-63170874D01*
X46015740Y-63168213D01*
X46075914Y-63203721D01*
X46107338Y-63266126D01*
X46109330Y-63285659D01*
X46114081Y-63497910D01*
X46114082Y-63497922D01*
X46114082Y-63503467D01*
X46108106Y-63770895D01*
X46107859Y-63776422D01*
X46090027Y-64042317D01*
X46089535Y-64047815D01*
X46059979Y-64311837D01*
X46059246Y-64317292D01*
X46018103Y-64579104D01*
X46017130Y-64584510D01*
X45964541Y-64843705D01*
X45963332Y-64849054D01*
X45899422Y-65105320D01*
X45897980Y-65110603D01*
X45822895Y-65363536D01*
X45821222Y-65368747D01*
X45735104Y-65617965D01*
X45733204Y-65623095D01*
X45636158Y-65868322D01*
X45634032Y-65873365D01*
X45526231Y-66114134D01*
X45523883Y-66119082D01*
X45405454Y-66355059D01*
X45402886Y-66359906D01*
X45273942Y-66590762D01*
X45271157Y-66595498D01*
X45131871Y-66820809D01*
X45128872Y-66825427D01*
X44979351Y-67044873D01*
X44976142Y-67049366D01*
X44816523Y-67262578D01*
X44813107Y-67266934D01*
X44653909Y-67460894D01*
X44645821Y-67469826D01*
X44620739Y-67494952D01*
X44613557Y-67507418D01*
X44601970Y-67524175D01*
X44592841Y-67535298D01*
X44592836Y-67535305D01*
X44578179Y-67567647D01*
X44572683Y-67578359D01*
X44554952Y-67609136D01*
X44554951Y-67609137D01*
X44551238Y-67623044D01*
X44544383Y-67642227D01*
X44538444Y-67655333D01*
X44538442Y-67655339D01*
X44532656Y-67690370D01*
X44530118Y-67702144D01*
X44520957Y-67736457D01*
X44520970Y-67750849D01*
X44519314Y-67771154D01*
X44516968Y-67785362D01*
X44520447Y-67820707D01*
X44521043Y-67832742D01*
X44521074Y-67868246D01*
X44521116Y-67868558D01*
X44521075Y-67868820D01*
X44521082Y-67876370D01*
X44519904Y-67876371D01*
X44510407Y-67937602D01*
X44464070Y-67989896D01*
X44396816Y-68008836D01*
X44382012Y-68007784D01*
X44381062Y-68007659D01*
X44381058Y-68007659D01*
X44343085Y-68007659D01*
X44332024Y-68007165D01*
X44294195Y-68003777D01*
X44294194Y-68003777D01*
X44294193Y-68003777D01*
X44282450Y-68005822D01*
X44261185Y-68007660D01*
X44249272Y-68007660D01*
X44212586Y-68017490D01*
X44201778Y-68019875D01*
X44164365Y-68026393D01*
X44164363Y-68026393D01*
X44164361Y-68026394D01*
X44164359Y-68026394D01*
X44153558Y-68031404D01*
X44133491Y-68038685D01*
X44121978Y-68041770D01*
X44089082Y-68060763D01*
X44079257Y-68065864D01*
X44044813Y-68081839D01*
X44044807Y-68081843D01*
X44035663Y-68089483D01*
X44018170Y-68101705D01*
X44007861Y-68107657D01*
X44007851Y-68107665D01*
X43980999Y-68134517D01*
X43972828Y-68141988D01*
X43864399Y-68232589D01*
X43861812Y-68234693D01*
X43735801Y-68334356D01*
X43733160Y-68336387D01*
X43604702Y-68432490D01*
X43602012Y-68434447D01*
X43471134Y-68526990D01*
X43468392Y-68528874D01*
X43335145Y-68617829D01*
X43332357Y-68619637D01*
X43196878Y-68704924D01*
X43194043Y-68706656D01*
X43056361Y-68788264D01*
X43053483Y-68789918D01*
X42913652Y-68867818D01*
X42910728Y-68869396D01*
X42768959Y-68943471D01*
X42765997Y-68944969D01*
X42622178Y-69015280D01*
X42619175Y-69016698D01*
X42473508Y-69083140D01*
X42470503Y-69084463D01*
X42414204Y-69108340D01*
X42323003Y-69147019D01*
X42319926Y-69148275D01*
X42170749Y-69206876D01*
X42167634Y-69208052D01*
X42061632Y-69246441D01*
X41991896Y-69250760D01*
X41939199Y-69224415D01*
X41932446Y-69218687D01*
X41925565Y-69211951D01*
X41921496Y-69208419D01*
X41913400Y-69202342D01*
X41908695Y-69199310D01*
X41900477Y-69194682D01*
X41882854Y-69183032D01*
X41876798Y-69178763D01*
X41859582Y-69165841D01*
X41852467Y-69159664D01*
X41847994Y-69156228D01*
X41840184Y-69151066D01*
X41835065Y-69148182D01*
X41826808Y-69144162D01*
X41824105Y-69142600D01*
X41808119Y-69133360D01*
X41801830Y-69129468D01*
X41783344Y-69117249D01*
X41776089Y-69111678D01*
X41771140Y-69108331D01*
X41763897Y-69104146D01*
X41758280Y-69101411D01*
X41750075Y-69098009D01*
X41730270Y-69088105D01*
X41723684Y-69084559D01*
X41703929Y-69073142D01*
X41696635Y-69068211D01*
X41692628Y-69065842D01*
X41692625Y-69065840D01*
X41692620Y-69065838D01*
X41691130Y-69064957D01*
X41684703Y-69061744D01*
X41678500Y-69059171D01*
X41670497Y-69056406D01*
X41649471Y-69047444D01*
X41642633Y-69044281D01*
X41636219Y-69041073D01*
X41621456Y-69033690D01*
X41614250Y-69029432D01*
X41608116Y-69026296D01*
X41602811Y-69024035D01*
X41595942Y-69021660D01*
X41588245Y-69019514D01*
X41565869Y-69011553D01*
X41558832Y-69008805D01*
X41536158Y-68999139D01*
X41529186Y-68995576D01*
X41522334Y-68992588D01*
X41518339Y-68991167D01*
X41510776Y-68989057D01*
X41503467Y-68987493D01*
X41479762Y-68980668D01*
X41472502Y-68978334D01*
X41448270Y-68969712D01*
X41441661Y-68966832D01*
X41433976Y-68964034D01*
X41431539Y-68963333D01*
X41423231Y-68961553D01*
X41416409Y-68960526D01*
X41391279Y-68954948D01*
X41383846Y-68953055D01*
X41365494Y-68947772D01*
X41361930Y-68946443D01*
X41361899Y-68946543D01*
X41354151Y-68944122D01*
X41354150Y-68944122D01*
X41354148Y-68944121D01*
X41351918Y-68943425D01*
X41344340Y-68941681D01*
X41339101Y-68940173D01*
X41331061Y-68938963D01*
X41331155Y-68938337D01*
X41313443Y-68935748D01*
X41308379Y-68934338D01*
X41285641Y-68931117D01*
X41276179Y-68929400D01*
X41273375Y-68928778D01*
X41270055Y-68927770D01*
X41270026Y-68927892D01*
X41259500Y-68925311D01*
X41252636Y-68924175D01*
X41247753Y-68923091D01*
X41239667Y-68922382D01*
X41239717Y-68921804D01*
X41221548Y-68920294D01*
X41215478Y-68919005D01*
X41210292Y-68918599D01*
X41198787Y-68917153D01*
X41193631Y-68916258D01*
X41189343Y-68916082D01*
X41172508Y-68914233D01*
X41168381Y-68913491D01*
X41163431Y-68913259D01*
X41151864Y-68912171D01*
X41146912Y-68911469D01*
X41142269Y-68911424D01*
X41125389Y-68910101D01*
X41120944Y-68909445D01*
X41116178Y-68909370D01*
X41104607Y-68908645D01*
X41101286Y-68908280D01*
X41099843Y-68908122D01*
X41094854Y-68908229D01*
X41087955Y-68907852D01*
X41081007Y-68907852D01*
X41078051Y-68907852D01*
X41068361Y-68907473D01*
X41065950Y-68907284D01*
X41052513Y-68906230D01*
X41044403Y-68906658D01*
X41044371Y-68906054D01*
X41030364Y-68907009D01*
X41004891Y-68905813D01*
X40996798Y-68906495D01*
X40996747Y-68905891D01*
X40982776Y-68907284D01*
X40957054Y-68906882D01*
X40955792Y-68907029D01*
X40941528Y-68907852D01*
X39087030Y-68907852D01*
X39073098Y-68906238D01*
X39073038Y-68906848D01*
X39064950Y-68906039D01*
X39064946Y-68906039D01*
X39012308Y-68907683D01*
X39008818Y-68907792D01*
X39004948Y-68907852D01*
X38991533Y-68907852D01*
X38970801Y-68906106D01*
X38970219Y-68906007D01*
X38969463Y-68905879D01*
X38969455Y-68905879D01*
X38923322Y-68910218D01*
X38915585Y-68910702D01*
X38886186Y-68911621D01*
X38881485Y-68911446D01*
X38872114Y-68911682D01*
X38862998Y-68913174D01*
X38858290Y-68914249D01*
X38829242Y-68918825D01*
X38821559Y-68919791D01*
X38793546Y-68922426D01*
X38788065Y-68922565D01*
X38778619Y-68923395D01*
X38769619Y-68925452D01*
X38764115Y-68927076D01*
X38736703Y-68933161D01*
X38729136Y-68934595D01*
X38711069Y-68937442D01*
X38702575Y-68938780D01*
X38696385Y-68939323D01*
X38687263Y-68940695D01*
X38686458Y-68940874D01*
X38677913Y-68943397D01*
X38671790Y-68945625D01*
X38645987Y-68953054D01*
X38638544Y-68954949D01*
X38613404Y-68960528D01*
X38606610Y-68961551D01*
X38601312Y-68962685D01*
X38601308Y-68962686D01*
X38601303Y-68962687D01*
X38598295Y-68963332D01*
X38595828Y-68964041D01*
X38588138Y-68966843D01*
X38581543Y-68969717D01*
X38557311Y-68978338D01*
X38550054Y-68980671D01*
X38526355Y-68987494D01*
X38519037Y-68989060D01*
X38511514Y-68991159D01*
X38507475Y-68992595D01*
X38500631Y-68995579D01*
X38493659Y-68999141D01*
X38470998Y-69008801D01*
X38463940Y-69011558D01*
X38441585Y-69019512D01*
X38433891Y-69021658D01*
X38427067Y-69024016D01*
X38421674Y-69026314D01*
X38415585Y-69029428D01*
X38408376Y-69033686D01*
X38387193Y-69044279D01*
X38380362Y-69047439D01*
X38359336Y-69056403D01*
X38351311Y-69059175D01*
X38345148Y-69061732D01*
X38338670Y-69064970D01*
X38333219Y-69068192D01*
X38325913Y-69073129D01*
X38306148Y-69084553D01*
X38299557Y-69088102D01*
X38279736Y-69098014D01*
X38271523Y-69101419D01*
X38265951Y-69104134D01*
X38258672Y-69108340D01*
X38253748Y-69111669D01*
X38246490Y-69117240D01*
X38228009Y-69129458D01*
X38221674Y-69133378D01*
X38203022Y-69144158D01*
X38194759Y-69148181D01*
X38189660Y-69151053D01*
X38181830Y-69156228D01*
X38177370Y-69159653D01*
X38170252Y-69165831D01*
X38153012Y-69178771D01*
X38146957Y-69183039D01*
X38129345Y-69194682D01*
X38121121Y-69199314D01*
X38116445Y-69202328D01*
X38108330Y-69208417D01*
X38104257Y-69211954D01*
X38097372Y-69218692D01*
X38090615Y-69224422D01*
X38026754Y-69252768D01*
X37968191Y-69246438D01*
X37862222Y-69208059D01*
X37859109Y-69206884D01*
X37709917Y-69148277D01*
X37706838Y-69147020D01*
X37559341Y-69084463D01*
X37556299Y-69083124D01*
X37410656Y-69016693D01*
X37407653Y-69015275D01*
X37263868Y-68944980D01*
X37260904Y-68943481D01*
X37119021Y-68869343D01*
X37116135Y-68867786D01*
X36976318Y-68789894D01*
X36973499Y-68788273D01*
X36835809Y-68706659D01*
X36832975Y-68704928D01*
X36697480Y-68619630D01*
X36694692Y-68617822D01*
X36561449Y-68528869D01*
X36558708Y-68526986D01*
X36427793Y-68434418D01*
X36425112Y-68432467D01*
X36296690Y-68336388D01*
X36294051Y-68334358D01*
X36168048Y-68234702D01*
X36165459Y-68232598D01*
X36056996Y-68141967D01*
X36048825Y-68134494D01*
X36047805Y-68133474D01*
X36047782Y-68133433D01*
X36047774Y-68133442D01*
X36022061Y-68107710D01*
X36021974Y-68107643D01*
X36011667Y-68101693D01*
X35994157Y-68089460D01*
X35985023Y-68081827D01*
X35950606Y-68065864D01*
X35950563Y-68065844D01*
X35940742Y-68060744D01*
X35939212Y-68059861D01*
X35933135Y-68056351D01*
X35933103Y-68056318D01*
X35933097Y-68056330D01*
X35908018Y-68041839D01*
X35908017Y-68041838D01*
X35907919Y-68041782D01*
X35907847Y-68041752D01*
X35896351Y-68038672D01*
X35876267Y-68031385D01*
X35872377Y-68029581D01*
X35865473Y-68026379D01*
X35828052Y-68019860D01*
X35817241Y-68017475D01*
X35806071Y-68014481D01*
X35806036Y-68014460D01*
X35806034Y-68014471D01*
X35780614Y-68007650D01*
X35780576Y-68007645D01*
X35780554Y-68007645D01*
X35768652Y-68007645D01*
X35747371Y-68005805D01*
X35735644Y-68003762D01*
X35735642Y-68003762D01*
X35697806Y-68007151D01*
X35686744Y-68007645D01*
X35673662Y-68007645D01*
X35648837Y-68007635D01*
X35647066Y-68007869D01*
X35645564Y-68007634D01*
X35641044Y-68007633D01*
X35640861Y-68007645D01*
X35640644Y-68007645D01*
X35640644Y-68006867D01*
X35578031Y-67997100D01*
X35525778Y-67950717D01*
X35506896Y-67883447D01*
X35507945Y-67868763D01*
X35508237Y-67866530D01*
X35508240Y-67866522D01*
X35508234Y-67831315D01*
X35508829Y-67819186D01*
X35512278Y-67784160D01*
X35509878Y-67769634D01*
X35508222Y-67749457D01*
X35508221Y-67734737D01*
X35499104Y-67700734D01*
X35496539Y-67688866D01*
X35490805Y-67654138D01*
X35484730Y-67640733D01*
X35477905Y-67621666D01*
X35474094Y-67607448D01*
X35456488Y-67576965D01*
X35450941Y-67566169D01*
X35436411Y-67534103D01*
X35427072Y-67522725D01*
X35415544Y-67506073D01*
X35408185Y-67493330D01*
X35383305Y-67468457D01*
X35375128Y-67459435D01*
X35216169Y-67265762D01*
X35212753Y-67261407D01*
X35053136Y-67048198D01*
X35049927Y-67043706D01*
X34992391Y-66959263D01*
X34900417Y-66824277D01*
X34897421Y-66819662D01*
X34758141Y-66594368D01*
X34755356Y-66589633D01*
X34626417Y-66358795D01*
X34623850Y-66353950D01*
X34505421Y-66117996D01*
X34503084Y-66113073D01*
X34395257Y-65872269D01*
X34393161Y-65867296D01*
X34312608Y-65663778D01*
X34296119Y-65622119D01*
X34294219Y-65616991D01*
X34292292Y-65611415D01*
X34208093Y-65367804D01*
X34206428Y-65362617D01*
X34192154Y-65314547D01*
X34131344Y-65109753D01*
X34129903Y-65104476D01*
X34065989Y-64848274D01*
X34064791Y-64842977D01*
X34012188Y-64583815D01*
X34011228Y-64578479D01*
X33970077Y-64316756D01*
X33969352Y-64311364D01*
X33939791Y-64047461D01*
X33939300Y-64041976D01*
X33921459Y-63776199D01*
X33921215Y-63770741D01*
X33915231Y-63503465D01*
X33915231Y-63497921D01*
X33916388Y-63446177D01*
X33921205Y-63230693D01*
X33921448Y-63225250D01*
X33939283Y-62959475D01*
X33939768Y-62954060D01*
X33969324Y-62690143D01*
X33970051Y-62684740D01*
X34011192Y-62423038D01*
X34012165Y-62417639D01*
X34014139Y-62407912D01*
X34064747Y-62158559D01*
X34065954Y-62153222D01*
X34129847Y-61897082D01*
X34131272Y-61891860D01*
X34206370Y-61638934D01*
X34208029Y-61633766D01*
X34294173Y-61384504D01*
X34296028Y-61379498D01*
X34393084Y-61134270D01*
X34395197Y-61129259D01*
X34401779Y-61114560D01*
X34502996Y-60888508D01*
X34505323Y-60883603D01*
X34623781Y-60647573D01*
X34626314Y-60642794D01*
X34755251Y-60411945D01*
X34758009Y-60407254D01*
X34897345Y-60181854D01*
X34900279Y-60177335D01*
X35049827Y-59957836D01*
X35052999Y-59953396D01*
X35088865Y-59905485D01*
X35144797Y-59863616D01*
X35214488Y-59858631D01*
X35275812Y-59892115D01*
G37*
G04 #@! TD.AperFunction*
M02*
