G04 #@! TF.GenerationSoftware,KiCad,Pcbnew,8.0.0*
G04 #@! TF.CreationDate,2025-07-24T19:22:06+01:00*
G04 #@! TF.ProjectId,MidiToCvConnectors,4d696469-546f-4437-9643-6f6e6e656374,1_0*
G04 #@! TF.SameCoordinates,Original*
G04 #@! TF.FileFunction,Soldermask,Bot*
G04 #@! TF.FilePolarity,Negative*
%FSLAX46Y46*%
G04 Gerber Fmt 4.6, Leading zero omitted, Abs format (unit mm)*
G04 Created by KiCad (PCBNEW 8.0.0) date 2025-07-24 19:22:06*
%MOMM*%
%LPD*%
G01*
G04 APERTURE LIST*
G04 Aperture macros list*
%AMRoundRect*
0 Rectangle with rounded corners*
0 $1 Rounding radius*
0 $2 $3 $4 $5 $6 $7 $8 $9 X,Y pos of 4 corners*
0 Add a 4 corners polygon primitive as box body*
4,1,4,$2,$3,$4,$5,$6,$7,$8,$9,$2,$3,0*
0 Add four circle primitives for the rounded corners*
1,1,$1+$1,$2,$3*
1,1,$1+$1,$4,$5*
1,1,$1+$1,$6,$7*
1,1,$1+$1,$8,$9*
0 Add four rect primitives between the rounded corners*
20,1,$1+$1,$2,$3,$4,$5,0*
20,1,$1+$1,$4,$5,$6,$7,0*
20,1,$1+$1,$6,$7,$8,$9,0*
20,1,$1+$1,$8,$9,$2,$3,0*%
%AMHorizOval*
0 Thick line with rounded ends*
0 $1 width*
0 $2 $3 position (X,Y) of the first rounded end (center of the circle)*
0 $4 $5 position (X,Y) of the second rounded end (center of the circle)*
0 Add line between two ends*
20,1,$1,$2,$3,$4,$5,0*
0 Add two circle primitives to create the rounded ends*
1,1,$1,$2,$3*
1,1,$1,$4,$5*%
G04 Aperture macros list end*
%ADD10O,3.100000X2.100000*%
%ADD11RoundRect,0.650000X-0.650000X-0.650000X0.650000X-0.650000X0.650000X0.650000X-0.650000X0.650000X0*%
%ADD12HorizOval,1.600000X0.692820X0.400000X-0.692820X-0.400000X0*%
%ADD13HorizOval,1.600000X-0.400000X0.692820X0.400000X-0.692820X0*%
%ADD14HorizOval,1.600000X0.772741X-0.207055X-0.772741X0.207055X0*%
%ADD15HorizOval,1.600000X0.207055X0.772741X-0.207055X-0.772741X0*%
%ADD16RoundRect,0.250000X-0.550000X-0.550000X0.550000X-0.550000X0.550000X0.550000X-0.550000X0.550000X0*%
%ADD17C,1.600000*%
%ADD18R,1.700000X1.700000*%
%ADD19O,1.700000X1.700000*%
G04 APERTURE END LIST*
D10*
X46990000Y-131575000D03*
D11*
X46990000Y-120175000D03*
X46990000Y-128475000D03*
D10*
X33020000Y-113795000D03*
D11*
X33020000Y-102395000D03*
X33020000Y-110695000D03*
D10*
X46990000Y-113795000D03*
D11*
X46990000Y-102395000D03*
X46990000Y-110695000D03*
D10*
X33020000Y-96015000D03*
D11*
X33020000Y-84615000D03*
X33020000Y-92915000D03*
D10*
X46990000Y-96015000D03*
D11*
X46990000Y-84615000D03*
X46990000Y-92915000D03*
D10*
X33020000Y-149355000D03*
D11*
X33020000Y-137955000D03*
X33020000Y-146255000D03*
D12*
X36195000Y-63500000D03*
D13*
X40005000Y-59625000D03*
D12*
X43880000Y-63500000D03*
D14*
X37265000Y-60760000D03*
D15*
X42745000Y-60760000D03*
D10*
X33020000Y-131575000D03*
D11*
X33020000Y-120175000D03*
X33020000Y-128475000D03*
D10*
X46990000Y-149355000D03*
D11*
X46990000Y-137955000D03*
X46990000Y-146255000D03*
D16*
X38205000Y-52070000D03*
D17*
X41805000Y-52070000D03*
D18*
X48895000Y-152400000D03*
D19*
X46355000Y-152400000D03*
X43815000Y-152400000D03*
X41275000Y-152400000D03*
X38735000Y-152400000D03*
X36195000Y-152400000D03*
X33655000Y-152400000D03*
X31115000Y-152400000D03*
D18*
X31115000Y-45720000D03*
D19*
X33655000Y-45720000D03*
X36195000Y-45720000D03*
X38735000Y-45720000D03*
X41275000Y-45720000D03*
X43815000Y-45720000D03*
X46355000Y-45720000D03*
X48895000Y-45720000D03*
M02*
