G04 #@! TF.GenerationSoftware,KiCad,Pcbnew,8.0.0*
G04 #@! TF.CreationDate,2025-07-24T19:22:06+01:00*
G04 #@! TF.ProjectId,MidiToCvConnectors,4d696469-546f-4437-9643-6f6e6e656374,1_0*
G04 #@! TF.SameCoordinates,Original*
G04 #@! TF.FileFunction,Profile,NP*
%FSLAX46Y46*%
G04 Gerber Fmt 4.6, Leading zero omitted, Abs format (unit mm)*
G04 Created by KiCad (PCBNEW 8.0.0) date 2025-07-24 19:22:06*
%MOMM*%
%LPD*%
G01*
G04 APERTURE LIST*
G04 #@! TA.AperFunction,Profile*
%ADD10C,0.050000*%
G04 #@! TD*
G04 #@! TA.AperFunction,Profile*
%ADD11C,0.120000*%
G04 #@! TD*
G04 #@! TA.AperFunction,Profile*
%ADD12C,0.100000*%
G04 #@! TD*
G04 APERTURE END LIST*
D10*
X25400000Y-44450000D02*
X54610000Y-44450000D01*
X54610000Y-153670000D01*
X25400000Y-153670000D01*
X25400000Y-44450000D01*
D11*
X31005000Y-63500000D02*
G75*
G02*
X27605000Y-63500000I-1700000J0D01*
G01*
X27605000Y-63500000D02*
G75*
G02*
X31005000Y-63500000I1700000J0D01*
G01*
X52405000Y-63500000D02*
G75*
G02*
X49005000Y-63500000I-1700000J0D01*
G01*
X49005000Y-63500000D02*
G75*
G02*
X52405000Y-63500000I1700000J0D01*
G01*
D12*
X45730584Y-58491711D02*
X45730580Y-58491715D01*
X45730500Y-58491620D01*
X45730584Y-58491711D01*
X38515000Y-57073208D02*
X38321990Y-57121304D01*
X38130820Y-57175104D01*
X37941611Y-57234547D01*
X37754482Y-57299573D01*
X37569552Y-57370120D01*
X37386941Y-57446128D01*
X37206769Y-57527538D01*
X37029155Y-57614287D01*
X36854218Y-57706316D01*
X36682078Y-57803563D01*
X36512854Y-57905969D01*
X36346666Y-58013473D01*
X36183633Y-58126013D01*
X36023875Y-58243531D01*
X35867512Y-58365964D01*
X35714662Y-58493252D01*
X35006173Y-57784787D01*
X35195765Y-57624035D01*
X35390141Y-57469853D01*
X35589124Y-57322328D01*
X35792539Y-57181549D01*
X36000209Y-57047600D01*
X36211958Y-56920571D01*
X36427609Y-56800548D01*
X36646987Y-56687619D01*
X36869915Y-56581869D01*
X37096216Y-56483388D01*
X37325715Y-56392261D01*
X37558235Y-56308576D01*
X37793600Y-56232420D01*
X38031633Y-56163881D01*
X38272159Y-56103045D01*
X38515000Y-56050000D01*
X38515000Y-57073208D01*
X41757674Y-56103045D02*
X41998200Y-56163881D01*
X42236233Y-56232420D01*
X42471598Y-56308576D01*
X42704118Y-56392261D01*
X42933616Y-56483388D01*
X43159918Y-56581869D01*
X43382845Y-56687619D01*
X43602222Y-56800548D01*
X43817873Y-56920571D01*
X44029621Y-57047600D01*
X44237291Y-57181549D01*
X44440705Y-57322328D01*
X44639687Y-57469853D01*
X44834062Y-57624035D01*
X45023652Y-57784787D01*
X44314652Y-58493786D01*
X44161839Y-58366472D01*
X44005512Y-58244011D01*
X43845790Y-58126465D01*
X43682792Y-58013895D01*
X43516639Y-57906361D01*
X43347449Y-57803923D01*
X43175342Y-57706643D01*
X43000438Y-57614581D01*
X42822855Y-57527796D01*
X42642714Y-57446351D01*
X42460134Y-57370306D01*
X42275234Y-57299720D01*
X42088133Y-57234656D01*
X41898952Y-57175173D01*
X41707809Y-57121332D01*
X41514825Y-57073193D01*
X41514825Y-56050000D01*
X41514832Y-56050000D01*
X41757674Y-56103045D01*
X35007592Y-59200863D02*
X34820309Y-59429062D01*
X34644021Y-59664558D01*
X34478879Y-59906944D01*
X34325033Y-60155817D01*
X34182632Y-60410770D01*
X34051828Y-60671399D01*
X33932769Y-60937299D01*
X33825605Y-61208064D01*
X33730488Y-61483289D01*
X33647566Y-61762569D01*
X33576990Y-62045498D01*
X33518909Y-62331673D01*
X33473475Y-62620687D01*
X33440835Y-62912135D01*
X33421142Y-63205612D01*
X33414544Y-63500714D01*
X33421152Y-63795850D01*
X33440855Y-64089357D01*
X33473504Y-64380831D01*
X33518949Y-64669866D01*
X33577039Y-64956058D01*
X33647625Y-65239002D01*
X33730556Y-65518292D01*
X33825683Y-65793524D01*
X33932855Y-66064293D01*
X34051922Y-66330195D01*
X34182735Y-66590823D01*
X34325143Y-66845774D01*
X34478997Y-67094642D01*
X34644146Y-67337023D01*
X34820440Y-67572511D01*
X35007730Y-67800702D01*
X34298814Y-68509823D01*
X34077495Y-68245413D01*
X33869131Y-67972251D01*
X33673905Y-67690822D01*
X33492000Y-67401611D01*
X33323598Y-67105104D01*
X33168882Y-66801786D01*
X33028034Y-66492141D01*
X32901237Y-66176655D01*
X32788674Y-65855814D01*
X32690527Y-65530102D01*
X32606978Y-65200004D01*
X32538211Y-64866006D01*
X32484407Y-64528593D01*
X32445750Y-64188249D01*
X32422422Y-63845461D01*
X32414605Y-63500714D01*
X32422415Y-63155990D01*
X32445736Y-62813223D01*
X32484386Y-62472898D01*
X32538184Y-62135501D01*
X32606945Y-61801515D01*
X32690487Y-61471428D01*
X32788628Y-61145724D01*
X32901186Y-60824889D01*
X33027977Y-60509407D01*
X33168820Y-60199765D01*
X33323530Y-59896447D01*
X33491927Y-59599939D01*
X33673827Y-59310726D01*
X33869048Y-59029293D01*
X34077407Y-58756127D01*
X34298722Y-58491711D01*
X35007592Y-59200863D01*
X45951821Y-58756030D02*
X46160186Y-59029192D01*
X46355412Y-59310621D01*
X46537318Y-59599831D01*
X46705721Y-59896338D01*
X46860438Y-60199656D01*
X47001286Y-60509301D01*
X47128083Y-60824786D01*
X47240647Y-61145626D01*
X47338794Y-61471338D01*
X47422343Y-61801434D01*
X47491111Y-62135430D01*
X47544914Y-62472842D01*
X47583572Y-62813183D01*
X47606900Y-63155969D01*
X47614717Y-63500714D01*
X47606906Y-63845437D01*
X47583583Y-64188205D01*
X47544932Y-64528530D01*
X47491134Y-64865929D01*
X47422372Y-65199915D01*
X47338828Y-65530003D01*
X47240686Y-65855708D01*
X47128128Y-66176545D01*
X47001336Y-66492027D01*
X46860493Y-66801670D01*
X46705781Y-67104988D01*
X46537384Y-67401495D01*
X46355483Y-67690708D01*
X46160261Y-67972139D01*
X45951900Y-68245303D01*
X45730584Y-68509716D01*
X45021516Y-67801907D01*
X45208822Y-67573701D01*
X45385131Y-67338196D01*
X45550293Y-67095794D01*
X45704159Y-66846900D01*
X45846578Y-66591918D01*
X45977399Y-66331250D01*
X46096474Y-66065301D01*
X46203651Y-65794474D01*
X46298782Y-65519173D01*
X46381715Y-65239802D01*
X46452301Y-64956764D01*
X46510390Y-64670462D01*
X46555831Y-64381301D01*
X46588475Y-64089685D01*
X46608171Y-63796016D01*
X46614770Y-63500698D01*
X46608163Y-63205562D01*
X46588461Y-62912054D01*
X46555813Y-62620580D01*
X46510369Y-62331544D01*
X46452280Y-62045351D01*
X46381695Y-61762407D01*
X46298764Y-61483115D01*
X46203637Y-61207882D01*
X46096465Y-60937113D01*
X45977397Y-60671211D01*
X45846584Y-60410582D01*
X45704175Y-60155632D01*
X45550321Y-59906765D01*
X45385171Y-59664385D01*
X45208875Y-59428899D01*
X45021584Y-59200711D01*
X45730580Y-58491715D01*
X45951821Y-58756030D01*
X35850972Y-68622045D02*
X35990120Y-68732098D01*
X36132019Y-68838259D01*
X36276588Y-68940482D01*
X36423740Y-69038721D01*
X36573393Y-69132932D01*
X36725461Y-69223069D01*
X36879862Y-69309086D01*
X37036510Y-69390939D01*
X37195322Y-69468581D01*
X37356214Y-69541967D01*
X37519101Y-69611052D01*
X37683899Y-69675790D01*
X37850524Y-69736137D01*
X38018893Y-69792046D01*
X38188920Y-69843472D01*
X38224047Y-69795259D01*
X38261922Y-69749292D01*
X38302426Y-69705689D01*
X38345442Y-69664570D01*
X38390853Y-69626054D01*
X38438540Y-69590261D01*
X38488385Y-69557310D01*
X38540272Y-69527321D01*
X38594082Y-69500413D01*
X38649697Y-69476705D01*
X38707000Y-69456317D01*
X38765873Y-69439368D01*
X38826198Y-69425978D01*
X38887858Y-69416265D01*
X38950735Y-69410350D01*
X39014710Y-69408352D01*
X41015115Y-69408352D01*
X41047233Y-69408854D01*
X41079091Y-69410350D01*
X41110674Y-69412826D01*
X41141967Y-69416265D01*
X41172957Y-69420654D01*
X41203627Y-69425978D01*
X41263952Y-69439368D01*
X41322825Y-69456317D01*
X41380128Y-69476705D01*
X41435743Y-69500413D01*
X41489552Y-69527321D01*
X41541439Y-69557310D01*
X41591284Y-69590261D01*
X41638970Y-69626054D01*
X41684380Y-69664570D01*
X41727395Y-69705689D01*
X41767898Y-69749292D01*
X41805772Y-69795259D01*
X41840898Y-69843472D01*
X42010925Y-69792048D01*
X42179294Y-69736142D01*
X42345920Y-69675797D01*
X42510718Y-69611061D01*
X42673606Y-69541977D01*
X42834498Y-69468592D01*
X42993311Y-69390951D01*
X43149961Y-69309100D01*
X43304362Y-69223083D01*
X43456432Y-69132947D01*
X43606086Y-69038736D01*
X43753240Y-68940497D01*
X43897809Y-68838274D01*
X44039710Y-68732113D01*
X44178859Y-68622060D01*
X44315171Y-68508160D01*
X45023652Y-69216626D01*
X44853753Y-69361174D01*
X44679951Y-69500467D01*
X44502373Y-69634438D01*
X44321145Y-69763021D01*
X44136392Y-69886148D01*
X43948242Y-70003754D01*
X43756819Y-70115772D01*
X43562250Y-70222136D01*
X43364661Y-70322778D01*
X43164178Y-70417633D01*
X42960927Y-70506633D01*
X42755034Y-70589713D01*
X42546625Y-70666805D01*
X42335827Y-70737843D01*
X42122764Y-70802761D01*
X41907563Y-70861493D01*
X41874694Y-70921216D01*
X41837959Y-70978339D01*
X41797533Y-71032690D01*
X41753589Y-71084095D01*
X41706301Y-71132382D01*
X41655843Y-71177377D01*
X41602389Y-71218907D01*
X41546111Y-71256800D01*
X41487184Y-71290883D01*
X41425782Y-71320982D01*
X41362079Y-71346925D01*
X41296247Y-71368539D01*
X41228461Y-71385651D01*
X41158895Y-71398088D01*
X41087721Y-71405677D01*
X41015115Y-71408245D01*
X39014710Y-71408245D01*
X38978240Y-71407600D01*
X38942105Y-71405677D01*
X38906329Y-71402500D01*
X38870933Y-71398088D01*
X38835939Y-71392465D01*
X38801368Y-71385651D01*
X38767243Y-71377669D01*
X38733584Y-71368539D01*
X38700413Y-71358284D01*
X38667753Y-71346925D01*
X38635625Y-71334484D01*
X38604050Y-71320981D01*
X38573051Y-71306440D01*
X38542649Y-71290882D01*
X38512865Y-71274327D01*
X38483723Y-71256798D01*
X38455242Y-71238317D01*
X38427445Y-71218904D01*
X38400354Y-71198582D01*
X38373991Y-71177373D01*
X38348376Y-71155297D01*
X38323532Y-71132377D01*
X38299481Y-71108633D01*
X38276244Y-71084089D01*
X38253842Y-71058764D01*
X38232299Y-71032682D01*
X38211634Y-71005863D01*
X38191871Y-70978329D01*
X38173030Y-70950102D01*
X38155134Y-70921203D01*
X38138204Y-70891654D01*
X38122262Y-70861477D01*
X37907028Y-70802762D01*
X37693932Y-70737858D01*
X37483100Y-70666832D01*
X37274657Y-70589749D01*
X37068731Y-70506678D01*
X36865446Y-70417684D01*
X36664930Y-70322833D01*
X36467308Y-70222193D01*
X36272706Y-70115830D01*
X36081252Y-70003811D01*
X35893069Y-69886202D01*
X35708286Y-69763070D01*
X35527027Y-69634481D01*
X35349419Y-69500502D01*
X35175589Y-69361200D01*
X35005662Y-69216641D01*
X35714662Y-68508160D01*
X35714662Y-68508145D01*
X35850972Y-68622045D01*
M02*
