G04 #@! TF.GenerationSoftware,KiCad,Pcbnew,8.0.0*
G04 #@! TF.CreationDate,2025-07-24T19:22:06+01:00*
G04 #@! TF.ProjectId,MidiToCvConnectors,4d696469-546f-4437-9643-6f6e6e656374,1_0*
G04 #@! TF.SameCoordinates,Original*
G04 #@! TF.FileFunction,Legend,Bot*
G04 #@! TF.FilePolarity,Positive*
%FSLAX46Y46*%
G04 Gerber Fmt 4.6, Leading zero omitted, Abs format (unit mm)*
G04 Created by KiCad (PCBNEW 8.0.0) date 2025-07-24 19:22:06*
%MOMM*%
%LPD*%
G01*
G04 APERTURE LIST*
G04 Aperture macros list*
%AMRoundRect*
0 Rectangle with rounded corners*
0 $1 Rounding radius*
0 $2 $3 $4 $5 $6 $7 $8 $9 X,Y pos of 4 corners*
0 Add a 4 corners polygon primitive as box body*
4,1,4,$2,$3,$4,$5,$6,$7,$8,$9,$2,$3,0*
0 Add four circle primitives for the rounded corners*
1,1,$1+$1,$2,$3*
1,1,$1+$1,$4,$5*
1,1,$1+$1,$6,$7*
1,1,$1+$1,$8,$9*
0 Add four rect primitives between the rounded corners*
20,1,$1+$1,$2,$3,$4,$5,0*
20,1,$1+$1,$4,$5,$6,$7,0*
20,1,$1+$1,$6,$7,$8,$9,0*
20,1,$1+$1,$8,$9,$2,$3,0*%
%AMHorizOval*
0 Thick line with rounded ends*
0 $1 width*
0 $2 $3 position (X,Y) of the first rounded end (center of the circle)*
0 $4 $5 position (X,Y) of the second rounded end (center of the circle)*
0 Add line between two ends*
20,1,$1,$2,$3,$4,$5,0*
0 Add two circle primitives to create the rounded ends*
1,1,$1,$2,$3*
1,1,$1,$4,$5*%
G04 Aperture macros list end*
%ADD10C,0.150000*%
%ADD11C,0.120000*%
%ADD12O,3.100000X2.100000*%
%ADD13RoundRect,0.650000X-0.650000X-0.650000X0.650000X-0.650000X0.650000X0.650000X-0.650000X0.650000X0*%
%ADD14HorizOval,1.600000X0.692820X0.400000X-0.692820X-0.400000X0*%
%ADD15HorizOval,1.600000X-0.400000X0.692820X0.400000X-0.692820X0*%
%ADD16HorizOval,1.600000X0.772741X-0.207055X-0.772741X0.207055X0*%
%ADD17HorizOval,1.600000X0.207055X0.772741X-0.207055X-0.772741X0*%
%ADD18RoundRect,0.250000X-0.550000X-0.550000X0.550000X-0.550000X0.550000X0.550000X-0.550000X0.550000X0*%
%ADD19C,1.600000*%
%ADD20R,1.700000X1.700000*%
%ADD21O,1.700000X1.700000*%
G04 APERTURE END LIST*
D10*
X50679819Y-152066666D02*
X51394104Y-152066666D01*
X51394104Y-152066666D02*
X51536961Y-152019047D01*
X51536961Y-152019047D02*
X51632200Y-151923809D01*
X51632200Y-151923809D02*
X51679819Y-151780952D01*
X51679819Y-151780952D02*
X51679819Y-151685714D01*
X50679819Y-152447619D02*
X50679819Y-153066666D01*
X50679819Y-153066666D02*
X51060771Y-152733333D01*
X51060771Y-152733333D02*
X51060771Y-152876190D01*
X51060771Y-152876190D02*
X51108390Y-152971428D01*
X51108390Y-152971428D02*
X51156009Y-153019047D01*
X51156009Y-153019047D02*
X51251247Y-153066666D01*
X51251247Y-153066666D02*
X51489342Y-153066666D01*
X51489342Y-153066666D02*
X51584580Y-153019047D01*
X51584580Y-153019047D02*
X51632200Y-152971428D01*
X51632200Y-152971428D02*
X51679819Y-152876190D01*
X51679819Y-152876190D02*
X51679819Y-152590476D01*
X51679819Y-152590476D02*
X51632200Y-152495238D01*
X51632200Y-152495238D02*
X51584580Y-152447619D01*
X28239819Y-45386666D02*
X28954104Y-45386666D01*
X28954104Y-45386666D02*
X29096961Y-45339047D01*
X29096961Y-45339047D02*
X29192200Y-45243809D01*
X29192200Y-45243809D02*
X29239819Y-45100952D01*
X29239819Y-45100952D02*
X29239819Y-45005714D01*
X28335057Y-45815238D02*
X28287438Y-45862857D01*
X28287438Y-45862857D02*
X28239819Y-45958095D01*
X28239819Y-45958095D02*
X28239819Y-46196190D01*
X28239819Y-46196190D02*
X28287438Y-46291428D01*
X28287438Y-46291428D02*
X28335057Y-46339047D01*
X28335057Y-46339047D02*
X28430295Y-46386666D01*
X28430295Y-46386666D02*
X28525533Y-46386666D01*
X28525533Y-46386666D02*
X28668390Y-46339047D01*
X28668390Y-46339047D02*
X29239819Y-45767619D01*
X29239819Y-45767619D02*
X29239819Y-46386666D01*
D11*
X29785000Y-151070000D02*
X29785000Y-153730000D01*
X29785000Y-151070000D02*
X47625000Y-151070000D01*
X29785000Y-153730000D02*
X47625000Y-153730000D01*
X47625000Y-151070000D02*
X47625000Y-153730000D01*
X50225000Y-152400000D02*
X50225000Y-153730000D01*
X50225000Y-153730000D02*
X48895000Y-153730000D01*
X29785000Y-44390000D02*
X31115000Y-44390000D01*
X29785000Y-45720000D02*
X29785000Y-44390000D01*
X32385000Y-47050000D02*
X32385000Y-44390000D01*
X50225000Y-44390000D02*
X32385000Y-44390000D01*
X50225000Y-47050000D02*
X32385000Y-47050000D01*
X50225000Y-47050000D02*
X50225000Y-44390000D01*
%LPC*%
D12*
X46990000Y-131575000D03*
D13*
X46990000Y-120175000D03*
X46990000Y-128475000D03*
D12*
X33020000Y-113795000D03*
D13*
X33020000Y-102395000D03*
X33020000Y-110695000D03*
D12*
X46990000Y-113795000D03*
D13*
X46990000Y-102395000D03*
X46990000Y-110695000D03*
D12*
X33020000Y-96015000D03*
D13*
X33020000Y-84615000D03*
X33020000Y-92915000D03*
D12*
X46990000Y-96015000D03*
D13*
X46990000Y-84615000D03*
X46990000Y-92915000D03*
D12*
X33020000Y-149355000D03*
D13*
X33020000Y-137955000D03*
X33020000Y-146255000D03*
D14*
X36195000Y-63500000D03*
D15*
X40005000Y-59625000D03*
D14*
X43880000Y-63500000D03*
D16*
X37265000Y-60760000D03*
D17*
X42745000Y-60760000D03*
D12*
X33020000Y-131575000D03*
D13*
X33020000Y-120175000D03*
X33020000Y-128475000D03*
D12*
X46990000Y-149355000D03*
D13*
X46990000Y-137955000D03*
X46990000Y-146255000D03*
D18*
X38205000Y-52070000D03*
D19*
X41805000Y-52070000D03*
D20*
X48895000Y-152400000D03*
D21*
X46355000Y-152400000D03*
X43815000Y-152400000D03*
X41275000Y-152400000D03*
X38735000Y-152400000D03*
X36195000Y-152400000D03*
X33655000Y-152400000D03*
X31115000Y-152400000D03*
D20*
X31115000Y-45720000D03*
D21*
X33655000Y-45720000D03*
X36195000Y-45720000D03*
X38735000Y-45720000D03*
X41275000Y-45720000D03*
X43815000Y-45720000D03*
X46355000Y-45720000D03*
X48895000Y-45720000D03*
%LPD*%
M02*
