G04 #@! TF.GenerationSoftware,KiCad,Pcbnew,8.0.0*
G04 #@! TF.CreationDate,2025-07-24T19:30:24+01:00*
G04 #@! TF.ProjectId,MidiToCvFrontPanel,4d696469-546f-4437-9646-726f6e745061,1.0*
G04 #@! TF.SameCoordinates,Original*
G04 #@! TF.FileFunction,Legend,Top*
G04 #@! TF.FilePolarity,Positive*
%FSLAX46Y46*%
G04 Gerber Fmt 4.6, Leading zero omitted, Abs format (unit mm)*
G04 Created by KiCad (PCBNEW 8.0.0) date 2025-07-24 19:30:24*
%MOMM*%
%LPD*%
G01*
G04 APERTURE LIST*
%ADD10C,0.187500*%
G04 APERTURE END LIST*
D10*
X37640238Y-72135488D02*
X37640238Y-70135488D01*
X37640238Y-70135488D02*
X38306905Y-71564059D01*
X38306905Y-71564059D02*
X38973571Y-70135488D01*
X38973571Y-70135488D02*
X38973571Y-72135488D01*
X39925952Y-72135488D02*
X39925952Y-70135488D01*
X40878333Y-72135488D02*
X40878333Y-70135488D01*
X40878333Y-70135488D02*
X41354523Y-70135488D01*
X41354523Y-70135488D02*
X41640238Y-70230726D01*
X41640238Y-70230726D02*
X41830714Y-70421202D01*
X41830714Y-70421202D02*
X41925952Y-70611678D01*
X41925952Y-70611678D02*
X42021190Y-70992630D01*
X42021190Y-70992630D02*
X42021190Y-71278345D01*
X42021190Y-71278345D02*
X41925952Y-71659297D01*
X41925952Y-71659297D02*
X41830714Y-71849773D01*
X41830714Y-71849773D02*
X41640238Y-72040250D01*
X41640238Y-72040250D02*
X41354523Y-72135488D01*
X41354523Y-72135488D02*
X40878333Y-72135488D01*
X42878333Y-72135488D02*
X42878333Y-70135488D01*
X45354524Y-72135488D02*
X45354524Y-70135488D01*
X46306905Y-72135488D02*
X46306905Y-70135488D01*
X46306905Y-70135488D02*
X47449762Y-72135488D01*
X47449762Y-72135488D02*
X47449762Y-70135488D01*
X34735475Y-38480488D02*
X34735475Y-36480488D01*
X34735475Y-36480488D02*
X35402142Y-37909059D01*
X35402142Y-37909059D02*
X36068808Y-36480488D01*
X36068808Y-36480488D02*
X36068808Y-38480488D01*
X37021189Y-38480488D02*
X37021189Y-36480488D01*
X37973570Y-38480488D02*
X37973570Y-36480488D01*
X37973570Y-36480488D02*
X38449760Y-36480488D01*
X38449760Y-36480488D02*
X38735475Y-36575726D01*
X38735475Y-36575726D02*
X38925951Y-36766202D01*
X38925951Y-36766202D02*
X39021189Y-36956678D01*
X39021189Y-36956678D02*
X39116427Y-37337630D01*
X39116427Y-37337630D02*
X39116427Y-37623345D01*
X39116427Y-37623345D02*
X39021189Y-38004297D01*
X39021189Y-38004297D02*
X38925951Y-38194773D01*
X38925951Y-38194773D02*
X38735475Y-38385250D01*
X38735475Y-38385250D02*
X38449760Y-38480488D01*
X38449760Y-38480488D02*
X37973570Y-38480488D01*
X39973570Y-38480488D02*
X39973570Y-36480488D01*
X42164047Y-36480488D02*
X43306904Y-36480488D01*
X42735475Y-38480488D02*
X42735475Y-36480488D01*
X44354523Y-36480488D02*
X44735476Y-36480488D01*
X44735476Y-36480488D02*
X44925952Y-36575726D01*
X44925952Y-36575726D02*
X45116428Y-36766202D01*
X45116428Y-36766202D02*
X45211666Y-37147154D01*
X45211666Y-37147154D02*
X45211666Y-37813821D01*
X45211666Y-37813821D02*
X45116428Y-38194773D01*
X45116428Y-38194773D02*
X44925952Y-38385250D01*
X44925952Y-38385250D02*
X44735476Y-38480488D01*
X44735476Y-38480488D02*
X44354523Y-38480488D01*
X44354523Y-38480488D02*
X44164047Y-38385250D01*
X44164047Y-38385250D02*
X43973571Y-38194773D01*
X43973571Y-38194773D02*
X43878333Y-37813821D01*
X43878333Y-37813821D02*
X43878333Y-37147154D01*
X43878333Y-37147154D02*
X43973571Y-36766202D01*
X43973571Y-36766202D02*
X44164047Y-36575726D01*
X44164047Y-36575726D02*
X44354523Y-36480488D01*
X48735476Y-38290011D02*
X48640238Y-38385250D01*
X48640238Y-38385250D02*
X48354524Y-38480488D01*
X48354524Y-38480488D02*
X48164048Y-38480488D01*
X48164048Y-38480488D02*
X47878333Y-38385250D01*
X47878333Y-38385250D02*
X47687857Y-38194773D01*
X47687857Y-38194773D02*
X47592619Y-38004297D01*
X47592619Y-38004297D02*
X47497381Y-37623345D01*
X47497381Y-37623345D02*
X47497381Y-37337630D01*
X47497381Y-37337630D02*
X47592619Y-36956678D01*
X47592619Y-36956678D02*
X47687857Y-36766202D01*
X47687857Y-36766202D02*
X47878333Y-36575726D01*
X47878333Y-36575726D02*
X48164048Y-36480488D01*
X48164048Y-36480488D02*
X48354524Y-36480488D01*
X48354524Y-36480488D02*
X48640238Y-36575726D01*
X48640238Y-36575726D02*
X48735476Y-36670964D01*
X49306905Y-36480488D02*
X49973571Y-38480488D01*
X49973571Y-38480488D02*
X50640238Y-36480488D01*
X34095714Y-144443821D02*
X34024286Y-144515250D01*
X34024286Y-144515250D02*
X33810000Y-144586678D01*
X33810000Y-144586678D02*
X33667143Y-144586678D01*
X33667143Y-144586678D02*
X33452857Y-144515250D01*
X33452857Y-144515250D02*
X33310000Y-144372392D01*
X33310000Y-144372392D02*
X33238571Y-144229535D01*
X33238571Y-144229535D02*
X33167143Y-143943821D01*
X33167143Y-143943821D02*
X33167143Y-143729535D01*
X33167143Y-143729535D02*
X33238571Y-143443821D01*
X33238571Y-143443821D02*
X33310000Y-143300964D01*
X33310000Y-143300964D02*
X33452857Y-143158107D01*
X33452857Y-143158107D02*
X33667143Y-143086678D01*
X33667143Y-143086678D02*
X33810000Y-143086678D01*
X33810000Y-143086678D02*
X34024286Y-143158107D01*
X34024286Y-143158107D02*
X34095714Y-143229535D01*
X34524286Y-143086678D02*
X35024286Y-144586678D01*
X35024286Y-144586678D02*
X35524286Y-143086678D01*
X37810000Y-143586678D02*
X37810000Y-144586678D01*
X37452857Y-143015250D02*
X37095714Y-144086678D01*
X37095714Y-144086678D02*
X38024285Y-144086678D01*
X46744286Y-107598107D02*
X46601429Y-107526678D01*
X46601429Y-107526678D02*
X46387143Y-107526678D01*
X46387143Y-107526678D02*
X46172857Y-107598107D01*
X46172857Y-107598107D02*
X46030000Y-107740964D01*
X46030000Y-107740964D02*
X45958571Y-107883821D01*
X45958571Y-107883821D02*
X45887143Y-108169535D01*
X45887143Y-108169535D02*
X45887143Y-108383821D01*
X45887143Y-108383821D02*
X45958571Y-108669535D01*
X45958571Y-108669535D02*
X46030000Y-108812392D01*
X46030000Y-108812392D02*
X46172857Y-108955250D01*
X46172857Y-108955250D02*
X46387143Y-109026678D01*
X46387143Y-109026678D02*
X46530000Y-109026678D01*
X46530000Y-109026678D02*
X46744286Y-108955250D01*
X46744286Y-108955250D02*
X46815714Y-108883821D01*
X46815714Y-108883821D02*
X46815714Y-108383821D01*
X46815714Y-108383821D02*
X46530000Y-108383821D01*
X47387143Y-108598107D02*
X48101429Y-108598107D01*
X47244286Y-109026678D02*
X47744286Y-107526678D01*
X47744286Y-107526678D02*
X48244286Y-109026678D01*
X48530000Y-107526678D02*
X49387143Y-107526678D01*
X48958571Y-109026678D02*
X48958571Y-107526678D01*
X49887142Y-108240964D02*
X50387142Y-108240964D01*
X50601428Y-109026678D02*
X49887142Y-109026678D01*
X49887142Y-109026678D02*
X49887142Y-107526678D01*
X49887142Y-107526678D02*
X50601428Y-107526678D01*
X52315714Y-107669535D02*
X52387142Y-107598107D01*
X52387142Y-107598107D02*
X52530000Y-107526678D01*
X52530000Y-107526678D02*
X52887142Y-107526678D01*
X52887142Y-107526678D02*
X53030000Y-107598107D01*
X53030000Y-107598107D02*
X53101428Y-107669535D01*
X53101428Y-107669535D02*
X53172857Y-107812392D01*
X53172857Y-107812392D02*
X53172857Y-107955250D01*
X53172857Y-107955250D02*
X53101428Y-108169535D01*
X53101428Y-108169535D02*
X52244285Y-109026678D01*
X52244285Y-109026678D02*
X53172857Y-109026678D01*
X46744286Y-143158107D02*
X46601429Y-143086678D01*
X46601429Y-143086678D02*
X46387143Y-143086678D01*
X46387143Y-143086678D02*
X46172857Y-143158107D01*
X46172857Y-143158107D02*
X46030000Y-143300964D01*
X46030000Y-143300964D02*
X45958571Y-143443821D01*
X45958571Y-143443821D02*
X45887143Y-143729535D01*
X45887143Y-143729535D02*
X45887143Y-143943821D01*
X45887143Y-143943821D02*
X45958571Y-144229535D01*
X45958571Y-144229535D02*
X46030000Y-144372392D01*
X46030000Y-144372392D02*
X46172857Y-144515250D01*
X46172857Y-144515250D02*
X46387143Y-144586678D01*
X46387143Y-144586678D02*
X46530000Y-144586678D01*
X46530000Y-144586678D02*
X46744286Y-144515250D01*
X46744286Y-144515250D02*
X46815714Y-144443821D01*
X46815714Y-144443821D02*
X46815714Y-143943821D01*
X46815714Y-143943821D02*
X46530000Y-143943821D01*
X47387143Y-144158107D02*
X48101429Y-144158107D01*
X47244286Y-144586678D02*
X47744286Y-143086678D01*
X47744286Y-143086678D02*
X48244286Y-144586678D01*
X48530000Y-143086678D02*
X49387143Y-143086678D01*
X48958571Y-144586678D02*
X48958571Y-143086678D01*
X49887142Y-143800964D02*
X50387142Y-143800964D01*
X50601428Y-144586678D02*
X49887142Y-144586678D01*
X49887142Y-144586678D02*
X49887142Y-143086678D01*
X49887142Y-143086678D02*
X50601428Y-143086678D01*
X53030000Y-143586678D02*
X53030000Y-144586678D01*
X52672857Y-143015250D02*
X52315714Y-144086678D01*
X52315714Y-144086678D02*
X53244285Y-144086678D01*
X34095714Y-126663821D02*
X34024286Y-126735250D01*
X34024286Y-126735250D02*
X33810000Y-126806678D01*
X33810000Y-126806678D02*
X33667143Y-126806678D01*
X33667143Y-126806678D02*
X33452857Y-126735250D01*
X33452857Y-126735250D02*
X33310000Y-126592392D01*
X33310000Y-126592392D02*
X33238571Y-126449535D01*
X33238571Y-126449535D02*
X33167143Y-126163821D01*
X33167143Y-126163821D02*
X33167143Y-125949535D01*
X33167143Y-125949535D02*
X33238571Y-125663821D01*
X33238571Y-125663821D02*
X33310000Y-125520964D01*
X33310000Y-125520964D02*
X33452857Y-125378107D01*
X33452857Y-125378107D02*
X33667143Y-125306678D01*
X33667143Y-125306678D02*
X33810000Y-125306678D01*
X33810000Y-125306678D02*
X34024286Y-125378107D01*
X34024286Y-125378107D02*
X34095714Y-125449535D01*
X34524286Y-125306678D02*
X35024286Y-126806678D01*
X35024286Y-126806678D02*
X35524286Y-125306678D01*
X37024285Y-125306678D02*
X37952857Y-125306678D01*
X37952857Y-125306678D02*
X37452857Y-125878107D01*
X37452857Y-125878107D02*
X37667142Y-125878107D01*
X37667142Y-125878107D02*
X37810000Y-125949535D01*
X37810000Y-125949535D02*
X37881428Y-126020964D01*
X37881428Y-126020964D02*
X37952857Y-126163821D01*
X37952857Y-126163821D02*
X37952857Y-126520964D01*
X37952857Y-126520964D02*
X37881428Y-126663821D01*
X37881428Y-126663821D02*
X37810000Y-126735250D01*
X37810000Y-126735250D02*
X37667142Y-126806678D01*
X37667142Y-126806678D02*
X37238571Y-126806678D01*
X37238571Y-126806678D02*
X37095714Y-126735250D01*
X37095714Y-126735250D02*
X37024285Y-126663821D01*
X46744286Y-125378107D02*
X46601429Y-125306678D01*
X46601429Y-125306678D02*
X46387143Y-125306678D01*
X46387143Y-125306678D02*
X46172857Y-125378107D01*
X46172857Y-125378107D02*
X46030000Y-125520964D01*
X46030000Y-125520964D02*
X45958571Y-125663821D01*
X45958571Y-125663821D02*
X45887143Y-125949535D01*
X45887143Y-125949535D02*
X45887143Y-126163821D01*
X45887143Y-126163821D02*
X45958571Y-126449535D01*
X45958571Y-126449535D02*
X46030000Y-126592392D01*
X46030000Y-126592392D02*
X46172857Y-126735250D01*
X46172857Y-126735250D02*
X46387143Y-126806678D01*
X46387143Y-126806678D02*
X46530000Y-126806678D01*
X46530000Y-126806678D02*
X46744286Y-126735250D01*
X46744286Y-126735250D02*
X46815714Y-126663821D01*
X46815714Y-126663821D02*
X46815714Y-126163821D01*
X46815714Y-126163821D02*
X46530000Y-126163821D01*
X47387143Y-126378107D02*
X48101429Y-126378107D01*
X47244286Y-126806678D02*
X47744286Y-125306678D01*
X47744286Y-125306678D02*
X48244286Y-126806678D01*
X48530000Y-125306678D02*
X49387143Y-125306678D01*
X48958571Y-126806678D02*
X48958571Y-125306678D01*
X49887142Y-126020964D02*
X50387142Y-126020964D01*
X50601428Y-126806678D02*
X49887142Y-126806678D01*
X49887142Y-126806678D02*
X49887142Y-125306678D01*
X49887142Y-125306678D02*
X50601428Y-125306678D01*
X52244285Y-125306678D02*
X53172857Y-125306678D01*
X53172857Y-125306678D02*
X52672857Y-125878107D01*
X52672857Y-125878107D02*
X52887142Y-125878107D01*
X52887142Y-125878107D02*
X53030000Y-125949535D01*
X53030000Y-125949535D02*
X53101428Y-126020964D01*
X53101428Y-126020964D02*
X53172857Y-126163821D01*
X53172857Y-126163821D02*
X53172857Y-126520964D01*
X53172857Y-126520964D02*
X53101428Y-126663821D01*
X53101428Y-126663821D02*
X53030000Y-126735250D01*
X53030000Y-126735250D02*
X52887142Y-126806678D01*
X52887142Y-126806678D02*
X52458571Y-126806678D01*
X52458571Y-126806678D02*
X52315714Y-126735250D01*
X52315714Y-126735250D02*
X52244285Y-126663821D01*
X34095714Y-108883821D02*
X34024286Y-108955250D01*
X34024286Y-108955250D02*
X33810000Y-109026678D01*
X33810000Y-109026678D02*
X33667143Y-109026678D01*
X33667143Y-109026678D02*
X33452857Y-108955250D01*
X33452857Y-108955250D02*
X33310000Y-108812392D01*
X33310000Y-108812392D02*
X33238571Y-108669535D01*
X33238571Y-108669535D02*
X33167143Y-108383821D01*
X33167143Y-108383821D02*
X33167143Y-108169535D01*
X33167143Y-108169535D02*
X33238571Y-107883821D01*
X33238571Y-107883821D02*
X33310000Y-107740964D01*
X33310000Y-107740964D02*
X33452857Y-107598107D01*
X33452857Y-107598107D02*
X33667143Y-107526678D01*
X33667143Y-107526678D02*
X33810000Y-107526678D01*
X33810000Y-107526678D02*
X34024286Y-107598107D01*
X34024286Y-107598107D02*
X34095714Y-107669535D01*
X34524286Y-107526678D02*
X35024286Y-109026678D01*
X35024286Y-109026678D02*
X35524286Y-107526678D01*
X37095714Y-107669535D02*
X37167142Y-107598107D01*
X37167142Y-107598107D02*
X37310000Y-107526678D01*
X37310000Y-107526678D02*
X37667142Y-107526678D01*
X37667142Y-107526678D02*
X37810000Y-107598107D01*
X37810000Y-107598107D02*
X37881428Y-107669535D01*
X37881428Y-107669535D02*
X37952857Y-107812392D01*
X37952857Y-107812392D02*
X37952857Y-107955250D01*
X37952857Y-107955250D02*
X37881428Y-108169535D01*
X37881428Y-108169535D02*
X37024285Y-109026678D01*
X37024285Y-109026678D02*
X37952857Y-109026678D01*
X46744286Y-89818107D02*
X46601429Y-89746678D01*
X46601429Y-89746678D02*
X46387143Y-89746678D01*
X46387143Y-89746678D02*
X46172857Y-89818107D01*
X46172857Y-89818107D02*
X46030000Y-89960964D01*
X46030000Y-89960964D02*
X45958571Y-90103821D01*
X45958571Y-90103821D02*
X45887143Y-90389535D01*
X45887143Y-90389535D02*
X45887143Y-90603821D01*
X45887143Y-90603821D02*
X45958571Y-90889535D01*
X45958571Y-90889535D02*
X46030000Y-91032392D01*
X46030000Y-91032392D02*
X46172857Y-91175250D01*
X46172857Y-91175250D02*
X46387143Y-91246678D01*
X46387143Y-91246678D02*
X46530000Y-91246678D01*
X46530000Y-91246678D02*
X46744286Y-91175250D01*
X46744286Y-91175250D02*
X46815714Y-91103821D01*
X46815714Y-91103821D02*
X46815714Y-90603821D01*
X46815714Y-90603821D02*
X46530000Y-90603821D01*
X47387143Y-90818107D02*
X48101429Y-90818107D01*
X47244286Y-91246678D02*
X47744286Y-89746678D01*
X47744286Y-89746678D02*
X48244286Y-91246678D01*
X48530000Y-89746678D02*
X49387143Y-89746678D01*
X48958571Y-91246678D02*
X48958571Y-89746678D01*
X49887142Y-90460964D02*
X50387142Y-90460964D01*
X50601428Y-91246678D02*
X49887142Y-91246678D01*
X49887142Y-91246678D02*
X49887142Y-89746678D01*
X49887142Y-89746678D02*
X50601428Y-89746678D01*
X53172857Y-91246678D02*
X52315714Y-91246678D01*
X52744285Y-91246678D02*
X52744285Y-89746678D01*
X52744285Y-89746678D02*
X52601428Y-89960964D01*
X52601428Y-89960964D02*
X52458571Y-90103821D01*
X52458571Y-90103821D02*
X52315714Y-90175250D01*
X34095714Y-91103821D02*
X34024286Y-91175250D01*
X34024286Y-91175250D02*
X33810000Y-91246678D01*
X33810000Y-91246678D02*
X33667143Y-91246678D01*
X33667143Y-91246678D02*
X33452857Y-91175250D01*
X33452857Y-91175250D02*
X33310000Y-91032392D01*
X33310000Y-91032392D02*
X33238571Y-90889535D01*
X33238571Y-90889535D02*
X33167143Y-90603821D01*
X33167143Y-90603821D02*
X33167143Y-90389535D01*
X33167143Y-90389535D02*
X33238571Y-90103821D01*
X33238571Y-90103821D02*
X33310000Y-89960964D01*
X33310000Y-89960964D02*
X33452857Y-89818107D01*
X33452857Y-89818107D02*
X33667143Y-89746678D01*
X33667143Y-89746678D02*
X33810000Y-89746678D01*
X33810000Y-89746678D02*
X34024286Y-89818107D01*
X34024286Y-89818107D02*
X34095714Y-89889535D01*
X34524286Y-89746678D02*
X35024286Y-91246678D01*
X35024286Y-91246678D02*
X35524286Y-89746678D01*
X37952857Y-91246678D02*
X37095714Y-91246678D01*
X37524285Y-91246678D02*
X37524285Y-89746678D01*
X37524285Y-89746678D02*
X37381428Y-89960964D01*
X37381428Y-89960964D02*
X37238571Y-90103821D01*
X37238571Y-90103821D02*
X37095714Y-90175250D01*
%LPC*%
%LPD*%
M02*
