G04 #@! TF.GenerationSoftware,KiCad,Pcbnew,8.0.0*
G04 #@! TF.CreationDate,2025-07-24T19:30:24+01:00*
G04 #@! TF.ProjectId,MidiToCvFrontPanel,4d696469-546f-4437-9646-726f6e745061,1.0*
G04 #@! TF.SameCoordinates,Original*
G04 #@! TF.FileFunction,Profile,NP*
%FSLAX46Y46*%
G04 Gerber Fmt 4.6, Leading zero omitted, Abs format (unit mm)*
G04 Created by KiCad (PCBNEW 8.0.0) date 2025-07-24 19:30:24*
%MOMM*%
%LPD*%
G01*
G04 APERTURE LIST*
G04 #@! TA.AperFunction,Profile*
%ADD10C,0.050000*%
G04 #@! TD*
G04 APERTURE END LIST*
D10*
X33660000Y-155355000D02*
G75*
G02*
X33660000Y-152155000I0J1600000D01*
G01*
X52730000Y-118745000D02*
G75*
G02*
X46330000Y-118745000I-3200000J0D01*
G01*
X46330000Y-118745000D02*
G75*
G02*
X52730000Y-118745000I3200000J0D01*
G01*
X33660000Y-152155000D02*
X36560000Y-152155000D01*
X52730000Y-100965000D02*
G75*
G02*
X46330000Y-100965000I-3200000J0D01*
G01*
X46330000Y-100965000D02*
G75*
G02*
X52730000Y-100965000I3200000J0D01*
G01*
X52730000Y-83185000D02*
G75*
G02*
X46330000Y-83185000I-3200000J0D01*
G01*
X46330000Y-83185000D02*
G75*
G02*
X52730000Y-83185000I3200000J0D01*
G01*
X54945000Y-57150000D02*
G75*
G02*
X51545000Y-57150000I-1700000J0D01*
G01*
X51545000Y-57150000D02*
G75*
G02*
X54945000Y-57150000I1700000J0D01*
G01*
X38760000Y-100965000D02*
G75*
G02*
X32360000Y-100965000I-3200000J0D01*
G01*
X32360000Y-100965000D02*
G75*
G02*
X38760000Y-100965000I3200000J0D01*
G01*
X33610000Y-32855000D02*
G75*
G02*
X33610000Y-29655000I0J1600000D01*
G01*
X36560000Y-152155000D02*
G75*
G02*
X36560000Y-155355000I0J-1600000D01*
G01*
X33575181Y-57150000D02*
G75*
G02*
X30114819Y-57150000I-1730181J0D01*
G01*
X30114819Y-57150000D02*
G75*
G02*
X33575181Y-57150000I1730181J0D01*
G01*
X52730000Y-136525000D02*
G75*
G02*
X46330000Y-136525000I-3200000J0D01*
G01*
X46330000Y-136525000D02*
G75*
G02*
X52730000Y-136525000I3200000J0D01*
G01*
X50145000Y-57150000D02*
G75*
G02*
X34945000Y-57150000I-7600000J0D01*
G01*
X34945000Y-57150000D02*
G75*
G02*
X50145000Y-57150000I7600000J0D01*
G01*
X27610000Y-28255000D02*
X57610000Y-28255000D01*
X57610000Y-156755000D01*
X27610000Y-156755000D01*
X27610000Y-28255000D01*
X38760000Y-118745000D02*
G75*
G02*
X32360000Y-118745000I-3200000J0D01*
G01*
X32360000Y-118745000D02*
G75*
G02*
X38760000Y-118745000I3200000J0D01*
G01*
X33610000Y-29655000D02*
X36510000Y-29655000D01*
X33610000Y-32855000D02*
X36510000Y-32855000D01*
X36510000Y-29655000D02*
G75*
G02*
X36510000Y-32855000I0J-1600000D01*
G01*
X38760000Y-136525000D02*
G75*
G02*
X32360000Y-136525000I-3200000J0D01*
G01*
X32360000Y-136525000D02*
G75*
G02*
X38760000Y-136525000I3200000J0D01*
G01*
X33660000Y-155355000D02*
X36560000Y-155355000D01*
X38760000Y-83185000D02*
G75*
G02*
X32360000Y-83185000I-3200000J0D01*
G01*
X32360000Y-83185000D02*
G75*
G02*
X38760000Y-83185000I3200000J0D01*
G01*
M02*
