G04 #@! TF.GenerationSoftware,KiCad,Pcbnew,8.0.0*
G04 #@! TF.CreationDate,2025-07-24T19:15:38+01:00*
G04 #@! TF.ProjectId,MidiToCvLogic,4d696469-546f-4437-964c-6f6769632e6b,1.0*
G04 #@! TF.SameCoordinates,Original*
G04 #@! TF.FileFunction,Legend,Top*
G04 #@! TF.FilePolarity,Positive*
%FSLAX46Y46*%
G04 Gerber Fmt 4.6, Leading zero omitted, Abs format (unit mm)*
G04 Created by KiCad (PCBNEW 8.0.0) date 2025-07-24 19:15:38*
%MOMM*%
%LPD*%
G01*
G04 APERTURE LIST*
G04 Aperture macros list*
%AMRoundRect*
0 Rectangle with rounded corners*
0 $1 Rounding radius*
0 $2 $3 $4 $5 $6 $7 $8 $9 X,Y pos of 4 corners*
0 Add a 4 corners polygon primitive as box body*
4,1,4,$2,$3,$4,$5,$6,$7,$8,$9,$2,$3,0*
0 Add four circle primitives for the rounded corners*
1,1,$1+$1,$2,$3*
1,1,$1+$1,$4,$5*
1,1,$1+$1,$6,$7*
1,1,$1+$1,$8,$9*
0 Add four rect primitives between the rounded corners*
20,1,$1+$1,$2,$3,$4,$5,0*
20,1,$1+$1,$4,$5,$6,$7,0*
20,1,$1+$1,$6,$7,$8,$9,0*
20,1,$1+$1,$8,$9,$2,$3,0*%
G04 Aperture macros list end*
%ADD10C,0.150000*%
%ADD11C,0.125000*%
%ADD12C,0.120000*%
%ADD13C,1.600000*%
%ADD14O,1.600000X1.600000*%
%ADD15R,1.600000X1.600000*%
%ADD16R,1.700000X1.700000*%
%ADD17O,1.700000X1.700000*%
%ADD18R,1.500000X1.050000*%
%ADD19O,1.500000X1.050000*%
%ADD20C,1.500000*%
%ADD21R,1.905000X2.000000*%
%ADD22O,1.905000X2.000000*%
%ADD23RoundRect,0.250000X0.625000X-0.350000X0.625000X0.350000X-0.625000X0.350000X-0.625000X-0.350000X0*%
%ADD24O,1.750000X1.200000*%
%ADD25RoundRect,0.250000X0.600000X-0.600000X0.600000X0.600000X-0.600000X0.600000X-0.600000X-0.600000X0*%
%ADD26C,1.700000*%
G04 APERTURE END LIST*
D10*
X62698333Y-77829580D02*
X62650714Y-77877200D01*
X62650714Y-77877200D02*
X62507857Y-77924819D01*
X62507857Y-77924819D02*
X62412619Y-77924819D01*
X62412619Y-77924819D02*
X62269762Y-77877200D01*
X62269762Y-77877200D02*
X62174524Y-77781961D01*
X62174524Y-77781961D02*
X62126905Y-77686723D01*
X62126905Y-77686723D02*
X62079286Y-77496247D01*
X62079286Y-77496247D02*
X62079286Y-77353390D01*
X62079286Y-77353390D02*
X62126905Y-77162914D01*
X62126905Y-77162914D02*
X62174524Y-77067676D01*
X62174524Y-77067676D02*
X62269762Y-76972438D01*
X62269762Y-76972438D02*
X62412619Y-76924819D01*
X62412619Y-76924819D02*
X62507857Y-76924819D01*
X62507857Y-76924819D02*
X62650714Y-76972438D01*
X62650714Y-76972438D02*
X62698333Y-77020057D01*
X63079286Y-77020057D02*
X63126905Y-76972438D01*
X63126905Y-76972438D02*
X63222143Y-76924819D01*
X63222143Y-76924819D02*
X63460238Y-76924819D01*
X63460238Y-76924819D02*
X63555476Y-76972438D01*
X63555476Y-76972438D02*
X63603095Y-77020057D01*
X63603095Y-77020057D02*
X63650714Y-77115295D01*
X63650714Y-77115295D02*
X63650714Y-77210533D01*
X63650714Y-77210533D02*
X63603095Y-77353390D01*
X63603095Y-77353390D02*
X63031667Y-77924819D01*
X63031667Y-77924819D02*
X63650714Y-77924819D01*
X63319819Y-132722857D02*
X62843628Y-133056190D01*
X63319819Y-133294285D02*
X62319819Y-133294285D01*
X62319819Y-133294285D02*
X62319819Y-132913333D01*
X62319819Y-132913333D02*
X62367438Y-132818095D01*
X62367438Y-132818095D02*
X62415057Y-132770476D01*
X62415057Y-132770476D02*
X62510295Y-132722857D01*
X62510295Y-132722857D02*
X62653152Y-132722857D01*
X62653152Y-132722857D02*
X62748390Y-132770476D01*
X62748390Y-132770476D02*
X62796009Y-132818095D01*
X62796009Y-132818095D02*
X62843628Y-132913333D01*
X62843628Y-132913333D02*
X62843628Y-133294285D01*
X63319819Y-131770476D02*
X63319819Y-132341904D01*
X63319819Y-132056190D02*
X62319819Y-132056190D01*
X62319819Y-132056190D02*
X62462676Y-132151428D01*
X62462676Y-132151428D02*
X62557914Y-132246666D01*
X62557914Y-132246666D02*
X62605533Y-132341904D01*
X62748390Y-131199047D02*
X62700771Y-131294285D01*
X62700771Y-131294285D02*
X62653152Y-131341904D01*
X62653152Y-131341904D02*
X62557914Y-131389523D01*
X62557914Y-131389523D02*
X62510295Y-131389523D01*
X62510295Y-131389523D02*
X62415057Y-131341904D01*
X62415057Y-131341904D02*
X62367438Y-131294285D01*
X62367438Y-131294285D02*
X62319819Y-131199047D01*
X62319819Y-131199047D02*
X62319819Y-131008571D01*
X62319819Y-131008571D02*
X62367438Y-130913333D01*
X62367438Y-130913333D02*
X62415057Y-130865714D01*
X62415057Y-130865714D02*
X62510295Y-130818095D01*
X62510295Y-130818095D02*
X62557914Y-130818095D01*
X62557914Y-130818095D02*
X62653152Y-130865714D01*
X62653152Y-130865714D02*
X62700771Y-130913333D01*
X62700771Y-130913333D02*
X62748390Y-131008571D01*
X62748390Y-131008571D02*
X62748390Y-131199047D01*
X62748390Y-131199047D02*
X62796009Y-131294285D01*
X62796009Y-131294285D02*
X62843628Y-131341904D01*
X62843628Y-131341904D02*
X62938866Y-131389523D01*
X62938866Y-131389523D02*
X63129342Y-131389523D01*
X63129342Y-131389523D02*
X63224580Y-131341904D01*
X63224580Y-131341904D02*
X63272200Y-131294285D01*
X63272200Y-131294285D02*
X63319819Y-131199047D01*
X63319819Y-131199047D02*
X63319819Y-131008571D01*
X63319819Y-131008571D02*
X63272200Y-130913333D01*
X63272200Y-130913333D02*
X63224580Y-130865714D01*
X63224580Y-130865714D02*
X63129342Y-130818095D01*
X63129342Y-130818095D02*
X62938866Y-130818095D01*
X62938866Y-130818095D02*
X62843628Y-130865714D01*
X62843628Y-130865714D02*
X62796009Y-130913333D01*
X62796009Y-130913333D02*
X62748390Y-131008571D01*
X50619819Y-102242857D02*
X50143628Y-102576190D01*
X50619819Y-102814285D02*
X49619819Y-102814285D01*
X49619819Y-102814285D02*
X49619819Y-102433333D01*
X49619819Y-102433333D02*
X49667438Y-102338095D01*
X49667438Y-102338095D02*
X49715057Y-102290476D01*
X49715057Y-102290476D02*
X49810295Y-102242857D01*
X49810295Y-102242857D02*
X49953152Y-102242857D01*
X49953152Y-102242857D02*
X50048390Y-102290476D01*
X50048390Y-102290476D02*
X50096009Y-102338095D01*
X50096009Y-102338095D02*
X50143628Y-102433333D01*
X50143628Y-102433333D02*
X50143628Y-102814285D01*
X49715057Y-101861904D02*
X49667438Y-101814285D01*
X49667438Y-101814285D02*
X49619819Y-101719047D01*
X49619819Y-101719047D02*
X49619819Y-101480952D01*
X49619819Y-101480952D02*
X49667438Y-101385714D01*
X49667438Y-101385714D02*
X49715057Y-101338095D01*
X49715057Y-101338095D02*
X49810295Y-101290476D01*
X49810295Y-101290476D02*
X49905533Y-101290476D01*
X49905533Y-101290476D02*
X50048390Y-101338095D01*
X50048390Y-101338095D02*
X50619819Y-101909523D01*
X50619819Y-101909523D02*
X50619819Y-101290476D01*
X50048390Y-100719047D02*
X50000771Y-100814285D01*
X50000771Y-100814285D02*
X49953152Y-100861904D01*
X49953152Y-100861904D02*
X49857914Y-100909523D01*
X49857914Y-100909523D02*
X49810295Y-100909523D01*
X49810295Y-100909523D02*
X49715057Y-100861904D01*
X49715057Y-100861904D02*
X49667438Y-100814285D01*
X49667438Y-100814285D02*
X49619819Y-100719047D01*
X49619819Y-100719047D02*
X49619819Y-100528571D01*
X49619819Y-100528571D02*
X49667438Y-100433333D01*
X49667438Y-100433333D02*
X49715057Y-100385714D01*
X49715057Y-100385714D02*
X49810295Y-100338095D01*
X49810295Y-100338095D02*
X49857914Y-100338095D01*
X49857914Y-100338095D02*
X49953152Y-100385714D01*
X49953152Y-100385714D02*
X50000771Y-100433333D01*
X50000771Y-100433333D02*
X50048390Y-100528571D01*
X50048390Y-100528571D02*
X50048390Y-100719047D01*
X50048390Y-100719047D02*
X50096009Y-100814285D01*
X50096009Y-100814285D02*
X50143628Y-100861904D01*
X50143628Y-100861904D02*
X50238866Y-100909523D01*
X50238866Y-100909523D02*
X50429342Y-100909523D01*
X50429342Y-100909523D02*
X50524580Y-100861904D01*
X50524580Y-100861904D02*
X50572200Y-100814285D01*
X50572200Y-100814285D02*
X50619819Y-100719047D01*
X50619819Y-100719047D02*
X50619819Y-100528571D01*
X50619819Y-100528571D02*
X50572200Y-100433333D01*
X50572200Y-100433333D02*
X50524580Y-100385714D01*
X50524580Y-100385714D02*
X50429342Y-100338095D01*
X50429342Y-100338095D02*
X50238866Y-100338095D01*
X50238866Y-100338095D02*
X50143628Y-100385714D01*
X50143628Y-100385714D02*
X50096009Y-100433333D01*
X50096009Y-100433333D02*
X50048390Y-100528571D01*
D11*
X50081666Y-62427190D02*
X50057857Y-62451000D01*
X50057857Y-62451000D02*
X49986428Y-62474809D01*
X49986428Y-62474809D02*
X49938809Y-62474809D01*
X49938809Y-62474809D02*
X49867381Y-62451000D01*
X49867381Y-62451000D02*
X49819762Y-62403380D01*
X49819762Y-62403380D02*
X49795952Y-62355761D01*
X49795952Y-62355761D02*
X49772143Y-62260523D01*
X49772143Y-62260523D02*
X49772143Y-62189095D01*
X49772143Y-62189095D02*
X49795952Y-62093857D01*
X49795952Y-62093857D02*
X49819762Y-62046238D01*
X49819762Y-62046238D02*
X49867381Y-61998619D01*
X49867381Y-61998619D02*
X49938809Y-61974809D01*
X49938809Y-61974809D02*
X49986428Y-61974809D01*
X49986428Y-61974809D02*
X50057857Y-61998619D01*
X50057857Y-61998619D02*
X50081666Y-62022428D01*
X50248333Y-61974809D02*
X50557857Y-61974809D01*
X50557857Y-61974809D02*
X50391190Y-62165285D01*
X50391190Y-62165285D02*
X50462619Y-62165285D01*
X50462619Y-62165285D02*
X50510238Y-62189095D01*
X50510238Y-62189095D02*
X50534047Y-62212904D01*
X50534047Y-62212904D02*
X50557857Y-62260523D01*
X50557857Y-62260523D02*
X50557857Y-62379571D01*
X50557857Y-62379571D02*
X50534047Y-62427190D01*
X50534047Y-62427190D02*
X50510238Y-62451000D01*
X50510238Y-62451000D02*
X50462619Y-62474809D01*
X50462619Y-62474809D02*
X50319762Y-62474809D01*
X50319762Y-62474809D02*
X50272143Y-62451000D01*
X50272143Y-62451000D02*
X50248333Y-62427190D01*
D10*
X45539819Y-112402857D02*
X45063628Y-112736190D01*
X45539819Y-112974285D02*
X44539819Y-112974285D01*
X44539819Y-112974285D02*
X44539819Y-112593333D01*
X44539819Y-112593333D02*
X44587438Y-112498095D01*
X44587438Y-112498095D02*
X44635057Y-112450476D01*
X44635057Y-112450476D02*
X44730295Y-112402857D01*
X44730295Y-112402857D02*
X44873152Y-112402857D01*
X44873152Y-112402857D02*
X44968390Y-112450476D01*
X44968390Y-112450476D02*
X45016009Y-112498095D01*
X45016009Y-112498095D02*
X45063628Y-112593333D01*
X45063628Y-112593333D02*
X45063628Y-112974285D01*
X45539819Y-111450476D02*
X45539819Y-112021904D01*
X45539819Y-111736190D02*
X44539819Y-111736190D01*
X44539819Y-111736190D02*
X44682676Y-111831428D01*
X44682676Y-111831428D02*
X44777914Y-111926666D01*
X44777914Y-111926666D02*
X44825533Y-112021904D01*
X45539819Y-110498095D02*
X45539819Y-111069523D01*
X45539819Y-110783809D02*
X44539819Y-110783809D01*
X44539819Y-110783809D02*
X44682676Y-110879047D01*
X44682676Y-110879047D02*
X44777914Y-110974285D01*
X44777914Y-110974285D02*
X44825533Y-111069523D01*
X42418095Y-39459819D02*
X42418095Y-40269342D01*
X42418095Y-40269342D02*
X42465714Y-40364580D01*
X42465714Y-40364580D02*
X42513333Y-40412200D01*
X42513333Y-40412200D02*
X42608571Y-40459819D01*
X42608571Y-40459819D02*
X42799047Y-40459819D01*
X42799047Y-40459819D02*
X42894285Y-40412200D01*
X42894285Y-40412200D02*
X42941904Y-40364580D01*
X42941904Y-40364580D02*
X42989523Y-40269342D01*
X42989523Y-40269342D02*
X42989523Y-39459819D01*
X43370476Y-39459819D02*
X43989523Y-39459819D01*
X43989523Y-39459819D02*
X43656190Y-39840771D01*
X43656190Y-39840771D02*
X43799047Y-39840771D01*
X43799047Y-39840771D02*
X43894285Y-39888390D01*
X43894285Y-39888390D02*
X43941904Y-39936009D01*
X43941904Y-39936009D02*
X43989523Y-40031247D01*
X43989523Y-40031247D02*
X43989523Y-40269342D01*
X43989523Y-40269342D02*
X43941904Y-40364580D01*
X43941904Y-40364580D02*
X43894285Y-40412200D01*
X43894285Y-40412200D02*
X43799047Y-40459819D01*
X43799047Y-40459819D02*
X43513333Y-40459819D01*
X43513333Y-40459819D02*
X43418095Y-40412200D01*
X43418095Y-40412200D02*
X43370476Y-40364580D01*
X42408095Y-52189819D02*
X42408095Y-52999342D01*
X42408095Y-52999342D02*
X42455714Y-53094580D01*
X42455714Y-53094580D02*
X42503333Y-53142200D01*
X42503333Y-53142200D02*
X42598571Y-53189819D01*
X42598571Y-53189819D02*
X42789047Y-53189819D01*
X42789047Y-53189819D02*
X42884285Y-53142200D01*
X42884285Y-53142200D02*
X42931904Y-53094580D01*
X42931904Y-53094580D02*
X42979523Y-52999342D01*
X42979523Y-52999342D02*
X42979523Y-52189819D01*
X43931904Y-52189819D02*
X43455714Y-52189819D01*
X43455714Y-52189819D02*
X43408095Y-52666009D01*
X43408095Y-52666009D02*
X43455714Y-52618390D01*
X43455714Y-52618390D02*
X43550952Y-52570771D01*
X43550952Y-52570771D02*
X43789047Y-52570771D01*
X43789047Y-52570771D02*
X43884285Y-52618390D01*
X43884285Y-52618390D02*
X43931904Y-52666009D01*
X43931904Y-52666009D02*
X43979523Y-52761247D01*
X43979523Y-52761247D02*
X43979523Y-52999342D01*
X43979523Y-52999342D02*
X43931904Y-53094580D01*
X43931904Y-53094580D02*
X43884285Y-53142200D01*
X43884285Y-53142200D02*
X43789047Y-53189819D01*
X43789047Y-53189819D02*
X43550952Y-53189819D01*
X43550952Y-53189819D02*
X43455714Y-53142200D01*
X43455714Y-53142200D02*
X43408095Y-53094580D01*
X40499819Y-33353333D02*
X41214104Y-33353333D01*
X41214104Y-33353333D02*
X41356961Y-33400952D01*
X41356961Y-33400952D02*
X41452200Y-33496190D01*
X41452200Y-33496190D02*
X41499819Y-33639047D01*
X41499819Y-33639047D02*
X41499819Y-33734285D01*
X40499819Y-32972380D02*
X40499819Y-32353333D01*
X40499819Y-32353333D02*
X40880771Y-32686666D01*
X40880771Y-32686666D02*
X40880771Y-32543809D01*
X40880771Y-32543809D02*
X40928390Y-32448571D01*
X40928390Y-32448571D02*
X40976009Y-32400952D01*
X40976009Y-32400952D02*
X41071247Y-32353333D01*
X41071247Y-32353333D02*
X41309342Y-32353333D01*
X41309342Y-32353333D02*
X41404580Y-32400952D01*
X41404580Y-32400952D02*
X41452200Y-32448571D01*
X41452200Y-32448571D02*
X41499819Y-32543809D01*
X41499819Y-32543809D02*
X41499819Y-32829523D01*
X41499819Y-32829523D02*
X41452200Y-32924761D01*
X41452200Y-32924761D02*
X41404580Y-32972380D01*
X55064819Y-50331666D02*
X54588628Y-50664999D01*
X55064819Y-50903094D02*
X54064819Y-50903094D01*
X54064819Y-50903094D02*
X54064819Y-50522142D01*
X54064819Y-50522142D02*
X54112438Y-50426904D01*
X54112438Y-50426904D02*
X54160057Y-50379285D01*
X54160057Y-50379285D02*
X54255295Y-50331666D01*
X54255295Y-50331666D02*
X54398152Y-50331666D01*
X54398152Y-50331666D02*
X54493390Y-50379285D01*
X54493390Y-50379285D02*
X54541009Y-50426904D01*
X54541009Y-50426904D02*
X54588628Y-50522142D01*
X54588628Y-50522142D02*
X54588628Y-50903094D01*
X54160057Y-49950713D02*
X54112438Y-49903094D01*
X54112438Y-49903094D02*
X54064819Y-49807856D01*
X54064819Y-49807856D02*
X54064819Y-49569761D01*
X54064819Y-49569761D02*
X54112438Y-49474523D01*
X54112438Y-49474523D02*
X54160057Y-49426904D01*
X54160057Y-49426904D02*
X54255295Y-49379285D01*
X54255295Y-49379285D02*
X54350533Y-49379285D01*
X54350533Y-49379285D02*
X54493390Y-49426904D01*
X54493390Y-49426904D02*
X55064819Y-49998332D01*
X55064819Y-49998332D02*
X55064819Y-49379285D01*
X63319819Y-102242857D02*
X62843628Y-102576190D01*
X63319819Y-102814285D02*
X62319819Y-102814285D01*
X62319819Y-102814285D02*
X62319819Y-102433333D01*
X62319819Y-102433333D02*
X62367438Y-102338095D01*
X62367438Y-102338095D02*
X62415057Y-102290476D01*
X62415057Y-102290476D02*
X62510295Y-102242857D01*
X62510295Y-102242857D02*
X62653152Y-102242857D01*
X62653152Y-102242857D02*
X62748390Y-102290476D01*
X62748390Y-102290476D02*
X62796009Y-102338095D01*
X62796009Y-102338095D02*
X62843628Y-102433333D01*
X62843628Y-102433333D02*
X62843628Y-102814285D01*
X62319819Y-101909523D02*
X62319819Y-101290476D01*
X62319819Y-101290476D02*
X62700771Y-101623809D01*
X62700771Y-101623809D02*
X62700771Y-101480952D01*
X62700771Y-101480952D02*
X62748390Y-101385714D01*
X62748390Y-101385714D02*
X62796009Y-101338095D01*
X62796009Y-101338095D02*
X62891247Y-101290476D01*
X62891247Y-101290476D02*
X63129342Y-101290476D01*
X63129342Y-101290476D02*
X63224580Y-101338095D01*
X63224580Y-101338095D02*
X63272200Y-101385714D01*
X63272200Y-101385714D02*
X63319819Y-101480952D01*
X63319819Y-101480952D02*
X63319819Y-101766666D01*
X63319819Y-101766666D02*
X63272200Y-101861904D01*
X63272200Y-101861904D02*
X63224580Y-101909523D01*
X62319819Y-100671428D02*
X62319819Y-100576190D01*
X62319819Y-100576190D02*
X62367438Y-100480952D01*
X62367438Y-100480952D02*
X62415057Y-100433333D01*
X62415057Y-100433333D02*
X62510295Y-100385714D01*
X62510295Y-100385714D02*
X62700771Y-100338095D01*
X62700771Y-100338095D02*
X62938866Y-100338095D01*
X62938866Y-100338095D02*
X63129342Y-100385714D01*
X63129342Y-100385714D02*
X63224580Y-100433333D01*
X63224580Y-100433333D02*
X63272200Y-100480952D01*
X63272200Y-100480952D02*
X63319819Y-100576190D01*
X63319819Y-100576190D02*
X63319819Y-100671428D01*
X63319819Y-100671428D02*
X63272200Y-100766666D01*
X63272200Y-100766666D02*
X63224580Y-100814285D01*
X63224580Y-100814285D02*
X63129342Y-100861904D01*
X63129342Y-100861904D02*
X62938866Y-100909523D01*
X62938866Y-100909523D02*
X62700771Y-100909523D01*
X62700771Y-100909523D02*
X62510295Y-100861904D01*
X62510295Y-100861904D02*
X62415057Y-100814285D01*
X62415057Y-100814285D02*
X62367438Y-100766666D01*
X62367438Y-100766666D02*
X62319819Y-100671428D01*
D11*
X50081666Y-67507190D02*
X50057857Y-67531000D01*
X50057857Y-67531000D02*
X49986428Y-67554809D01*
X49986428Y-67554809D02*
X49938809Y-67554809D01*
X49938809Y-67554809D02*
X49867381Y-67531000D01*
X49867381Y-67531000D02*
X49819762Y-67483380D01*
X49819762Y-67483380D02*
X49795952Y-67435761D01*
X49795952Y-67435761D02*
X49772143Y-67340523D01*
X49772143Y-67340523D02*
X49772143Y-67269095D01*
X49772143Y-67269095D02*
X49795952Y-67173857D01*
X49795952Y-67173857D02*
X49819762Y-67126238D01*
X49819762Y-67126238D02*
X49867381Y-67078619D01*
X49867381Y-67078619D02*
X49938809Y-67054809D01*
X49938809Y-67054809D02*
X49986428Y-67054809D01*
X49986428Y-67054809D02*
X50057857Y-67078619D01*
X50057857Y-67078619D02*
X50081666Y-67102428D01*
X50510238Y-67221476D02*
X50510238Y-67554809D01*
X50391190Y-67031000D02*
X50272143Y-67388142D01*
X50272143Y-67388142D02*
X50581666Y-67388142D01*
D10*
X60779819Y-102242857D02*
X60303628Y-102576190D01*
X60779819Y-102814285D02*
X59779819Y-102814285D01*
X59779819Y-102814285D02*
X59779819Y-102433333D01*
X59779819Y-102433333D02*
X59827438Y-102338095D01*
X59827438Y-102338095D02*
X59875057Y-102290476D01*
X59875057Y-102290476D02*
X59970295Y-102242857D01*
X59970295Y-102242857D02*
X60113152Y-102242857D01*
X60113152Y-102242857D02*
X60208390Y-102290476D01*
X60208390Y-102290476D02*
X60256009Y-102338095D01*
X60256009Y-102338095D02*
X60303628Y-102433333D01*
X60303628Y-102433333D02*
X60303628Y-102814285D01*
X59779819Y-101909523D02*
X59779819Y-101290476D01*
X59779819Y-101290476D02*
X60160771Y-101623809D01*
X60160771Y-101623809D02*
X60160771Y-101480952D01*
X60160771Y-101480952D02*
X60208390Y-101385714D01*
X60208390Y-101385714D02*
X60256009Y-101338095D01*
X60256009Y-101338095D02*
X60351247Y-101290476D01*
X60351247Y-101290476D02*
X60589342Y-101290476D01*
X60589342Y-101290476D02*
X60684580Y-101338095D01*
X60684580Y-101338095D02*
X60732200Y-101385714D01*
X60732200Y-101385714D02*
X60779819Y-101480952D01*
X60779819Y-101480952D02*
X60779819Y-101766666D01*
X60779819Y-101766666D02*
X60732200Y-101861904D01*
X60732200Y-101861904D02*
X60684580Y-101909523D01*
X60779819Y-100338095D02*
X60779819Y-100909523D01*
X60779819Y-100623809D02*
X59779819Y-100623809D01*
X59779819Y-100623809D02*
X59922676Y-100719047D01*
X59922676Y-100719047D02*
X60017914Y-100814285D01*
X60017914Y-100814285D02*
X60065533Y-100909523D01*
X48349819Y-91566904D02*
X49159342Y-91566904D01*
X49159342Y-91566904D02*
X49254580Y-91519285D01*
X49254580Y-91519285D02*
X49302200Y-91471666D01*
X49302200Y-91471666D02*
X49349819Y-91376428D01*
X49349819Y-91376428D02*
X49349819Y-91185952D01*
X49349819Y-91185952D02*
X49302200Y-91090714D01*
X49302200Y-91090714D02*
X49254580Y-91043095D01*
X49254580Y-91043095D02*
X49159342Y-90995476D01*
X49159342Y-90995476D02*
X48349819Y-90995476D01*
X48349819Y-90090714D02*
X48349819Y-90281190D01*
X48349819Y-90281190D02*
X48397438Y-90376428D01*
X48397438Y-90376428D02*
X48445057Y-90424047D01*
X48445057Y-90424047D02*
X48587914Y-90519285D01*
X48587914Y-90519285D02*
X48778390Y-90566904D01*
X48778390Y-90566904D02*
X49159342Y-90566904D01*
X49159342Y-90566904D02*
X49254580Y-90519285D01*
X49254580Y-90519285D02*
X49302200Y-90471666D01*
X49302200Y-90471666D02*
X49349819Y-90376428D01*
X49349819Y-90376428D02*
X49349819Y-90185952D01*
X49349819Y-90185952D02*
X49302200Y-90090714D01*
X49302200Y-90090714D02*
X49254580Y-90043095D01*
X49254580Y-90043095D02*
X49159342Y-89995476D01*
X49159342Y-89995476D02*
X48921247Y-89995476D01*
X48921247Y-89995476D02*
X48826009Y-90043095D01*
X48826009Y-90043095D02*
X48778390Y-90090714D01*
X48778390Y-90090714D02*
X48730771Y-90185952D01*
X48730771Y-90185952D02*
X48730771Y-90376428D01*
X48730771Y-90376428D02*
X48778390Y-90471666D01*
X48778390Y-90471666D02*
X48826009Y-90519285D01*
X48826009Y-90519285D02*
X48921247Y-90566904D01*
X53159819Y-112402857D02*
X52683628Y-112736190D01*
X53159819Y-112974285D02*
X52159819Y-112974285D01*
X52159819Y-112974285D02*
X52159819Y-112593333D01*
X52159819Y-112593333D02*
X52207438Y-112498095D01*
X52207438Y-112498095D02*
X52255057Y-112450476D01*
X52255057Y-112450476D02*
X52350295Y-112402857D01*
X52350295Y-112402857D02*
X52493152Y-112402857D01*
X52493152Y-112402857D02*
X52588390Y-112450476D01*
X52588390Y-112450476D02*
X52636009Y-112498095D01*
X52636009Y-112498095D02*
X52683628Y-112593333D01*
X52683628Y-112593333D02*
X52683628Y-112974285D01*
X52255057Y-112021904D02*
X52207438Y-111974285D01*
X52207438Y-111974285D02*
X52159819Y-111879047D01*
X52159819Y-111879047D02*
X52159819Y-111640952D01*
X52159819Y-111640952D02*
X52207438Y-111545714D01*
X52207438Y-111545714D02*
X52255057Y-111498095D01*
X52255057Y-111498095D02*
X52350295Y-111450476D01*
X52350295Y-111450476D02*
X52445533Y-111450476D01*
X52445533Y-111450476D02*
X52588390Y-111498095D01*
X52588390Y-111498095D02*
X53159819Y-112069523D01*
X53159819Y-112069523D02*
X53159819Y-111450476D01*
X52159819Y-110545714D02*
X52159819Y-111021904D01*
X52159819Y-111021904D02*
X52636009Y-111069523D01*
X52636009Y-111069523D02*
X52588390Y-111021904D01*
X52588390Y-111021904D02*
X52540771Y-110926666D01*
X52540771Y-110926666D02*
X52540771Y-110688571D01*
X52540771Y-110688571D02*
X52588390Y-110593333D01*
X52588390Y-110593333D02*
X52636009Y-110545714D01*
X52636009Y-110545714D02*
X52731247Y-110498095D01*
X52731247Y-110498095D02*
X52969342Y-110498095D01*
X52969342Y-110498095D02*
X53064580Y-110545714D01*
X53064580Y-110545714D02*
X53112200Y-110593333D01*
X53112200Y-110593333D02*
X53159819Y-110688571D01*
X53159819Y-110688571D02*
X53159819Y-110926666D01*
X53159819Y-110926666D02*
X53112200Y-111021904D01*
X53112200Y-111021904D02*
X53064580Y-111069523D01*
X50619819Y-112402857D02*
X50143628Y-112736190D01*
X50619819Y-112974285D02*
X49619819Y-112974285D01*
X49619819Y-112974285D02*
X49619819Y-112593333D01*
X49619819Y-112593333D02*
X49667438Y-112498095D01*
X49667438Y-112498095D02*
X49715057Y-112450476D01*
X49715057Y-112450476D02*
X49810295Y-112402857D01*
X49810295Y-112402857D02*
X49953152Y-112402857D01*
X49953152Y-112402857D02*
X50048390Y-112450476D01*
X50048390Y-112450476D02*
X50096009Y-112498095D01*
X50096009Y-112498095D02*
X50143628Y-112593333D01*
X50143628Y-112593333D02*
X50143628Y-112974285D01*
X49715057Y-112021904D02*
X49667438Y-111974285D01*
X49667438Y-111974285D02*
X49619819Y-111879047D01*
X49619819Y-111879047D02*
X49619819Y-111640952D01*
X49619819Y-111640952D02*
X49667438Y-111545714D01*
X49667438Y-111545714D02*
X49715057Y-111498095D01*
X49715057Y-111498095D02*
X49810295Y-111450476D01*
X49810295Y-111450476D02*
X49905533Y-111450476D01*
X49905533Y-111450476D02*
X50048390Y-111498095D01*
X50048390Y-111498095D02*
X50619819Y-112069523D01*
X50619819Y-112069523D02*
X50619819Y-111450476D01*
X49953152Y-110593333D02*
X50619819Y-110593333D01*
X49572200Y-110831428D02*
X50286485Y-111069523D01*
X50286485Y-111069523D02*
X50286485Y-110450476D01*
X42999819Y-112402857D02*
X42523628Y-112736190D01*
X42999819Y-112974285D02*
X41999819Y-112974285D01*
X41999819Y-112974285D02*
X41999819Y-112593333D01*
X41999819Y-112593333D02*
X42047438Y-112498095D01*
X42047438Y-112498095D02*
X42095057Y-112450476D01*
X42095057Y-112450476D02*
X42190295Y-112402857D01*
X42190295Y-112402857D02*
X42333152Y-112402857D01*
X42333152Y-112402857D02*
X42428390Y-112450476D01*
X42428390Y-112450476D02*
X42476009Y-112498095D01*
X42476009Y-112498095D02*
X42523628Y-112593333D01*
X42523628Y-112593333D02*
X42523628Y-112974285D01*
X42999819Y-111450476D02*
X42999819Y-112021904D01*
X42999819Y-111736190D02*
X41999819Y-111736190D01*
X41999819Y-111736190D02*
X42142676Y-111831428D01*
X42142676Y-111831428D02*
X42237914Y-111926666D01*
X42237914Y-111926666D02*
X42285533Y-112021904D01*
X41999819Y-110831428D02*
X41999819Y-110736190D01*
X41999819Y-110736190D02*
X42047438Y-110640952D01*
X42047438Y-110640952D02*
X42095057Y-110593333D01*
X42095057Y-110593333D02*
X42190295Y-110545714D01*
X42190295Y-110545714D02*
X42380771Y-110498095D01*
X42380771Y-110498095D02*
X42618866Y-110498095D01*
X42618866Y-110498095D02*
X42809342Y-110545714D01*
X42809342Y-110545714D02*
X42904580Y-110593333D01*
X42904580Y-110593333D02*
X42952200Y-110640952D01*
X42952200Y-110640952D02*
X42999819Y-110736190D01*
X42999819Y-110736190D02*
X42999819Y-110831428D01*
X42999819Y-110831428D02*
X42952200Y-110926666D01*
X42952200Y-110926666D02*
X42904580Y-110974285D01*
X42904580Y-110974285D02*
X42809342Y-111021904D01*
X42809342Y-111021904D02*
X42618866Y-111069523D01*
X42618866Y-111069523D02*
X42380771Y-111069523D01*
X42380771Y-111069523D02*
X42190295Y-111021904D01*
X42190295Y-111021904D02*
X42095057Y-110974285D01*
X42095057Y-110974285D02*
X42047438Y-110926666D01*
X42047438Y-110926666D02*
X41999819Y-110831428D01*
X45539819Y-102242857D02*
X45063628Y-102576190D01*
X45539819Y-102814285D02*
X44539819Y-102814285D01*
X44539819Y-102814285D02*
X44539819Y-102433333D01*
X44539819Y-102433333D02*
X44587438Y-102338095D01*
X44587438Y-102338095D02*
X44635057Y-102290476D01*
X44635057Y-102290476D02*
X44730295Y-102242857D01*
X44730295Y-102242857D02*
X44873152Y-102242857D01*
X44873152Y-102242857D02*
X44968390Y-102290476D01*
X44968390Y-102290476D02*
X45016009Y-102338095D01*
X45016009Y-102338095D02*
X45063628Y-102433333D01*
X45063628Y-102433333D02*
X45063628Y-102814285D01*
X45539819Y-101290476D02*
X45539819Y-101861904D01*
X45539819Y-101576190D02*
X44539819Y-101576190D01*
X44539819Y-101576190D02*
X44682676Y-101671428D01*
X44682676Y-101671428D02*
X44777914Y-101766666D01*
X44777914Y-101766666D02*
X44825533Y-101861904D01*
X44873152Y-100433333D02*
X45539819Y-100433333D01*
X44492200Y-100671428D02*
X45206485Y-100909523D01*
X45206485Y-100909523D02*
X45206485Y-100290476D01*
X60049580Y-90971666D02*
X60097200Y-91019285D01*
X60097200Y-91019285D02*
X60144819Y-91162142D01*
X60144819Y-91162142D02*
X60144819Y-91257380D01*
X60144819Y-91257380D02*
X60097200Y-91400237D01*
X60097200Y-91400237D02*
X60001961Y-91495475D01*
X60001961Y-91495475D02*
X59906723Y-91543094D01*
X59906723Y-91543094D02*
X59716247Y-91590713D01*
X59716247Y-91590713D02*
X59573390Y-91590713D01*
X59573390Y-91590713D02*
X59382914Y-91543094D01*
X59382914Y-91543094D02*
X59287676Y-91495475D01*
X59287676Y-91495475D02*
X59192438Y-91400237D01*
X59192438Y-91400237D02*
X59144819Y-91257380D01*
X59144819Y-91257380D02*
X59144819Y-91162142D01*
X59144819Y-91162142D02*
X59192438Y-91019285D01*
X59192438Y-91019285D02*
X59240057Y-90971666D01*
X59573390Y-90400237D02*
X59525771Y-90495475D01*
X59525771Y-90495475D02*
X59478152Y-90543094D01*
X59478152Y-90543094D02*
X59382914Y-90590713D01*
X59382914Y-90590713D02*
X59335295Y-90590713D01*
X59335295Y-90590713D02*
X59240057Y-90543094D01*
X59240057Y-90543094D02*
X59192438Y-90495475D01*
X59192438Y-90495475D02*
X59144819Y-90400237D01*
X59144819Y-90400237D02*
X59144819Y-90209761D01*
X59144819Y-90209761D02*
X59192438Y-90114523D01*
X59192438Y-90114523D02*
X59240057Y-90066904D01*
X59240057Y-90066904D02*
X59335295Y-90019285D01*
X59335295Y-90019285D02*
X59382914Y-90019285D01*
X59382914Y-90019285D02*
X59478152Y-90066904D01*
X59478152Y-90066904D02*
X59525771Y-90114523D01*
X59525771Y-90114523D02*
X59573390Y-90209761D01*
X59573390Y-90209761D02*
X59573390Y-90400237D01*
X59573390Y-90400237D02*
X59621009Y-90495475D01*
X59621009Y-90495475D02*
X59668628Y-90543094D01*
X59668628Y-90543094D02*
X59763866Y-90590713D01*
X59763866Y-90590713D02*
X59954342Y-90590713D01*
X59954342Y-90590713D02*
X60049580Y-90543094D01*
X60049580Y-90543094D02*
X60097200Y-90495475D01*
X60097200Y-90495475D02*
X60144819Y-90400237D01*
X60144819Y-90400237D02*
X60144819Y-90209761D01*
X60144819Y-90209761D02*
X60097200Y-90114523D01*
X60097200Y-90114523D02*
X60049580Y-90066904D01*
X60049580Y-90066904D02*
X59954342Y-90019285D01*
X59954342Y-90019285D02*
X59763866Y-90019285D01*
X59763866Y-90019285D02*
X59668628Y-90066904D01*
X59668628Y-90066904D02*
X59621009Y-90114523D01*
X59621009Y-90114523D02*
X59573390Y-90209761D01*
X53159819Y-132722857D02*
X52683628Y-133056190D01*
X53159819Y-133294285D02*
X52159819Y-133294285D01*
X52159819Y-133294285D02*
X52159819Y-132913333D01*
X52159819Y-132913333D02*
X52207438Y-132818095D01*
X52207438Y-132818095D02*
X52255057Y-132770476D01*
X52255057Y-132770476D02*
X52350295Y-132722857D01*
X52350295Y-132722857D02*
X52493152Y-132722857D01*
X52493152Y-132722857D02*
X52588390Y-132770476D01*
X52588390Y-132770476D02*
X52636009Y-132818095D01*
X52636009Y-132818095D02*
X52683628Y-132913333D01*
X52683628Y-132913333D02*
X52683628Y-133294285D01*
X53159819Y-131770476D02*
X53159819Y-132341904D01*
X53159819Y-132056190D02*
X52159819Y-132056190D01*
X52159819Y-132056190D02*
X52302676Y-132151428D01*
X52302676Y-132151428D02*
X52397914Y-132246666D01*
X52397914Y-132246666D02*
X52445533Y-132341904D01*
X52159819Y-131437142D02*
X52159819Y-130770476D01*
X52159819Y-130770476D02*
X53159819Y-131199047D01*
X52538333Y-57509580D02*
X52490714Y-57557200D01*
X52490714Y-57557200D02*
X52347857Y-57604819D01*
X52347857Y-57604819D02*
X52252619Y-57604819D01*
X52252619Y-57604819D02*
X52109762Y-57557200D01*
X52109762Y-57557200D02*
X52014524Y-57461961D01*
X52014524Y-57461961D02*
X51966905Y-57366723D01*
X51966905Y-57366723D02*
X51919286Y-57176247D01*
X51919286Y-57176247D02*
X51919286Y-57033390D01*
X51919286Y-57033390D02*
X51966905Y-56842914D01*
X51966905Y-56842914D02*
X52014524Y-56747676D01*
X52014524Y-56747676D02*
X52109762Y-56652438D01*
X52109762Y-56652438D02*
X52252619Y-56604819D01*
X52252619Y-56604819D02*
X52347857Y-56604819D01*
X52347857Y-56604819D02*
X52490714Y-56652438D01*
X52490714Y-56652438D02*
X52538333Y-56700057D01*
X52871667Y-56604819D02*
X53538333Y-56604819D01*
X53538333Y-56604819D02*
X53109762Y-57604819D01*
X63319819Y-112402857D02*
X62843628Y-112736190D01*
X63319819Y-112974285D02*
X62319819Y-112974285D01*
X62319819Y-112974285D02*
X62319819Y-112593333D01*
X62319819Y-112593333D02*
X62367438Y-112498095D01*
X62367438Y-112498095D02*
X62415057Y-112450476D01*
X62415057Y-112450476D02*
X62510295Y-112402857D01*
X62510295Y-112402857D02*
X62653152Y-112402857D01*
X62653152Y-112402857D02*
X62748390Y-112450476D01*
X62748390Y-112450476D02*
X62796009Y-112498095D01*
X62796009Y-112498095D02*
X62843628Y-112593333D01*
X62843628Y-112593333D02*
X62843628Y-112974285D01*
X62415057Y-112021904D02*
X62367438Y-111974285D01*
X62367438Y-111974285D02*
X62319819Y-111879047D01*
X62319819Y-111879047D02*
X62319819Y-111640952D01*
X62319819Y-111640952D02*
X62367438Y-111545714D01*
X62367438Y-111545714D02*
X62415057Y-111498095D01*
X62415057Y-111498095D02*
X62510295Y-111450476D01*
X62510295Y-111450476D02*
X62605533Y-111450476D01*
X62605533Y-111450476D02*
X62748390Y-111498095D01*
X62748390Y-111498095D02*
X63319819Y-112069523D01*
X63319819Y-112069523D02*
X63319819Y-111450476D01*
X62319819Y-110593333D02*
X62319819Y-110783809D01*
X62319819Y-110783809D02*
X62367438Y-110879047D01*
X62367438Y-110879047D02*
X62415057Y-110926666D01*
X62415057Y-110926666D02*
X62557914Y-111021904D01*
X62557914Y-111021904D02*
X62748390Y-111069523D01*
X62748390Y-111069523D02*
X63129342Y-111069523D01*
X63129342Y-111069523D02*
X63224580Y-111021904D01*
X63224580Y-111021904D02*
X63272200Y-110974285D01*
X63272200Y-110974285D02*
X63319819Y-110879047D01*
X63319819Y-110879047D02*
X63319819Y-110688571D01*
X63319819Y-110688571D02*
X63272200Y-110593333D01*
X63272200Y-110593333D02*
X63224580Y-110545714D01*
X63224580Y-110545714D02*
X63129342Y-110498095D01*
X63129342Y-110498095D02*
X62891247Y-110498095D01*
X62891247Y-110498095D02*
X62796009Y-110545714D01*
X62796009Y-110545714D02*
X62748390Y-110593333D01*
X62748390Y-110593333D02*
X62700771Y-110688571D01*
X62700771Y-110688571D02*
X62700771Y-110879047D01*
X62700771Y-110879047D02*
X62748390Y-110974285D01*
X62748390Y-110974285D02*
X62796009Y-111021904D01*
X62796009Y-111021904D02*
X62891247Y-111069523D01*
X48079819Y-122086666D02*
X47603628Y-122419999D01*
X48079819Y-122658094D02*
X47079819Y-122658094D01*
X47079819Y-122658094D02*
X47079819Y-122277142D01*
X47079819Y-122277142D02*
X47127438Y-122181904D01*
X47127438Y-122181904D02*
X47175057Y-122134285D01*
X47175057Y-122134285D02*
X47270295Y-122086666D01*
X47270295Y-122086666D02*
X47413152Y-122086666D01*
X47413152Y-122086666D02*
X47508390Y-122134285D01*
X47508390Y-122134285D02*
X47556009Y-122181904D01*
X47556009Y-122181904D02*
X47603628Y-122277142D01*
X47603628Y-122277142D02*
X47603628Y-122658094D01*
X48079819Y-121610475D02*
X48079819Y-121419999D01*
X48079819Y-121419999D02*
X48032200Y-121324761D01*
X48032200Y-121324761D02*
X47984580Y-121277142D01*
X47984580Y-121277142D02*
X47841723Y-121181904D01*
X47841723Y-121181904D02*
X47651247Y-121134285D01*
X47651247Y-121134285D02*
X47270295Y-121134285D01*
X47270295Y-121134285D02*
X47175057Y-121181904D01*
X47175057Y-121181904D02*
X47127438Y-121229523D01*
X47127438Y-121229523D02*
X47079819Y-121324761D01*
X47079819Y-121324761D02*
X47079819Y-121515237D01*
X47079819Y-121515237D02*
X47127438Y-121610475D01*
X47127438Y-121610475D02*
X47175057Y-121658094D01*
X47175057Y-121658094D02*
X47270295Y-121705713D01*
X47270295Y-121705713D02*
X47508390Y-121705713D01*
X47508390Y-121705713D02*
X47603628Y-121658094D01*
X47603628Y-121658094D02*
X47651247Y-121610475D01*
X47651247Y-121610475D02*
X47698866Y-121515237D01*
X47698866Y-121515237D02*
X47698866Y-121324761D01*
X47698866Y-121324761D02*
X47651247Y-121229523D01*
X47651247Y-121229523D02*
X47603628Y-121181904D01*
X47603628Y-121181904D02*
X47508390Y-121134285D01*
X56419761Y-136440057D02*
X56324523Y-136392438D01*
X56324523Y-136392438D02*
X56229285Y-136297200D01*
X56229285Y-136297200D02*
X56086428Y-136154342D01*
X56086428Y-136154342D02*
X55991190Y-136106723D01*
X55991190Y-136106723D02*
X55895952Y-136106723D01*
X55943571Y-136344819D02*
X55848333Y-136297200D01*
X55848333Y-136297200D02*
X55753095Y-136201961D01*
X55753095Y-136201961D02*
X55705476Y-136011485D01*
X55705476Y-136011485D02*
X55705476Y-135678152D01*
X55705476Y-135678152D02*
X55753095Y-135487676D01*
X55753095Y-135487676D02*
X55848333Y-135392438D01*
X55848333Y-135392438D02*
X55943571Y-135344819D01*
X55943571Y-135344819D02*
X56134047Y-135344819D01*
X56134047Y-135344819D02*
X56229285Y-135392438D01*
X56229285Y-135392438D02*
X56324523Y-135487676D01*
X56324523Y-135487676D02*
X56372142Y-135678152D01*
X56372142Y-135678152D02*
X56372142Y-136011485D01*
X56372142Y-136011485D02*
X56324523Y-136201961D01*
X56324523Y-136201961D02*
X56229285Y-136297200D01*
X56229285Y-136297200D02*
X56134047Y-136344819D01*
X56134047Y-136344819D02*
X55943571Y-136344819D01*
X57324523Y-136344819D02*
X56753095Y-136344819D01*
X57038809Y-136344819D02*
X57038809Y-135344819D01*
X57038809Y-135344819D02*
X56943571Y-135487676D01*
X56943571Y-135487676D02*
X56848333Y-135582914D01*
X56848333Y-135582914D02*
X56753095Y-135630533D01*
X42441905Y-46809819D02*
X42441905Y-45809819D01*
X42441905Y-45809819D02*
X42680000Y-45809819D01*
X42680000Y-45809819D02*
X42822857Y-45857438D01*
X42822857Y-45857438D02*
X42918095Y-45952676D01*
X42918095Y-45952676D02*
X42965714Y-46047914D01*
X42965714Y-46047914D02*
X43013333Y-46238390D01*
X43013333Y-46238390D02*
X43013333Y-46381247D01*
X43013333Y-46381247D02*
X42965714Y-46571723D01*
X42965714Y-46571723D02*
X42918095Y-46666961D01*
X42918095Y-46666961D02*
X42822857Y-46762200D01*
X42822857Y-46762200D02*
X42680000Y-46809819D01*
X42680000Y-46809819D02*
X42441905Y-46809819D01*
X43394286Y-45905057D02*
X43441905Y-45857438D01*
X43441905Y-45857438D02*
X43537143Y-45809819D01*
X43537143Y-45809819D02*
X43775238Y-45809819D01*
X43775238Y-45809819D02*
X43870476Y-45857438D01*
X43870476Y-45857438D02*
X43918095Y-45905057D01*
X43918095Y-45905057D02*
X43965714Y-46000295D01*
X43965714Y-46000295D02*
X43965714Y-46095533D01*
X43965714Y-46095533D02*
X43918095Y-46238390D01*
X43918095Y-46238390D02*
X43346667Y-46809819D01*
X43346667Y-46809819D02*
X43965714Y-46809819D01*
X47998095Y-46809819D02*
X47998095Y-45809819D01*
X48569523Y-46809819D02*
X48140952Y-46238390D01*
X48569523Y-45809819D02*
X47998095Y-46381247D01*
X53953628Y-65336190D02*
X54429819Y-65336190D01*
X53429819Y-65669523D02*
X53953628Y-65336190D01*
X53953628Y-65336190D02*
X53429819Y-65002857D01*
X54429819Y-64145714D02*
X54429819Y-64717142D01*
X54429819Y-64431428D02*
X53429819Y-64431428D01*
X53429819Y-64431428D02*
X53572676Y-64526666D01*
X53572676Y-64526666D02*
X53667914Y-64621904D01*
X53667914Y-64621904D02*
X53715533Y-64717142D01*
X48079819Y-112402857D02*
X47603628Y-112736190D01*
X48079819Y-112974285D02*
X47079819Y-112974285D01*
X47079819Y-112974285D02*
X47079819Y-112593333D01*
X47079819Y-112593333D02*
X47127438Y-112498095D01*
X47127438Y-112498095D02*
X47175057Y-112450476D01*
X47175057Y-112450476D02*
X47270295Y-112402857D01*
X47270295Y-112402857D02*
X47413152Y-112402857D01*
X47413152Y-112402857D02*
X47508390Y-112450476D01*
X47508390Y-112450476D02*
X47556009Y-112498095D01*
X47556009Y-112498095D02*
X47603628Y-112593333D01*
X47603628Y-112593333D02*
X47603628Y-112974285D01*
X48079819Y-111450476D02*
X48079819Y-112021904D01*
X48079819Y-111736190D02*
X47079819Y-111736190D01*
X47079819Y-111736190D02*
X47222676Y-111831428D01*
X47222676Y-111831428D02*
X47317914Y-111926666D01*
X47317914Y-111926666D02*
X47365533Y-112021904D01*
X47175057Y-111069523D02*
X47127438Y-111021904D01*
X47127438Y-111021904D02*
X47079819Y-110926666D01*
X47079819Y-110926666D02*
X47079819Y-110688571D01*
X47079819Y-110688571D02*
X47127438Y-110593333D01*
X47127438Y-110593333D02*
X47175057Y-110545714D01*
X47175057Y-110545714D02*
X47270295Y-110498095D01*
X47270295Y-110498095D02*
X47365533Y-110498095D01*
X47365533Y-110498095D02*
X47508390Y-110545714D01*
X47508390Y-110545714D02*
X48079819Y-111117142D01*
X48079819Y-111117142D02*
X48079819Y-110498095D01*
X43013333Y-72114580D02*
X42965714Y-72162200D01*
X42965714Y-72162200D02*
X42822857Y-72209819D01*
X42822857Y-72209819D02*
X42727619Y-72209819D01*
X42727619Y-72209819D02*
X42584762Y-72162200D01*
X42584762Y-72162200D02*
X42489524Y-72066961D01*
X42489524Y-72066961D02*
X42441905Y-71971723D01*
X42441905Y-71971723D02*
X42394286Y-71781247D01*
X42394286Y-71781247D02*
X42394286Y-71638390D01*
X42394286Y-71638390D02*
X42441905Y-71447914D01*
X42441905Y-71447914D02*
X42489524Y-71352676D01*
X42489524Y-71352676D02*
X42584762Y-71257438D01*
X42584762Y-71257438D02*
X42727619Y-71209819D01*
X42727619Y-71209819D02*
X42822857Y-71209819D01*
X42822857Y-71209819D02*
X42965714Y-71257438D01*
X42965714Y-71257438D02*
X43013333Y-71305057D01*
X43870476Y-71209819D02*
X43680000Y-71209819D01*
X43680000Y-71209819D02*
X43584762Y-71257438D01*
X43584762Y-71257438D02*
X43537143Y-71305057D01*
X43537143Y-71305057D02*
X43441905Y-71447914D01*
X43441905Y-71447914D02*
X43394286Y-71638390D01*
X43394286Y-71638390D02*
X43394286Y-72019342D01*
X43394286Y-72019342D02*
X43441905Y-72114580D01*
X43441905Y-72114580D02*
X43489524Y-72162200D01*
X43489524Y-72162200D02*
X43584762Y-72209819D01*
X43584762Y-72209819D02*
X43775238Y-72209819D01*
X43775238Y-72209819D02*
X43870476Y-72162200D01*
X43870476Y-72162200D02*
X43918095Y-72114580D01*
X43918095Y-72114580D02*
X43965714Y-72019342D01*
X43965714Y-72019342D02*
X43965714Y-71781247D01*
X43965714Y-71781247D02*
X43918095Y-71686009D01*
X43918095Y-71686009D02*
X43870476Y-71638390D01*
X43870476Y-71638390D02*
X43775238Y-71590771D01*
X43775238Y-71590771D02*
X43584762Y-71590771D01*
X43584762Y-71590771D02*
X43489524Y-71638390D01*
X43489524Y-71638390D02*
X43441905Y-71686009D01*
X43441905Y-71686009D02*
X43394286Y-71781247D01*
X56419761Y-116120057D02*
X56324523Y-116072438D01*
X56324523Y-116072438D02*
X56229285Y-115977200D01*
X56229285Y-115977200D02*
X56086428Y-115834342D01*
X56086428Y-115834342D02*
X55991190Y-115786723D01*
X55991190Y-115786723D02*
X55895952Y-115786723D01*
X55943571Y-116024819D02*
X55848333Y-115977200D01*
X55848333Y-115977200D02*
X55753095Y-115881961D01*
X55753095Y-115881961D02*
X55705476Y-115691485D01*
X55705476Y-115691485D02*
X55705476Y-115358152D01*
X55705476Y-115358152D02*
X55753095Y-115167676D01*
X55753095Y-115167676D02*
X55848333Y-115072438D01*
X55848333Y-115072438D02*
X55943571Y-115024819D01*
X55943571Y-115024819D02*
X56134047Y-115024819D01*
X56134047Y-115024819D02*
X56229285Y-115072438D01*
X56229285Y-115072438D02*
X56324523Y-115167676D01*
X56324523Y-115167676D02*
X56372142Y-115358152D01*
X56372142Y-115358152D02*
X56372142Y-115691485D01*
X56372142Y-115691485D02*
X56324523Y-115881961D01*
X56324523Y-115881961D02*
X56229285Y-115977200D01*
X56229285Y-115977200D02*
X56134047Y-116024819D01*
X56134047Y-116024819D02*
X55943571Y-116024819D01*
X56705476Y-115024819D02*
X57324523Y-115024819D01*
X57324523Y-115024819D02*
X56991190Y-115405771D01*
X56991190Y-115405771D02*
X57134047Y-115405771D01*
X57134047Y-115405771D02*
X57229285Y-115453390D01*
X57229285Y-115453390D02*
X57276904Y-115501009D01*
X57276904Y-115501009D02*
X57324523Y-115596247D01*
X57324523Y-115596247D02*
X57324523Y-115834342D01*
X57324523Y-115834342D02*
X57276904Y-115929580D01*
X57276904Y-115929580D02*
X57229285Y-115977200D01*
X57229285Y-115977200D02*
X57134047Y-116024819D01*
X57134047Y-116024819D02*
X56848333Y-116024819D01*
X56848333Y-116024819D02*
X56753095Y-115977200D01*
X56753095Y-115977200D02*
X56705476Y-115929580D01*
X60779819Y-112402857D02*
X60303628Y-112736190D01*
X60779819Y-112974285D02*
X59779819Y-112974285D01*
X59779819Y-112974285D02*
X59779819Y-112593333D01*
X59779819Y-112593333D02*
X59827438Y-112498095D01*
X59827438Y-112498095D02*
X59875057Y-112450476D01*
X59875057Y-112450476D02*
X59970295Y-112402857D01*
X59970295Y-112402857D02*
X60113152Y-112402857D01*
X60113152Y-112402857D02*
X60208390Y-112450476D01*
X60208390Y-112450476D02*
X60256009Y-112498095D01*
X60256009Y-112498095D02*
X60303628Y-112593333D01*
X60303628Y-112593333D02*
X60303628Y-112974285D01*
X59875057Y-112021904D02*
X59827438Y-111974285D01*
X59827438Y-111974285D02*
X59779819Y-111879047D01*
X59779819Y-111879047D02*
X59779819Y-111640952D01*
X59779819Y-111640952D02*
X59827438Y-111545714D01*
X59827438Y-111545714D02*
X59875057Y-111498095D01*
X59875057Y-111498095D02*
X59970295Y-111450476D01*
X59970295Y-111450476D02*
X60065533Y-111450476D01*
X60065533Y-111450476D02*
X60208390Y-111498095D01*
X60208390Y-111498095D02*
X60779819Y-112069523D01*
X60779819Y-112069523D02*
X60779819Y-111450476D01*
X59779819Y-111117142D02*
X59779819Y-110450476D01*
X59779819Y-110450476D02*
X60779819Y-110879047D01*
X62698333Y-74654580D02*
X62650714Y-74702200D01*
X62650714Y-74702200D02*
X62507857Y-74749819D01*
X62507857Y-74749819D02*
X62412619Y-74749819D01*
X62412619Y-74749819D02*
X62269762Y-74702200D01*
X62269762Y-74702200D02*
X62174524Y-74606961D01*
X62174524Y-74606961D02*
X62126905Y-74511723D01*
X62126905Y-74511723D02*
X62079286Y-74321247D01*
X62079286Y-74321247D02*
X62079286Y-74178390D01*
X62079286Y-74178390D02*
X62126905Y-73987914D01*
X62126905Y-73987914D02*
X62174524Y-73892676D01*
X62174524Y-73892676D02*
X62269762Y-73797438D01*
X62269762Y-73797438D02*
X62412619Y-73749819D01*
X62412619Y-73749819D02*
X62507857Y-73749819D01*
X62507857Y-73749819D02*
X62650714Y-73797438D01*
X62650714Y-73797438D02*
X62698333Y-73845057D01*
X63650714Y-74749819D02*
X63079286Y-74749819D01*
X63365000Y-74749819D02*
X63365000Y-73749819D01*
X63365000Y-73749819D02*
X63269762Y-73892676D01*
X63269762Y-73892676D02*
X63174524Y-73987914D01*
X63174524Y-73987914D02*
X63079286Y-74035533D01*
X42999819Y-132246666D02*
X42523628Y-132579999D01*
X42999819Y-132818094D02*
X41999819Y-132818094D01*
X41999819Y-132818094D02*
X41999819Y-132437142D01*
X41999819Y-132437142D02*
X42047438Y-132341904D01*
X42047438Y-132341904D02*
X42095057Y-132294285D01*
X42095057Y-132294285D02*
X42190295Y-132246666D01*
X42190295Y-132246666D02*
X42333152Y-132246666D01*
X42333152Y-132246666D02*
X42428390Y-132294285D01*
X42428390Y-132294285D02*
X42476009Y-132341904D01*
X42476009Y-132341904D02*
X42523628Y-132437142D01*
X42523628Y-132437142D02*
X42523628Y-132818094D01*
X42333152Y-131389523D02*
X42999819Y-131389523D01*
X41952200Y-131627618D02*
X42666485Y-131865713D01*
X42666485Y-131865713D02*
X42666485Y-131246666D01*
X63819819Y-140033333D02*
X64534104Y-140033333D01*
X64534104Y-140033333D02*
X64676961Y-140080952D01*
X64676961Y-140080952D02*
X64772200Y-140176190D01*
X64772200Y-140176190D02*
X64819819Y-140319047D01*
X64819819Y-140319047D02*
X64819819Y-140414285D01*
X64153152Y-139128571D02*
X64819819Y-139128571D01*
X63772200Y-139366666D02*
X64486485Y-139604761D01*
X64486485Y-139604761D02*
X64486485Y-138985714D01*
X61458095Y-52279476D02*
X61458095Y-53088999D01*
X61458095Y-53088999D02*
X61505714Y-53184237D01*
X61505714Y-53184237D02*
X61553333Y-53231857D01*
X61553333Y-53231857D02*
X61648571Y-53279476D01*
X61648571Y-53279476D02*
X61839047Y-53279476D01*
X61839047Y-53279476D02*
X61934285Y-53231857D01*
X61934285Y-53231857D02*
X61981904Y-53184237D01*
X61981904Y-53184237D02*
X62029523Y-53088999D01*
X62029523Y-53088999D02*
X62029523Y-52279476D01*
X62458095Y-52374714D02*
X62505714Y-52327095D01*
X62505714Y-52327095D02*
X62600952Y-52279476D01*
X62600952Y-52279476D02*
X62839047Y-52279476D01*
X62839047Y-52279476D02*
X62934285Y-52327095D01*
X62934285Y-52327095D02*
X62981904Y-52374714D01*
X62981904Y-52374714D02*
X63029523Y-52469952D01*
X63029523Y-52469952D02*
X63029523Y-52565190D01*
X63029523Y-52565190D02*
X62981904Y-52708047D01*
X62981904Y-52708047D02*
X62410476Y-53279476D01*
X62410476Y-53279476D02*
X63029523Y-53279476D01*
X42428095Y-64845162D02*
X42428095Y-65654685D01*
X42428095Y-65654685D02*
X42475714Y-65749923D01*
X42475714Y-65749923D02*
X42523333Y-65797543D01*
X42523333Y-65797543D02*
X42618571Y-65845162D01*
X42618571Y-65845162D02*
X42809047Y-65845162D01*
X42809047Y-65845162D02*
X42904285Y-65797543D01*
X42904285Y-65797543D02*
X42951904Y-65749923D01*
X42951904Y-65749923D02*
X42999523Y-65654685D01*
X42999523Y-65654685D02*
X42999523Y-64845162D01*
X43904285Y-65178495D02*
X43904285Y-65845162D01*
X43666190Y-64797543D02*
X43428095Y-65511828D01*
X43428095Y-65511828D02*
X44047142Y-65511828D01*
X48079819Y-102242857D02*
X47603628Y-102576190D01*
X48079819Y-102814285D02*
X47079819Y-102814285D01*
X47079819Y-102814285D02*
X47079819Y-102433333D01*
X47079819Y-102433333D02*
X47127438Y-102338095D01*
X47127438Y-102338095D02*
X47175057Y-102290476D01*
X47175057Y-102290476D02*
X47270295Y-102242857D01*
X47270295Y-102242857D02*
X47413152Y-102242857D01*
X47413152Y-102242857D02*
X47508390Y-102290476D01*
X47508390Y-102290476D02*
X47556009Y-102338095D01*
X47556009Y-102338095D02*
X47603628Y-102433333D01*
X47603628Y-102433333D02*
X47603628Y-102814285D01*
X48079819Y-101290476D02*
X48079819Y-101861904D01*
X48079819Y-101576190D02*
X47079819Y-101576190D01*
X47079819Y-101576190D02*
X47222676Y-101671428D01*
X47222676Y-101671428D02*
X47317914Y-101766666D01*
X47317914Y-101766666D02*
X47365533Y-101861904D01*
X47079819Y-100385714D02*
X47079819Y-100861904D01*
X47079819Y-100861904D02*
X47556009Y-100909523D01*
X47556009Y-100909523D02*
X47508390Y-100861904D01*
X47508390Y-100861904D02*
X47460771Y-100766666D01*
X47460771Y-100766666D02*
X47460771Y-100528571D01*
X47460771Y-100528571D02*
X47508390Y-100433333D01*
X47508390Y-100433333D02*
X47556009Y-100385714D01*
X47556009Y-100385714D02*
X47651247Y-100338095D01*
X47651247Y-100338095D02*
X47889342Y-100338095D01*
X47889342Y-100338095D02*
X47984580Y-100385714D01*
X47984580Y-100385714D02*
X48032200Y-100433333D01*
X48032200Y-100433333D02*
X48079819Y-100528571D01*
X48079819Y-100528571D02*
X48079819Y-100766666D01*
X48079819Y-100766666D02*
X48032200Y-100861904D01*
X48032200Y-100861904D02*
X47984580Y-100909523D01*
X60779819Y-122562857D02*
X60303628Y-122896190D01*
X60779819Y-123134285D02*
X59779819Y-123134285D01*
X59779819Y-123134285D02*
X59779819Y-122753333D01*
X59779819Y-122753333D02*
X59827438Y-122658095D01*
X59827438Y-122658095D02*
X59875057Y-122610476D01*
X59875057Y-122610476D02*
X59970295Y-122562857D01*
X59970295Y-122562857D02*
X60113152Y-122562857D01*
X60113152Y-122562857D02*
X60208390Y-122610476D01*
X60208390Y-122610476D02*
X60256009Y-122658095D01*
X60256009Y-122658095D02*
X60303628Y-122753333D01*
X60303628Y-122753333D02*
X60303628Y-123134285D01*
X59875057Y-122181904D02*
X59827438Y-122134285D01*
X59827438Y-122134285D02*
X59779819Y-122039047D01*
X59779819Y-122039047D02*
X59779819Y-121800952D01*
X59779819Y-121800952D02*
X59827438Y-121705714D01*
X59827438Y-121705714D02*
X59875057Y-121658095D01*
X59875057Y-121658095D02*
X59970295Y-121610476D01*
X59970295Y-121610476D02*
X60065533Y-121610476D01*
X60065533Y-121610476D02*
X60208390Y-121658095D01*
X60208390Y-121658095D02*
X60779819Y-122229523D01*
X60779819Y-122229523D02*
X60779819Y-121610476D01*
X59779819Y-121277142D02*
X59779819Y-120658095D01*
X59779819Y-120658095D02*
X60160771Y-120991428D01*
X60160771Y-120991428D02*
X60160771Y-120848571D01*
X60160771Y-120848571D02*
X60208390Y-120753333D01*
X60208390Y-120753333D02*
X60256009Y-120705714D01*
X60256009Y-120705714D02*
X60351247Y-120658095D01*
X60351247Y-120658095D02*
X60589342Y-120658095D01*
X60589342Y-120658095D02*
X60684580Y-120705714D01*
X60684580Y-120705714D02*
X60732200Y-120753333D01*
X60732200Y-120753333D02*
X60779819Y-120848571D01*
X60779819Y-120848571D02*
X60779819Y-121134285D01*
X60779819Y-121134285D02*
X60732200Y-121229523D01*
X60732200Y-121229523D02*
X60684580Y-121277142D01*
X51254819Y-40171666D02*
X50778628Y-40504999D01*
X51254819Y-40743094D02*
X50254819Y-40743094D01*
X50254819Y-40743094D02*
X50254819Y-40362142D01*
X50254819Y-40362142D02*
X50302438Y-40266904D01*
X50302438Y-40266904D02*
X50350057Y-40219285D01*
X50350057Y-40219285D02*
X50445295Y-40171666D01*
X50445295Y-40171666D02*
X50588152Y-40171666D01*
X50588152Y-40171666D02*
X50683390Y-40219285D01*
X50683390Y-40219285D02*
X50731009Y-40266904D01*
X50731009Y-40266904D02*
X50778628Y-40362142D01*
X50778628Y-40362142D02*
X50778628Y-40743094D01*
X51254819Y-39219285D02*
X51254819Y-39790713D01*
X51254819Y-39504999D02*
X50254819Y-39504999D01*
X50254819Y-39504999D02*
X50397676Y-39600237D01*
X50397676Y-39600237D02*
X50492914Y-39695475D01*
X50492914Y-39695475D02*
X50540533Y-39790713D01*
X42999819Y-122086666D02*
X42523628Y-122419999D01*
X42999819Y-122658094D02*
X41999819Y-122658094D01*
X41999819Y-122658094D02*
X41999819Y-122277142D01*
X41999819Y-122277142D02*
X42047438Y-122181904D01*
X42047438Y-122181904D02*
X42095057Y-122134285D01*
X42095057Y-122134285D02*
X42190295Y-122086666D01*
X42190295Y-122086666D02*
X42333152Y-122086666D01*
X42333152Y-122086666D02*
X42428390Y-122134285D01*
X42428390Y-122134285D02*
X42476009Y-122181904D01*
X42476009Y-122181904D02*
X42523628Y-122277142D01*
X42523628Y-122277142D02*
X42523628Y-122658094D01*
X41999819Y-121753332D02*
X41999819Y-121086666D01*
X41999819Y-121086666D02*
X42999819Y-121515237D01*
X56419761Y-126280057D02*
X56324523Y-126232438D01*
X56324523Y-126232438D02*
X56229285Y-126137200D01*
X56229285Y-126137200D02*
X56086428Y-125994342D01*
X56086428Y-125994342D02*
X55991190Y-125946723D01*
X55991190Y-125946723D02*
X55895952Y-125946723D01*
X55943571Y-126184819D02*
X55848333Y-126137200D01*
X55848333Y-126137200D02*
X55753095Y-126041961D01*
X55753095Y-126041961D02*
X55705476Y-125851485D01*
X55705476Y-125851485D02*
X55705476Y-125518152D01*
X55705476Y-125518152D02*
X55753095Y-125327676D01*
X55753095Y-125327676D02*
X55848333Y-125232438D01*
X55848333Y-125232438D02*
X55943571Y-125184819D01*
X55943571Y-125184819D02*
X56134047Y-125184819D01*
X56134047Y-125184819D02*
X56229285Y-125232438D01*
X56229285Y-125232438D02*
X56324523Y-125327676D01*
X56324523Y-125327676D02*
X56372142Y-125518152D01*
X56372142Y-125518152D02*
X56372142Y-125851485D01*
X56372142Y-125851485D02*
X56324523Y-126041961D01*
X56324523Y-126041961D02*
X56229285Y-126137200D01*
X56229285Y-126137200D02*
X56134047Y-126184819D01*
X56134047Y-126184819D02*
X55943571Y-126184819D01*
X56753095Y-125280057D02*
X56800714Y-125232438D01*
X56800714Y-125232438D02*
X56895952Y-125184819D01*
X56895952Y-125184819D02*
X57134047Y-125184819D01*
X57134047Y-125184819D02*
X57229285Y-125232438D01*
X57229285Y-125232438D02*
X57276904Y-125280057D01*
X57276904Y-125280057D02*
X57324523Y-125375295D01*
X57324523Y-125375295D02*
X57324523Y-125470533D01*
X57324523Y-125470533D02*
X57276904Y-125613390D01*
X57276904Y-125613390D02*
X56705476Y-126184819D01*
X56705476Y-126184819D02*
X57324523Y-126184819D01*
X48079819Y-132246666D02*
X47603628Y-132579999D01*
X48079819Y-132818094D02*
X47079819Y-132818094D01*
X47079819Y-132818094D02*
X47079819Y-132437142D01*
X47079819Y-132437142D02*
X47127438Y-132341904D01*
X47127438Y-132341904D02*
X47175057Y-132294285D01*
X47175057Y-132294285D02*
X47270295Y-132246666D01*
X47270295Y-132246666D02*
X47413152Y-132246666D01*
X47413152Y-132246666D02*
X47508390Y-132294285D01*
X47508390Y-132294285D02*
X47556009Y-132341904D01*
X47556009Y-132341904D02*
X47603628Y-132437142D01*
X47603628Y-132437142D02*
X47603628Y-132818094D01*
X47079819Y-131389523D02*
X47079819Y-131579999D01*
X47079819Y-131579999D02*
X47127438Y-131675237D01*
X47127438Y-131675237D02*
X47175057Y-131722856D01*
X47175057Y-131722856D02*
X47317914Y-131818094D01*
X47317914Y-131818094D02*
X47508390Y-131865713D01*
X47508390Y-131865713D02*
X47889342Y-131865713D01*
X47889342Y-131865713D02*
X47984580Y-131818094D01*
X47984580Y-131818094D02*
X48032200Y-131770475D01*
X48032200Y-131770475D02*
X48079819Y-131675237D01*
X48079819Y-131675237D02*
X48079819Y-131484761D01*
X48079819Y-131484761D02*
X48032200Y-131389523D01*
X48032200Y-131389523D02*
X47984580Y-131341904D01*
X47984580Y-131341904D02*
X47889342Y-131294285D01*
X47889342Y-131294285D02*
X47651247Y-131294285D01*
X47651247Y-131294285D02*
X47556009Y-131341904D01*
X47556009Y-131341904D02*
X47508390Y-131389523D01*
X47508390Y-131389523D02*
X47460771Y-131484761D01*
X47460771Y-131484761D02*
X47460771Y-131675237D01*
X47460771Y-131675237D02*
X47508390Y-131770475D01*
X47508390Y-131770475D02*
X47556009Y-131818094D01*
X47556009Y-131818094D02*
X47651247Y-131865713D01*
X42441905Y-74749819D02*
X42441905Y-73749819D01*
X42441905Y-73749819D02*
X42680000Y-73749819D01*
X42680000Y-73749819D02*
X42822857Y-73797438D01*
X42822857Y-73797438D02*
X42918095Y-73892676D01*
X42918095Y-73892676D02*
X42965714Y-73987914D01*
X42965714Y-73987914D02*
X43013333Y-74178390D01*
X43013333Y-74178390D02*
X43013333Y-74321247D01*
X43013333Y-74321247D02*
X42965714Y-74511723D01*
X42965714Y-74511723D02*
X42918095Y-74606961D01*
X42918095Y-74606961D02*
X42822857Y-74702200D01*
X42822857Y-74702200D02*
X42680000Y-74749819D01*
X42680000Y-74749819D02*
X42441905Y-74749819D01*
X43965714Y-74749819D02*
X43394286Y-74749819D01*
X43680000Y-74749819D02*
X43680000Y-73749819D01*
X43680000Y-73749819D02*
X43584762Y-73892676D01*
X43584762Y-73892676D02*
X43489524Y-73987914D01*
X43489524Y-73987914D02*
X43394286Y-74035533D01*
X46728095Y-76549819D02*
X46728095Y-75549819D01*
X47299523Y-76549819D02*
X46870952Y-75978390D01*
X47299523Y-75549819D02*
X46728095Y-76121247D01*
X60779819Y-132722857D02*
X60303628Y-133056190D01*
X60779819Y-133294285D02*
X59779819Y-133294285D01*
X59779819Y-133294285D02*
X59779819Y-132913333D01*
X59779819Y-132913333D02*
X59827438Y-132818095D01*
X59827438Y-132818095D02*
X59875057Y-132770476D01*
X59875057Y-132770476D02*
X59970295Y-132722857D01*
X59970295Y-132722857D02*
X60113152Y-132722857D01*
X60113152Y-132722857D02*
X60208390Y-132770476D01*
X60208390Y-132770476D02*
X60256009Y-132818095D01*
X60256009Y-132818095D02*
X60303628Y-132913333D01*
X60303628Y-132913333D02*
X60303628Y-133294285D01*
X60779819Y-131770476D02*
X60779819Y-132341904D01*
X60779819Y-132056190D02*
X59779819Y-132056190D01*
X59779819Y-132056190D02*
X59922676Y-132151428D01*
X59922676Y-132151428D02*
X60017914Y-132246666D01*
X60017914Y-132246666D02*
X60065533Y-132341904D01*
X60779819Y-131294285D02*
X60779819Y-131103809D01*
X60779819Y-131103809D02*
X60732200Y-131008571D01*
X60732200Y-131008571D02*
X60684580Y-130960952D01*
X60684580Y-130960952D02*
X60541723Y-130865714D01*
X60541723Y-130865714D02*
X60351247Y-130818095D01*
X60351247Y-130818095D02*
X59970295Y-130818095D01*
X59970295Y-130818095D02*
X59875057Y-130865714D01*
X59875057Y-130865714D02*
X59827438Y-130913333D01*
X59827438Y-130913333D02*
X59779819Y-131008571D01*
X59779819Y-131008571D02*
X59779819Y-131199047D01*
X59779819Y-131199047D02*
X59827438Y-131294285D01*
X59827438Y-131294285D02*
X59875057Y-131341904D01*
X59875057Y-131341904D02*
X59970295Y-131389523D01*
X59970295Y-131389523D02*
X60208390Y-131389523D01*
X60208390Y-131389523D02*
X60303628Y-131341904D01*
X60303628Y-131341904D02*
X60351247Y-131294285D01*
X60351247Y-131294285D02*
X60398866Y-131199047D01*
X60398866Y-131199047D02*
X60398866Y-131008571D01*
X60398866Y-131008571D02*
X60351247Y-130913333D01*
X60351247Y-130913333D02*
X60303628Y-130865714D01*
X60303628Y-130865714D02*
X60208390Y-130818095D01*
X56419761Y-105960057D02*
X56324523Y-105912438D01*
X56324523Y-105912438D02*
X56229285Y-105817200D01*
X56229285Y-105817200D02*
X56086428Y-105674342D01*
X56086428Y-105674342D02*
X55991190Y-105626723D01*
X55991190Y-105626723D02*
X55895952Y-105626723D01*
X55943571Y-105864819D02*
X55848333Y-105817200D01*
X55848333Y-105817200D02*
X55753095Y-105721961D01*
X55753095Y-105721961D02*
X55705476Y-105531485D01*
X55705476Y-105531485D02*
X55705476Y-105198152D01*
X55705476Y-105198152D02*
X55753095Y-105007676D01*
X55753095Y-105007676D02*
X55848333Y-104912438D01*
X55848333Y-104912438D02*
X55943571Y-104864819D01*
X55943571Y-104864819D02*
X56134047Y-104864819D01*
X56134047Y-104864819D02*
X56229285Y-104912438D01*
X56229285Y-104912438D02*
X56324523Y-105007676D01*
X56324523Y-105007676D02*
X56372142Y-105198152D01*
X56372142Y-105198152D02*
X56372142Y-105531485D01*
X56372142Y-105531485D02*
X56324523Y-105721961D01*
X56324523Y-105721961D02*
X56229285Y-105817200D01*
X56229285Y-105817200D02*
X56134047Y-105864819D01*
X56134047Y-105864819D02*
X55943571Y-105864819D01*
X57229285Y-105198152D02*
X57229285Y-105864819D01*
X56991190Y-104817200D02*
X56753095Y-105531485D01*
X56753095Y-105531485D02*
X57372142Y-105531485D01*
X55064819Y-40647857D02*
X54588628Y-40981190D01*
X55064819Y-41219285D02*
X54064819Y-41219285D01*
X54064819Y-41219285D02*
X54064819Y-40838333D01*
X54064819Y-40838333D02*
X54112438Y-40743095D01*
X54112438Y-40743095D02*
X54160057Y-40695476D01*
X54160057Y-40695476D02*
X54255295Y-40647857D01*
X54255295Y-40647857D02*
X54398152Y-40647857D01*
X54398152Y-40647857D02*
X54493390Y-40695476D01*
X54493390Y-40695476D02*
X54541009Y-40743095D01*
X54541009Y-40743095D02*
X54588628Y-40838333D01*
X54588628Y-40838333D02*
X54588628Y-41219285D01*
X54064819Y-40314523D02*
X54064819Y-39695476D01*
X54064819Y-39695476D02*
X54445771Y-40028809D01*
X54445771Y-40028809D02*
X54445771Y-39885952D01*
X54445771Y-39885952D02*
X54493390Y-39790714D01*
X54493390Y-39790714D02*
X54541009Y-39743095D01*
X54541009Y-39743095D02*
X54636247Y-39695476D01*
X54636247Y-39695476D02*
X54874342Y-39695476D01*
X54874342Y-39695476D02*
X54969580Y-39743095D01*
X54969580Y-39743095D02*
X55017200Y-39790714D01*
X55017200Y-39790714D02*
X55064819Y-39885952D01*
X55064819Y-39885952D02*
X55064819Y-40171666D01*
X55064819Y-40171666D02*
X55017200Y-40266904D01*
X55017200Y-40266904D02*
X54969580Y-40314523D01*
X54160057Y-39314523D02*
X54112438Y-39266904D01*
X54112438Y-39266904D02*
X54064819Y-39171666D01*
X54064819Y-39171666D02*
X54064819Y-38933571D01*
X54064819Y-38933571D02*
X54112438Y-38838333D01*
X54112438Y-38838333D02*
X54160057Y-38790714D01*
X54160057Y-38790714D02*
X54255295Y-38743095D01*
X54255295Y-38743095D02*
X54350533Y-38743095D01*
X54350533Y-38743095D02*
X54493390Y-38790714D01*
X54493390Y-38790714D02*
X55064819Y-39362142D01*
X55064819Y-39362142D02*
X55064819Y-38743095D01*
X45539819Y-132246666D02*
X45063628Y-132579999D01*
X45539819Y-132818094D02*
X44539819Y-132818094D01*
X44539819Y-132818094D02*
X44539819Y-132437142D01*
X44539819Y-132437142D02*
X44587438Y-132341904D01*
X44587438Y-132341904D02*
X44635057Y-132294285D01*
X44635057Y-132294285D02*
X44730295Y-132246666D01*
X44730295Y-132246666D02*
X44873152Y-132246666D01*
X44873152Y-132246666D02*
X44968390Y-132294285D01*
X44968390Y-132294285D02*
X45016009Y-132341904D01*
X45016009Y-132341904D02*
X45063628Y-132437142D01*
X45063628Y-132437142D02*
X45063628Y-132818094D01*
X44539819Y-131341904D02*
X44539819Y-131818094D01*
X44539819Y-131818094D02*
X45016009Y-131865713D01*
X45016009Y-131865713D02*
X44968390Y-131818094D01*
X44968390Y-131818094D02*
X44920771Y-131722856D01*
X44920771Y-131722856D02*
X44920771Y-131484761D01*
X44920771Y-131484761D02*
X44968390Y-131389523D01*
X44968390Y-131389523D02*
X45016009Y-131341904D01*
X45016009Y-131341904D02*
X45111247Y-131294285D01*
X45111247Y-131294285D02*
X45349342Y-131294285D01*
X45349342Y-131294285D02*
X45444580Y-131341904D01*
X45444580Y-131341904D02*
X45492200Y-131389523D01*
X45492200Y-131389523D02*
X45539819Y-131484761D01*
X45539819Y-131484761D02*
X45539819Y-131722856D01*
X45539819Y-131722856D02*
X45492200Y-131818094D01*
X45492200Y-131818094D02*
X45444580Y-131865713D01*
X43013333Y-59414580D02*
X42965714Y-59462200D01*
X42965714Y-59462200D02*
X42822857Y-59509819D01*
X42822857Y-59509819D02*
X42727619Y-59509819D01*
X42727619Y-59509819D02*
X42584762Y-59462200D01*
X42584762Y-59462200D02*
X42489524Y-59366961D01*
X42489524Y-59366961D02*
X42441905Y-59271723D01*
X42441905Y-59271723D02*
X42394286Y-59081247D01*
X42394286Y-59081247D02*
X42394286Y-58938390D01*
X42394286Y-58938390D02*
X42441905Y-58747914D01*
X42441905Y-58747914D02*
X42489524Y-58652676D01*
X42489524Y-58652676D02*
X42584762Y-58557438D01*
X42584762Y-58557438D02*
X42727619Y-58509819D01*
X42727619Y-58509819D02*
X42822857Y-58509819D01*
X42822857Y-58509819D02*
X42965714Y-58557438D01*
X42965714Y-58557438D02*
X43013333Y-58605057D01*
X43918095Y-58509819D02*
X43441905Y-58509819D01*
X43441905Y-58509819D02*
X43394286Y-58986009D01*
X43394286Y-58986009D02*
X43441905Y-58938390D01*
X43441905Y-58938390D02*
X43537143Y-58890771D01*
X43537143Y-58890771D02*
X43775238Y-58890771D01*
X43775238Y-58890771D02*
X43870476Y-58938390D01*
X43870476Y-58938390D02*
X43918095Y-58986009D01*
X43918095Y-58986009D02*
X43965714Y-59081247D01*
X43965714Y-59081247D02*
X43965714Y-59319342D01*
X43965714Y-59319342D02*
X43918095Y-59414580D01*
X43918095Y-59414580D02*
X43870476Y-59462200D01*
X43870476Y-59462200D02*
X43775238Y-59509819D01*
X43775238Y-59509819D02*
X43537143Y-59509819D01*
X43537143Y-59509819D02*
X43441905Y-59462200D01*
X43441905Y-59462200D02*
X43394286Y-59414580D01*
X42999819Y-102242857D02*
X42523628Y-102576190D01*
X42999819Y-102814285D02*
X41999819Y-102814285D01*
X41999819Y-102814285D02*
X41999819Y-102433333D01*
X41999819Y-102433333D02*
X42047438Y-102338095D01*
X42047438Y-102338095D02*
X42095057Y-102290476D01*
X42095057Y-102290476D02*
X42190295Y-102242857D01*
X42190295Y-102242857D02*
X42333152Y-102242857D01*
X42333152Y-102242857D02*
X42428390Y-102290476D01*
X42428390Y-102290476D02*
X42476009Y-102338095D01*
X42476009Y-102338095D02*
X42523628Y-102433333D01*
X42523628Y-102433333D02*
X42523628Y-102814285D01*
X42999819Y-101290476D02*
X42999819Y-101861904D01*
X42999819Y-101576190D02*
X41999819Y-101576190D01*
X41999819Y-101576190D02*
X42142676Y-101671428D01*
X42142676Y-101671428D02*
X42237914Y-101766666D01*
X42237914Y-101766666D02*
X42285533Y-101861904D01*
X41999819Y-100957142D02*
X41999819Y-100338095D01*
X41999819Y-100338095D02*
X42380771Y-100671428D01*
X42380771Y-100671428D02*
X42380771Y-100528571D01*
X42380771Y-100528571D02*
X42428390Y-100433333D01*
X42428390Y-100433333D02*
X42476009Y-100385714D01*
X42476009Y-100385714D02*
X42571247Y-100338095D01*
X42571247Y-100338095D02*
X42809342Y-100338095D01*
X42809342Y-100338095D02*
X42904580Y-100385714D01*
X42904580Y-100385714D02*
X42952200Y-100433333D01*
X42952200Y-100433333D02*
X42999819Y-100528571D01*
X42999819Y-100528571D02*
X42999819Y-100814285D01*
X42999819Y-100814285D02*
X42952200Y-100909523D01*
X42952200Y-100909523D02*
X42904580Y-100957142D01*
X45539819Y-122086666D02*
X45063628Y-122419999D01*
X45539819Y-122658094D02*
X44539819Y-122658094D01*
X44539819Y-122658094D02*
X44539819Y-122277142D01*
X44539819Y-122277142D02*
X44587438Y-122181904D01*
X44587438Y-122181904D02*
X44635057Y-122134285D01*
X44635057Y-122134285D02*
X44730295Y-122086666D01*
X44730295Y-122086666D02*
X44873152Y-122086666D01*
X44873152Y-122086666D02*
X44968390Y-122134285D01*
X44968390Y-122134285D02*
X45016009Y-122181904D01*
X45016009Y-122181904D02*
X45063628Y-122277142D01*
X45063628Y-122277142D02*
X45063628Y-122658094D01*
X44968390Y-121515237D02*
X44920771Y-121610475D01*
X44920771Y-121610475D02*
X44873152Y-121658094D01*
X44873152Y-121658094D02*
X44777914Y-121705713D01*
X44777914Y-121705713D02*
X44730295Y-121705713D01*
X44730295Y-121705713D02*
X44635057Y-121658094D01*
X44635057Y-121658094D02*
X44587438Y-121610475D01*
X44587438Y-121610475D02*
X44539819Y-121515237D01*
X44539819Y-121515237D02*
X44539819Y-121324761D01*
X44539819Y-121324761D02*
X44587438Y-121229523D01*
X44587438Y-121229523D02*
X44635057Y-121181904D01*
X44635057Y-121181904D02*
X44730295Y-121134285D01*
X44730295Y-121134285D02*
X44777914Y-121134285D01*
X44777914Y-121134285D02*
X44873152Y-121181904D01*
X44873152Y-121181904D02*
X44920771Y-121229523D01*
X44920771Y-121229523D02*
X44968390Y-121324761D01*
X44968390Y-121324761D02*
X44968390Y-121515237D01*
X44968390Y-121515237D02*
X45016009Y-121610475D01*
X45016009Y-121610475D02*
X45063628Y-121658094D01*
X45063628Y-121658094D02*
X45158866Y-121705713D01*
X45158866Y-121705713D02*
X45349342Y-121705713D01*
X45349342Y-121705713D02*
X45444580Y-121658094D01*
X45444580Y-121658094D02*
X45492200Y-121610475D01*
X45492200Y-121610475D02*
X45539819Y-121515237D01*
X45539819Y-121515237D02*
X45539819Y-121324761D01*
X45539819Y-121324761D02*
X45492200Y-121229523D01*
X45492200Y-121229523D02*
X45444580Y-121181904D01*
X45444580Y-121181904D02*
X45349342Y-121134285D01*
X45349342Y-121134285D02*
X45158866Y-121134285D01*
X45158866Y-121134285D02*
X45063628Y-121181904D01*
X45063628Y-121181904D02*
X45016009Y-121229523D01*
X45016009Y-121229523D02*
X44968390Y-121324761D01*
X53159819Y-122562857D02*
X52683628Y-122896190D01*
X53159819Y-123134285D02*
X52159819Y-123134285D01*
X52159819Y-123134285D02*
X52159819Y-122753333D01*
X52159819Y-122753333D02*
X52207438Y-122658095D01*
X52207438Y-122658095D02*
X52255057Y-122610476D01*
X52255057Y-122610476D02*
X52350295Y-122562857D01*
X52350295Y-122562857D02*
X52493152Y-122562857D01*
X52493152Y-122562857D02*
X52588390Y-122610476D01*
X52588390Y-122610476D02*
X52636009Y-122658095D01*
X52636009Y-122658095D02*
X52683628Y-122753333D01*
X52683628Y-122753333D02*
X52683628Y-123134285D01*
X52255057Y-122181904D02*
X52207438Y-122134285D01*
X52207438Y-122134285D02*
X52159819Y-122039047D01*
X52159819Y-122039047D02*
X52159819Y-121800952D01*
X52159819Y-121800952D02*
X52207438Y-121705714D01*
X52207438Y-121705714D02*
X52255057Y-121658095D01*
X52255057Y-121658095D02*
X52350295Y-121610476D01*
X52350295Y-121610476D02*
X52445533Y-121610476D01*
X52445533Y-121610476D02*
X52588390Y-121658095D01*
X52588390Y-121658095D02*
X53159819Y-122229523D01*
X53159819Y-122229523D02*
X53159819Y-121610476D01*
X53159819Y-120658095D02*
X53159819Y-121229523D01*
X53159819Y-120943809D02*
X52159819Y-120943809D01*
X52159819Y-120943809D02*
X52302676Y-121039047D01*
X52302676Y-121039047D02*
X52397914Y-121134285D01*
X52397914Y-121134285D02*
X52445533Y-121229523D01*
X50619819Y-122562857D02*
X50143628Y-122896190D01*
X50619819Y-123134285D02*
X49619819Y-123134285D01*
X49619819Y-123134285D02*
X49619819Y-122753333D01*
X49619819Y-122753333D02*
X49667438Y-122658095D01*
X49667438Y-122658095D02*
X49715057Y-122610476D01*
X49715057Y-122610476D02*
X49810295Y-122562857D01*
X49810295Y-122562857D02*
X49953152Y-122562857D01*
X49953152Y-122562857D02*
X50048390Y-122610476D01*
X50048390Y-122610476D02*
X50096009Y-122658095D01*
X50096009Y-122658095D02*
X50143628Y-122753333D01*
X50143628Y-122753333D02*
X50143628Y-123134285D01*
X49715057Y-122181904D02*
X49667438Y-122134285D01*
X49667438Y-122134285D02*
X49619819Y-122039047D01*
X49619819Y-122039047D02*
X49619819Y-121800952D01*
X49619819Y-121800952D02*
X49667438Y-121705714D01*
X49667438Y-121705714D02*
X49715057Y-121658095D01*
X49715057Y-121658095D02*
X49810295Y-121610476D01*
X49810295Y-121610476D02*
X49905533Y-121610476D01*
X49905533Y-121610476D02*
X50048390Y-121658095D01*
X50048390Y-121658095D02*
X50619819Y-122229523D01*
X50619819Y-122229523D02*
X50619819Y-121610476D01*
X49619819Y-120991428D02*
X49619819Y-120896190D01*
X49619819Y-120896190D02*
X49667438Y-120800952D01*
X49667438Y-120800952D02*
X49715057Y-120753333D01*
X49715057Y-120753333D02*
X49810295Y-120705714D01*
X49810295Y-120705714D02*
X50000771Y-120658095D01*
X50000771Y-120658095D02*
X50238866Y-120658095D01*
X50238866Y-120658095D02*
X50429342Y-120705714D01*
X50429342Y-120705714D02*
X50524580Y-120753333D01*
X50524580Y-120753333D02*
X50572200Y-120800952D01*
X50572200Y-120800952D02*
X50619819Y-120896190D01*
X50619819Y-120896190D02*
X50619819Y-120991428D01*
X50619819Y-120991428D02*
X50572200Y-121086666D01*
X50572200Y-121086666D02*
X50524580Y-121134285D01*
X50524580Y-121134285D02*
X50429342Y-121181904D01*
X50429342Y-121181904D02*
X50238866Y-121229523D01*
X50238866Y-121229523D02*
X50000771Y-121229523D01*
X50000771Y-121229523D02*
X49810295Y-121181904D01*
X49810295Y-121181904D02*
X49715057Y-121134285D01*
X49715057Y-121134285D02*
X49667438Y-121086666D01*
X49667438Y-121086666D02*
X49619819Y-120991428D01*
X53159819Y-102242857D02*
X52683628Y-102576190D01*
X53159819Y-102814285D02*
X52159819Y-102814285D01*
X52159819Y-102814285D02*
X52159819Y-102433333D01*
X52159819Y-102433333D02*
X52207438Y-102338095D01*
X52207438Y-102338095D02*
X52255057Y-102290476D01*
X52255057Y-102290476D02*
X52350295Y-102242857D01*
X52350295Y-102242857D02*
X52493152Y-102242857D01*
X52493152Y-102242857D02*
X52588390Y-102290476D01*
X52588390Y-102290476D02*
X52636009Y-102338095D01*
X52636009Y-102338095D02*
X52683628Y-102433333D01*
X52683628Y-102433333D02*
X52683628Y-102814285D01*
X52255057Y-101861904D02*
X52207438Y-101814285D01*
X52207438Y-101814285D02*
X52159819Y-101719047D01*
X52159819Y-101719047D02*
X52159819Y-101480952D01*
X52159819Y-101480952D02*
X52207438Y-101385714D01*
X52207438Y-101385714D02*
X52255057Y-101338095D01*
X52255057Y-101338095D02*
X52350295Y-101290476D01*
X52350295Y-101290476D02*
X52445533Y-101290476D01*
X52445533Y-101290476D02*
X52588390Y-101338095D01*
X52588390Y-101338095D02*
X53159819Y-101909523D01*
X53159819Y-101909523D02*
X53159819Y-101290476D01*
X53159819Y-100814285D02*
X53159819Y-100623809D01*
X53159819Y-100623809D02*
X53112200Y-100528571D01*
X53112200Y-100528571D02*
X53064580Y-100480952D01*
X53064580Y-100480952D02*
X52921723Y-100385714D01*
X52921723Y-100385714D02*
X52731247Y-100338095D01*
X52731247Y-100338095D02*
X52350295Y-100338095D01*
X52350295Y-100338095D02*
X52255057Y-100385714D01*
X52255057Y-100385714D02*
X52207438Y-100433333D01*
X52207438Y-100433333D02*
X52159819Y-100528571D01*
X52159819Y-100528571D02*
X52159819Y-100719047D01*
X52159819Y-100719047D02*
X52207438Y-100814285D01*
X52207438Y-100814285D02*
X52255057Y-100861904D01*
X52255057Y-100861904D02*
X52350295Y-100909523D01*
X52350295Y-100909523D02*
X52588390Y-100909523D01*
X52588390Y-100909523D02*
X52683628Y-100861904D01*
X52683628Y-100861904D02*
X52731247Y-100814285D01*
X52731247Y-100814285D02*
X52778866Y-100719047D01*
X52778866Y-100719047D02*
X52778866Y-100528571D01*
X52778866Y-100528571D02*
X52731247Y-100433333D01*
X52731247Y-100433333D02*
X52683628Y-100385714D01*
X52683628Y-100385714D02*
X52588390Y-100338095D01*
X51254819Y-50331666D02*
X50778628Y-50664999D01*
X51254819Y-50903094D02*
X50254819Y-50903094D01*
X50254819Y-50903094D02*
X50254819Y-50522142D01*
X50254819Y-50522142D02*
X50302438Y-50426904D01*
X50302438Y-50426904D02*
X50350057Y-50379285D01*
X50350057Y-50379285D02*
X50445295Y-50331666D01*
X50445295Y-50331666D02*
X50588152Y-50331666D01*
X50588152Y-50331666D02*
X50683390Y-50379285D01*
X50683390Y-50379285D02*
X50731009Y-50426904D01*
X50731009Y-50426904D02*
X50778628Y-50522142D01*
X50778628Y-50522142D02*
X50778628Y-50903094D01*
X50254819Y-49998332D02*
X50254819Y-49379285D01*
X50254819Y-49379285D02*
X50635771Y-49712618D01*
X50635771Y-49712618D02*
X50635771Y-49569761D01*
X50635771Y-49569761D02*
X50683390Y-49474523D01*
X50683390Y-49474523D02*
X50731009Y-49426904D01*
X50731009Y-49426904D02*
X50826247Y-49379285D01*
X50826247Y-49379285D02*
X51064342Y-49379285D01*
X51064342Y-49379285D02*
X51159580Y-49426904D01*
X51159580Y-49426904D02*
X51207200Y-49474523D01*
X51207200Y-49474523D02*
X51254819Y-49569761D01*
X51254819Y-49569761D02*
X51254819Y-49855475D01*
X51254819Y-49855475D02*
X51207200Y-49950713D01*
X51207200Y-49950713D02*
X51159580Y-49998332D01*
X50619819Y-132722857D02*
X50143628Y-133056190D01*
X50619819Y-133294285D02*
X49619819Y-133294285D01*
X49619819Y-133294285D02*
X49619819Y-132913333D01*
X49619819Y-132913333D02*
X49667438Y-132818095D01*
X49667438Y-132818095D02*
X49715057Y-132770476D01*
X49715057Y-132770476D02*
X49810295Y-132722857D01*
X49810295Y-132722857D02*
X49953152Y-132722857D01*
X49953152Y-132722857D02*
X50048390Y-132770476D01*
X50048390Y-132770476D02*
X50096009Y-132818095D01*
X50096009Y-132818095D02*
X50143628Y-132913333D01*
X50143628Y-132913333D02*
X50143628Y-133294285D01*
X50619819Y-131770476D02*
X50619819Y-132341904D01*
X50619819Y-132056190D02*
X49619819Y-132056190D01*
X49619819Y-132056190D02*
X49762676Y-132151428D01*
X49762676Y-132151428D02*
X49857914Y-132246666D01*
X49857914Y-132246666D02*
X49905533Y-132341904D01*
X49619819Y-130913333D02*
X49619819Y-131103809D01*
X49619819Y-131103809D02*
X49667438Y-131199047D01*
X49667438Y-131199047D02*
X49715057Y-131246666D01*
X49715057Y-131246666D02*
X49857914Y-131341904D01*
X49857914Y-131341904D02*
X50048390Y-131389523D01*
X50048390Y-131389523D02*
X50429342Y-131389523D01*
X50429342Y-131389523D02*
X50524580Y-131341904D01*
X50524580Y-131341904D02*
X50572200Y-131294285D01*
X50572200Y-131294285D02*
X50619819Y-131199047D01*
X50619819Y-131199047D02*
X50619819Y-131008571D01*
X50619819Y-131008571D02*
X50572200Y-130913333D01*
X50572200Y-130913333D02*
X50524580Y-130865714D01*
X50524580Y-130865714D02*
X50429342Y-130818095D01*
X50429342Y-130818095D02*
X50191247Y-130818095D01*
X50191247Y-130818095D02*
X50096009Y-130865714D01*
X50096009Y-130865714D02*
X50048390Y-130913333D01*
X50048390Y-130913333D02*
X50000771Y-131008571D01*
X50000771Y-131008571D02*
X50000771Y-131199047D01*
X50000771Y-131199047D02*
X50048390Y-131294285D01*
X50048390Y-131294285D02*
X50096009Y-131341904D01*
X50096009Y-131341904D02*
X50191247Y-131389523D01*
X63319819Y-122562857D02*
X62843628Y-122896190D01*
X63319819Y-123134285D02*
X62319819Y-123134285D01*
X62319819Y-123134285D02*
X62319819Y-122753333D01*
X62319819Y-122753333D02*
X62367438Y-122658095D01*
X62367438Y-122658095D02*
X62415057Y-122610476D01*
X62415057Y-122610476D02*
X62510295Y-122562857D01*
X62510295Y-122562857D02*
X62653152Y-122562857D01*
X62653152Y-122562857D02*
X62748390Y-122610476D01*
X62748390Y-122610476D02*
X62796009Y-122658095D01*
X62796009Y-122658095D02*
X62843628Y-122753333D01*
X62843628Y-122753333D02*
X62843628Y-123134285D01*
X62415057Y-122181904D02*
X62367438Y-122134285D01*
X62367438Y-122134285D02*
X62319819Y-122039047D01*
X62319819Y-122039047D02*
X62319819Y-121800952D01*
X62319819Y-121800952D02*
X62367438Y-121705714D01*
X62367438Y-121705714D02*
X62415057Y-121658095D01*
X62415057Y-121658095D02*
X62510295Y-121610476D01*
X62510295Y-121610476D02*
X62605533Y-121610476D01*
X62605533Y-121610476D02*
X62748390Y-121658095D01*
X62748390Y-121658095D02*
X63319819Y-122229523D01*
X63319819Y-122229523D02*
X63319819Y-121610476D01*
X62415057Y-121229523D02*
X62367438Y-121181904D01*
X62367438Y-121181904D02*
X62319819Y-121086666D01*
X62319819Y-121086666D02*
X62319819Y-120848571D01*
X62319819Y-120848571D02*
X62367438Y-120753333D01*
X62367438Y-120753333D02*
X62415057Y-120705714D01*
X62415057Y-120705714D02*
X62510295Y-120658095D01*
X62510295Y-120658095D02*
X62605533Y-120658095D01*
X62605533Y-120658095D02*
X62748390Y-120705714D01*
X62748390Y-120705714D02*
X63319819Y-121277142D01*
X63319819Y-121277142D02*
X63319819Y-120658095D01*
D12*
X60245000Y-76100000D02*
X60245000Y-76415000D01*
X60245000Y-76100000D02*
X65485000Y-76100000D01*
X60245000Y-78525000D02*
X60245000Y-78840000D01*
X60245000Y-78840000D02*
X65485000Y-78840000D01*
X65485000Y-76100000D02*
X65485000Y-76415000D01*
X65485000Y-78525000D02*
X65485000Y-78840000D01*
X61495000Y-128810000D02*
X61825000Y-128810000D01*
X61495000Y-135350000D02*
X61495000Y-128810000D01*
X61825000Y-135350000D02*
X61495000Y-135350000D01*
X63905000Y-135350000D02*
X64235000Y-135350000D01*
X64235000Y-128810000D02*
X63905000Y-128810000D01*
X64235000Y-135350000D02*
X64235000Y-128810000D01*
X48895000Y-98330000D02*
X49225000Y-98330000D01*
X48895000Y-104870000D02*
X48895000Y-98330000D01*
X49225000Y-104870000D02*
X48895000Y-104870000D01*
X51105000Y-104870000D02*
X51435000Y-104870000D01*
X51435000Y-98330000D02*
X51105000Y-98330000D01*
X51435000Y-104870000D02*
X51435000Y-98330000D01*
X49245000Y-61621000D02*
X49245000Y-62879000D01*
X51085000Y-61621000D02*
X51085000Y-62879000D01*
X43715000Y-108490000D02*
X44045000Y-108490000D01*
X43715000Y-115030000D02*
X43715000Y-108490000D01*
X44045000Y-115030000D02*
X43715000Y-115030000D01*
X46125000Y-115030000D02*
X46455000Y-115030000D01*
X46455000Y-108490000D02*
X46125000Y-108490000D01*
X46455000Y-115030000D02*
X46455000Y-108490000D01*
X38050000Y-34815000D02*
X38050000Y-45215000D01*
X38050000Y-45215000D02*
X48330000Y-45215000D01*
X40540000Y-34875000D02*
X40540000Y-45155000D01*
X40540000Y-45155000D02*
X45840000Y-45155000D01*
X42190000Y-34875000D02*
X40540000Y-34875000D01*
X45840000Y-34875000D02*
X44190000Y-34875000D01*
X45840000Y-45155000D02*
X45840000Y-34875000D01*
X48330000Y-34815000D02*
X38050000Y-34815000D01*
X48330000Y-45215000D02*
X48330000Y-34815000D01*
X44190000Y-34875000D02*
G75*
G02*
X42190000Y-34875000I-1000000J0D01*
G01*
X38020000Y-47525000D02*
X38020000Y-57925000D01*
X38020000Y-57925000D02*
X48300000Y-57925000D01*
X40510000Y-47585000D02*
X40510000Y-57865000D01*
X40510000Y-57865000D02*
X42160000Y-57865000D01*
X44160000Y-57865000D02*
X45810000Y-57865000D01*
X45810000Y-47585000D02*
X40510000Y-47585000D01*
X45810000Y-57865000D02*
X45810000Y-47585000D01*
X48300000Y-47525000D02*
X38020000Y-47525000D01*
X48300000Y-57925000D02*
X48300000Y-47525000D01*
X42160000Y-57865000D02*
G75*
G02*
X44160000Y-57865000I1000000J0D01*
G01*
X42485000Y-31690000D02*
X43815000Y-31690000D01*
X42485000Y-33020000D02*
X42485000Y-31690000D01*
X45085000Y-31690000D02*
X62925000Y-31690000D01*
X45085000Y-34350000D02*
X45085000Y-31690000D01*
X45085000Y-34350000D02*
X62925000Y-34350000D01*
X62925000Y-34350000D02*
X62925000Y-31690000D01*
X53240000Y-46895000D02*
X53240000Y-53435000D01*
X53240000Y-53435000D02*
X53570000Y-53435000D01*
X53570000Y-46895000D02*
X53240000Y-46895000D01*
X55650000Y-46895000D02*
X55980000Y-46895000D01*
X55980000Y-46895000D02*
X55980000Y-53435000D01*
X55980000Y-53435000D02*
X55650000Y-53435000D01*
X61495000Y-98330000D02*
X61825000Y-98330000D01*
X61495000Y-104870000D02*
X61495000Y-98330000D01*
X61825000Y-104870000D02*
X61495000Y-104870000D01*
X63905000Y-104870000D02*
X64235000Y-104870000D01*
X64235000Y-98330000D02*
X63905000Y-98330000D01*
X64235000Y-104870000D02*
X64235000Y-98330000D01*
X49245000Y-67959000D02*
X49245000Y-66701000D01*
X51085000Y-67959000D02*
X51085000Y-66701000D01*
X58955000Y-98330000D02*
X58955000Y-104870000D01*
X58955000Y-104870000D02*
X59285000Y-104870000D01*
X59285000Y-98330000D02*
X58955000Y-98330000D01*
X61365000Y-98330000D02*
X61695000Y-98330000D01*
X61695000Y-98330000D02*
X61695000Y-104870000D01*
X61695000Y-104870000D02*
X61365000Y-104870000D01*
X39885000Y-85665000D02*
X39885000Y-95945000D01*
X39885000Y-95945000D02*
X57905000Y-95945000D01*
X39945000Y-88155000D02*
X39945000Y-89805000D01*
X39945000Y-91805000D02*
X39945000Y-93455000D01*
X39945000Y-93455000D02*
X57845000Y-93455000D01*
X57845000Y-88155000D02*
X39945000Y-88155000D01*
X57845000Y-93455000D02*
X57845000Y-88155000D01*
X57905000Y-85665000D02*
X39885000Y-85665000D01*
X57905000Y-95945000D02*
X57905000Y-85665000D01*
X39945000Y-89805000D02*
G75*
G02*
X39945000Y-91805000I0J-1000000D01*
G01*
X51335000Y-108490000D02*
X51335000Y-115030000D01*
X51335000Y-115030000D02*
X51665000Y-115030000D01*
X51665000Y-108490000D02*
X51335000Y-108490000D01*
X53745000Y-108490000D02*
X54075000Y-108490000D01*
X54075000Y-108490000D02*
X54075000Y-115030000D01*
X54075000Y-115030000D02*
X53745000Y-115030000D01*
X48795000Y-108490000D02*
X49125000Y-108490000D01*
X48795000Y-115030000D02*
X48795000Y-108490000D01*
X49125000Y-115030000D02*
X48795000Y-115030000D01*
X51205000Y-115030000D02*
X51535000Y-115030000D01*
X51535000Y-108490000D02*
X51205000Y-108490000D01*
X51535000Y-115030000D02*
X51535000Y-108490000D01*
X41175000Y-108490000D02*
X41175000Y-115030000D01*
X41175000Y-115030000D02*
X41505000Y-115030000D01*
X41505000Y-108490000D02*
X41175000Y-108490000D01*
X43585000Y-108490000D02*
X43915000Y-108490000D01*
X43915000Y-108490000D02*
X43915000Y-115030000D01*
X43915000Y-115030000D02*
X43585000Y-115030000D01*
X43715000Y-98330000D02*
X44045000Y-98330000D01*
X43715000Y-104870000D02*
X43715000Y-98330000D01*
X44045000Y-104870000D02*
X43715000Y-104870000D01*
X46125000Y-104870000D02*
X46455000Y-104870000D01*
X46455000Y-98330000D02*
X46125000Y-98330000D01*
X46455000Y-104870000D02*
X46455000Y-98330000D01*
X58320000Y-88185000D02*
X58320000Y-93425000D01*
X58635000Y-88185000D02*
X58320000Y-88185000D01*
X58635000Y-93425000D02*
X58320000Y-93425000D01*
X61060000Y-88185000D02*
X60745000Y-88185000D01*
X61060000Y-88185000D02*
X61060000Y-93425000D01*
X61060000Y-93425000D02*
X60745000Y-93425000D01*
X51335000Y-128810000D02*
X51335000Y-135350000D01*
X51335000Y-135350000D02*
X51665000Y-135350000D01*
X51665000Y-128810000D02*
X51335000Y-128810000D01*
X53745000Y-128810000D02*
X54075000Y-128810000D01*
X54075000Y-128810000D02*
X54075000Y-135350000D01*
X54075000Y-135350000D02*
X53745000Y-135350000D01*
X50435000Y-56080000D02*
X50435000Y-56095000D01*
X50435000Y-56080000D02*
X54975000Y-56080000D01*
X50435000Y-58205000D02*
X50435000Y-58220000D01*
X50435000Y-58220000D02*
X54975000Y-58220000D01*
X54975000Y-56080000D02*
X54975000Y-56095000D01*
X54975000Y-58205000D02*
X54975000Y-58220000D01*
X61495000Y-108490000D02*
X61825000Y-108490000D01*
X61495000Y-115030000D02*
X61495000Y-108490000D01*
X61825000Y-115030000D02*
X61495000Y-115030000D01*
X63905000Y-115030000D02*
X64235000Y-115030000D01*
X64235000Y-108490000D02*
X63905000Y-108490000D01*
X64235000Y-115030000D02*
X64235000Y-108490000D01*
X46255000Y-118650000D02*
X46255000Y-125190000D01*
X46255000Y-125190000D02*
X46585000Y-125190000D01*
X46585000Y-118650000D02*
X46255000Y-118650000D01*
X48665000Y-118650000D02*
X48995000Y-118650000D01*
X48995000Y-118650000D02*
X48995000Y-125190000D01*
X48995000Y-125190000D02*
X48665000Y-125190000D01*
X58365000Y-133880000D02*
X58365000Y-130280000D01*
X53915000Y-132080000D02*
G75*
G02*
X58353478Y-130241522I2600000J0D01*
G01*
X58353478Y-133918478D02*
G75*
G02*
X53915000Y-132080000I-1838478J1838478D01*
G01*
X40410000Y-46355000D02*
X41060000Y-46355000D01*
X41060000Y-45235000D02*
X41060000Y-47475000D01*
X41060000Y-47475000D02*
X45300000Y-47475000D01*
X44460000Y-47475000D02*
X44460000Y-45235000D01*
X44580000Y-47475000D02*
X44580000Y-45235000D01*
X44700000Y-47475000D02*
X44700000Y-45235000D01*
X45300000Y-45235000D02*
X41060000Y-45235000D01*
X45300000Y-47475000D02*
X45300000Y-45235000D01*
X45950000Y-46355000D02*
X45300000Y-46355000D01*
X51450000Y-68070000D02*
X51450000Y-61670000D01*
X56500000Y-68070000D02*
X56500000Y-61670000D01*
X51450000Y-61670000D02*
G75*
G02*
X56500000Y-61670000I2525000J0D01*
G01*
X56500000Y-68070000D02*
G75*
G02*
X51450000Y-68070000I-2525000J0D01*
G01*
X46255000Y-108490000D02*
X46255000Y-115030000D01*
X46255000Y-115030000D02*
X46585000Y-115030000D01*
X46585000Y-108490000D02*
X46255000Y-108490000D01*
X48665000Y-108490000D02*
X48995000Y-108490000D01*
X48995000Y-108490000D02*
X48995000Y-115030000D01*
X48995000Y-115030000D02*
X48665000Y-115030000D01*
X40910000Y-70685000D02*
X40910000Y-70700000D01*
X40910000Y-70685000D02*
X45450000Y-70685000D01*
X40910000Y-72810000D02*
X40910000Y-72825000D01*
X40910000Y-72825000D02*
X45450000Y-72825000D01*
X45450000Y-70685000D02*
X45450000Y-70700000D01*
X45450000Y-72810000D02*
X45450000Y-72825000D01*
X58365000Y-113560000D02*
X58365000Y-109960000D01*
X53915000Y-111760000D02*
G75*
G02*
X58353478Y-109921522I2600000J0D01*
G01*
X58353478Y-113598478D02*
G75*
G02*
X53915000Y-111760000I-1838478J1838478D01*
G01*
X58955000Y-108490000D02*
X58955000Y-115030000D01*
X58955000Y-115030000D02*
X59285000Y-115030000D01*
X59285000Y-108490000D02*
X58955000Y-108490000D01*
X61365000Y-108490000D02*
X61695000Y-108490000D01*
X61695000Y-108490000D02*
X61695000Y-115030000D01*
X61695000Y-115030000D02*
X61365000Y-115030000D01*
X60245000Y-72925000D02*
X60245000Y-73240000D01*
X60245000Y-72925000D02*
X65485000Y-72925000D01*
X60245000Y-75350000D02*
X60245000Y-75665000D01*
X60245000Y-75665000D02*
X65485000Y-75665000D01*
X65485000Y-72925000D02*
X65485000Y-73240000D01*
X65485000Y-75350000D02*
X65485000Y-75665000D01*
X41175000Y-128810000D02*
X41175000Y-135350000D01*
X41175000Y-135350000D02*
X41505000Y-135350000D01*
X41505000Y-128810000D02*
X41175000Y-128810000D01*
X43585000Y-128810000D02*
X43915000Y-128810000D01*
X43915000Y-128810000D02*
X43915000Y-135350000D01*
X43915000Y-135350000D02*
X43585000Y-135350000D01*
X42485000Y-138370000D02*
X42485000Y-141030000D01*
X60325000Y-138370000D02*
X42485000Y-138370000D01*
X60325000Y-138370000D02*
X60325000Y-141030000D01*
X60325000Y-141030000D02*
X42485000Y-141030000D01*
X62925000Y-139700000D02*
X62925000Y-141030000D01*
X62925000Y-141030000D02*
X61595000Y-141030000D01*
X57090000Y-34909657D02*
X57090000Y-70709657D01*
X57090000Y-70709657D02*
X67370000Y-70709657D01*
X59580000Y-34969657D02*
X59580000Y-70649657D01*
X59580000Y-70649657D02*
X64880000Y-70649657D01*
X61230000Y-34969657D02*
X59580000Y-34969657D01*
X64880000Y-34969657D02*
X63230000Y-34969657D01*
X64880000Y-70649657D02*
X64880000Y-34969657D01*
X67370000Y-34909657D02*
X57090000Y-34909657D01*
X67370000Y-70709657D02*
X67370000Y-34909657D01*
X63230000Y-34969657D02*
G75*
G02*
X61230000Y-34969657I-1000000J0D01*
G01*
X38040000Y-60180343D02*
X38040000Y-70580343D01*
X38040000Y-70580343D02*
X48320000Y-70580343D01*
X40530000Y-60240343D02*
X40530000Y-70520343D01*
X40530000Y-70520343D02*
X42180000Y-70520343D01*
X44180000Y-70520343D02*
X45830000Y-70520343D01*
X45830000Y-60240343D02*
X40530000Y-60240343D01*
X45830000Y-70520343D02*
X45830000Y-60240343D01*
X48320000Y-60180343D02*
X38040000Y-60180343D01*
X48320000Y-70580343D02*
X48320000Y-60180343D01*
X42180000Y-70520343D02*
G75*
G02*
X44180000Y-70520343I1000000J0D01*
G01*
X46255000Y-98330000D02*
X46255000Y-104870000D01*
X46255000Y-104870000D02*
X46585000Y-104870000D01*
X46585000Y-98330000D02*
X46255000Y-98330000D01*
X48665000Y-98330000D02*
X48995000Y-98330000D01*
X48995000Y-98330000D02*
X48995000Y-104870000D01*
X48995000Y-104870000D02*
X48665000Y-104870000D01*
X58955000Y-118650000D02*
X58955000Y-125190000D01*
X58955000Y-125190000D02*
X59285000Y-125190000D01*
X59285000Y-118650000D02*
X58955000Y-118650000D01*
X61365000Y-118650000D02*
X61695000Y-118650000D01*
X61695000Y-118650000D02*
X61695000Y-125190000D01*
X61695000Y-125190000D02*
X61365000Y-125190000D01*
X49430000Y-36735000D02*
X49760000Y-36735000D01*
X49430000Y-43275000D02*
X49430000Y-36735000D01*
X49760000Y-43275000D02*
X49430000Y-43275000D01*
X51840000Y-43275000D02*
X52170000Y-43275000D01*
X52170000Y-36735000D02*
X51840000Y-36735000D01*
X52170000Y-43275000D02*
X52170000Y-36735000D01*
X41175000Y-118650000D02*
X41175000Y-125190000D01*
X41175000Y-125190000D02*
X41505000Y-125190000D01*
X41505000Y-118650000D02*
X41175000Y-118650000D01*
X43585000Y-118650000D02*
X43915000Y-118650000D01*
X43915000Y-118650000D02*
X43915000Y-125190000D01*
X43915000Y-125190000D02*
X43585000Y-125190000D01*
X58365000Y-123720000D02*
X58365000Y-120120000D01*
X53915000Y-121920000D02*
G75*
G02*
X58353478Y-120081522I2600000J0D01*
G01*
X58353478Y-123758478D02*
G75*
G02*
X53915000Y-121920000I-1838478J1838478D01*
G01*
X46255000Y-128810000D02*
X46255000Y-135350000D01*
X46255000Y-135350000D02*
X46585000Y-135350000D01*
X46585000Y-128810000D02*
X46255000Y-128810000D01*
X48665000Y-128810000D02*
X48995000Y-128810000D01*
X48995000Y-128810000D02*
X48995000Y-135350000D01*
X48995000Y-135350000D02*
X48665000Y-135350000D01*
X40410000Y-74295000D02*
X41060000Y-74295000D01*
X41060000Y-73175000D02*
X41060000Y-75415000D01*
X41060000Y-75415000D02*
X45300000Y-75415000D01*
X44460000Y-75415000D02*
X44460000Y-73175000D01*
X44580000Y-75415000D02*
X44580000Y-73175000D01*
X44700000Y-75415000D02*
X44700000Y-73175000D01*
X45300000Y-73175000D02*
X41060000Y-73175000D01*
X45300000Y-75415000D02*
X45300000Y-73175000D01*
X45950000Y-74295000D02*
X45300000Y-74295000D01*
X58955000Y-128810000D02*
X58955000Y-135350000D01*
X58955000Y-135350000D02*
X59285000Y-135350000D01*
X59285000Y-128810000D02*
X58955000Y-128810000D01*
X61365000Y-128810000D02*
X61695000Y-128810000D01*
X61695000Y-128810000D02*
X61695000Y-135350000D01*
X61695000Y-135350000D02*
X61365000Y-135350000D01*
X58365000Y-103400000D02*
X58365000Y-99800000D01*
X53915000Y-101600000D02*
G75*
G02*
X58353478Y-99761522I2600000J0D01*
G01*
X58353478Y-103438478D02*
G75*
G02*
X53915000Y-101600000I-1838478J1838478D01*
G01*
X53240000Y-36735000D02*
X53240000Y-43275000D01*
X53240000Y-43275000D02*
X53570000Y-43275000D01*
X53570000Y-36735000D02*
X53240000Y-36735000D01*
X55650000Y-36735000D02*
X55980000Y-36735000D01*
X55980000Y-36735000D02*
X55980000Y-43275000D01*
X55980000Y-43275000D02*
X55650000Y-43275000D01*
X43715000Y-128810000D02*
X44045000Y-128810000D01*
X43715000Y-135350000D02*
X43715000Y-128810000D01*
X44045000Y-135350000D02*
X43715000Y-135350000D01*
X46125000Y-135350000D02*
X46455000Y-135350000D01*
X46455000Y-128810000D02*
X46125000Y-128810000D01*
X46455000Y-135350000D02*
X46455000Y-128810000D01*
X40910000Y-57985000D02*
X40910000Y-58000000D01*
X40910000Y-57985000D02*
X45450000Y-57985000D01*
X40910000Y-60110000D02*
X40910000Y-60125000D01*
X40910000Y-60125000D02*
X45450000Y-60125000D01*
X45450000Y-57985000D02*
X45450000Y-58000000D01*
X45450000Y-60110000D02*
X45450000Y-60125000D01*
X41175000Y-98330000D02*
X41175000Y-104870000D01*
X41175000Y-104870000D02*
X41505000Y-104870000D01*
X41505000Y-98330000D02*
X41175000Y-98330000D01*
X43585000Y-98330000D02*
X43915000Y-98330000D01*
X43915000Y-98330000D02*
X43915000Y-104870000D01*
X43915000Y-104870000D02*
X43585000Y-104870000D01*
X43715000Y-118650000D02*
X44045000Y-118650000D01*
X43715000Y-125190000D02*
X43715000Y-118650000D01*
X44045000Y-125190000D02*
X43715000Y-125190000D01*
X46125000Y-125190000D02*
X46455000Y-125190000D01*
X46455000Y-118650000D02*
X46125000Y-118650000D01*
X46455000Y-125190000D02*
X46455000Y-118650000D01*
X51335000Y-118650000D02*
X51335000Y-125190000D01*
X51335000Y-125190000D02*
X51665000Y-125190000D01*
X51665000Y-118650000D02*
X51335000Y-118650000D01*
X53745000Y-118650000D02*
X54075000Y-118650000D01*
X54075000Y-118650000D02*
X54075000Y-125190000D01*
X54075000Y-125190000D02*
X53745000Y-125190000D01*
X48795000Y-118650000D02*
X49125000Y-118650000D01*
X48795000Y-125190000D02*
X48795000Y-118650000D01*
X49125000Y-125190000D02*
X48795000Y-125190000D01*
X51205000Y-125190000D02*
X51535000Y-125190000D01*
X51535000Y-118650000D02*
X51205000Y-118650000D01*
X51535000Y-125190000D02*
X51535000Y-118650000D01*
X51435000Y-98330000D02*
X51435000Y-104870000D01*
X51435000Y-104870000D02*
X51765000Y-104870000D01*
X51765000Y-98330000D02*
X51435000Y-98330000D01*
X53645000Y-98330000D02*
X53975000Y-98330000D01*
X53975000Y-98330000D02*
X53975000Y-104870000D01*
X53975000Y-104870000D02*
X53645000Y-104870000D01*
X49430000Y-46895000D02*
X49430000Y-53435000D01*
X49430000Y-53435000D02*
X49760000Y-53435000D01*
X49760000Y-46895000D02*
X49430000Y-46895000D01*
X51840000Y-46895000D02*
X52170000Y-46895000D01*
X52170000Y-46895000D02*
X52170000Y-53435000D01*
X52170000Y-53435000D02*
X51840000Y-53435000D01*
X48795000Y-128810000D02*
X49125000Y-128810000D01*
X48795000Y-135350000D02*
X48795000Y-128810000D01*
X49125000Y-135350000D02*
X48795000Y-135350000D01*
X51205000Y-135350000D02*
X51535000Y-135350000D01*
X51535000Y-128810000D02*
X51205000Y-128810000D01*
X51535000Y-135350000D02*
X51535000Y-128810000D01*
X61495000Y-118650000D02*
X61825000Y-118650000D01*
X61495000Y-125190000D02*
X61495000Y-118650000D01*
X61825000Y-125190000D02*
X61495000Y-125190000D01*
X63905000Y-125190000D02*
X64235000Y-125190000D01*
X64235000Y-118650000D02*
X63905000Y-118650000D01*
X64235000Y-125190000D02*
X64235000Y-118650000D01*
%LPC*%
D13*
X60365000Y-77470000D03*
X65365000Y-77470000D03*
X62865000Y-135890000D03*
D14*
X62865000Y-128270000D03*
D13*
X50165000Y-105410000D03*
D14*
X50165000Y-97790000D03*
D13*
X50165000Y-61000000D03*
X50165000Y-63500000D03*
X45085000Y-115570000D03*
D14*
X45085000Y-107950000D03*
D15*
X39380000Y-36205000D03*
D14*
X39380000Y-38745000D03*
X39380000Y-41285000D03*
X39380000Y-43825000D03*
X47000000Y-43825000D03*
X47000000Y-41285000D03*
X47000000Y-38745000D03*
X47000000Y-36205000D03*
D15*
X46970000Y-56535000D03*
D14*
X46970000Y-53995000D03*
X46970000Y-51455000D03*
X46970000Y-48915000D03*
X39350000Y-48915000D03*
X39350000Y-51455000D03*
X39350000Y-53995000D03*
X39350000Y-56535000D03*
D16*
X43815000Y-33020000D03*
D17*
X46355000Y-33020000D03*
X48895000Y-33020000D03*
X51435000Y-33020000D03*
X53975000Y-33020000D03*
X56515000Y-33020000D03*
X59055000Y-33020000D03*
X61595000Y-33020000D03*
D13*
X54610000Y-46355000D03*
D14*
X54610000Y-53975000D03*
D13*
X62865000Y-105410000D03*
D14*
X62865000Y-97790000D03*
D13*
X50165000Y-68580000D03*
X50165000Y-66080000D03*
X60325000Y-97790000D03*
D14*
X60325000Y-105410000D03*
D15*
X41275000Y-94615000D03*
D14*
X43815000Y-94615000D03*
X46355000Y-94615000D03*
X48895000Y-94615000D03*
X51435000Y-94615000D03*
X53975000Y-94615000D03*
X56515000Y-94615000D03*
X56515000Y-86995000D03*
X53975000Y-86995000D03*
X51435000Y-86995000D03*
X48895000Y-86995000D03*
X46355000Y-86995000D03*
X43815000Y-86995000D03*
X41275000Y-86995000D03*
D13*
X52705000Y-107950000D03*
D14*
X52705000Y-115570000D03*
D13*
X50165000Y-115570000D03*
D14*
X50165000Y-107950000D03*
D13*
X42545000Y-107950000D03*
D14*
X42545000Y-115570000D03*
D13*
X45085000Y-105410000D03*
D14*
X45085000Y-97790000D03*
D13*
X59690000Y-88305000D03*
X59690000Y-93305000D03*
X52705000Y-128270000D03*
D14*
X52705000Y-135890000D03*
D13*
X50205000Y-57150000D03*
X55205000Y-57150000D03*
X62865000Y-115570000D03*
D14*
X62865000Y-107950000D03*
D13*
X47625000Y-118110000D03*
D14*
X47625000Y-125730000D03*
D18*
X56515000Y-133350000D03*
D19*
X56515000Y-132080000D03*
X56515000Y-130810000D03*
D15*
X46990000Y-46355000D03*
D14*
X39370000Y-46355000D03*
D20*
X53975000Y-67310000D03*
X53975000Y-62430000D03*
D13*
X47625000Y-107950000D03*
D14*
X47625000Y-115570000D03*
D13*
X40680000Y-71755000D03*
X45680000Y-71755000D03*
D18*
X56515000Y-113030000D03*
D19*
X56515000Y-111760000D03*
X56515000Y-110490000D03*
D13*
X60325000Y-107950000D03*
D14*
X60325000Y-115570000D03*
D13*
X60365000Y-74295000D03*
X65365000Y-74295000D03*
X42545000Y-128270000D03*
D14*
X42545000Y-135890000D03*
D16*
X61595000Y-139700000D03*
D17*
X59055000Y-139700000D03*
X56515000Y-139700000D03*
X53975000Y-139700000D03*
X51435000Y-139700000D03*
X48895000Y-139700000D03*
X46355000Y-139700000D03*
X43815000Y-139700000D03*
D15*
X58420000Y-36299657D03*
D14*
X58420000Y-38839657D03*
X58420000Y-41379657D03*
X58420000Y-43919657D03*
X58420000Y-46459657D03*
X58420000Y-48999657D03*
X58420000Y-51539657D03*
X58420000Y-54079657D03*
X58420000Y-56619657D03*
X58420000Y-59159657D03*
X58420000Y-61699657D03*
X58420000Y-64239657D03*
X58420000Y-66779657D03*
X58420000Y-69319657D03*
X66040000Y-69319657D03*
X66040000Y-66779657D03*
X66040000Y-64239657D03*
X66040000Y-61699657D03*
X66040000Y-59159657D03*
X66040000Y-56619657D03*
X66040000Y-54079657D03*
X66040000Y-51539657D03*
X66040000Y-48999657D03*
X66040000Y-46459657D03*
X66040000Y-43919657D03*
X66040000Y-41379657D03*
X66040000Y-38839657D03*
X66040000Y-36299657D03*
D15*
X46990000Y-69190343D03*
D14*
X46990000Y-66650343D03*
X46990000Y-64110343D03*
X46990000Y-61570343D03*
X39370000Y-61570343D03*
X39370000Y-64110343D03*
X39370000Y-66650343D03*
X39370000Y-69190343D03*
D13*
X47625000Y-97790000D03*
D14*
X47625000Y-105410000D03*
D13*
X60325000Y-118110000D03*
D14*
X60325000Y-125730000D03*
D13*
X50800000Y-43815000D03*
D14*
X50800000Y-36195000D03*
D13*
X42545000Y-118110000D03*
D14*
X42545000Y-125730000D03*
D18*
X56515000Y-123190000D03*
D19*
X56515000Y-121920000D03*
X56515000Y-120650000D03*
D13*
X47625000Y-128270000D03*
D14*
X47625000Y-135890000D03*
D15*
X46990000Y-74295000D03*
D14*
X39370000Y-74295000D03*
D13*
X60325000Y-128270000D03*
D14*
X60325000Y-135890000D03*
D18*
X56515000Y-102870000D03*
D19*
X56515000Y-101600000D03*
X56515000Y-100330000D03*
D13*
X54610000Y-36195000D03*
D14*
X54610000Y-43815000D03*
D13*
X45085000Y-135890000D03*
D14*
X45085000Y-128270000D03*
D13*
X40680000Y-59055000D03*
X45680000Y-59055000D03*
X42545000Y-97790000D03*
D14*
X42545000Y-105410000D03*
D13*
X45085000Y-125730000D03*
D14*
X45085000Y-118110000D03*
D13*
X52705000Y-118110000D03*
D14*
X52705000Y-125730000D03*
D13*
X50165000Y-125730000D03*
D14*
X50165000Y-118110000D03*
D13*
X52705000Y-97790000D03*
D14*
X52705000Y-105410000D03*
D13*
X50800000Y-46355000D03*
D14*
X50800000Y-53975000D03*
D13*
X50165000Y-135890000D03*
D14*
X50165000Y-128270000D03*
D13*
X62865000Y-125730000D03*
D14*
X62865000Y-118110000D03*
D21*
X50165000Y-72715000D03*
D22*
X52705000Y-72715000D03*
X55245000Y-72715000D03*
D23*
X64770000Y-92170000D03*
D24*
X64770000Y-90170000D03*
X64770000Y-88170000D03*
X64770000Y-86170000D03*
X64770000Y-84170000D03*
D25*
X53975000Y-81915000D03*
D26*
X53975000Y-79375000D03*
X51435000Y-81915000D03*
X51435000Y-79375000D03*
X48895000Y-81915000D03*
X48895000Y-79375000D03*
X46355000Y-81915000D03*
X46355000Y-79375000D03*
X43815000Y-81915000D03*
X43815000Y-79375000D03*
%LPD*%
M02*
