G04 #@! TF.GenerationSoftware,KiCad,Pcbnew,8.0.0*
G04 #@! TF.CreationDate,2025-07-24T19:15:38+01:00*
G04 #@! TF.ProjectId,MidiToCvLogic,4d696469-546f-4437-964c-6f6769632e6b,1.0*
G04 #@! TF.SameCoordinates,Original*
G04 #@! TF.FileFunction,Legend,Bot*
G04 #@! TF.FilePolarity,Positive*
%FSLAX46Y46*%
G04 Gerber Fmt 4.6, Leading zero omitted, Abs format (unit mm)*
G04 Created by KiCad (PCBNEW 8.0.0) date 2025-07-24 19:15:38*
%MOMM*%
%LPD*%
G01*
G04 APERTURE LIST*
G04 Aperture macros list*
%AMRoundRect*
0 Rectangle with rounded corners*
0 $1 Rounding radius*
0 $2 $3 $4 $5 $6 $7 $8 $9 X,Y pos of 4 corners*
0 Add a 4 corners polygon primitive as box body*
4,1,4,$2,$3,$4,$5,$6,$7,$8,$9,$2,$3,0*
0 Add four circle primitives for the rounded corners*
1,1,$1+$1,$2,$3*
1,1,$1+$1,$4,$5*
1,1,$1+$1,$6,$7*
1,1,$1+$1,$8,$9*
0 Add four rect primitives between the rounded corners*
20,1,$1+$1,$2,$3,$4,$5,0*
20,1,$1+$1,$4,$5,$6,$7,0*
20,1,$1+$1,$6,$7,$8,$9,0*
20,1,$1+$1,$8,$9,$2,$3,0*%
G04 Aperture macros list end*
%ADD10C,0.150000*%
%ADD11C,0.120000*%
%ADD12C,1.600000*%
%ADD13O,1.600000X1.600000*%
%ADD14R,1.600000X1.600000*%
%ADD15R,1.700000X1.700000*%
%ADD16O,1.700000X1.700000*%
%ADD17R,1.500000X1.050000*%
%ADD18O,1.500000X1.050000*%
%ADD19C,1.500000*%
%ADD20R,1.905000X2.000000*%
%ADD21O,1.905000X2.000000*%
%ADD22RoundRect,0.250000X0.625000X-0.350000X0.625000X0.350000X-0.625000X0.350000X-0.625000X-0.350000X0*%
%ADD23O,1.750000X1.200000*%
%ADD24RoundRect,0.250000X0.600000X-0.600000X0.600000X0.600000X-0.600000X0.600000X-0.600000X-0.600000X0*%
%ADD25C,1.700000*%
G04 APERTURE END LIST*
D10*
X53466904Y-74384819D02*
X53466904Y-75194342D01*
X53466904Y-75194342D02*
X53419285Y-75289580D01*
X53419285Y-75289580D02*
X53371666Y-75337200D01*
X53371666Y-75337200D02*
X53276428Y-75384819D01*
X53276428Y-75384819D02*
X53085952Y-75384819D01*
X53085952Y-75384819D02*
X52990714Y-75337200D01*
X52990714Y-75337200D02*
X52943095Y-75289580D01*
X52943095Y-75289580D02*
X52895476Y-75194342D01*
X52895476Y-75194342D02*
X52895476Y-74384819D01*
X51895476Y-75384819D02*
X52466904Y-75384819D01*
X52181190Y-75384819D02*
X52181190Y-74384819D01*
X52181190Y-74384819D02*
X52276428Y-74527676D01*
X52276428Y-74527676D02*
X52371666Y-74622914D01*
X52371666Y-74622914D02*
X52466904Y-74670533D01*
X62319819Y-87836666D02*
X63034104Y-87836666D01*
X63034104Y-87836666D02*
X63176961Y-87789047D01*
X63176961Y-87789047D02*
X63272200Y-87693809D01*
X63272200Y-87693809D02*
X63319819Y-87550952D01*
X63319819Y-87550952D02*
X63319819Y-87455714D01*
X62415057Y-88265238D02*
X62367438Y-88312857D01*
X62367438Y-88312857D02*
X62319819Y-88408095D01*
X62319819Y-88408095D02*
X62319819Y-88646190D01*
X62319819Y-88646190D02*
X62367438Y-88741428D01*
X62367438Y-88741428D02*
X62415057Y-88789047D01*
X62415057Y-88789047D02*
X62510295Y-88836666D01*
X62510295Y-88836666D02*
X62605533Y-88836666D01*
X62605533Y-88836666D02*
X62748390Y-88789047D01*
X62748390Y-88789047D02*
X63319819Y-88217619D01*
X63319819Y-88217619D02*
X63319819Y-88836666D01*
X49228333Y-83909819D02*
X49228333Y-84624104D01*
X49228333Y-84624104D02*
X49275952Y-84766961D01*
X49275952Y-84766961D02*
X49371190Y-84862200D01*
X49371190Y-84862200D02*
X49514047Y-84909819D01*
X49514047Y-84909819D02*
X49609285Y-84909819D01*
X48228333Y-84909819D02*
X48799761Y-84909819D01*
X48514047Y-84909819D02*
X48514047Y-83909819D01*
X48514047Y-83909819D02*
X48609285Y-84052676D01*
X48609285Y-84052676D02*
X48704523Y-84147914D01*
X48704523Y-84147914D02*
X48799761Y-84195533D01*
D11*
X47585000Y-71344000D02*
X47585000Y-75985000D01*
X50855000Y-74475000D02*
X50855000Y-75985000D01*
X54556000Y-74475000D02*
X54556000Y-75985000D01*
X57825000Y-71344000D02*
X47585000Y-71344000D01*
X57825000Y-71344000D02*
X57825000Y-75985000D01*
X57825000Y-74475000D02*
X47585000Y-74475000D01*
X57825000Y-75985000D02*
X47585000Y-75985000D01*
X61860000Y-82110000D02*
X61860000Y-94230000D01*
X61860000Y-94230000D02*
X66580000Y-94230000D01*
X62470000Y-82720000D02*
X62470000Y-93620000D01*
X62470000Y-85070000D02*
X62970000Y-85070000D01*
X62470000Y-87070000D02*
X62970000Y-87070000D01*
X62470000Y-89070000D02*
X62970000Y-89070000D01*
X62470000Y-91070000D02*
X62970000Y-91070000D01*
X62470000Y-93620000D02*
X65970000Y-93620000D01*
X62970000Y-85070000D02*
X62970000Y-85270000D01*
X62970000Y-85170000D02*
X62470000Y-85170000D01*
X62970000Y-85270000D02*
X62470000Y-85270000D01*
X62970000Y-87070000D02*
X62970000Y-87270000D01*
X62970000Y-87170000D02*
X62470000Y-87170000D01*
X62970000Y-87270000D02*
X62470000Y-87270000D01*
X62970000Y-89070000D02*
X62970000Y-89270000D01*
X62970000Y-89170000D02*
X62470000Y-89170000D01*
X62970000Y-89270000D02*
X62470000Y-89270000D01*
X62970000Y-91070000D02*
X62970000Y-91270000D01*
X62970000Y-91170000D02*
X62470000Y-91170000D01*
X62970000Y-91270000D02*
X62470000Y-91270000D01*
X63970000Y-82720000D02*
X63970000Y-82110000D01*
X63970000Y-93620000D02*
X63970000Y-94230000D01*
X65270000Y-82720000D02*
X65270000Y-82110000D01*
X65270000Y-93620000D02*
X65270000Y-94230000D01*
X65630000Y-94530000D02*
X66880000Y-94530000D01*
X65970000Y-82720000D02*
X62470000Y-82720000D01*
X65970000Y-84670000D02*
X65970000Y-82720000D01*
X65970000Y-91670000D02*
X66580000Y-91670000D01*
X65970000Y-93620000D02*
X65970000Y-91670000D01*
X66580000Y-82110000D02*
X61860000Y-82110000D01*
X66580000Y-84670000D02*
X65970000Y-84670000D01*
X66580000Y-92770000D02*
X66780000Y-92770000D01*
X66580000Y-94230000D02*
X66580000Y-82110000D01*
X66680000Y-92770000D02*
X66680000Y-92470000D01*
X66780000Y-92470000D02*
X66580000Y-92470000D01*
X66780000Y-92770000D02*
X66780000Y-92470000D01*
X66880000Y-94530000D02*
X66880000Y-93280000D01*
X38605000Y-76085000D02*
X59185000Y-76085000D01*
X38605000Y-85205000D02*
X38605000Y-76085000D01*
X39905000Y-77395000D02*
X57885000Y-77395000D01*
X39905000Y-83895000D02*
X39905000Y-77395000D01*
X46845000Y-83895000D02*
X39905000Y-83895000D01*
X46845000Y-83895000D02*
X46845000Y-83895000D01*
X46845000Y-85205000D02*
X46845000Y-83895000D01*
X50945000Y-83895000D02*
X50945000Y-85205000D01*
X53475000Y-86595000D02*
X54475000Y-86595000D01*
X53975000Y-85595000D02*
X53475000Y-86595000D01*
X54475000Y-86595000D02*
X53975000Y-85595000D01*
X57885000Y-77395000D02*
X57885000Y-83895000D01*
X57885000Y-83895000D02*
X50945000Y-83895000D01*
X59185000Y-76085000D02*
X59185000Y-85205000D01*
X59185000Y-85205000D02*
X38605000Y-85205000D01*
%LPC*%
D12*
X60365000Y-77470000D03*
X65365000Y-77470000D03*
X62865000Y-135890000D03*
D13*
X62865000Y-128270000D03*
D12*
X50165000Y-105410000D03*
D13*
X50165000Y-97790000D03*
D12*
X50165000Y-61000000D03*
X50165000Y-63500000D03*
X45085000Y-115570000D03*
D13*
X45085000Y-107950000D03*
D14*
X39380000Y-36205000D03*
D13*
X39380000Y-38745000D03*
X39380000Y-41285000D03*
X39380000Y-43825000D03*
X47000000Y-43825000D03*
X47000000Y-41285000D03*
X47000000Y-38745000D03*
X47000000Y-36205000D03*
D14*
X46970000Y-56535000D03*
D13*
X46970000Y-53995000D03*
X46970000Y-51455000D03*
X46970000Y-48915000D03*
X39350000Y-48915000D03*
X39350000Y-51455000D03*
X39350000Y-53995000D03*
X39350000Y-56535000D03*
D15*
X43815000Y-33020000D03*
D16*
X46355000Y-33020000D03*
X48895000Y-33020000D03*
X51435000Y-33020000D03*
X53975000Y-33020000D03*
X56515000Y-33020000D03*
X59055000Y-33020000D03*
X61595000Y-33020000D03*
D12*
X54610000Y-46355000D03*
D13*
X54610000Y-53975000D03*
D12*
X62865000Y-105410000D03*
D13*
X62865000Y-97790000D03*
D12*
X50165000Y-68580000D03*
X50165000Y-66080000D03*
X60325000Y-97790000D03*
D13*
X60325000Y-105410000D03*
D14*
X41275000Y-94615000D03*
D13*
X43815000Y-94615000D03*
X46355000Y-94615000D03*
X48895000Y-94615000D03*
X51435000Y-94615000D03*
X53975000Y-94615000D03*
X56515000Y-94615000D03*
X56515000Y-86995000D03*
X53975000Y-86995000D03*
X51435000Y-86995000D03*
X48895000Y-86995000D03*
X46355000Y-86995000D03*
X43815000Y-86995000D03*
X41275000Y-86995000D03*
D12*
X52705000Y-107950000D03*
D13*
X52705000Y-115570000D03*
D12*
X50165000Y-115570000D03*
D13*
X50165000Y-107950000D03*
D12*
X42545000Y-107950000D03*
D13*
X42545000Y-115570000D03*
D12*
X45085000Y-105410000D03*
D13*
X45085000Y-97790000D03*
D12*
X59690000Y-88305000D03*
X59690000Y-93305000D03*
X52705000Y-128270000D03*
D13*
X52705000Y-135890000D03*
D12*
X50205000Y-57150000D03*
X55205000Y-57150000D03*
X62865000Y-115570000D03*
D13*
X62865000Y-107950000D03*
D12*
X47625000Y-118110000D03*
D13*
X47625000Y-125730000D03*
D17*
X56515000Y-133350000D03*
D18*
X56515000Y-132080000D03*
X56515000Y-130810000D03*
D14*
X46990000Y-46355000D03*
D13*
X39370000Y-46355000D03*
D19*
X53975000Y-67310000D03*
X53975000Y-62430000D03*
D12*
X47625000Y-107950000D03*
D13*
X47625000Y-115570000D03*
D12*
X40680000Y-71755000D03*
X45680000Y-71755000D03*
D17*
X56515000Y-113030000D03*
D18*
X56515000Y-111760000D03*
X56515000Y-110490000D03*
D12*
X60325000Y-107950000D03*
D13*
X60325000Y-115570000D03*
D12*
X60365000Y-74295000D03*
X65365000Y-74295000D03*
X42545000Y-128270000D03*
D13*
X42545000Y-135890000D03*
D15*
X61595000Y-139700000D03*
D16*
X59055000Y-139700000D03*
X56515000Y-139700000D03*
X53975000Y-139700000D03*
X51435000Y-139700000D03*
X48895000Y-139700000D03*
X46355000Y-139700000D03*
X43815000Y-139700000D03*
D14*
X58420000Y-36299657D03*
D13*
X58420000Y-38839657D03*
X58420000Y-41379657D03*
X58420000Y-43919657D03*
X58420000Y-46459657D03*
X58420000Y-48999657D03*
X58420000Y-51539657D03*
X58420000Y-54079657D03*
X58420000Y-56619657D03*
X58420000Y-59159657D03*
X58420000Y-61699657D03*
X58420000Y-64239657D03*
X58420000Y-66779657D03*
X58420000Y-69319657D03*
X66040000Y-69319657D03*
X66040000Y-66779657D03*
X66040000Y-64239657D03*
X66040000Y-61699657D03*
X66040000Y-59159657D03*
X66040000Y-56619657D03*
X66040000Y-54079657D03*
X66040000Y-51539657D03*
X66040000Y-48999657D03*
X66040000Y-46459657D03*
X66040000Y-43919657D03*
X66040000Y-41379657D03*
X66040000Y-38839657D03*
X66040000Y-36299657D03*
D14*
X46990000Y-69190343D03*
D13*
X46990000Y-66650343D03*
X46990000Y-64110343D03*
X46990000Y-61570343D03*
X39370000Y-61570343D03*
X39370000Y-64110343D03*
X39370000Y-66650343D03*
X39370000Y-69190343D03*
D12*
X47625000Y-97790000D03*
D13*
X47625000Y-105410000D03*
D12*
X60325000Y-118110000D03*
D13*
X60325000Y-125730000D03*
D12*
X50800000Y-43815000D03*
D13*
X50800000Y-36195000D03*
D12*
X42545000Y-118110000D03*
D13*
X42545000Y-125730000D03*
D17*
X56515000Y-123190000D03*
D18*
X56515000Y-121920000D03*
X56515000Y-120650000D03*
D12*
X47625000Y-128270000D03*
D13*
X47625000Y-135890000D03*
D14*
X46990000Y-74295000D03*
D13*
X39370000Y-74295000D03*
D12*
X60325000Y-128270000D03*
D13*
X60325000Y-135890000D03*
D17*
X56515000Y-102870000D03*
D18*
X56515000Y-101600000D03*
X56515000Y-100330000D03*
D12*
X54610000Y-36195000D03*
D13*
X54610000Y-43815000D03*
D12*
X45085000Y-135890000D03*
D13*
X45085000Y-128270000D03*
D12*
X40680000Y-59055000D03*
X45680000Y-59055000D03*
X42545000Y-97790000D03*
D13*
X42545000Y-105410000D03*
D12*
X45085000Y-125730000D03*
D13*
X45085000Y-118110000D03*
D12*
X52705000Y-118110000D03*
D13*
X52705000Y-125730000D03*
D12*
X50165000Y-125730000D03*
D13*
X50165000Y-118110000D03*
D12*
X52705000Y-97790000D03*
D13*
X52705000Y-105410000D03*
D12*
X50800000Y-46355000D03*
D13*
X50800000Y-53975000D03*
D12*
X50165000Y-135890000D03*
D13*
X50165000Y-128270000D03*
D12*
X62865000Y-125730000D03*
D13*
X62865000Y-118110000D03*
D20*
X50165000Y-72715000D03*
D21*
X52705000Y-72715000D03*
X55245000Y-72715000D03*
D22*
X64770000Y-92170000D03*
D23*
X64770000Y-90170000D03*
X64770000Y-88170000D03*
X64770000Y-86170000D03*
X64770000Y-84170000D03*
D24*
X53975000Y-81915000D03*
D25*
X53975000Y-79375000D03*
X51435000Y-81915000D03*
X51435000Y-79375000D03*
X48895000Y-81915000D03*
X48895000Y-79375000D03*
X46355000Y-81915000D03*
X46355000Y-79375000D03*
X43815000Y-81915000D03*
X43815000Y-79375000D03*
%LPD*%
M02*
