G04 #@! TF.GenerationSoftware,KiCad,Pcbnew,8.0.0*
G04 #@! TF.CreationDate,2025-07-24T19:15:38+01:00*
G04 #@! TF.ProjectId,MidiToCvLogic,4d696469-546f-4437-964c-6f6769632e6b,1.0*
G04 #@! TF.SameCoordinates,Original*
G04 #@! TF.FileFunction,Soldermask,Bot*
G04 #@! TF.FilePolarity,Negative*
%FSLAX46Y46*%
G04 Gerber Fmt 4.6, Leading zero omitted, Abs format (unit mm)*
G04 Created by KiCad (PCBNEW 8.0.0) date 2025-07-24 19:15:38*
%MOMM*%
%LPD*%
G01*
G04 APERTURE LIST*
G04 Aperture macros list*
%AMRoundRect*
0 Rectangle with rounded corners*
0 $1 Rounding radius*
0 $2 $3 $4 $5 $6 $7 $8 $9 X,Y pos of 4 corners*
0 Add a 4 corners polygon primitive as box body*
4,1,4,$2,$3,$4,$5,$6,$7,$8,$9,$2,$3,0*
0 Add four circle primitives for the rounded corners*
1,1,$1+$1,$2,$3*
1,1,$1+$1,$4,$5*
1,1,$1+$1,$6,$7*
1,1,$1+$1,$8,$9*
0 Add four rect primitives between the rounded corners*
20,1,$1+$1,$2,$3,$4,$5,0*
20,1,$1+$1,$4,$5,$6,$7,0*
20,1,$1+$1,$6,$7,$8,$9,0*
20,1,$1+$1,$8,$9,$2,$3,0*%
G04 Aperture macros list end*
%ADD10C,1.600000*%
%ADD11O,1.600000X1.600000*%
%ADD12R,1.600000X1.600000*%
%ADD13R,1.700000X1.700000*%
%ADD14O,1.700000X1.700000*%
%ADD15R,1.500000X1.050000*%
%ADD16O,1.500000X1.050000*%
%ADD17C,1.500000*%
%ADD18R,1.905000X2.000000*%
%ADD19O,1.905000X2.000000*%
%ADD20RoundRect,0.250000X0.625000X-0.350000X0.625000X0.350000X-0.625000X0.350000X-0.625000X-0.350000X0*%
%ADD21O,1.750000X1.200000*%
%ADD22RoundRect,0.250000X0.600000X-0.600000X0.600000X0.600000X-0.600000X0.600000X-0.600000X-0.600000X0*%
%ADD23C,1.700000*%
G04 APERTURE END LIST*
D10*
X60365000Y-77470000D03*
X65365000Y-77470000D03*
X62865000Y-135890000D03*
D11*
X62865000Y-128270000D03*
D10*
X50165000Y-105410000D03*
D11*
X50165000Y-97790000D03*
D10*
X50165000Y-61000000D03*
X50165000Y-63500000D03*
X45085000Y-115570000D03*
D11*
X45085000Y-107950000D03*
D12*
X39380000Y-36205000D03*
D11*
X39380000Y-38745000D03*
X39380000Y-41285000D03*
X39380000Y-43825000D03*
X47000000Y-43825000D03*
X47000000Y-41285000D03*
X47000000Y-38745000D03*
X47000000Y-36205000D03*
D12*
X46970000Y-56535000D03*
D11*
X46970000Y-53995000D03*
X46970000Y-51455000D03*
X46970000Y-48915000D03*
X39350000Y-48915000D03*
X39350000Y-51455000D03*
X39350000Y-53995000D03*
X39350000Y-56535000D03*
D13*
X43815000Y-33020000D03*
D14*
X46355000Y-33020000D03*
X48895000Y-33020000D03*
X51435000Y-33020000D03*
X53975000Y-33020000D03*
X56515000Y-33020000D03*
X59055000Y-33020000D03*
X61595000Y-33020000D03*
D10*
X54610000Y-46355000D03*
D11*
X54610000Y-53975000D03*
D10*
X62865000Y-105410000D03*
D11*
X62865000Y-97790000D03*
D10*
X50165000Y-68580000D03*
X50165000Y-66080000D03*
X60325000Y-97790000D03*
D11*
X60325000Y-105410000D03*
D12*
X41275000Y-94615000D03*
D11*
X43815000Y-94615000D03*
X46355000Y-94615000D03*
X48895000Y-94615000D03*
X51435000Y-94615000D03*
X53975000Y-94615000D03*
X56515000Y-94615000D03*
X56515000Y-86995000D03*
X53975000Y-86995000D03*
X51435000Y-86995000D03*
X48895000Y-86995000D03*
X46355000Y-86995000D03*
X43815000Y-86995000D03*
X41275000Y-86995000D03*
D10*
X52705000Y-107950000D03*
D11*
X52705000Y-115570000D03*
D10*
X50165000Y-115570000D03*
D11*
X50165000Y-107950000D03*
D10*
X42545000Y-107950000D03*
D11*
X42545000Y-115570000D03*
D10*
X45085000Y-105410000D03*
D11*
X45085000Y-97790000D03*
D10*
X59690000Y-88305000D03*
X59690000Y-93305000D03*
X52705000Y-128270000D03*
D11*
X52705000Y-135890000D03*
D10*
X50205000Y-57150000D03*
X55205000Y-57150000D03*
X62865000Y-115570000D03*
D11*
X62865000Y-107950000D03*
D10*
X47625000Y-118110000D03*
D11*
X47625000Y-125730000D03*
D15*
X56515000Y-133350000D03*
D16*
X56515000Y-132080000D03*
X56515000Y-130810000D03*
D12*
X46990000Y-46355000D03*
D11*
X39370000Y-46355000D03*
D17*
X53975000Y-67310000D03*
X53975000Y-62430000D03*
D10*
X47625000Y-107950000D03*
D11*
X47625000Y-115570000D03*
D10*
X40680000Y-71755000D03*
X45680000Y-71755000D03*
D15*
X56515000Y-113030000D03*
D16*
X56515000Y-111760000D03*
X56515000Y-110490000D03*
D10*
X60325000Y-107950000D03*
D11*
X60325000Y-115570000D03*
D10*
X60365000Y-74295000D03*
X65365000Y-74295000D03*
X42545000Y-128270000D03*
D11*
X42545000Y-135890000D03*
D13*
X61595000Y-139700000D03*
D14*
X59055000Y-139700000D03*
X56515000Y-139700000D03*
X53975000Y-139700000D03*
X51435000Y-139700000D03*
X48895000Y-139700000D03*
X46355000Y-139700000D03*
X43815000Y-139700000D03*
D12*
X58420000Y-36299657D03*
D11*
X58420000Y-38839657D03*
X58420000Y-41379657D03*
X58420000Y-43919657D03*
X58420000Y-46459657D03*
X58420000Y-48999657D03*
X58420000Y-51539657D03*
X58420000Y-54079657D03*
X58420000Y-56619657D03*
X58420000Y-59159657D03*
X58420000Y-61699657D03*
X58420000Y-64239657D03*
X58420000Y-66779657D03*
X58420000Y-69319657D03*
X66040000Y-69319657D03*
X66040000Y-66779657D03*
X66040000Y-64239657D03*
X66040000Y-61699657D03*
X66040000Y-59159657D03*
X66040000Y-56619657D03*
X66040000Y-54079657D03*
X66040000Y-51539657D03*
X66040000Y-48999657D03*
X66040000Y-46459657D03*
X66040000Y-43919657D03*
X66040000Y-41379657D03*
X66040000Y-38839657D03*
X66040000Y-36299657D03*
D12*
X46990000Y-69190343D03*
D11*
X46990000Y-66650343D03*
X46990000Y-64110343D03*
X46990000Y-61570343D03*
X39370000Y-61570343D03*
X39370000Y-64110343D03*
X39370000Y-66650343D03*
X39370000Y-69190343D03*
D10*
X47625000Y-97790000D03*
D11*
X47625000Y-105410000D03*
D10*
X60325000Y-118110000D03*
D11*
X60325000Y-125730000D03*
D10*
X50800000Y-43815000D03*
D11*
X50800000Y-36195000D03*
D10*
X42545000Y-118110000D03*
D11*
X42545000Y-125730000D03*
D15*
X56515000Y-123190000D03*
D16*
X56515000Y-121920000D03*
X56515000Y-120650000D03*
D10*
X47625000Y-128270000D03*
D11*
X47625000Y-135890000D03*
D12*
X46990000Y-74295000D03*
D11*
X39370000Y-74295000D03*
D10*
X60325000Y-128270000D03*
D11*
X60325000Y-135890000D03*
D15*
X56515000Y-102870000D03*
D16*
X56515000Y-101600000D03*
X56515000Y-100330000D03*
D10*
X54610000Y-36195000D03*
D11*
X54610000Y-43815000D03*
D10*
X45085000Y-135890000D03*
D11*
X45085000Y-128270000D03*
D10*
X40680000Y-59055000D03*
X45680000Y-59055000D03*
X42545000Y-97790000D03*
D11*
X42545000Y-105410000D03*
D10*
X45085000Y-125730000D03*
D11*
X45085000Y-118110000D03*
D10*
X52705000Y-118110000D03*
D11*
X52705000Y-125730000D03*
D10*
X50165000Y-125730000D03*
D11*
X50165000Y-118110000D03*
D10*
X52705000Y-97790000D03*
D11*
X52705000Y-105410000D03*
D10*
X50800000Y-46355000D03*
D11*
X50800000Y-53975000D03*
D10*
X50165000Y-135890000D03*
D11*
X50165000Y-128270000D03*
D10*
X62865000Y-125730000D03*
D11*
X62865000Y-118110000D03*
D18*
X50165000Y-72715000D03*
D19*
X52705000Y-72715000D03*
X55245000Y-72715000D03*
D20*
X64770000Y-92170000D03*
D21*
X64770000Y-90170000D03*
X64770000Y-88170000D03*
X64770000Y-86170000D03*
X64770000Y-84170000D03*
D22*
X53975000Y-81915000D03*
D23*
X53975000Y-79375000D03*
X51435000Y-81915000D03*
X51435000Y-79375000D03*
X48895000Y-81915000D03*
X48895000Y-79375000D03*
X46355000Y-81915000D03*
X46355000Y-79375000D03*
X43815000Y-81915000D03*
X43815000Y-79375000D03*
M02*
